<svg xmlns='http://www.w3.org/2000/svg' width='400' height='400'>
      <defs><style>.cls-path-cs4-male-8R{clip-path:url(#clip-path-cs4-male-8R)}.cls-path-cs4-male-8L{clip-path:url(#clip-path-cs4-male-8L)}.cls-multipy{mix-blend-mode: multiply;}.cls-softlight{mix-blend-mode: soft-light;}.cls-overlay{mix-blend-mode: overlay;}.cls-colorburn{mix-blend-mode: color-burn;}.cls-screen{mix-blend-mode: screen;}.cls-lighten{ mix-blend-mode: darken;}</style>
      <clipPath id="clip-path-cs4-male-8R"><path fill="#none" d="M253.87,170.92s-.57,2-1.3,4.27c-1,3.18-2.34,7.06-2.94,7.57-1,.87-20.76,4.19-32.1,0a23.5,23.5,0,0,1,2.38-4.38c2.81-4.15,8.29-9.74,17.44-9.78C251.88,168.54,253.87,170.92,253.87,170.92Z"></path></clipPath><clipPath id="clip-path-cs4-male-8L"><path fill="#none" d="M146.13,171.79s.57,2,1.3,4.28c1,3.18,2.34,7.06,2.94,7.56,1,.88,20.76,4.2,32.1,0a23.87,23.87,0,0,0-2.38-4.38c-2.81-4.14-8.29-9.73-17.44-9.77C148.12,169.41,146.13,171.79,146.13,171.79Z"></path></clipPath></defs><path fill="#010407" stroke="#000" stroke-miterlimit="10" stroke-width="1" d="M119.7,225.4c0,0,0.2,21.8-10.8,24s-12.5,0-12.5,0s3.9,9.6,15.2,7.4c0,0-28.7,19.9-10.8,46.1l6.7,7.4l-0.5-4.1  c0,0,4.8,8.6,11.1,9.7s6.1,0.6,6.1,0.6s11.4,14.9,20.2,13.6l6,0.8c0,0-5.9-6.7-4.6-12.9s5.6-24.1,0.3-31.1c0,0,4.4-17.7-6.1-32.5  s-0.1-26.1-2.9-30.4S121.3,217.5,119.7,225.4z" class="canChange" style="fill:null"></path><path fill="#010407" stroke="#000" stroke-miterlimit="10" stroke-width="1" d="M283.8,219.7c0,0-0.2,21.8,10.8,24s12.5,0,12.5,0s-3.9,9.6-15.1,7.4c0,0,28.7,19.9,10.8,46.1l-6.7,7.4l0.5-4.1  c0,0-4.8,8.6-11.1,9.7s-6.1,0.6-6.1,0.6s-11.4,14.9-20.2,13.6l-6,0.8c0,0,5.9-6.7,4.6-12.9s-5.6-24.1-0.3-31.1  c0,0-4.4-17.7,6.1-32.5c10.6-14.8,0.1-26.1,2.9-30.4S282.2,211.8,283.8,219.7z" class="canChange" style="fill:null"></path><path fill="#f0a99c" stroke="#000" stroke-miterlimit="10" d="M143.85,323.53C135,341.05,73.75,364,45.75,371s-46,29-46,29h400.5s-18-22-46-29-89.21-29.95-98.1-47.47" class="canChange" style="fill:null"></path><path fill="#f0a99c" stroke="#000" stroke-miterlimit="10" d="M256.75,334.5c-1.71-10.27-.32-21.32.67-31.59,1.12-11.72,2.89-23.37,4.08-35.09A345.78,345.78,0,0,0,262.75,233h-129c1,8.5,1.81,17.05,3,25.52,2,13.87,4.1,27.72,5.53,41.66,1.14,11.13,2.8,23.19.94,34.32" class="canChange" style="fill:null"></path><path fill="#59003c" opacity="0.5" d="M262.75,233a345.78,345.78,0,0,1-1.25,34.82c-1.19,11.72-3,23.37-4.08,35.09-.54,5.65-1.21,11.52-1.41,17.38-.11,1.1-.24,2.18-.36,3.24-.45,3.93-1,7.58-1.55,11-6.77,39.79-21,42.79-24.6,13a129.83,129.83,0,0,0-2.18-13,61.56,61.56,0,0,0-3.48-11c-5.6-12.73-14.62-16-28.34-16-11.26,0-19.34,8.55-24.27,16a60.65,60.65,0,0,0-5.73,11s-.2-4.71-.52-11c-.38-7.59-.93-17.46-1.48-24-.74-8.86-14.56-6.27-21.74-4.32-1.39-12.26-3.24-24.45-5-36.66-1.21-8.38-2-16.84-3-25.25l2.41-.27Z" class="cls-overlay"></path><polyline fill="#f0a99c" points="113.68 157.76 112.61 178.01 127.53 223.71 273.53 222.77 287.39 173.75 284.19 160.96 250.09 93.82 208.99 49.08 192.09 49.08" class="canChange" style="fill:null"></polyline><path fill="#f0a99c" stroke="#000" stroke-miterlimit="10" d="M202.14,49.06s55.41-3.19,75.66,36.24,9.59,87.38,9.59,87.38" class="canChange" style="fill:null"></path><path fill="#f0a99c" stroke="#000" stroke-miterlimit="10" d="M282.15,180.08s3.19-12.75,13.77-6.72c7.09,4,5.4,16.52,4.34,23.06-1.38,8.48-3.5,17.86-9.6,24.29-3.55,3.74-16.92,12-18.19,2.06" class="canChange" style="fill:null"></path><path fill="#f0a99c" stroke="#000" stroke-miterlimit="10" d="M294.52,178.94s-16,7-13.45,18.66,6.28,10,5.09,14.82" class="canChange" style="fill:null"></path><path fill="#f0a99c" stroke="#000" stroke-miterlimit="10" d="M293.48,200.7s6.34-17.21-4.86-18.24" class="canChange" style="fill:null"></path><path fill="#f0a99c" stroke="#000" stroke-miterlimit="10" d="M117.85,180.08s-3.19-12.75-13.77-6.72c-7.09,4-5.4,16.52-4.34,23.06,1.38,8.48,3.5,17.86,9.6,24.29,3.55,3.74,16.92,12,18.19,2.06" class="canChange" style="fill:null"></path><path fill="#f0a99c" stroke="#000" stroke-miterlimit="10" d="M105.48,178.94s16,7,13.45,18.66-6.28,10-5.09,14.82" class="canChange" style="fill:null"></path><path fill="#f0a99c" stroke="#000" stroke-miterlimit="10" d="M106.52,200.7s-6.34-17.21,4.86-18.24" class="canChange" style="fill:null"></path><path fill="#f0a99c" stroke="#000" stroke-miterlimit="10" d="M198.4,49.06h-.23s-55.42-3.19-75.66,36.24-9.59,87.38-9.59,87.38" class="canChange" style="fill:null"></path><path fill="#59003c" opacity="0.5" d="M300.26,196.42c-1.39,8.48-3.51,17.86-9.6,24.29-3.55,3.73-16.91,12-18.18,2.07l-11.11.07c.38-15.56,16.22-32.42,14.29-48.57-1.09-9.17-18.6-22.07-21.31-24.51a125.6,125.6,0,0,0,5.86-16.51,100.71,100.71,0,0,0,2.9-13.81c2.13-16.15-.7-33.3-21-36.28l-1.5.31c-2.23.46-6.84,1.35-13.15,2.26-13.27,1.91-34,3.93-55.94,2.22-2.31-.18-4.64-.39-7-.67-4.33-.49-8.68-1.15-13-2,0,0-14.37,15-12.14,36.84a48,48,0,0,0,2,9.44,58.07,58.07,0,0,0,7,14.46s-31.43,14.39-24,42.1c2.72,10.13,20.32,30,16.54,35.48l-13.36.09-.09-.3c-1.75,9-14.61,1-18.09-2.7-6.09-6.43-8.21-15.81-9.6-24.29-1.07-6.54-2.75-19,4.35-23.07,3.85-2.18,6.71-1.89,8.8-.63v-.09c-.38-1.76-10.26-48.65,9.6-87.33,20.25-39.43,75.67-36.24,75.67-36.24h4s2.58-.15,6.83,0h0c15.46.6,52.94,5.31,68.82,36.23,19.59,38.16,10.24,84.31,9.62,87.23,2.06-1.09,4.83-1.25,8.48.82C303,177.4,301.33,189.88,300.26,196.42Z" class="cls-overlay"></path><path fill="#fff" opacity="0.26" d="M284.29,214.19a3.28,3.28,0,0,0-2.07-2.37,4.42,4.42,0,0,0-3.2.1,2.81,2.81,0,0,0-1.78,1.73c-.24.93.25,1.88.4,2.83s0,2,.6,2.76a2.3,2.3,0,0,0,3,0C282.56,218.31,284.62,216,284.29,214.19Z" class="cls-softlight"></path><path fill="#fff" opacity="0.26" d="M115.23,214.19a3.27,3.27,0,0,1,2.06-2.37,4.45,4.45,0,0,1,3.21.1,2.8,2.8,0,0,1,1.77,1.73c.24.93-.25,1.88-.39,2.83s0,2-.61,2.76a2.28,2.28,0,0,1-3,0C117,218.31,114.9,216,115.23,214.19Z" class="cls-softlight"></path><path fill="#fff" opacity="0.26" d="M110.48,184.94s-4.26,7.46-1.06,19.18c0,0-5.11-7.27-4.69-11.1s.69-10,3.76-9.58S110.48,184.94,110.48,184.94Z" class="cls-softlight"></path><path fill="#fff" opacity="0.26" d="M289.25,184.94s4.27,7.46,1.07,19.18c0,0,5.1-7.27,4.68-11.1s-.69-10-3.75-9.58S289.25,184.94,289.25,184.94Z" class="cls-softlight"></path><path fill="#f0a99c" stroke="#000" stroke-miterlimit="10" d="M277.32,178s4,48-1.21,51.11S263.86,239.35,262,251.79s-9.58,33.65-21.19,37.69-12.89,7-17.77,8.74-23.07,3-23.07,3-18.2-1.24-23.07-3-6.16-4.69-17.77-8.74S139.79,264.23,138,251.79s-8.89-19.58-14.08-22.72S122.68,178,122.68,178" class="canChange" style="fill:null"></path><path fill="#59003c" opacity="0.5" d="M169.3,294a58.62,58.62,0,0,0-10.2-4.5c-11.61-4-19.37-25.25-21.19-37.69a32.71,32.71,0,0,0-9.49-19.15c5,1.12,12.26,4.41,17,13.85a37,37,0,0,1,2.33,5.78,50.15,50.15,0,0,1,1.52,6.22C153.44,281.43,165.05,291.13,169.3,294Z" class="cls-overlay"></path><path fill="#59003c" opacity="0.5" d="M271.4,232.68A32.68,32.68,0,0,0,262,251.79c-1.83,12.44-9.59,33.65-21.2,37.69a61.79,61.79,0,0,0-9.4,4c4.68-3.34,15.41-13.17,19.35-35,.15-.88.33-1.74.53-2.56A36.81,36.81,0,0,1,257,242.47,24.25,24.25,0,0,1,271.4,232.68Z" class="cls-overlay"></path><path fill="#fff" opacity="0" d="M275.06,212.55a350.16,350.16,0,0,1-79.1,8.67,361.37,361.37,0,0,1-64.84-5.7q-4.49-.83-8.83-1.75c-.24.69-.59,1.8-1,3.25.27,6.32,1,11.12,2.53,12a27,27,0,0,1,4.6,3.58,32.71,32.71,0,0,1,9.49,19.15c1.82,12.44,9.58,33.65,21.19,37.69a58.62,58.62,0,0,1,10.2,4.5l0,0c.54.31,1,.61,1.49.9l.06,0h0a29.73,29.73,0,0,0,6,3.28c4.88,1.76,23.07,3,23.07,3s18.2-1.25,23.08-3c3.05-1.11,4.69-2.67,8.32-4.67l0,0a61.79,61.79,0,0,1,9.4-4c11.61-4,19.37-25.25,21.2-37.69a32.68,32.68,0,0,1,9.43-19.11,27.08,27.08,0,0,1,4.65-3.62c1.93-1.17,2.6-8.57,2.66-17.39C277.5,212,276.29,212.27,275.06,212.55Zm-43.17,45.73c-.86,4-2,7.94-2.9,11.93-.84,3.78-1.12,8.28-2.92,11.75-1.94,3.72-6.82,9.93-11.34,6.16-1.95-1.62-2.41-4.94-2.72-7.31a57.71,57.71,0,0,1,.14-14l-22.52,1.3c.66,0,.47,12.93.35,14-.48,4.14-2.61,9.35-7.65,8-6.13-1.67-8.38-9.81-9.7-15.26-1.83-7.52-2.55-15.3-4.09-22.88-1.21-6-1-12.61,4.37-16.45,2.71-1.94,7.07-1,10.18-1.1l13.07-.22,16.2-.27c5-.08,10.27-.81,15,1,7.94,3,6,16.37,4.61,22.86Z" class="cls-multipy"></path><path fill="#0A0E26" stroke="#000" stroke-miterlimit="10" stroke-width="2" d="M299.4,205.9c0,0-0.9-6.1-15.5-10.7s-32.2-46.3-38.4-63.1c-6.2-16.8-8.1-38.9-8.1-38.9l-5.7,1.4  c0,0,9.1,25,8.2,42c0,0-12.9-34.4-20.4-37.3c-1.3-0.5-2.8-0.8-4.2-0.9c-6.8-0.5-14.1,2.7-14.1,2.7l-0.8-1.2l-2,1.7v-2.2l-2.1,2.7  l-4-2.2l0.4,2.6l-5.4-1.9l-1.9-0.7l1.3,2.6l-7.6-3.5l-2,1.5l-0.1,0.1c0,0-2.6,0.5-3.2-0.9c0,0-4-4.5-6.9-6c-1.1-0.5-2-0.7-2.6,0  c-2,2.4-14.3,12.4-19.8,23.4c0,0-1.6-11,11.6-22.9c-0.1,0.1-1.4,0.6-3.1,1.7c-0.3,0.2-0.5,0.3-0.8,0.5c-4.4,2.8-11,8.1-12.5,15.5  c-2.3,11.2-2.4,41.7-8.2,56.3c-5.8,14.5-11.5,33.6-21.2,38.6c-9.3,4.8-2.8,12.3-2.3,12.9c-0.9-0.9-16.8-17.7-12.4-34.1  c4.5-16.9,9.2-16.7,8.2-19.7s-9.8-30.1-0.9-56.6c8.6-25.6,22.7-57.7,55.5-66.7c1.1-0.3,2.2-0.6,3.4-0.8c0,0,1.4-1.3,4-3.1  c8.6-6.2,29.7-18.9,48.1-10.5c23.8,10.9,24.9,14.5,24.9,14.5s25.1,8.5,35.5,16.3s20.8,34.4,25.2,52.9c4.4,18.4,2.5,38,2.9,43.7  c0.4,5.7,4.1,19.2,6,29.6C310.1,195.1,299.4,205.9,299.4,205.9z" class="canChange" style="fill:null"></path><path fill="none" stroke="#000" stroke-miterlimit="10" d="M175.3,92.5c-2.2-3.3-2.7-7.5-2.1-11.4c0.7-3.9,2.4-7.5,4.5-10.9c4.8-7.7,11.9-14.5,20.7-16.1   c9.7-1.7,19.8,3.4,25.7,11.3c5.9,7.9,8,18.1,7.9,27.9"></path><path fill="none" stroke="#000" stroke-miterlimit="10" d="M167.9,77.4c0.4-9.9,3.5-20,10.1-27.5s16.8-12,26.6-10.4c3.2,0.5,6.2,1.6,9.1,3c3.7,1.8,7.1,4,10,6.8   c5.3,5.3,8.4,12.4,10,19.8s1.7,14.9,1.8,22.3"></path><path fill="none" stroke="#000" stroke-miterlimit="10" d="M163,77.9c0-7.6-0.1-15.3-0.1-22.9c0-2.2,0-4.4,0.6-6.5c0.6-1.9,1.7-3.7,2.9-5.3c6.8-8.7,17.9-13.4,28.9-13.7   s21.9,3.5,31.1,9.5c3.4,2.2,6.7,4.7,9.3,7.7c2.6,3,4.5,6.5,6.1,10.2c10.7,24.2,6.5,52.5,13.7,77.9c0.8,3,1.9,6,4.1,8.1"></path><path fill="none" stroke="#000" stroke-miterlimit="10" d="M251.1,64.4c17.6,15.7,27.5,38.8,30.4,62.2c2.1,17,0.9,34.8,7.8,50.5c0.6,1.4,1.5,2.9,3,3"></path><path fill="none" stroke="#000" stroke-miterlimit="10" d="M262.7,101.8c-2.3,21.9,0.6,44.4,8.4,65.1c3.7,9.7,8.8,19.4,17.5,24.9"></path><path fill="none" stroke="#000" stroke-miterlimit="10" d="M261.9,61.2c11.7,9.8,20.6,22.9,25.5,37.3c1.9,5.6,3.2,11.4,4.5,17.2c2.6,11.8,5.2,23.7,6.1,35.8"></path><path fill="none" stroke="#000" stroke-miterlimit="10" d="M157.7,83.4c-5.5-0.7-10.8,2.6-14.9,6.3c-8.1,7.2-14.3,16.5-18.5,26.5c-4.3,10-6.8,20.6-8.4,31.4   c-1.4,9.8-2.2,20.1-7.2,28.7c-1.9,3.2-5,6.4-8.7,6"></path><path fill="none" stroke="#000" stroke-miterlimit="10" d="M155.8,77.9c-9.9-1.7-20.4,1.5-28.4,7.7s-13.6,15.1-16.9,24.6c-6,17.2-4.7,35.9-5,54.2c0,1-0.7,2.5-1.6,2.1"></path><path fill="none" stroke="#000" stroke-miterlimit="10" d="M154.4,66.9c-2.1-2.1-5.1-2.9-8-2.8c-2.9,0.1-5.7,1.1-8.4,2.2c-7.4,3-14.5,7.3-19.3,13.7   c-7.9,10.4-8.6,24.7-15.3,36"></path><path fill="none" stroke="#000" stroke-miterlimit="10" d="M186.1,96.3c-0.8-6.9,0.7-14,4.1-20c0.8-1.4,1.7-2.7,2.8-3.7c2.7-2.3,6.7-2.7,10-1.6c3.3,1.2,6,3.8,7.7,6.9   c0-0.4,0.1-0.8,0.1-1.2c1.3,0.8,1.9,2.3,2.4,3.7c2.3,6.4,4.7,12.7,7,19.1c0.2,0.5,0.5,1,1,1"></path><path opacity="0.4" fill="#fff" d="M277.8,82.6l0.5,4c0.1,0.7,0.1,1.5-0.4,1.8c-0.5,0.4-1.6-0.1-2.2-0.7l-3.2-3c0.2,0.9,0.2,1.8,0.1,2.8   c-0.2,0.9-1,1.6-2,1.6c-0.5-0.1-1-0.4-1.4-0.7l-2.9-2.1c0.1,1.6,0,3.3-0.4,4.9c-3-1.2-5.9-2.8-8.5-4.8c0.3,1.9-0.1,4.5-2,4.5   c-0.5,0-1-0.2-1.5-0.5l-5-2.5c-2.3,1.1-5,0.5-6.7-1.4c-0.9,0.8,0,2.3,1,3.1l7.6,6.8l-0.1-1.9c4.2,2.4,7.7,5.6,10.5,9.6l0.1-3.4   l2.3,1.7c0.4-2,1.3-3.8,2.7-5.3c1,1.1,2.1,1.9,3.4,2.5c1.1-2.1,2.4-3.9,4.1-5.6c0.6-0.7,1.5-1.1,2.4-1c1.6,0.4,1.9,3.1,3.5,3   c-0.5-1.5,1.2-3,2.8-2.8c1.5,0.4,2.8,1.6,3.2,3.1l2.3-2.9l1.7,2.5c1-2.3,5.5-12.8-0.2-12c-2.4,0.3-2.9,3-5.6,2.7   C282.5,86.7,278,83.9,277.8,82.6z"></path><path opacity="0.4" fill="#fff" d="M103.8,124.9c-0.1,0.6,0.2,0.7,0.4,0.4l2.1-4.2l-0.6,8.3c0.6-1.3,1.3-2.7,1.9-4.2c0,3.2-0.1,6.4-0.3,9.5   c0.8-1.5,1.7-2.7,2.5-3.6l0.1,4.7c1.2,1.1,2.3-3.5,3.6-2.8c0,3,0,6-0.2,8.9c0.6-1,1.2-1.8,1.8-2.4l0.1,3.8l0.7-1.3   c0,1.5,0,3-0.1,4.4c0.3-2.2,0.7-4.1,1.2-5.7l0,4.5c0.3-1.7,0.7-3.1,1.1-4.3l0.1,7c0.6-1.9,1.1-3.9,1.7-5.9l-0.1,6.6l1.6-6.1   l0.4,8.8c0,0.6,0.1,1.2,0.2,1.6c0.2,0.4,0.4-0.2,0.5-0.8l0.7-2.7l0.5,4.4c0.7-2,1.4-4.3,2.1-6.9c0,2.1,0.1,4.1,0.3,6l0.2-3.9l0.1,3   c0.3-0.2,0.7-0.7,0.9-1.5l-0.1,7.3c0.2-1.5,0.4-2.8,0.7-4.1c0,4.4-0.2,8.7-0.6,12.7l-1.1-5.9l-0.3,3.3l-0.7-4   c0-0.2-0.1-0.4-0.1-0.5c-0.1-0.1-0.2,0.5-0.3,0.8c-0.3,1-0.6,1.2-1,0.5c-0.3-0.7-0.6-1.7-0.7-2.9c-0.1,2-0.5,3.5-1,3.7   c-0.5,0.1-1-1.1-1.2-3c-0.2,1-0.4,1.8-0.7,2.1c-0.3,0.1-0.6-0.5-0.7-1.6c-0.1-1-0.2-2.1-0.3-3.3c-0.3,1.9-0.7,3.6-1.1,5.2   c-0.2-2-0.4-4.2-0.4-6.4c-0.2,1.4-0.3,2.7-0.6,3.9c-0.1-2.2,0-4.5,0.1-6.7c-0.2,2-0.6,3.2-1.2,2.9c-0.1-1.2-0.1-2.5,0-3.7   c0,1.6-0.3,2.9-0.7,3.4l-0.1-2c-0.1,0.9-0.3,1.5-0.6,1.7c0-1.2,0-2.7,0-3.9c-0.6-0.2-1.1,0.3-1.6,1.6l-0.3-3.9   c0-0.5-0.1-0.9-0.2-1.3c-0.1-0.3-0.3-0.3-0.4-0.1c-0.4,0.3-0.8,0.7-1.1,1.2c-0.3-3.3,0.1-7,0.9-8.4c-0.8,1.5-1.6,3.4-2.3,5.6   l-0.1-3.2c-1,1.8-2,3.4-3,4.7c-0.5,0.6-1,1.2-1.5,0.5c0.5-3.1,0.7-6.8,0.5-10.4l-0.2,1.2c0-1.6,0-3.2,0.1-4.8l-0.7,0.7   c-0.1-0.6-0.1-1.2-0.1-1.9c-0.2,1.1-0.6,1.9-0.9,2.1l0.1-5.1c0-0.6,0-1.3,0.1-1.8C103.9,126.5,103.7,124.5,103.8,124.9z"></path><path opacity="0.4" fill="#fff" d="M293.8,146.7c1.2,2.1,2,4.4,2.5,6.8c-1.2-0.8-2.3-1.8-3.4-2.8c-0.1,1.7,0,3.4,0.3,5.1   c-0.9-0.6-1.6-1.5-1.8-2.6l-0.1,6.6c-1.2-1.3-2-3-2.5-4.7v6.1l-4.3-5.6c-0.1,2.7,0.1,5.3,0.6,7.9c-1.7-1.7-3.4-3.5-4.9-5.4l1.5,6.3   c-1.4-1.5-2.6-3.2-3.6-4.9c1.7,7.7,3,15.5,3.6,23.3c-0.2-3.2,0-6.4,0.6-9.5c1,0.9,1.8,1.9,2.4,3.1c0-2.4,0.2-4.8,0.6-7.2l2.5,2.4   c0.6-2.4,1.5-4.7,2.5-7l2.1,3.2l1-6.7c0.6,0.2,1.1,0.5,1.6,0.9c-0.6-0.5,3.6-8.5,3.8-9.7C299.6,148.2,296.8,148.5,293.8,146.7z"></path><path opacity="0.4" d="M215.2,98.2c-6.8-0.5-14.1,2.7-14.1,2.7l-0.8-1.2l-2,1.7v-2.2l-2.1,2.7l-4-2.2l0.4,2.6l-5.4-1.9  c-0.2-1.2-0.3-2.5-0.4-3.7c-0.2-2.6-0.4-5.3,0-7.9c0.3-2.2,1-4.2,1.7-6.3c0.7-2.1,1.5-4.4,3.4-5.6c1.3-0.8,2.9-1,4.4-1.1  c2.3-0.1,4.5,0,6.8,0.3c1.5,0.2,2.9,0.4,4.2,1.2c1.1,0.7,1.9,1.8,2.6,2.9C213.2,85.5,214,91.9,215.2,98.2z"></path><path opacity="0.4" d="M183.1,74.2c-0.5,1.7-1.9,2.8-3.1,4.2c-2.9,3.3-4.3,7.7-4.5,12.1c-0.1,3.3,0.4,6.6,1.4,9.8l-0.1,0.1  c0,0-2.6,0.5-3.2-0.9c0,0-4-4.5-6.9-6c0.3-0.6,0.6-1.2,0.9-1.8c-5.2-0.8-10.7,0.7-14.8,3.9c-0.6,0.5-1.2,1-1.8,1.6  c0.3-0.4,0.7-0.7,1-1.1c3.2-3.5,6.5-6.9,10.8-8.8c-4.5-0.5-9.1-0.9-13.5,0.2c-4.2,1-7.9,3.3-11.4,5.7c2.6-2.8,5.3-5.7,8.4-8  c3.1-2.3,6.7-4.1,10.5-4.5c-4.9-0.1-9.9,0.3-14.7,1.2c4.4-3.4,9.7-5.6,15.3-6.2c-7.1-3.7-14.8-6.3-22.7-6.9c0,0,0,0,0,0  c3.3-1.4,6.7-2.8,10.2-3.4c4.1-0.8,8.5-0.5,12.1,1.5c-5.4-4.2-12-7.5-18.8-7.3c5-1.6,10.1-3,15.3-4c1.1-0.2,2.3-0.4,3.3,0  c-2.7-1.2-5.5-2.4-8.5-2.9c-3-0.5-6.1-0.2-8.7,1.4c6.7-4.4,13.7-8.3,20.9-11.8c-0.7-0.1-1.5-0.2-2.2-0.3c1.1-0.3,2.2-0.6,3.4-0.8  c0,0,1.4-1.3,4-3.1c-2.3,4.2-3.5,9.1-4.3,13.9c4.1-4.9,9.2-8.9,15-11.7c-5.3,4.4-8.5,11.2-8.3,18.1c3.4-5.5,8.2-10.4,14.3-12.4  c-0.8,0.9-1.6,1.8-2.5,2.7c-2.8,3-5.7,6.2-7,10.1c-0.9,2.8-1,5.8-1,8.7c0,3.3,0,6.6,0.2,9.9c1.6-6.2,5.9-11.5,11.6-14.3  c-2.8,2.9-5.7,5.9-7.7,9.5c-2,3.6-2.9,7.9-1.7,11.8C176.2,80.5,179.3,76.8,183.1,74.2z"></path><path fill="#472121" stroke="#000" stroke-miterlimit="10" d="M268.19,176.4c-.36-.63-6.28-10.67-13.79-12.34-7.74-1.72-36.51,4.51-36.51,4.51a8.32,8.32,0,0,1-3.54-2.82,11.92,11.92,0,0,1-2-4.11l2.05-1.77a26.33,26.33,0,0,0,3.88,5.87c.23.28.38.44.38.44a4.48,4.48,0,0,1-.2-.44,23,23,0,0,1-1-6.2s22.72-3.71,34.36-2.86a15.76,15.76,0,0,1,5.26,1C261.09,159.62,267.88,175.65,268.19,176.4Z" class="canChange" style="fill:null"></path><path fill="#472121" stroke="#000" stroke-miterlimit="10" d="M187.47,161.14a12,12,0,0,1-1.68,3.78,8.43,8.43,0,0,1-3.77,3.2s-28.83-6-36.55-4.15c-7.49,1.74-13.31,11.84-13.66,12.47.3-.75,6.93-16.84,10.92-18.78,2.18-1.06,6.63-1.35,11.77-1.24a261.66,261.66,0,0,1,27.87,2.67,25.85,25.85,0,0,1-.76,5.58,5.31,5.31,0,0,1-.41,1.07s.35-.39.87-1a26,26,0,0,0,3.33-5.31Z" class="canChange" style="fill:null"></path><path opacity="0.32" d="M182.07,164.7l3.72.22a8.43,8.43,0,0,1-3.77,3.2s-28.83-6-36.55-4.15c-7.49,1.74-13.31,11.84-13.66,12.47.3-.75,6.93-16.84,10.92-18.78,2.18-1.06,6.63-1.35,11.77-1.24,1.92,3.32,4.46,6.56,7.09,6.87,3.23.37,12.71,1,20,1.38Z" class="cls-overlay"></path><path opacity="0.32" d="M268.19,176.4c-.36-.63-6.28-10.67-13.79-12.34-7.74-1.72-36.51,4.51-36.51,4.51a8.32,8.32,0,0,1-3.54-2.82c1.36,0,2.69,0,4,0h.18a61.84,61.84,0,0,0,9.47-.54c5.23-1.16,20.58-2.84,23.86-8.52a15.76,15.76,0,0,1,5.26,1C261.09,159.62,267.88,175.65,268.19,176.4Z" class="cls-overlay"></path><path fill="#72004d" opacity="0.17" d="M223.78,160.08a36,36,0,0,0-7.23,7.84c-1.86,2.67-4.33,5.89-3.51,9.22.64,2.61,2.93,4.69,5.29,6.13,0,0,1.34-4,2.8-4.92s14.07-6.52,16.91-5.18c0,0-8-6.91-2.93-8.71,0,0-9.32-.62,3.47-5.47-.37.14-2.53-.86-3-1a16.84,16.84,0,0,0-6.89-.28A11.21,11.21,0,0,0,223.78,160.08Z" class="cls-overlay"></path><g opacity="0.32" class="cls-overlay show"><path fill="#72004d" d="M215.67,175.27a23.14,23.14,0,0,1,7.67-8,35,35,0,0,1,10.21-4.56,31.77,31.77,0,0,1,11.15-.92,23.16,23.16,0,0,1,10.48,3.66,25.54,25.54,0,0,0-10.54-3.09,32.59,32.59,0,0,0-10.9,1.08,36,36,0,0,0-10.09,4.31c-.39.25-.79.48-1.17.74l-1.1.82a18.94,18.94,0,0,0-2.12,1.77,21.24,21.24,0,0,0-1.93,2,10,10,0,0,0-.85,1.09Z"></path></g><path opacity="0.32" d="M250.61,186.41s-4.26,2.75-11.72,1.83" class="cls-overlay"></path><path fill="#242424" d="M251.88,168.6s4.68,1.13,6.41.88l-4.42,3.44-3.37,9.58h1.56s-10.24,2.72-14.9,2.17-18.7-3.88-18.7-3.88,3.4-12.5,16.64-13S251.88,168.6,251.88,168.6Z"></path><path fill="#f0e1ef" d="M253.87,170.92s-.57,2-1.3,4.27c-1,3.18-2.34,7.06-2.94,7.57-1,.87-20.76,4.19-32.1,0a23.5,23.5,0,0,1,2.38-4.38c2.81-4.15,8.29-9.74,17.44-9.78C251.88,168.54,253.87,170.92,253.87,170.92Z"></path><g class="cls-path-cs4-male-8R show"><ellipse fill="#26477d" stroke="#000" stroke-miterlimit="10" cx="234.89" cy="175.95" rx="9.83" ry="8.44" transform="translate(-33.9 58.13) rotate(-13.17)" class="canChange" style="fill:null"></ellipse><ellipse cx="234.87" cy="175.09" rx="6.87" ry="5.9" transform="translate(-33.71 58.1) rotate(-13.17)"></ellipse></g><path opacity="0.4" d="M253.87,170.92s-.57,2-1.3,4.27c-12.27-2.84-24.86.35-32.66,3.19,2.81-4.15,8.29-9.74,17.44-9.78C251.88,168.54,253.87,170.92,253.87,170.92Z"></path><ellipse fill="#fff" cx="229.78" cy="174.59" rx="2.07" ry="1.62" transform="translate(-3.91 5.27) rotate(-1.3)"></ellipse><path fill="#72004d" opacity="0.17" d="M176.22,161a36,36,0,0,1,7.23,7.84c1.86,2.67,4.33,5.89,3.51,9.21-.64,2.61-2.93,4.7-5.29,6.13,0,0-1.34-4-2.8-4.92S164.8,172.71,162,174c0,0,8-6.9,2.93-8.7,0,0,9.32-.62-3.47-5.48.37.14,2.53-.85,3-1a16.84,16.84,0,0,1,6.89-.28A11.21,11.21,0,0,1,176.22,161Z" class="cls-overlay"></path><g opacity="0.32" class="cls-overlay show"><path fill="#72004d" d="M184.33,176.15l-.81-1.13a10,10,0,0,0-.85-1.09,21.24,21.24,0,0,0-1.93-2,18.94,18.94,0,0,0-2.12-1.77l-1.1-.82c-.38-.27-.78-.49-1.17-.74a36.06,36.06,0,0,0-10.09-4.32,32.85,32.85,0,0,0-10.9-1.07,25.68,25.68,0,0,0-10.54,3.08,23.26,23.26,0,0,1,10.48-3.65,31.77,31.77,0,0,1,11.15.92,34.72,34.72,0,0,1,10.21,4.56A23.14,23.14,0,0,1,184.33,176.15Z"></path></g><path opacity="0.32" d="M149.39,187.28s4.26,2.75,11.72,1.84" class="cls-overlay"></path><path fill="#242424" d="M148.12,169.48s-4.68,1.12-6.41.87l4.42,3.45,3.37,9.58h-1.56s10.24,2.71,14.9,2.17,18.7-3.88,18.7-3.88-3.4-12.51-16.64-13S148.12,169.48,148.12,169.48Z"></path><path fill="#f0e1ef" d="M146.13,171.79s.57,2,1.3,4.28c1,3.18,2.34,7.06,2.94,7.56,1,.88,20.76,4.2,32.1,0a23.87,23.87,0,0,0-2.38-4.38c-2.81-4.14-8.29-9.73-17.44-9.77C148.12,169.41,146.13,171.79,146.13,171.79Z"></path><g class="cls-path-cs4-male-8L show"><ellipse fill="#26477d" stroke="#000" stroke-miterlimit="10" cx="165.11" cy="176.83" rx="8.44" ry="9.83" transform="translate(-44.68 297.32) rotate(-76.83)" class="canChange" style="fill:null"></ellipse><ellipse cx="165.13" cy="175.97" rx="5.9" ry="6.87" transform="translate(-43.82 296.68) rotate(-76.83)"></ellipse></g><path opacity="0.4" d="M146.13,171.79s.57,2,1.3,4.28c12.27-2.85,24.86.35,32.66,3.18-2.81-4.14-8.29-9.73-17.44-9.77C148.12,169.41,146.13,171.79,146.13,171.79Z"></path><ellipse fill="#fff" cx="170.22" cy="175.47" rx="1.62" ry="2.07" transform="matrix(0.02, -1, 1, 0.02, -9.07, 341.65)"></ellipse><path fill="#8c2f72" opacity="0.6" d="M178.65,259.91s9,10.55,20.79,10.55,23.37-12.8,23.37-12.8Z" class="cls-multipy"></path><path fill="#ba7070" d="M166.08,245.33S178.89,268,199.44,268s33.36-22.71,33.36-22.71-11.09,1.13-20.89,2.62a82.29,82.29,0,0,1-27.53,0C175.44,246.37,167.23,245.74,166.08,245.33Z" class="canChange" style="fill:null"></path><path d="M199.16,252.7s-34.63-6-33.62-7.55,33.9,5.4,33.9,5.4,31.64-6,33.36-5.22C232.8,245.33,212.21,250.74,199.16,252.7Z"></path><path fill="#742637" d="M220.22,242.9c-16.25-1.6-20.78,1-20.78,1s-4.05-2.57-20.78-1c-8.92.86-15.17,1.24-15.17,1.24a5.43,5.43,0,0,0,1.77.91c1.77.65,5.17,1.53,11.56,2.15a127.64,127.64,0,0,1,22.62,4.57,127.64,127.64,0,0,1,22.62-4.57c11.46-1.1,13.33-3.06,13.33-3.06S229.14,243.79,220.22,242.9Z" class="canChange" style="fill:null"></path><path fill="#8c2f72" opacity="0.6" d="M231.28,243s5,.83,8,3.51c0,0-1.6-4.31-4.5-4.72S231.28,243,231.28,243Z" class="cls-multipy"></path><path fill="#8c2f72" opacity="0.6" d="M167.51,243s-5,.83-8,3.51c0,0,1.6-4.31,4.5-4.72S167.51,243,167.51,243Z" class="cls-multipy"></path><path fill="#ffd9d9" d="M209.17,254.63l3.22,3s8.13-3,10.42-5.86Z" class="cls-softlight"></path><path fill="#1f0502" stroke="#000" stroke-miterlimit="10" d="M241.83,246.56c-1.7,4.67-4.46-5.24-41.83-5.24s-40.13,9.91-41.83,5.24c-1.15-3.14,1.75-5.93,3.77-7.42a7.77,7.77,0,0,1,3.81-1.24c.69-.06,1.46-.15,2.27-.26,8.26-1.09,21.33-4.32,23.27-4.23a58.29,58.29,0,0,1,5.93.88,15.74,15.74,0,0,0,5.56,0,57.89,57.89,0,0,1,5.93-.88c2.13-.1,17.65,3.8,25.54,4.49A8,8,0,0,1,237.9,239l.16.11C240.08,240.63,243,243.42,241.83,246.56Z" class="canChange" style="fill:null"></path><path fill="#a847b4" opacity="0.32" d="M241.83,246.56c-1.7,4.67-4.46-5.24-41.83-5.24s-40.13,9.91-41.83,5.24c-1.15-3.14,1.75-5.93,3.77-7.42a7.77,7.77,0,0,1,3.81-1.24c.69-.06,1.46-.15,2.27-.26-2.16,1.91-4.89,4.64-2.75,4.51,3.29-.21,27.27-8.34,32.79-3.77,0,0,5.53-2.43,8.43-1.82s28.57,7.62,30.81,6.91c1.38-.44,1.06-2.74.6-4.44l.16.11C240.08,240.63,243,243.42,241.83,246.56Z" class="cls-multipy"></path><path fill="#00A99D" stroke="#000" stroke-miterlimit="10" stroke-width="2" d="M183.6,362.6l28.2,0.8l41,36.6H149.9 M391.9,392.7c-5.8-11.3-13.9-20.4-25.7-24.8c-11.1-4.2-22.8-7-34.4-10  c-8.9-2.3-18-3.9-27.1-5.8c-2.6,3.4-5.3,6.8-8,10c-12.6,14.8-27,27.5-43.8,37.9h104.1c-0.1-0.8-0.2-1.7-0.3-2.5c-0.2-1.6,0-3.3,0-5  c0.4,0,0.9-0.1,1.3-0.1c0.4,2.5,0.8,5,1.2,7.6h37.3C394.7,397.6,393.2,395.2,391.9,392.7z M110.1,369c-5-5.3-9.9-10.9-14.6-16.8  c-19.9,4.1-40.1,7.3-59.2,14.5c-10,3.8-18.3,10.1-24,19.5c-2.8,4.6-5.7,9.2-8.6,13.8h37.9c0.6-2.8,1.3-5.5,2-8.2  c0.4,1,0.5,2,0.4,2.9c-0.3,1.8-0.5,3.5-0.8,5.3H148C133.8,391.5,121.4,380.9,110.1,369z" class="canChange" style="fill:null"></path><path fill="#00A99D" stroke="#000" stroke-miterlimit="10" stroke-width="2" d="M191,362.3L151.3,400H148c0,0-56.8-43.4-54.6-52.2c2.2-8.8,19.4-7.1,25.3-17.7c6-10.6,4-17.8,10.9-18.7   c6.9-0.8,13.8-0.9,13.8-0.9l0.1,2.2l0.7,11.2l-3.8,3.6c0,0,1.1,1.5,3.2,3.9C150.5,339.1,167.5,356,191,362.3z"></path><path d="M140.5,327.6c0,0,1.1,1.5,3.2,3.9c-0.1,0.2-0.1,0.5-0.2,0.7c-2.5-2.4-3.8-4.3-6.3-6.7c-1.7-1.6-2.9-4.6-2.7-6.9   c0.1-1.4,1.1-2.6,2.2-3.4c1.2-0.8,2.5-1.3,3.8-1.7c1-0.3,1.9-0.6,2.9-0.7l0.7,11.2L140.5,327.6z"></path><path fill="#00A99D" stroke="#000" stroke-miterlimit="10" stroke-width="2" d="M209.4,362.3l39.7,37.7h3.4c0,0,56.8-43.4,54.6-52.2c-2.2-8.8-19.4-7.1-25.3-17.7c-6-10.6-4-17.8-10.9-18.7   c-6.9-0.8-13.8-0.9-13.8-0.9l-0.1,2.2l-0.7,11.2l3.8,3.6c0,0-1.1,1.5-3.2,3.9C249.9,339.1,232.9,355.9,209.4,362.3z"></path><path d="M259.9,327.5c0,0-1.1,1.5-3.2,3.9c0.1,0.2,0.1,0.5,0.2,0.7c2.5-2.4,3.8-4.3,6.3-6.7c1.7-1.6,2.9-4.6,2.7-6.9   c-0.1-1.4-1.1-2.6-2.2-3.4c-1.2-0.8-2.5-1.3-3.8-1.7c-1-0.3-1.9-0.6-2.9-0.7l-0.7,11.2L259.9,327.5z"></path><path fill="#400077" opacity="0.32" d="M400.8,400h-45c-4-31.6-46.1-37-59.2-37.9c-2.5-0.2-3.9-0.2-3.9-0.2c0.2-0.5,0.5-0.9,0.7-1.4h0  c0.6-1.3,1-2.5,1.3-3.6c0.1-0.5,0.2-1.1,0.3-1.6v0c0.3-2,0.2-3.8-0.3-5.4c-0.2-0.7-0.5-1.4-0.8-2v0c-1.9-3.7-5.9-6.4-10.8-8.3  c0,0,0,0,0,0c0,0,0,0,0,0c-0.9-0.3-1.8-0.6-2.7-0.9c-3.1-1-6.5-1.7-10-2.2c0,0,0,0,0,0c-0.2,0-0.4-0.1-0.7-0.1  c-2.3-0.4-4.7-0.6-7-0.8c0,0,0,0,0,0c-1.4-0.1-2.8-0.2-4.1-0.3c0,0,0,0,0,0h-0.1c0,0,0,0,0,0c-1.2-0.1-2.4-0.1-3.6-0.1  c3.9-3.2,6.1-5.3,6.1-5.3l-1.8-1.6c-0.2,0.2-0.3,0.5-0.5,0.7v-1.1l-2.2-2l0.5-15.3c2.2,0,4.5,0,6.7-0.1c6.9-0.1,12.3,2,14.3,8.6  c3.3,11.2,12,16.7,21.1,22.1c2.2,1.3,4.6,2.5,6.6,4.1c1,0.8,1.6,2.2,2.3,3.4c-0.3,0.3-0.6,0.7-0.9,1c4.7,1,9.4,1.9,14.1,3.1  c14.1,3.5,28.4,6.7,42.3,11c14,4.3,24,13.6,31.3,26.5C396.7,393.5,398.7,396.8,400.8,400z"></path><path fill="#400077" opacity="0.32" d="M155.4,346.5C155.4,346.5,155.4,346.5,155.4,346.5c-1.1,0.3-2.6,0.4-4.5,0.5c-2.2,0.1-4.8,0.2-7.7,0.3  c-0.8,0-1.6,0.1-2.4,0.1c0,0,0,0,0,0c-2.4,0.1-4.9,0.2-7.3,0.5c0,0,0,0,0,0c-0.3,0-0.6,0-0.8,0.1c-3,0.3-6.1,0.7-8.9,1.3  c0,0,0,0,0,0c-0.8,0.2-1.6,0.4-2.4,0.6c0,0,0,0,0,0c-6.3,1.7-11.1,4.5-12.1,9.4v0c-0.1,0.7-0.2,1.5-0.2,2.3c0,0,0,0,0,0  c0,0.6,0.1,1.2,0.3,1.9c0.3,1.7,1,3.5,2.1,5.6c0,0-0.4,0-1.2-0.1c-7.6-0.6-46.9-2.3-42.2,30.7c0,0.1,0,0.2,0,0.3H-0.8  c3-4.6,6-9.3,8.9-14c6.9-11.3,16.8-18.9,29.2-22.5c16.1-4.7,32.6-8.2,48.9-12.3c2-0.5,4.1-0.9,6.5-1.4c-0.1-1.2-0.2-2-0.4-3  c6.5-4.1,13-8.2,19.5-12.2c6.1-3.7,8.5-10,11.2-16c2.6-5.9,5.5-8.1,12.3-8.1c2.7,0,5.3,0,8,0l0.2,3.2v0l0.6,10.1l-1.6,1.5L140,328  c0,0,4.3,5.1,11.3,11.3c0.1,0.1,0.2,0.2,0.3,0.3c0.7,0.6,1.3,1.2,2,1.8c0.6,1,1.4,1.9,2.3,2.6l0,0  C157.8,345.3,157.3,346,155.4,346.5z"></path><g opacity="0.38" class="show"><path d="M211.67,206.66a14.6,14.6,0,0,1,3.12,1,6.29,6.29,0,0,1,1.42.9,2.84,2.84,0,0,1,.93,1.47,27.34,27.34,0,0,1,.84,6.54,21.74,21.74,0,0,1-.22,3.31,6.66,6.66,0,0,1-1.15,3.16,16.42,16.42,0,0,1-4.94,4.31,26.38,26.38,0,0,0,2.43-2.16,14.57,14.57,0,0,0,2-2.48,6.82,6.82,0,0,0,1-2.93,22.72,22.72,0,0,0,.14-3.2,30.25,30.25,0,0,0-.64-6.39c-.15-1-1.06-1.66-2-2.21A17.88,17.88,0,0,0,211.67,206.66Z"></path></g><g opacity="0.38" class="show"><path d="M188.33,207.42a17.88,17.88,0,0,0-3,1.34c-.91.55-1.82,1.18-2,2.21a30.25,30.25,0,0,0-.64,6.39,22.72,22.72,0,0,0,.14,3.2,6.9,6.9,0,0,0,1,2.94,14.9,14.9,0,0,0,2,2.47,25,25,0,0,0,2.43,2.16,16.28,16.28,0,0,1-4.94-4.31,6.66,6.66,0,0,1-1.15-3.16,21.66,21.66,0,0,1-.22-3.31,27.4,27.4,0,0,1,.84-6.54,2.84,2.84,0,0,1,.93-1.47,6.29,6.29,0,0,1,1.42-.9A15.18,15.18,0,0,1,188.33,207.42Z"></path></g><g opacity="0.38" class="show"><path d="M210.69,227.06c.72-.61,1.41-1.24,2.07-1.91a12.78,12.78,0,0,0,.91-1,2,2,0,0,0,.51-1.13c0-.28-.61-.33-1-.28a4.87,4.87,0,0,0-1.28.35,13.17,13.17,0,0,0-2.33,1.46c-1.45,1.15-2.82,2.41-4.17,3.72-.68.64-1.33,1.31-2.08,1.93a3,3,0,0,1-.7.44,3,3,0,0,1-.76.17,9,9,0,0,1-1.46,0c-.46,0-.92,0-1.43-.07a2.89,2.89,0,0,1-1.48-.57l-2.09-1.94a50.13,50.13,0,0,0-4.16-3.71A13.6,13.6,0,0,0,188.9,223a4.15,4.15,0,0,0-1.27-.35c-.41,0-1,0-1,.29a1.89,1.89,0,0,0,.5,1.13,11.22,11.22,0,0,0,.92,1c.65.67,1.34,1.3,2.06,1.91a23.55,23.55,0,0,1-2.2-1.76,10.71,10.71,0,0,1-1-1,4.48,4.48,0,0,1-.43-.59,1.19,1.19,0,0,1-.21-.77.75.75,0,0,1,.63-.59,3.29,3.29,0,0,1,.76-.06,4.4,4.4,0,0,1,1.44.34,13.22,13.22,0,0,1,2.48,1.43,41,41,0,0,1,4.3,3.69l2,1.86a4.19,4.19,0,0,0,2.5.47,8.62,8.62,0,0,0,1.35,0,2.87,2.87,0,0,0,.61-.12,3.6,3.6,0,0,0,.48-.32c.7-.57,1.38-1.23,2.06-1.87a44.59,44.59,0,0,1,4.3-3.68,13.3,13.3,0,0,1,2.49-1.43,5,5,0,0,1,1.43-.34,2.81,2.81,0,0,1,.76.05.76.76,0,0,1,.64.59,1.25,1.25,0,0,1-.22.77,3.72,3.72,0,0,1-.43.59,10.71,10.71,0,0,1-1,1A23.55,23.55,0,0,1,210.69,227.06Z"></path></g><path fill="#72004d" opacity="0.17" d="M183.34,223.21s5.32-3,10.42,0c2.26,1.33,7.67,3.11,12.14,1.06,5.77-2.67,11.07-4.77,11.42-3.75.62,1.82-10.6,17.24-16.92,18.34S183.34,223.21,183.34,223.21Z" class="canChange cls-overlay" style="fill:null"></path><path fill="#72004d" opacity="0.17" d="M194.6,199.79s-5.54,7-5.54,9.22,3.45,8.76,3.45,8.76S192.12,204.19,194.6,199.79Z" class="canChange cls-overlay" style="fill:null"></path><path fill="#72004d" opacity="0.17" d="M205.31,199s5.54,7,5.54,9.22S207.4,217,207.4,217,207.79,203.43,205.31,199Z" class="canChange cls-overlay" style="fill:null"></path><path opacity="0.42" d="M187.92,225s4.36.88,6.42,1.61c0,0-6.05-5.17-7.75-4C186.59,222.65,186.28,223.9,187.92,225Z" class="cls-overlay"></path><path opacity="0.42" d="M212.9,225s-4.36.88-6.43,1.61c0,0,6.06-5.17,7.75-4C214.22,222.65,214.53,223.9,212.9,225Z" class="cls-overlay"></path><path fill="#72004d" opacity="0.17" d="M206.79,172.53a9.5,9.5,0,0,0-.84,9.6l1.69,3.2S204.26,178.93,206.79,172.53Z" class="canChange cls-overlay" style="fill:null"></path><path fill="#72004d" opacity="0.17" d="M189.92,169.33A16.19,16.19,0,0,1,195,181.06c0,7.46-2,19.64-2,19.64s.36-13.24-.48-20.71S189.92,169.33,189.92,169.33Z" class="canChange cls-overlay" style="fill:null"></path></svg>