<svg xmlns='http://www.w3.org/2000/svg' width='400' height='400'>
      <defs><style>.cls-path-cs4-male-8R{clip-path:url(#clip-path-cs4-male-8R)}.cls-path-cs4-male-8L{clip-path:url(#clip-path-cs4-male-8L)}.cls-multipy{mix-blend-mode: multiply;}.cls-softlight{mix-blend-mode: soft-light;}.cls-overlay{mix-blend-mode: overlay;}.cls-colorburn{mix-blend-mode: color-burn;}.cls-screen{mix-blend-mode: screen;}.cls-lighten{ mix-blend-mode: darken;}</style>
      <clipPath id="clip-path-cs4-male-8R"><path fill="#none" d="M253.87,170.92s-.57,2-1.3,4.27c-1,3.18-2.34,7.06-2.94,7.57-1,.87-20.76,4.19-32.1,0a23.5,23.5,0,0,1,2.38-4.38c2.81-4.15,8.29-9.74,17.44-9.78C251.88,168.54,253.87,170.92,253.87,170.92Z"></path></clipPath><clipPath id="clip-path-cs4-male-8L"><path fill="#none" d="M146.13,171.79s.57,2,1.3,4.28c1,3.18,2.34,7.06,2.94,7.56,1,.88,20.76,4.2,32.1,0a23.87,23.87,0,0,0-2.38-4.38c-2.81-4.14-8.29-9.73-17.44-9.77C148.12,169.41,146.13,171.79,146.13,171.79Z"></path></clipPath></defs><path fill="#de9178" stroke="#000" stroke-miterlimit="10" d="M143.85,323.53C135,341.05,73.75,364,45.75,371s-46,29-46,29h400.5s-18-22-46-29-89.21-29.95-98.1-47.47" class="canChange" style="fill:null"></path><path fill="#de9178" stroke="#000" stroke-miterlimit="10" d="M256.75,334.5c-1.71-10.27-.32-21.32.67-31.59,1.12-11.72,2.89-23.37,4.08-35.09A345.78,345.78,0,0,0,262.75,233h-129c1,8.5,1.81,17.05,3,25.52,2,13.87,4.1,27.72,5.53,41.66,1.14,11.13,2.8,23.19.94,34.32" class="canChange" style="fill:null"></path><path fill="#59003c" opacity="0.5" d="M262.75,233a345.78,345.78,0,0,1-1.25,34.82c-1.19,11.72-3,23.37-4.08,35.09-.54,5.65-1.21,11.52-1.41,17.38-.11,1.1-.24,2.18-.36,3.24-.45,3.93-1,7.58-1.55,11-6.77,39.79-21,42.79-24.6,13a129.83,129.83,0,0,0-2.18-13,61.56,61.56,0,0,0-3.48-11c-5.6-12.73-14.62-16-28.34-16-11.26,0-19.34,8.55-24.27,16a60.65,60.65,0,0,0-5.73,11s-.2-4.71-.52-11c-.38-7.59-.93-17.46-1.48-24-.74-8.86-14.56-6.27-21.74-4.32-1.39-12.26-3.24-24.45-5-36.66-1.21-8.38-2-16.84-3-25.25l2.41-.27Z" class="cls-overlay"></path><polyline fill="#de9178" points="113.68 157.76 112.61 178.01 127.53 223.71 273.53 222.77 287.39 173.75 284.19 160.96 250.09 93.82 208.99 49.08 192.09 49.08" class="canChange" style="fill:null"></polyline><path fill="#de9178" stroke="#000" stroke-miterlimit="10" d="M202.14,49.06s55.41-3.19,75.66,36.24,9.59,87.38,9.59,87.38" class="canChange" style="fill:null"></path><path fill="#de9178" stroke="#000" stroke-miterlimit="10" d="M282.15,180.08s3.19-12.75,13.77-6.72c7.09,4,5.4,16.52,4.34,23.06-1.38,8.48-3.5,17.86-9.6,24.29-3.55,3.74-16.92,12-18.19,2.06" class="canChange" style="fill:null"></path><path fill="#de9178" stroke="#000" stroke-miterlimit="10" d="M294.52,178.94s-16,7-13.45,18.66,6.28,10,5.09,14.82" class="canChange" style="fill:null"></path><path fill="#de9178" stroke="#000" stroke-miterlimit="10" d="M293.48,200.7s6.34-17.21-4.86-18.24" class="canChange" style="fill:null"></path><path fill="#de9178" stroke="#000" stroke-miterlimit="10" d="M117.85,180.08s-3.19-12.75-13.77-6.72c-7.09,4-5.4,16.52-4.34,23.06,1.38,8.48,3.5,17.86,9.6,24.29,3.55,3.74,16.92,12,18.19,2.06" class="canChange" style="fill:null"></path><path fill="#de9178" stroke="#000" stroke-miterlimit="10" d="M105.48,178.94s16,7,13.45,18.66-6.28,10-5.09,14.82" class="canChange" style="fill:null"></path><path fill="#de9178" stroke="#000" stroke-miterlimit="10" d="M106.52,200.7s-6.34-17.21,4.86-18.24" class="canChange" style="fill:null"></path><path fill="#de9178" stroke="#000" stroke-miterlimit="10" d="M198.4,49.06h-.23s-55.42-3.19-75.66,36.24-9.59,87.38-9.59,87.38" class="canChange" style="fill:null"></path><path fill="#59003c" opacity="0.5" d="M300.26,196.42c-1.39,8.48-3.51,17.86-9.6,24.29-3.55,3.73-16.91,12-18.18,2.07l-11.11.07c.38-15.56,16.22-32.42,14.29-48.57-1.09-9.17-18.6-22.07-21.31-24.51a125.6,125.6,0,0,0,5.86-16.51,100.71,100.71,0,0,0,2.9-13.81c2.13-16.15-.7-33.3-21-36.28l-1.5.31c-2.23.46-6.84,1.35-13.15,2.26-13.27,1.91-34,3.93-55.94,2.22-2.31-.18-4.64-.39-7-.67-4.33-.49-8.68-1.15-13-2,0,0-14.37,15-12.14,36.84a48,48,0,0,0,2,9.44,58.07,58.07,0,0,0,7,14.46s-31.43,14.39-24,42.1c2.72,10.13,20.32,30,16.54,35.48l-13.36.09-.09-.3c-1.75,9-14.61,1-18.09-2.7-6.09-6.43-8.21-15.81-9.6-24.29-1.07-6.54-2.75-19,4.35-23.07,3.85-2.18,6.71-1.89,8.8-.63v-.09c-.38-1.76-10.26-48.65,9.6-87.33,20.25-39.43,75.67-36.24,75.67-36.24h4s2.58-.15,6.83,0h0c15.46.6,52.94,5.31,68.82,36.23,19.59,38.16,10.24,84.31,9.62,87.23,2.06-1.09,4.83-1.25,8.48.82C303,177.4,301.33,189.88,300.26,196.42Z" class="cls-overlay"></path><path fill="#fff" opacity="0.26" d="M284.29,214.19a3.28,3.28,0,0,0-2.07-2.37,4.42,4.42,0,0,0-3.2.1,2.81,2.81,0,0,0-1.78,1.73c-.24.93.25,1.88.4,2.83s0,2,.6,2.76a2.3,2.3,0,0,0,3,0C282.56,218.31,284.62,216,284.29,214.19Z" class="cls-softlight"></path><path fill="#fff" opacity="0.26" d="M115.23,214.19a3.27,3.27,0,0,1,2.06-2.37,4.45,4.45,0,0,1,3.21.1,2.8,2.8,0,0,1,1.77,1.73c.24.93-.25,1.88-.39,2.83s0,2-.61,2.76a2.28,2.28,0,0,1-3,0C117,218.31,114.9,216,115.23,214.19Z" class="cls-softlight"></path><path fill="#fff" opacity="0.26" d="M110.48,184.94s-4.26,7.46-1.06,19.18c0,0-5.11-7.27-4.69-11.1s.69-10,3.76-9.58S110.48,184.94,110.48,184.94Z" class="cls-softlight"></path><path fill="#fff" opacity="0.26" d="M289.25,184.94s4.27,7.46,1.07,19.18c0,0,5.1-7.27,4.68-11.1s-.69-10-3.75-9.58S289.25,184.94,289.25,184.94Z" class="cls-softlight"></path><path fill="#de9178" stroke="#000" stroke-miterlimit="10" d="M274.11,179.32s21,43.91,14.32,72.77-33.24,46-88.43,47.78c-55.19-1.74-81.76-18.93-88.43-47.78s14.32-72.77,14.32-72.77" class="canChange" style="fill:null"></path><path fill="#59003c" opacity="0.5" d="M130.61,192.85c-.22,1.87-1.33,4.56-2.9,7.91-7.23,15.45-24.15,44.73-7.77,70a50.88,50.88,0,0,1-8.37-18.71c-3.82-16.51,1.42-37.94,6.6-53.26a195,195,0,0,1,7.72-19.51h1.31C129.35,183.19,131.17,188.05,130.61,192.85Z" class="cls-overlay"></path><path fill="#59003c" opacity="0.5" d="M288.43,252.09A52.07,52.07,0,0,1,283,266.3c12.77-26-6-55-11.7-68.6a19.78,19.78,0,0,1-1.52-4.85c-.57-4.8,1.25-9.66,3.41-13.53h1s3.07,6.43,6.5,16C286.12,210.71,292.55,234.27,288.43,252.09Z" class="cls-overlay"></path><path fill="#fff" opacity="0" d="M280.61,195.3c-.74.22-1.48.41-2.22.61q-3.52.93-7.13,1.79a343.42,343.42,0,0,1-79,8.9,351.68,351.68,0,0,1-64.54-5.84q-3.06-.56-6.07-1.19l-3.47-.74c-5.18,15.32-10.42,36.75-6.6,53.26a50.88,50.88,0,0,0,8.37,18.71v0c12.72,17.49,38.13,27.73,80.05,29.05,45.4-1.43,71.42-13.32,82.94-33.54l0,0a52.07,52.07,0,0,0,5.47-14.21C292.55,234.27,286.12,210.71,280.61,195.3ZM216,290.12c-9.2,1.6-6.13-27.3-6.13-27.3l-24.53,1.6s3.07,28.92-6.14,27.3-44.54-41.77-43-62.64c0,0-1.54-8,59.89-3.21l3-1.61c61.44-4.8,59.89,3.22,59.89,3.22C260.56,248.37,225.24,288.51,216,290.12Z" class="cls-multipy"></path><path fill="#1A1817" stroke="#000" stroke-miterlimit="10" stroke-width="2" d="M291,172.3c1-2.6,2.5-4.6,2.5-7.5s-1.1-5.8-1-8.7c0.1-3.4,1.2-6.7,1.9-10c0.8-3.5,0.5-6.9,0.5-10.5  c0.1-7.4,0.7-14.8,0.8-22.2c-2.1-6.2-1.2-12.8-2-19.2c-0.1-1.1-0.4-2.2-0.8-3.2c-0.8-1.3-1.8-2.5-3-3.5c-0.8,0.6-2.4,0-2.9-0.8  c-0.4-0.9-0.7-1.8-0.7-2.8c-0.2-2.1-1.2-4.1-2.8-5.5c-0.5-0.4-1.1-0.7-1.6-1.1c-0.6-0.5-1-1-1.5-1.6c-1.9-2.5-3.6-5.1-5-7.9  c-2.3-4.2-6.1-7.2-10.6-8.6c-2.2-0.7-4.5-1.4-6.3-2.8c-0.8-0.7-1.5-1.5-2.4-2.1c-2-1.5-4.7-1.9-7.1-1.2c-1.3-0.3-2.6-0.9-3.6-1.8  c-1.2-1.4-2.3-2.9-3.1-4.5c-2.3-3.5-5.5-6.3-9.3-8.1c-0.8-0.4-1.7-0.7-2.5-1.2c-5.2-2.9-11.6-2.7-16.6,0.4c-1.1-0.6-2.2-1.1-3.3-1.6  c-1.2-0.7-2.5-1.3-3.8-1.8c-1.9-0.7-3.9-1.1-5.9-1.3c-0.6-0.1-1.5-0.3-1.5-1c-6.5,0.3-13.3-0.8-19.4,1.5c-0.4,0.2-0.9,0.5-0.7,0.9  c-3.3,0.4-6.7,0.2-9.9-0.5c-1-0.3-2.1-0.4-3.2-0.4c-1.1,0-2.1,0.6-2.6,1.5c-3.1-0.1-5.9,1.9-8.8,3.2c-1.8,0.8-3.6,1.4-5.5,1.8  c-1.8,0.4-3.6,0.5-5.3,0.2c-0.6-0.1-1.3-0.2-1.9-0.2c-2,0.1-3.7,1.8-3.8,3.8c-3.1,0.3-6.1,1.5-8.6,3.2c-2.5,1.9-4.1,4.8-4.4,7.9  c-1.1,1.2-2.3,2.3-3.7,3.2c-1.2,0.9-2.6,1.5-3.9,2.3c-3.7,2.4-6.8,5.6-9,9.5c-0.8,0.3-1.2,1.2-1.7,1.9c-1.7,2.5-3.1,5.3-3.9,8.2  c-0.9,3-0.9,6.1,0,9.1l-0.3-0.2c-2.9,5.9-2.2,14.1,1,19.8c0.8,1.5,1.9,3.3,1,4.8c0,3-0.2,5.9-0.7,8.9c-0.3,1.6-0.5,3.2-0.5,4.8  c0,1.6,0.5,3.2,1.6,4.5c-0.2,2.5,0,5.1,0.4,7.5c0.1,1,0.6,1.9,1.3,2.6c-0.1,5.7,0.3,11.4,1.4,16.9c0.4,1.7,0.8,3.5,0.1,5.1  c-0.4,1,0.4,2.1,0.6,3.2c0.1,0.6-0.1,1.2-0.4,1.6c-0.4,0.4-0.7,0.9-1,1.5c-0.2,0.7,0.2,1.4,0.8,1.7c2.3,0.9,4.7,0.5,6.8,1.8  c1,0.6,1.9,1.4,2.6,2.3c0.6,0.9,1,1.8,1.3,2.8l1.5,4.3c0.8-2.5,3.1-4.8,4.5-7c1.3-2.1,2.3-4.3,3.1-6.7c0.8-1.9,1.3-3.9,1.3-5.9  c0-1.8,0.4-3.5,1.4-5c0.3-0.6,0.7-1.1,1-1.7c0.4-1,0.6-2.1,0.7-3.1c0.3-1.4,0.7-2.7,1.4-3.9c1.7-3.2,3-6.5,4.6-9.7  c0.5-0.9,0.9-1.9,1.2-2.8c0.3-1.4,0.4-2.9,0.5-4.3c0.2-1.9,0.7-3.7,1.3-5.5c-0.3,0.8-0.9,1.5-1.6,2c0-2.7,0.3-5.5,0.9-8.1  c-1.2,0.3-1.9,1.4-2.8,2.2c-0.2,0.1-0.3,0.3-0.5,0.3c-0.5,0.1-0.9-0.3-1.2-0.8c-0.9-1.9-1.4-3.9-1.4-6c-0.2-2.4-0.1-4.9,0.2-7.3  c0.1-1.4,0.4-2.9,0.9-4.2c1.3-3.7,4.2-6.6,7.9-8c4.1-1.5,8.8-1,12.5,1.3c2.2-0.5,3.3-3.2,5.4-4c0.7-0.3,1.5-0.4,2.3-0.4  c2.1-0.1,4.3-0.1,6.5,0c4.7,0.2,9.7,0.8,13.8-1.4c3.2-1.8,6.9-2.7,10.6-2.7c3.7,0,7.5,0.5,11.1,0c2.1-0.3,4.1-0.3,6-1.1  c1.7-0.8,2.6-2.7,2.1-4.6c0.9,1,2.2,1.5,3.6,1.3c0.1-0.8-0.1-1.6,0-2.5s0.6-1.7,1.4-1.8s1.5,0.8,2.2,1.4c1.2,0.8,2.9,0.5,3.8-0.7  c0.4-0.5,0.5-1.2,0.4-1.8c1.5-0.2,3.3,0.3,4.3-0.8c0.4-0.4,0.5-1,0.9-1.4c0.6-0.6,1.7-0.6,2.5-0.7s1.9-1,1.5-1.8  c1.5,0,2.9,0.4,4.1,1.2l-3.5,1.4c1,1.2,2.1,2.3,3.3,3.2l-3.5,0.2c0.5,3.7,2.5,7.1,5.6,9.3c2.5,1.8,3.2,5.3,5.8,7  c1.4,0.9,3,2,2.8,3.6l-3.4,0.1l6.1,5.1c1,0.8,1.9,1.7,2.7,2.7c3,4,6.5,7.6,6.7,12.5c-1.2-0.8-2.3-1.7-3.3-2.8  c-0.2,1.8-0.4,3.6-0.6,5.4c-0.2,1.2-0.2,2.4-0.1,3.6c0.5,1.9,1.4,3.7,2.7,5.2c2.8,3.9,3.2,8.9,6.2,12.6c1,1.1,1.8,2.2,2.6,3.4  c1.1,1.8,1.6,4,2.6,5.9c1.5,2.7,1.5,6,2.5,8.9c0.7,1.7,1.2,3.5,1.5,5.2c0.1,1.2,0.2,2.4,0.5,3.5c0.5,1.4,1.5,2.6,2.1,4  c0.8,1.8,0.9,3.8,0.2,5.7c1.8-3,4.5-5,7-7.4c1.3-1.4,3-2.5,4.9-3C290.6,172.3,290.8,172.3,291,172.3z" class="canChange" style="fill:null"></path><path fill="none" stroke="#000" stroke-miterlimit="10" d="M204.7,85.3c-13.2-8-27.7-13.9-42.8-17.2c-10-2.2-20.4-3.3-30.4-1.1s-19.4,8.3-23.9,17.5"></path><path fill="none" stroke="#000" stroke-miterlimit="10" d="M196.9,86.9c-9.5,2-19.5,2.2-29.1,0.5c-6.6-1.2-13.1-3.2-19.7-4.5c-6.6-1.3-13.5-1.8-20-0.1   c-6,1.6-11.3,5.2-15.1,10.1s-5.9,11-6,17.2"></path><path fill="none" stroke="#000" stroke-miterlimit="10" d="M126.4,54.7c14.1-3.8,29.4-2.7,42.8,3.3c4.3,1.9,8.4,4.3,12.7,6.2c2.2,1,4.5,1.8,6.6,3.1   c2,1.2,3.8,2.8,5.7,4.2c3.7,2.8,7.7,5.1,11.9,6.8c1.8,0.7,3.9,1.4,5.8,0.8"></path><path fill="none" stroke="#000" stroke-miterlimit="10" d="M148,41.4c12.1-0.7,24.6,1.9,35,8.2c5.5,3.4,10.3,7.7,15.7,11.4c5.3,3.7,11.4,6.7,17.8,6.9   c0.4,0,0.9,0,1.2-0.4"></path><path fill="none" stroke="#000" stroke-miterlimit="10" d="M223.3,68.5c-0.1-1.8-0.8-3.5-1.5-5.1c-2.2-5.3-4.5-10.8-8.6-14.8c-4.5-4.4-10.7-6.6-16.8-8.1   c-6.1-1.4-12.5-2.2-18.4-4.4"></path><path fill="none" stroke="#000" stroke-miterlimit="10" d="M215.5,39c9.9,4.9,16.5,15.8,16.3,26.9"></path><path fill="none" stroke="#000" stroke-miterlimit="10" d="M241,44.6c0.6,3.3,1.2,6.6,1.2,10s-0.7,6.8-2.5,9.6c-0.3,0.5-0.8,1-1.4,1"></path><path fill="none" stroke="#000" stroke-miterlimit="10" d="M240.2,83.5c3.7,4.7,7.5,9.3,11.5,13.7c6.7,7.4,14.4,14.7,24.1,17.3c3.9,1,8.3,1.4,11.3,4.2"></path><path fill="none" stroke="#000" stroke-miterlimit="10" d="M241.7,76.1c9.4,4.7,19,9.4,26.6,16.7c6.1,5.8,10.8,13.2,18,17.6"></path><path fill="none" stroke="#000" stroke-miterlimit="10" d="M242.7,68.7c4.8-1.1,9.7-2.2,14.7-2.3c5-0.1,10.1,0.9,14.2,3.7c5.4,3.7,8.3,10,10.5,16.2   c2.2,6.2,4,12.7,8,17.8"></path><path fill="none" stroke="#000" stroke-miterlimit="10" d="M107.1,165c-0.5-13.5,1.7-27.7,10-38.3c1.5-1.9,3.1-3.6,4.3-5.6"></path><path fill="none" stroke="#000" stroke-miterlimit="10" d="M110.3,170.6c2.3-4.6,6.6-7.7,9.7-11.8c5.6-7.4,6.6-17.2,9-26.2"></path><path fill="none" stroke="#000" stroke-miterlimit="10" d="M106,134.3c2.6-11.5,8.8-22.2,17.5-30.3"></path><path fill="none" stroke="#000" stroke-miterlimit="10" d="M295.4,145.9c-1.8-12.9-11.8-24.3-24.4-27.6"></path><path fill="none" stroke="#000" stroke-miterlimit="10" d="M287.2,173.5c1.2-11.2-0.4-22.7-4.6-33.1c-0.6-1.5-1.3-3-2.6-4c-1.1-0.8-2.6-1.1-3.9-1.7   c-1.3-0.5-2.6-1.4-2.9-2.8"></path><path opacity="0.4" fill="#fff" d="M229.1,40.2c0,0,11,13,11,17c0.1,0.8,0.2,1.6,0.1,2.3c-0.1,0.7-0.8,1.2-1.5,1.1c-0.3-0.1-0.6-0.3-0.8-0.6  c-1.3-1.3-2.6-2.7-3.7-4.1c-0.1,1.3-0.4,2.6-1,3.8c-0.5-0.8-1.2-1.6-1.9-2.2l-1.2,2.1l-2.5-2.8l-1.4,3.1c-1.1-1.5-2.6-2.7-4.2-3.6  c-0.8,6.8-2,13.5-3.7,20.1c-4.7-4.6-9-9.5-12.9-14.9l-0.9,4.9l-3.5-4.2l-1,4l-1.6-1.9c-0.1,0.9-0.3,1.8-0.7,2.6  c-0.9-1.2-1.7-2.5-2.3-3.9c-1.6-0.4-2.7,1.5-3,3.1c-0.7,3.2-1,6.4-0.9,9.6c-2.4-2.7-5.1-5.3-7.9-7.7l-2.6,5.5l-2.8-3  c-0.4-0.7-1.2-0.9-1.9-0.5c-0.2,0.1-0.4,0.3-0.5,0.5c-2,1.9-3.7,4-5.3,6.3l-5.1-1.2c-0.7,2.8-0.2,5.7,1.3,8.2c1.4,2.2,3.7,4.7,2.5,7  s-4.7,1.7-6.6,0.1s-3.1-4.1-5.3-5.5l1,4.7c-1.7-3.8-6.4-4.8-10.4-5.6c-4.3-0.9-8.4-2.3-12.4-4.1l0.1-7.3c3.2,2.3,6.6,4.2,10.1,5.7  l-0.8-5.5l2.4,1.6c0-1.2,1-2.2,2.2-2.3c1.2,0,2.3,0.2,3.4,0.8c-0.6-6.1-2.2-12-4.7-17.6c9.3,1.4,18.4,4.3,26.9,8.4l-0.2-5.1  c0.9,1.3,2.6,1.6,3.8,0.7c0.8-0.6,1.3-1.6,1.2-2.6c-0.1-1-0.6-2.4,0.3-2.8l2.1,1.1c0.3-0.6,0.3-1.3,0.1-2l3,1.5l-8.1-9.6l16.2,6.8  l-0.9-7l1,1l-5-4.6c5.7,2.2,11.3,4.7,16.8,7.5c-0.5-1.7-0.6-3.4-0.4-5.1c2.2,1.1,4.5,2,6.9,2.6c0.7-0.7,1.2-1.6,1.6-2.5l4.8,1.7  c1-2.5,0.4-5.4-1.4-7.3c2.5,2,5.3,3.7,8.2,5c0.3-1.2,0.6-2.1,0.9-3.3c0.1-0.6,0.4-1.2,0.8-1.8c0.4-0.5,1.2-0.6,1.8-0.3  C228.6,38.4,228.9,39.9,229.1,40.2z"></path><path fill="#04050e" stroke="#000" stroke-miterlimit="10" d="M264,168.23a27.16,27.16,0,0,0-7.24-7c-5.11-3.54-44.72,10.3-45.7,6.37a8.15,8.15,0,0,1-.16-2.31c.19-4.77,2.64-12.42,2.64-12.42s26.13-4.13,39-4.37a23.9,23.9,0,0,1,5.68.36C265.57,150.74,264,168.23,264,168.23Z" class="canChange" style="fill:null"></path><path fill="#04050e" stroke="#000" stroke-miterlimit="10" d="M189.07,166.89a6.35,6.35,0,0,1-.12.7c-1,3.93-40.59-9.91-45.7-6.37a27.16,27.16,0,0,0-7.24,7s-1.59-17.49,5.8-19.38a22.63,22.63,0,0,1,5.25-.36c12.67.14,39.41,4.37,39.41,4.37S189.56,162.53,189.07,166.89Z" class="canChange" style="fill:null"></path><path opacity="0.32" d="M189.07,166.89a6.35,6.35,0,0,1-.12.7c-1,3.93-40.59-9.91-45.7-6.37a27.16,27.16,0,0,0-7.24,7s-1.59-17.49,5.8-19.38a22.63,22.63,0,0,1,5.25-.36c-.06,2.63.22,5.75,1.52,8C150.72,160.13,177.85,165,189.07,166.89Z" class="cls-overlay"></path><path opacity="0.32" d="M264,168.23a27.16,27.16,0,0,0-7.24-7c-5.11-3.54-44.72,10.3-45.7,6.37a8.15,8.15,0,0,1-.16-2.31c15.28-2.25,35.68-5.61,38.1-7.77,2-1.77,3-5.64,3.51-9a23.9,23.9,0,0,1,5.68.36C265.57,150.74,264,168.23,264,168.23Z" class="cls-overlay"></path><path fill="#72004d" opacity="0.17" d="M223.78,160.08a36,36,0,0,0-7.23,7.84c-1.86,2.67-4.33,5.89-3.51,9.22.64,2.61,2.93,4.69,5.29,6.13,0,0,1.34-4,2.8-4.92s14.07-6.52,16.91-5.18c0,0-8-6.91-2.93-8.71,0,0-9.32-.62,3.47-5.47-.37.14-2.53-.86-3-1a16.84,16.84,0,0,0-6.89-.28A11.21,11.21,0,0,0,223.78,160.08Z" class="cls-overlay"></path><g opacity="0.32" class="cls-overlay show"><path fill="#72004d" d="M215.67,175.27a23.14,23.14,0,0,1,7.67-8,35,35,0,0,1,10.21-4.56,31.77,31.77,0,0,1,11.15-.92,23.16,23.16,0,0,1,10.48,3.66,25.54,25.54,0,0,0-10.54-3.09,32.59,32.59,0,0,0-10.9,1.08,36,36,0,0,0-10.09,4.31c-.39.25-.79.48-1.17.74l-1.1.82a18.94,18.94,0,0,0-2.12,1.77,21.24,21.24,0,0,0-1.93,2,10,10,0,0,0-.85,1.09Z"></path></g><path opacity="0.32" d="M250.61,186.41s-4.26,2.75-11.72,1.83" class="cls-overlay"></path><path fill="#242424" d="M251.88,168.6s4.68,1.13,6.41.88l-4.42,3.44-3.37,9.58h1.56s-10.24,2.72-14.9,2.17-18.7-3.88-18.7-3.88,3.4-12.5,16.64-13S251.88,168.6,251.88,168.6Z"></path><path fill="#f0e1ef" d="M253.87,170.92s-.57,2-1.3,4.27c-1,3.18-2.34,7.06-2.94,7.57-1,.87-20.76,4.19-32.1,0a23.5,23.5,0,0,1,2.38-4.38c2.81-4.15,8.29-9.74,17.44-9.78C251.88,168.54,253.87,170.92,253.87,170.92Z"></path><g class="cls-path-cs4-male-8R show"><ellipse fill="#26477d" stroke="#000" stroke-miterlimit="10" cx="234.89" cy="175.95" rx="9.83" ry="8.44" transform="translate(-33.9 58.13) rotate(-13.17)" class="canChange" style="fill:null"></ellipse><ellipse cx="234.87" cy="175.09" rx="6.87" ry="5.9" transform="translate(-33.71 58.1) rotate(-13.17)"></ellipse></g><path opacity="0.4" d="M253.87,170.92s-.57,2-1.3,4.27c-12.27-2.84-24.86.35-32.66,3.19,2.81-4.15,8.29-9.74,17.44-9.78C251.88,168.54,253.87,170.92,253.87,170.92Z"></path><ellipse fill="#fff" cx="229.78" cy="174.59" rx="2.07" ry="1.62" transform="translate(-3.91 5.27) rotate(-1.3)"></ellipse><path fill="#72004d" opacity="0.17" d="M176.22,161a36,36,0,0,1,7.23,7.84c1.86,2.67,4.33,5.89,3.51,9.21-.64,2.61-2.93,4.7-5.29,6.13,0,0-1.34-4-2.8-4.92S164.8,172.71,162,174c0,0,8-6.9,2.93-8.7,0,0,9.32-.62-3.47-5.48.37.14,2.53-.85,3-1a16.84,16.84,0,0,1,6.89-.28A11.21,11.21,0,0,1,176.22,161Z" class="cls-overlay"></path><g opacity="0.32" class="cls-overlay show"><path fill="#72004d" d="M184.33,176.15l-.81-1.13a10,10,0,0,0-.85-1.09,21.24,21.24,0,0,0-1.93-2,18.94,18.94,0,0,0-2.12-1.77l-1.1-.82c-.38-.27-.78-.49-1.17-.74a36.06,36.06,0,0,0-10.09-4.32,32.85,32.85,0,0,0-10.9-1.07,25.68,25.68,0,0,0-10.54,3.08,23.26,23.26,0,0,1,10.48-3.65,31.77,31.77,0,0,1,11.15.92,34.72,34.72,0,0,1,10.21,4.56A23.14,23.14,0,0,1,184.33,176.15Z"></path></g><path opacity="0.32" d="M149.39,187.28s4.26,2.75,11.72,1.84" class="cls-overlay"></path><path fill="#242424" d="M148.12,169.48s-4.68,1.12-6.41.87l4.42,3.45,3.37,9.58h-1.56s10.24,2.71,14.9,2.17,18.7-3.88,18.7-3.88-3.4-12.51-16.64-13S148.12,169.48,148.12,169.48Z"></path><path fill="#f0e1ef" d="M146.13,171.79s.57,2,1.3,4.28c1,3.18,2.34,7.06,2.94,7.56,1,.88,20.76,4.2,32.1,0a23.87,23.87,0,0,0-2.38-4.38c-2.81-4.14-8.29-9.73-17.44-9.77C148.12,169.41,146.13,171.79,146.13,171.79Z"></path><g class="cls-path-cs4-male-8L show"><ellipse fill="#26477d" stroke="#000" stroke-miterlimit="10" cx="165.11" cy="176.83" rx="8.44" ry="9.83" transform="translate(-44.68 297.32) rotate(-76.83)" class="canChange" style="fill:null"></ellipse><ellipse cx="165.13" cy="175.97" rx="5.9" ry="6.87" transform="translate(-43.82 296.68) rotate(-76.83)"></ellipse></g><path opacity="0.4" d="M146.13,171.79s.57,2,1.3,4.28c12.27-2.85,24.86.35,32.66,3.18-2.81-4.14-8.29-9.73-17.44-9.77C148.12,169.41,146.13,171.79,146.13,171.79Z"></path><ellipse fill="#fff" cx="170.22" cy="175.47" rx="1.62" ry="2.07" transform="matrix(0.02, -1, 1, 0.02, -9.07, 341.65)"></ellipse><path fill="#8c2f72" opacity="0.6" d="M173.68,247.6a96.7,96.7,0,0,0,10.06,10.81c6.06,5.31,19.51,6,28.46.93,5.14-2.9,13.92-13.27,13.92-13.27s-14.61,7.62-27.1,7.68S173.68,247.6,173.68,247.6Z" class="cls-multipy"></path><path fill="#742637" d="M170.08,242.93c12.15,2.43,20.38-5,29.32-3v9.12a161,161,0,0,1-19-2.13C172.85,245.41,170.08,242.93,170.08,242.93Z" class="canChange" style="fill:null"></path><path fill="#ba7070" d="M169,242.51s9.09,12.36,14,15c5.54,3,24.15,2.17,30.09,1.11s16-16.09,16-16.09S216.92,249,197.49,249A70.64,70.64,0,0,1,169,242.51Z" class="canChange" style="fill:null"></path><path fill="#742637" d="M227.26,242.92c-12.16,2.44-19.54-5-28.47-3v9.12a161,161,0,0,0,19-2.13C225.34,245.41,227.26,242.92,227.26,242.92Z" class="canChange" style="fill:null"></path><path fill="#320010" d="M167,241.3s12.73,7.37,33.51,7.37c20.46,0,32.08-8.59,32.08-8.59s-12.41,9.47-32.3,9.47S167,241.3,167,241.3Z"></path><path fill="#8c2f72" opacity="0.6" d="M229.07,240.08s3.9-.06,5.16,2.17c0,0-.18-2.51-1.66-3.22S229.07,240.08,229.07,240.08Z" class="cls-multipy"></path><path fill="#8c2f72" opacity="0.6" d="M170.93,240.75s-3.9-.07-5.16,2.17c0,0,.18-2.51,1.66-3.22S170.93,240.75,170.93,240.75Z" class="cls-multipy"></path><path fill="#ffd9d9" d="M211.15,253.28l3.33,3a26.78,26.78,0,0,0,8.55-6.7l-2.25-1S215.58,251.33,211.15,253.28Z" class="cls-softlight"></path><path fill="3d3b32" stroke="#000" stroke-miterlimit="10" d="M243.43,273.66c-9.25,7.6-19,14.21-22.23,15.61a45.85,45.85,0,0,1-18.63,4.25,5.12,5.12,0,0,1,3.44-4.19c6.09-2.34,7.72-9.58,7.72-9.58.67-1.76-3.65-.18-7.78,1.65a17.34,17.34,0,0,1-14,0c-4.14-1.83-8.45-3.41-7.78-1.65,0,0,1.63,7.24,7.72,9.58a5.13,5.13,0,0,1,3.44,4.19,45.72,45.72,0,0,1-18.17-4.25c-3.59-1.55-15.19-9.52-25.25-18.14a114.47,114.47,0,0,0-.26,26.16,73.46,73.46,0,0,0,4.81,19.81v0A53,53,0,0,0,174.57,335a.6.6,0,0,1,.11.06c-.49-3.35-.84-7.51-.26-10.51,0,0,13.39,20.91,24.16,20.91,4.31,0,17.26-14,18.56-20a82,82,0,0,1,0,13.66c.91-.32,15.82-6.72,25.62-18.21a71,71,0,0,0,5-19.7v0C249.14,287.11,245.26,277.35,243.43,273.66Z" class="canChange" style="fill:null"></path><path fill="2a2929" stroke="#000" stroke-miterlimit="10" d="M247.76,301.22v0a71,71,0,0,1-5,19.7c-9.8,11.49-24.71,17.89-25.62,18.21a82,82,0,0,0,0-13.66c-1.3,5.93-14.25,20-18.56,20-10.77,0-24.16-20.91-24.16-20.91-.58,3-.23,7.16.26,10.51a.6.6,0,0,0-.11-.06,53,53,0,0,1-18.11-17.88v0a73.46,73.46,0,0,1-4.81-19.81,114.47,114.47,0,0,1,.26-26.16c10.06,8.62,21.66,16.59,25.25,18.14a45.72,45.72,0,0,0,18.17,4.25,5.13,5.13,0,0,0-3.44-4.19c-6.09-2.34-7.72-9.58-7.72-9.58-.67-1.76,3.64-.18,7.78,1.65a17.34,17.34,0,0,0,14,0c4.13-1.83,8.45-3.41,7.78-1.65,0,0-1.63,7.24-7.72,9.58a5.12,5.12,0,0,0-3.44,4.19,45.85,45.85,0,0,0,18.63-4.25c3.24-1.4,13-8,22.23-15.61C245.26,277.35,249.14,287.11,247.76,301.22Z" class="canChange" style="fill:null"></path><path fill="2a2929" stroke="#000" stroke-miterlimit="10" d="M247.76,301.22v0a39.41,39.41,0,0,1-11.31,13.3,123.62,123.62,0,0,1-14.37,9.68,66.52,66.52,0,0,0-1.38-15.05c-1.11,4.35-15.8,23.61-23.63,23.61-5.13,0-24.76-23.14-24.76-23.14-1.87,2.94-2.42,6.66-2.19,10.79l-.09-.06A48,48,0,0,1,153.87,302c-.79-1.59-1.54-3.17-2.23-4.68a114.47,114.47,0,0,1,.26-26.16c10.06,8.62,21.66,16.59,25.25,18.14a45.72,45.72,0,0,0,18.17,4.25,5.13,5.13,0,0,0-3.44-4.19c-6.09-2.34-7.72-9.58-7.72-9.58-.67-1.76,3.64-.18,7.78,1.65a17.34,17.34,0,0,0,14,0c4.13-1.83,8.45-3.41,7.78-1.65,0,0-1.63,7.24-7.72,9.58a5.12,5.12,0,0,0-3.44,4.19,45.85,45.85,0,0,0,18.63-4.25c3.24-1.4,13-8,22.23-15.61C245.26,277.35,249.14,287.11,247.76,301.22Z" class="canChange" style="fill:null"></path><path fill="#565949" opacity="0.6" d="M261.22,329h0l-1.22.25-2,.4-24.38,5-41.7,8.5h0l-.47.1-1.34.28h0l-2.81.57-5.82,1.18-29.86,6.1-1.63-5.9-1.32-4.79-2.4-8.72-5-18.17s1.21.88,3.48,2.26h0c.59.37,1.26.76,2,1.18a114.47,114.47,0,0,0,17.59,8.18c21,7.7,53.82,13,88.52-7.42l.47-.27.2-.12h0l1.46-.89c1.17-.72,2.32-1.47,3.49-2.24h0l.36-.23Z" class="cls-multipy"></path><path fill="#703b52" stroke="#000" stroke-miterlimit="10" d="M397.51,401.34H2s4.62-15.88,5.38-19.6c.12-.59,3.37-2,8.78-3.88,17.88-6.34,59.32-18.52,88.74-27.18l2.4-.7,1.2-.33c.6-.17,1.25-.35,1.61-.5a1,1,0,0,0,.47-.33,2.69,2.69,0,0,1,.61-.92c.56-.54,2.07.33,2.88.09,13.3-3.93,22.55-6.69,23.18-7.1a4.76,4.76,0,0,0,.85-2.27c.47-2.12,1-5.56,1.47-9.66a.52.52,0,0,0,0-.17l-3.22-2.32a1.15,1.15,0,0,1,0-.18S138.72,310,138.73,310c.48,0,1.32-.76,2.52-.63,2.82-2.77,1.58,2.55,2.5,5,3,8,14.49,12.22,23.74,15.17a92.92,92.92,0,0,0,13,3.09c.89.14,1.79.29,2.71.41a127,127,0,0,0,16.55,1.17c17.22-.14,29.6-3.27,38.08-6.78h0c9-3.74,13.68-7.91,15.14-9.39l4.3-6.07c.13-.09,2.28,1.2,2.22,1-.2-.74.8-.3.86,0-.21-1,.1,1.93.11,2.1.11,1.29.21,2.6.21,3.88.12,2.28.25,4.55.37,6.82.05,1.05.16,2.1.15,3.15l-1.18.56a88.71,88.71,0,0,0,1.5,9.58c.25,1,.49,1.62.73,1.77.67.43,11.14,3.53,25.86,7.88h0c37.74,11.12,103.43,30.28,104,33,.39,1.86,1.73,6.74,3,11.19S397.51,401.34,397.51,401.34Z" class="canChange" style="fill:null"></path><path fill="#2b2217" opacity="0.36" d="M200.17,343.26s-2.61.14-7,.2l-3.08,0c-3.05,0-6.67,0-10.66-.15a249.17,249.17,0,0,1-30.8-2.69c-3.57-.56-7.11-1.24-10.54-2,.47-2.12,1-5.56,1.47-9.66,2,1,4.28,2,6.67,3a151.6,151.6,0,0,0,31.23,9.43A123.28,123.28,0,0,0,189.91,343l2,.13C194.64,343.26,197.4,343.32,200.17,343.26Z" class="cls-multipy"></path><path fill="#2b2217" opacity="0.36" d="M261.53,339.12c-3.87.89-7.88,1.61-11.9,2.22A249.55,249.55,0,0,1,224,343.65c-13.89.57-24.25,0-24.25,0a116.7,116.7,0,0,0,27.22-2.8,157.23,157.23,0,0,0,30.76-10.3c.79-.35,1.55-.7,2.29-1A88.71,88.71,0,0,0,261.53,339.12Z" class="cls-multipy"></path><path fill="#2a2116" opacity="0.32" d="M397.51,401.34H372.16c11.91-2.61,19.26-5.44,23-8.41C396.36,397.36,397.51,401.34,397.51,401.34Z" class="cls-multipy"></path><path fill="#2b2217" opacity="0.36" d="M110.6,348.83s18,14,33.15,17.46c-9-1.69-30.68-6.72-35.24-16.64.6-.17,1.25-.35,1.61-.5a1,1,0,0,0,.47-.33Z" class="cls-multipy"></path><path fill="#59512d" d="M147.65,367a31.23,31.23,0,0,1-3.9-.67C146.16,366.74,147.65,367,147.65,367Z"></path><path fill="#2b2217" opacity="0.36" d="M193.19,343.46S42,372.57,38.06,391.59a42.38,42.38,0,0,0-1,9.75H2s4.62-15.88,5.38-19.6c.12-.59,3.37-2,8.78-3.88,17.88-6.34,59.32-18.52,88.74-27.18l2.4-.7,1.2-.33c.6-.17,1.25-.35,1.61-.5a1,1,0,0,0,.47-.33,2.69,2.69,0,0,1,.61-.92c.56-.54,2.07.33,2.88.09,13.3-3.93,22.55-6.69,23.18-7.1a4.76,4.76,0,0,0,.85-2.27c.47-2.12,1-5.56,1.47-9.66a.52.52,0,0,0,0-.17l-3.22-2.32a1.15,1.15,0,0,1,0-.18S138.72,310,138.73,310c.48,0,1.42.11,2.62.25-.7,0,.69,3.14.82,3.4,3.62,7.75,16.07,13,25.32,15.93a92.92,92.92,0,0,0,13,3.09C178.1,335.61,178.53,339.76,193.19,343.46Z" class="cls-multipy"></path><path fill="#2b2217" opacity="0.36" d="M397.51,401.34H353.18c-1.06-3.34-2.16-7.21-3.18-11.51-3.68-15.55-105.45-50.15-105.45-50.15,6.52-8.7-1.07-11.36-6.7-12.17,9-3.74,13.68-7.91,15.14-9.39l4.3-6.07c.13-.09,2,1,2.22,1a3.55,3.55,0,0,1,.86,0,18.37,18.37,0,0,0,.11,2.1c.11,1.29.21,2.6.21,3.88.12,2.28.25,4.55.37,6.82.05,1.05.16,2.1.15,3.15l-1.18.56a88.71,88.71,0,0,0,1.5,9.58c.25,1,.49,1.62.73,1.77.67.43,11.14,3.53,25.86,7.88h0c37.74,11.12,103.43,30.28,104,33,.39,1.86,1.73,6.74,3,11.19S397.51,401.34,397.51,401.34Z" class="cls-multipy"></path><path fill="#906f63" d="M258.49,316.91s1.89,22.76,3.52,23.94,22.51,6.91,22.51,6.91l.74-20.12-21.93-10.73-4.88-.46"></path><path fill="#ac8577" stroke="#000" stroke-miterlimit="10" d="M400.82,401.34l-24.58-.08-7.53.08h-83l.8-66.75s89.68,20.23,89.68,23.84c0,2.46-.92,2.79-1.52,2.74l.31.08a28.76,28.76,0,0,1,3.28,1.11c2.59,1,5.81,2.78,7.77,5.47,1.45,2,4.07,7.63,6.7,13.7,1.56,3.61,3.13,7.39,4.45,10.64C399.31,397.24,400.82,401.34,400.82,401.34Z" class="canChange" style="fill:null"></path><path fill="#dee4ff" opacity="0.32" d="M378.69,375.77s-46.69,4.34-46.69,8,17.3,8.44,16.64,11.45-5,5.89-5,5.89l-31.58-.36-3.44-21.31,11.06-11.56" class="cls-multipy"></path><polyline fill="#906f63" stroke="#000" stroke-miterlimit="10" points="322.64 382.65 345.52 393.84 338.11 400.7 287.16 400.7 285.75 390.36" class="canChange" style="fill:null"></polyline><path fill="#dee4ff" opacity="0.32" d="M355.76,400.92c0,.14,0,.28,0,.42s0-.15-.09-.42c-.72-3.44-4.8-27.4,19.34-39.67a28.76,28.76,0,0,1,3.28,1.11C370.7,368.81,355.56,383.81,355.76,400.92Z" class="cls-multipy"></path><path fill="#ac8577" stroke="#000" stroke-miterlimit="10" d="M378.33,375.47s-4.94.43-17.76,1c-3.11.13-6.68.26-10.75.41-20.89.72-63.89,19.51-63.89,19.51,0-1.82-.44-12.6-.92-24.52-.17-3.85-.33-7.83-.49-11.67-.38-8.9-.74-17-.91-21,0,0,0-.1,0-.29-.09-1.29-.21-1.09-.21-1.09-8.58-3.25-21.74-5.89-23.23-10.71-.23-.72-.79-5.47-1.05-8.3a14.74,14.74,0,0,1-.15-2.12c9.92-.26,30.73,4.66,44.13,10.93,6.84,3.21,13.85,6.95,20.68,10.91,5.21,3,10.32,6.14,15.2,9.26C361,361.85,378.33,375.47,378.33,375.47Z" class="canChange" style="fill:null"></path><path fill="#dee4ff" opacity="0.32" d="M303.08,327.64c21.34,13.78,53.53,36.26,57.49,48.81,12.82-.55,17.76-1,17.76-1S338.69,344.31,303.08,327.64Z" class="cls-multipy"></path><path fill="#ffd8ab" d="M283.6,338.93c-.09-1.29-.21-1.09-.21-1.09-8.58-3.25-21.74-5.89-23.23-10.71-.23-.72-.79-5.47-1.05-8.3,5.06.26,21,1.5,22.54,7.18A61.49,61.49,0,0,1,283.6,338.93Z" class="cls-multipy"></path><path fill="#ffe7e3" opacity="0.14" d="M339,347.81c-4.15-.68-8.59-.27-7.64,4.94,1.71,9.41-15.37-.4-15.69,3.78s2.24,16.75-7,13-14.51-9.81-14.37-2.61,3,15.69-1.86,11.11-4.07-13.08-6.68-7.46a8.32,8.32,0,0,1-.74,1.33c-.17-3.85-.33-7.83-.49-11.67,1.86,4.26,5.68,11.08,7.2,5.64,1.86-6.67.14-17,5.43-13.78s14.44,16.52,11.51,6.33,5.65-13.65,11.66-10.82c4.65,2.2,2-5.87,3.45-9C329,341.56,334.09,344.69,339,347.81Z"></path><path fill="#ffe7e3" opacity="0.14" d="M397.22,392.17c-.41-.14-.85-.31-1.32-.49-4.53-1.8-3.44-6.07-5.71-8s3,9.65-5.88,6.48-4.06,3.25-8.09,10.83l-7.48,0c-3.27-2.79-6.16-6.61-6.42-2.53a4.4,4.4,0,0,1-.65,2.51c-.33.38-.76.32-1.24,0-1.59-1.09-3.64-5.19-4.05-6.43-.66-2,2.62-.08,4-7s2.71,1.1,8.59,8.13,5.12-6.34,6.63-12.27,7.68,10.89,8.43,0c.54-7.81,5.82-4.42,8.76-1.88C394.33,385.14,395.9,388.92,397.22,392.17Z"></path><path fill="#906f63" d="M141.3,316.91s-1.89,22.76-3.51,23.94-22.48,6.91-22.48,6.91l-.74-20.12,21.9-10.73,4.87-.46"></path><path fill="#ac8577" stroke="#000" stroke-miterlimit="10" d="M-.82,401.34l24.55-.08,7.52.08h82.83l-.79-66.75s-89.55,20.23-89.55,23.84c0,2.46.91,2.79,1.51,2.74l-.31.08a28.09,28.09,0,0,0-3.27,1.11c-2.59,1-5.8,2.78-7.76,5.47-1.45,2-4.07,7.63-6.69,13.7-1.56,3.61-3.13,7.39-4.45,10.64C.69,397.24-.82,401.34-.82,401.34Z" class="canChange" style="fill:null"></path><path fill="#dee4ff" opacity="0.32" d="M21.28,375.77s46.62,4.34,46.62,8-17.27,8.44-16.61,11.45,5,5.89,5,5.89l31.53-.36,3.44-21.31-11-11.56" class="cls-multipy"></path><polyline fill="#906f63" stroke="#000" stroke-miterlimit="10" points="77.25 382.65 54.4 393.84 61.8 400.7 112.67 400.7 114.08 390.36" class="canChange" style="fill:null"></polyline><path fill="#dee4ff" opacity="0.32" d="M44.17,400.92c0,.14,0,.28,0,.42a3.46,3.46,0,0,0,.1-.42c.72-3.44,4.78-27.4-19.32-39.67a28.09,28.09,0,0,0-3.27,1.11C29.25,368.81,44.37,383.81,44.17,400.92Z" class="cls-multipy"></path><path fill="#ac8577" stroke="#000" stroke-miterlimit="10" d="M21.63,375.47s4.94.43,17.75,1c3.1.13,6.66.26,10.73.41,20.86.72,63.79,19.51,63.79,19.51,0-1.82.44-12.6.92-24.52.17-3.85.33-7.83.49-11.67.38-8.9.74-17,.91-21,0,0,0-.1,0-.29.08-1.29.21-1.09.21-1.09,8.56-3.25,21.7-5.89,23.2-10.71.22-.72.78-5.47,1.05-8.3a15.51,15.51,0,0,0,.14-2.12c-9.91-.26-30.68,4.66-44.06,10.93-6.84,3.21-13.83,6.95-20.66,10.91-5.19,3-10.3,6.14-15.17,9.26C38.93,361.85,21.63,375.47,21.63,375.47Z" class="canChange" style="fill:null"></path><path fill="#dee4ff" opacity="0.32" d="M96.77,327.64c-21.3,13.78-53.45,36.26-57.4,48.81-12.8-.55-17.74-1-17.74-1S61.22,344.31,96.77,327.64Z" class="cls-multipy"></path><path fill="#ffd8ab" d="M116.23,338.93c.08-1.29.21-1.09.21-1.09,8.56-3.25,21.7-5.89,23.2-10.71.22-.72.78-5.47,1.05-8.3-5.06.26-21,1.5-22.51,7.18A61.49,61.49,0,0,0,116.23,338.93Z" class="cls-multipy"></path><path fill="#ffe7e3" opacity="0.14" d="M60.94,347.81c4.15-.68,8.57-.27,7.63,4.94-1.71,9.41,15.35-.4,15.67,3.78s-2.25,16.75,7,13,14.49-9.81,14.34-2.61-3,15.69,1.86,11.11,4.06-13.08,6.67-7.46a8.32,8.32,0,0,0,.74,1.33c.17-3.85.33-7.83.49-11.67-1.86,4.26-5.67,11.08-7.19,5.64-1.86-6.67-.14-17-5.42-13.78s-14.42,16.52-11.49,6.33-5.64-13.65-11.65-10.82c-4.64,2.2-2-5.87-3.45-9C70.92,341.56,65.81,344.69,60.94,347.81Z"></path><path fill="#ffe7e3" opacity="0.14" d="M2.77,392.17c.41-.14.86-.31,1.32-.49,4.53-1.8,3.44-6.07,5.7-8s-3,9.65,5.87,6.48,4.06,3.25,8.09,10.83l7.46,0c3.26-2.79,6.16-6.61,6.42-2.53a4.42,4.42,0,0,0,.64,2.51c.33.38.77.32,1.24,0,1.59-1.09,3.63-5.19,4.05-6.43.66-2-2.62-.08-4-7s-2.71,1.1-8.58,8.13-5.11-6.34-6.62-12.27-7.67,10.89-8.42,0c-.53-7.81-5.81-4.42-8.74-1.88C5.66,385.14,4.09,388.92,2.77,392.17Z"></path><g opacity="0.38" class="show"><path d="M211.67,206.66a14.6,14.6,0,0,1,3.12,1,6.29,6.29,0,0,1,1.42.9,2.84,2.84,0,0,1,.93,1.47,27.34,27.34,0,0,1,.84,6.54,21.74,21.74,0,0,1-.22,3.31,6.66,6.66,0,0,1-1.15,3.16,16.42,16.42,0,0,1-4.94,4.31,26.38,26.38,0,0,0,2.43-2.16,14.57,14.57,0,0,0,2-2.48,6.82,6.82,0,0,0,1-2.93,22.72,22.72,0,0,0,.14-3.2,30.25,30.25,0,0,0-.64-6.39c-.15-1-1.06-1.66-2-2.21A17.88,17.88,0,0,0,211.67,206.66Z"></path></g><g opacity="0.38" class="show"><path d="M188.33,207.42a17.88,17.88,0,0,0-3,1.34c-.91.55-1.82,1.18-2,2.21a30.25,30.25,0,0,0-.64,6.39,22.72,22.72,0,0,0,.14,3.2,6.9,6.9,0,0,0,1,2.94,14.9,14.9,0,0,0,2,2.47,25,25,0,0,0,2.43,2.16,16.28,16.28,0,0,1-4.94-4.31,6.66,6.66,0,0,1-1.15-3.16,21.66,21.66,0,0,1-.22-3.31,27.4,27.4,0,0,1,.84-6.54,2.84,2.84,0,0,1,.93-1.47,6.29,6.29,0,0,1,1.42-.9A15.18,15.18,0,0,1,188.33,207.42Z"></path></g><g opacity="0.38" class="show"><path d="M210.69,227.06c.72-.61,1.41-1.24,2.07-1.91a12.78,12.78,0,0,0,.91-1,2,2,0,0,0,.51-1.13c0-.28-.61-.33-1-.28a4.87,4.87,0,0,0-1.28.35,13.17,13.17,0,0,0-2.33,1.46c-1.45,1.15-2.82,2.41-4.17,3.72-.68.64-1.33,1.31-2.08,1.93a3,3,0,0,1-.7.44,3,3,0,0,1-.76.17,9,9,0,0,1-1.46,0c-.46,0-.92,0-1.43-.07a2.89,2.89,0,0,1-1.48-.57l-2.09-1.94a50.13,50.13,0,0,0-4.16-3.71A13.6,13.6,0,0,0,188.9,223a4.15,4.15,0,0,0-1.27-.35c-.41,0-1,0-1,.29a1.89,1.89,0,0,0,.5,1.13,11.22,11.22,0,0,0,.92,1c.65.67,1.34,1.3,2.06,1.91a23.55,23.55,0,0,1-2.2-1.76,10.71,10.71,0,0,1-1-1,4.48,4.48,0,0,1-.43-.59,1.19,1.19,0,0,1-.21-.77.75.75,0,0,1,.63-.59,3.29,3.29,0,0,1,.76-.06,4.4,4.4,0,0,1,1.44.34,13.22,13.22,0,0,1,2.48,1.43,41,41,0,0,1,4.3,3.69l2,1.86a4.19,4.19,0,0,0,2.5.47,8.62,8.62,0,0,0,1.35,0,2.87,2.87,0,0,0,.61-.12,3.6,3.6,0,0,0,.48-.32c.7-.57,1.38-1.23,2.06-1.87a44.59,44.59,0,0,1,4.3-3.68,13.3,13.3,0,0,1,2.49-1.43,5,5,0,0,1,1.43-.34,2.81,2.81,0,0,1,.76.05.76.76,0,0,1,.64.59,1.25,1.25,0,0,1-.22.77,3.72,3.72,0,0,1-.43.59,10.71,10.71,0,0,1-1,1A23.55,23.55,0,0,1,210.69,227.06Z"></path></g><path fill="#72004d" opacity="0.17" d="M183.34,223.21s5.32-3,10.42,0c2.26,1.33,7.67,3.11,12.14,1.06,5.77-2.67,11.07-4.77,11.42-3.75.62,1.82-10.6,17.24-16.92,18.34S183.34,223.21,183.34,223.21Z" class="canChange cls-overlay" style="fill:null"></path><path fill="#72004d" opacity="0.17" d="M194.6,199.79s-5.54,7-5.54,9.22,3.45,8.76,3.45,8.76S192.12,204.19,194.6,199.79Z" class="canChange cls-overlay" style="fill:null"></path><path fill="#72004d" opacity="0.17" d="M205.31,199s5.54,7,5.54,9.22S207.4,217,207.4,217,207.79,203.43,205.31,199Z" class="canChange cls-overlay" style="fill:null"></path><path opacity="0.42" d="M187.92,225s4.36.88,6.42,1.61c0,0-6.05-5.17-7.75-4C186.59,222.65,186.28,223.9,187.92,225Z" class="cls-overlay"></path><path opacity="0.42" d="M212.9,225s-4.36.88-6.43,1.61c0,0,6.06-5.17,7.75-4C214.22,222.65,214.53,223.9,212.9,225Z" class="cls-overlay"></path><path fill="#72004d" opacity="0.17" d="M206.79,172.53a9.5,9.5,0,0,0-.84,9.6l1.69,3.2S204.26,178.93,206.79,172.53Z" class="canChange cls-overlay" style="fill:null"></path><path fill="#72004d" opacity="0.17" d="M189.92,169.33A16.19,16.19,0,0,1,195,181.06c0,7.46-2,19.64-2,19.64s.36-13.24-.48-20.71S189.92,169.33,189.92,169.33Z" class="canChange cls-overlay" style="fill:null"></path></svg>