<svg xmlns='http://www.w3.org/2000/svg' width='400' height='400'>
      <defs><style>.cls-path-cs2-male-0R{clip-path:url(#clip-path-cs2-male-0R)}.cls-path-cs2-male-0L{clip-path:url(#clip-path-cs2-male-0L)}.cls-multipy{mix-blend-mode: multiply;}.cls-softlight{mix-blend-mode: soft-light;}.cls-overlay{mix-blend-mode: overlay;}.cls-colorburn{mix-blend-mode: color-burn;}.cls-screen{mix-blend-mode: screen;}.cls-lighten{ mix-blend-mode: darken;}</style>
      </defs><path fill="#3b2323" d="M294.22,137.62c-2.94,28-8.74,69.13-8.74,69.13l-170.27,1s-4.45-25-6.3-49.19C107.34,138,107.66,118,114.2,114.2a132.11,132.11,0,0,0,23.35-16.92S157,36.93,250.47,55.85c0,0,46.19,22.56,29.93,47.1,0,0,13.21,2,15.25,9.72C296.28,115,295.54,125,294.22,137.62Z" class="canChange cls-overlay" style="fill:null"></path><g opacity="0.88" class="cls-screen show"><path fill="#fbddad" opacity="0.24" d="M250.44,81.54a111.32,111.32,0,0,0,3.93-11,71.8,71.8,0,0,1-4.43,8.62,50.77,50.77,0,0,0,3.15-14.35,156.71,156.71,0,0,1-15,37.71q2.76-3.78,5.42-8.08c-1,2.91-2.14,5.81-3.35,8.65,2-3.94,4.62-6.79,6.35-10.95a62,62,0,0,1-5.1,13.43c1.81-3.92,4-7.36,5.9-11.12a126.43,126.43,0,0,0,6.53-15.78c.87-2.5,2.08-5.55,2.7-8,.28-1.11.31-1.77-.42-.77a21.25,21.25,0,0,0-1.47,3.37A61.7,61.7,0,0,1,250.44,81.54Z"></path><path fill="#fbddad" opacity="0.24" d="M241,109.5c1.46-1.06,3-3.76,4.51-5.61a37.31,37.31,0,0,1-3.9,6.82c4.15-5.61,9.57-12.4,12.51-20.67A36.53,36.53,0,0,0,256,84a85.51,85.51,0,0,1-6.61,13.54A63.79,63.79,0,0,0,255,84.26c.2-.61.68-2,.47-2.23-.83,1.89-1.51,4-2.33,5.91s-1.69,3.86-2.6,5.73a102.62,102.62,0,0,1-5.91,10.62C243.41,106.14,242.2,107.89,241,109.5Z"></path><path fill="#fbddad" opacity="0.24" d="M233.51,104.78c.9-2,1.88-3.93,2.92-5.74a51.65,51.65,0,0,1-3.65,5c1.82-3.15,3.55-6.51,5.15-10,1.34-2.93,2.59-5.93,3.83-8.93a101.29,101.29,0,0,0,4.14-11.34A93.29,93.29,0,0,1,237.82,95a24,24,0,0,1,1.63-2.92A73.89,73.89,0,0,0,246.61,76c-.25.81-.28,1.89-.49,2.75-.24,1-.58,2-.92,3.09-.59,1.77-1.28,3.51-2,5.25a101.09,101.09,0,0,1-5.89,11.78C236.07,101,234.8,103,233.51,104.78Z"></path><path fill="#fbddad" opacity="0.24" d="M243.05,76.09a114.09,114.09,0,0,1-7.34,16.32,40.27,40.27,0,0,1-4.51,7c.57-1.27,1.25-2.4,1.9-3.56a80.55,80.55,0,0,0,5.58-12.4c1.21-3.44,2.15-6.86,3.19-10.29,1.25-4.1,2.63-8.23,4.15-12.33a4.4,4.4,0,0,1,.58-1.17,70.94,70.94,0,0,1-5.75,19.8c1.27-2.82,2.26-5.88,3.25-8.77.55-1.59,2.22-7.26,3.17-8-.39,1.85-1.41,4.5-2,6.49C244.56,71.49,243.86,73.79,243.05,76.09Z"></path><path fill="#fbddad" opacity="0.24" d="M234.57,80.2a106.28,106.28,0,0,0,3.43-11,76.41,76.41,0,0,1-4.14,9,43.94,43.94,0,0,0,2.34-13.86,154.2,154.2,0,0,1-13.4,38.1c1.8-2.76,3.56-5.67,5.25-8.72-.88,2.91-1.87,5.83-3,8.72,1.85-4.09,4.47-7.34,6-11.56a60.48,60.48,0,0,1-4.5,13.5c1.66-4,3.73-7.69,5.54-11.6a125.55,125.55,0,0,0,5.87-16c.75-2.49,1.83-5.58,2.32-8,.22-1.08.2-1.69-.51-.6a21.94,21.94,0,0,0-1.33,3.44A64.86,64.86,0,0,1,234.57,80.2Z"></path><path fill="#fbddad" opacity="0.24" d="M219,93.49c1.46-2.21,2.44-5.26,3.7-7.9a43.17,43.17,0,0,1-2.52,7.75c3.24-7.48,7.67-17,8.48-24.3.18-1.65.57-4,.26-5.06A76.65,76.65,0,0,1,225.37,78a46.76,46.76,0,0,0,2.39-12.7c0-.52.15-1.73-.19-1.58-.38,1.85-.51,3.62-.86,5.47S225.94,73,225.45,75a112.46,112.46,0,0,1-3.71,11.88C220.91,89.07,220,91.3,219,93.49Z"></path><path fill="#fbddad" opacity="0.24" d="M225.15,91.48c.58-1.42,1.22-2.81,1.9-4.14a43.61,43.61,0,0,1-2.48,3.79c1.2-2.32,2.33-4.75,3.35-7.23.85-2.09,1.63-4.21,2.41-6.32a69.24,69.24,0,0,0,2.52-7.9,63.24,63.24,0,0,1-5,14.87A18.37,18.37,0,0,1,229,82.42,52.27,52.27,0,0,0,233.5,71c-.15.55-.12,1.24-.23,1.82s-.32,1.4-.53,2.12c-.35,1.22-.78,2.44-1.24,3.67a75,75,0,0,1-3.81,8.49C226.88,88.64,226,90.11,225.15,91.48Z"></path><path fill="#fbddad" opacity="0.24" d="M232.79,67.82a87.57,87.57,0,0,1-5.08,12.64,34.43,34.43,0,0,1-3.28,5.71c.39-1,.88-1.89,1.34-2.82a61,61,0,0,0,3.87-9.6c.79-2.6,1.37-5.14,2-7.7.78-3.06,1.68-6.17,2.69-9.28a3.48,3.48,0,0,1,.41-.91,49.54,49.54,0,0,1-3.58,14.73c.87-2.18,1.51-4.48,2.16-6.66.35-1.2,1.4-5.42,2.14-6.13-.22,1.34-.91,3.37-1.29,4.85C233.76,64.36,233.32,66.08,232.79,67.82Z"></path><path fill="#fbddad" opacity="0.24" d="M218.33,75.44c2-6.55,4.27-13.13,6.73-19.65q-3.87,9.21-7.59,18.5l.94-5.09a168.48,168.48,0,0,0-7,17.77c-.75,2.46-1.36,4.88-2,7.3l-1.26,5a85.12,85.12,0,0,0,3.23-7.91,40.71,40.71,0,0,1-1.68,6.19c1-2.61,2.09-5.19,3.27-7.7a35.89,35.89,0,0,0,3-7.58,61.44,61.44,0,0,1-4.33,17.18c1.56-3.11,3.12-6.25,4.52-9.51a86.76,86.76,0,0,0,6-20.27,121.84,121.84,0,0,1-5.73,13A43.75,43.75,0,0,0,219,74.56a27.51,27.51,0,0,0-1.44,2.7A11.07,11.07,0,0,0,218.33,75.44Z"></path><path fill="#fbddad" opacity="0.24" d="M185.92,78.45A90.91,90.91,0,0,1,189,68.31a48.24,48.24,0,0,0-1.14,8.16,50.38,50.38,0,0,1,5.89-13,121.19,121.19,0,0,0-9.09,35.07,71.47,71.47,0,0,1-.15-7.82c-.84,2.68-1.56,5.37-2.17,8,.55-3.71-.18-6.57.76-10.45a49.12,49.12,0,0,0-3.48,12.45c.71-3.67.79-7,1.29-10.55a95.63,95.63,0,0,1,3.57-14.7c.71-2.31,1.46-5.15,2.39-7.39.42-1,.81-1.58.88-.61a16.67,16.67,0,0,1-.7,3.16A40.67,40.67,0,0,0,185.92,78.45Z"></path><path fill="#fbddad" opacity="0.24" d="M179.9,92.28c-.79-.85-.71-2.7-1.1-4a12.15,12.15,0,0,0-.16,4.69c-.76-4-2-8.87-.15-14.3a16.78,16.78,0,0,1,1.66-4,29.73,29.73,0,0,0-1.41,9.14c-.06-2.65,1-5.83,2.21-8.81.16-.4.5-1.32.83-1.42-.29,1.26-.83,2.63-1.15,3.91s-.59,2.59-.79,3.85a35.16,35.16,0,0,0-.42,7.27A24.34,24.34,0,0,0,179.9,92.28Z"></path><path fill="#fbddad" opacity="0.24" d="M189.66,90.45a22.69,22.69,0,0,0,.48-3.89,15.71,15.71,0,0,0,.64,3.53,42.4,42.4,0,0,1,.79-6.79c.38-2,.9-4,1.43-6a43.13,43.13,0,0,1,2.5-7.47,38.81,38.81,0,0,0-4.4,14,8,8,0,0,0,.12-2,27.69,27.69,0,0,1,2.31-10.75c-.22.52-.81,1.19-1.09,1.73a19.75,19.75,0,0,0-.88,2,28.77,28.77,0,0,0-1.07,3.47,36,36,0,0,0-1.09,8A24.4,24.4,0,0,0,189.66,90.45Z"></path><path fill="#fbddad" opacity="0.24" d="M196.87,71.7a43,43,0,0,0-2.29,10.93,12.54,12.54,0,0,0,.28,4.91,12.84,12.84,0,0,0,.22-2.43,29.49,29.49,0,0,1,1.74-8.3c.8-2.26,1.85-4.47,2.81-6.7,1.14-2.66,2.17-5.36,3.05-8.06a1.59,1.59,0,0,0,.12-.79A34.62,34.62,0,0,0,197,74.08a43.62,43.62,0,0,1,1.89-5.77c.39-1,2-4.72,1.55-5.32"></path><path fill="#fbddad" opacity="0.24" d="M205,66.77a96.36,96.36,0,0,1,4-10,55,55,0,0,0-2,8.33,50,50,0,0,1,6.93-12.34,130.16,130.16,0,0,0-12.44,34.87q.17-4,.77-8.27c-1.08,2.63-2.07,5.3-2.93,8,.94-3.79.59-7,1.91-10.85a52.44,52.44,0,0,0-4.65,12.33c1.08-3.71,1.53-7.18,2.41-10.82a102.49,102.49,0,0,1,5-14.67c.92-2.27,1.94-5.1,3.06-7.24.5-1,.93-1.49.88-.45a18,18,0,0,1-1,3.17A46.5,46.5,0,0,0,205,66.77Z"></path><path fill="#fbddad" opacity="0.24" d="M208.75,87.4c-.28-1.34.41-3.35.59-5a18.53,18.53,0,0,0-1.74,5.11c.82-4.8,1.56-10.86,4.83-15.93A18.59,18.59,0,0,1,215,68a42.53,42.53,0,0,0-4.2,9.44,31.82,31.82,0,0,1,4.68-8.66c.25-.36.82-1.21,1.09-1.16-.64,1.25-1.51,2.5-2.19,3.76s-1.33,2.57-1.91,3.87a51.6,51.6,0,0,0-2.82,7.86A42,42,0,0,0,208.75,87.4Z"></path><path fill="#fbddad" opacity="0.24" d="M204.14,87a17.91,17.91,0,0,0,.54-2.78,13.79,13.79,0,0,0,.21,2.64,33.86,33.86,0,0,1,.93-4.85c.37-1.39.83-2.78,1.29-4.17a31.33,31.33,0,0,1,2.09-5.16,28.54,28.54,0,0,0-3.73,9.73,6.16,6.16,0,0,0,.2-1.44,21.19,21.19,0,0,1,2.16-7.57c-.17.36-.6.78-.82,1.14a12.4,12.4,0,0,0-.69,1.36,20.8,20.8,0,0,0-.91,2.41,27.61,27.61,0,0,0-1.2,5.68A19.16,19.16,0,0,0,204.14,87Z"></path><path fill="#fbddad" opacity="0.24" d="M212,63.3a35.4,35.4,0,0,0-2.35,8.38,11.23,11.23,0,0,0-.12,3.93,11.79,11.79,0,0,0,.32-1.9,24.11,24.11,0,0,1,1.78-6.37c.72-1.68,1.61-3.31,2.44-5,1-2,1.89-4,2.7-6a1.37,1.37,0,0,0,.14-.61,26.53,26.53,0,0,0-5,9.45,33.93,33.93,0,0,1,1.73-4.35c.34-.77,1.74-3.49,1.45-4A33.72,33.72,0,0,0,213.61,60C213.06,61.07,212.5,62.17,212,63.3Z"></path></g><g opacity="0.88" class="cls-screen show"><path fill="#fbddad" opacity="0.24" d="M289.1,124.74c0-2.63-.07-5.28-.25-7.86,0,2.23-.16,4.42-.39,6.45a49.88,49.88,0,0,0-1.19-9.89,150.32,150.32,0,0,1,.2,27.32c.36-2,.66-4.1.92-6.29.08,2.08.11,4.17.09,6.24.16-2.93.8-5.3.81-8.33a60.13,60.13,0,0,1,.18,9.68c.09-2.88.42-5.54.58-8.35.23-3.73.17-7.65,0-11.48-.06-1.78-.08-4-.25-5.71-.08-.76-.19-1.2-.32-.41a20,20,0,0,0,0,2.47A57.21,57.21,0,0,1,289.1,124.74Z"></path><path fill="#fbddad" opacity="0.24" d="M290,144.65a31.15,31.15,0,0,0,1-4.51,34.62,34.62,0,0,1-.48,5.18c.8-4.46,1.95-9.92,1.75-15.84a34.55,34.55,0,0,0-.26-4.31,77.65,77.65,0,0,1-.46,10.06,59.54,59.54,0,0,0,.06-9.65,5.19,5.19,0,0,0-.19-1.53c0,1.38.05,2.87,0,4.28s0,2.83-.1,4.21c-.13,2.8-.36,5.51-.68,8C290.45,142,290.23,143.37,290,144.65Z"></path><path fill="#fbddad" opacity="0.24" d="M285.88,143.11c0-1.47.11-2.91.24-4.29-.19,1.42-.43,2.74-.7,3.94.23-2.4.38-4.91.46-7.48.06-2.15.06-4.34.07-6.52,0-2.72,0-5.5-.23-8.14A90.17,90.17,0,0,1,286,136a21.46,21.46,0,0,1,.19-2.2,70.72,70.72,0,0,0,.24-11.79c0,.57.22,1.27.28,1.86s.12,1.44.15,2.18c.07,1.26.08,2.52.07,3.79,0,3-.18,6-.46,8.78C286.32,140.16,286.12,141.68,285.88,143.11Z"></path><path fill="#fbddad" opacity="0.24" d="M284.9,122.7a107.92,107.92,0,0,1-.28,12,37.08,37.08,0,0,1-.7,5.45c0-.93.11-1.8.18-2.68a73.87,73.87,0,0,0,.22-9.11c-.09-2.46-.29-4.85-.45-7.27q-.3-4.35-.4-8.78a3.94,3.94,0,0,1,0-.87,69.55,69.55,0,0,1,1,13.92c.05-2.07-.07-4.25-.15-6.31,0-1.13-.33-5.12-.06-5.81.16,1.27.19,3.18.28,4.59C284.73,119.43,284.84,121.05,284.9,122.7Z"></path><path fill="#fbddad" opacity="0.24" d="M281.93,127c-.06-2.63-.22-5.24-.47-7.75,0,2.24,0,4.49-.2,6.6a42.71,42.71,0,0,0-1.46-9.4,149,149,0,0,1,1,27.25c.29-2.14.54-4.37.73-6.67.14,2,.22,4.13.26,6.21.08-3,.64-5.62.56-8.66a58.15,58.15,0,0,1,.46,9.61c0-2.92.25-5.71.34-8.59.11-3.82-.06-7.72-.31-11.49-.11-1.76-.2-4-.41-5.61-.1-.74-.22-1.13-.33-.28a20.69,20.69,0,0,0,0,2.48A61.92,61.92,0,0,1,281.93,127Z"></path><path fill="#fbddad" opacity="0.24" d="M277.53,138.73c.24-1.72.12-3.88.2-5.84a42.94,42.94,0,0,1,.29,5.51c.07-5.48.3-12.5-.66-17.37a17.29,17.29,0,0,0-.79-3.32,74.32,74.32,0,0,1,1,9.79,45.28,45.28,0,0,0-1.24-8.67c-.07-.34-.24-1.15-.36-1,.16,1.27.42,2.43.6,3.7s.34,2.59.48,3.94c.27,2.71.44,5.55.51,8.4C277.56,135.5,277.56,137.12,277.53,138.73Z"></path><path fill="#fbddad" opacity="0.24" d="M279.84,136.21c0-1,0-2.06.09-3.05-.11,1-.24,2-.41,2.94.11-1.74.17-3.53.17-5.34,0-1.51,0-3-.08-4.55-.05-1.9-.11-3.83-.32-5.6a61.14,61.14,0,0,1,.5,10.58c0-.55,0-1.07.09-1.58a49.81,49.81,0,0,0-.07-8.28c0,.39.18.83.23,1.22s.11,1,.15,1.48c.07.86.1,1.73.12,2.62,0,2.1,0,4.22-.14,6.23C280.09,134,280,135.15,279.84,136.21Z"></path><path fill="#fbddad" opacity="0.24" d="M278.93,119.42a85,85,0,0,1,.05,9.17,30.51,30.51,0,0,1-.41,4.34c0-.71.05-1.4.09-2.09a59.91,59.91,0,0,0,0-7c-.12-1.84-.32-3.59-.49-5.37-.21-2.13-.37-4.32-.49-6.53a3.67,3.67,0,0,1,0-.67,47.84,47.84,0,0,1,1.08,10.22c0-1.58-.14-3.19-.25-4.73a26.63,26.63,0,0,1-.17-4.38c.15.91.21,2.35.31,3.39S278.85,118.19,278.93,119.42Z"></path><path fill="#fbddad" opacity="0.24" d="M274,127.23c-.3-4.63-.49-9.32-.59-14q0,6.72,0,13.45l-.51-3.47c-.06,4.28-.13,8.63.15,12.86.11,1.73.28,3.41.45,5.09l.34,3.49c.07-1.89.07-3.82,0-5.74a40.66,40.66,0,0,1,.37,4.33c0-1.89,0-3.77.05-5.62a34.53,34.53,0,0,0-.06-5.49,59.9,59.9,0,0,1,1.19,11.95c.13-2.32.24-4.65.27-7a84.8,84.8,0,0,0-1-14.26c.07,3.2,0,6.42-.18,9.5a42.5,42.5,0,0,0-.32-5.73c-.07.64-.12,1.32-.14,2A11.8,11.8,0,0,0,274,127.23Z"></path><path fill="#fbddad" opacity="0.24" d="M260.37,135.66c-.25-2.33-.41-4.74-.48-7.15a46.78,46.78,0,0,0,1,5.49,47.56,47.56,0,0,1,.24-9.55,118.4,118.4,0,0,0,2.32,24.43c-.52-1.55-1-3.23-1.47-5,.12,1.9.28,3.78.49,5.62-.42-2.51-1.25-4.21-1.54-6.9a49,49,0,0,0,.71,8.73c-.35-2.51-.9-4.66-1.33-7.06a94.21,94.21,0,0,1-1.07-10.19c-.1-1.64-.29-3.62-.28-5.25,0-.73.06-1.18.27-.57a16.31,16.31,0,0,1,.26,2.18A42.4,42.4,0,0,0,260.37,135.66Z"></path><path fill="#fbddad" opacity="0.24" d="M260.23,145.79c-.5-.39-.8-1.6-1.21-2.38a11.79,11.79,0,0,0,.77,3.05c-1-2.42-2.48-5.3-2.62-9.19a15.39,15.39,0,0,1,0-2.88,29.21,29.21,0,0,0,1,6.17,24.14,24.14,0,0,1-.61-6.12,2.92,2.92,0,0,1,.1-1.08c.11.87.12,1.86.21,2.75s.2,1.78.34,2.64a33.45,33.45,0,0,0,1.12,4.77A19.91,19.91,0,0,0,260.23,145.79Z"></path><path fill="#fbddad" opacity="0.24" d="M264.16,142.65a21.45,21.45,0,0,0-.49-2.6,13.36,13.36,0,0,0,.92,2.14,38.7,38.7,0,0,1-.88-4.53c-.18-1.34-.31-2.74-.44-4.13a42.27,42.27,0,0,1-.25-5.31,37.44,37.44,0,0,0,.6,9.93,8.11,8.11,0,0,0-.31-1.31,26.71,26.71,0,0,1-.91-7.39c0,.38-.15.93-.17,1.34s0,1,0,1.46c0,.84.08,1.65.16,2.46a35.89,35.89,0,0,0,.95,5.36A22.3,22.3,0,0,0,264.16,142.65Z"></path><path fill="#fbddad" opacity="0.24" d="M264,129.12a41.39,41.39,0,0,0,1,7.5,11.37,11.37,0,0,0,1,3.11,12.7,12.7,0,0,0-.34-1.61,29.16,29.16,0,0,1-.73-5.7c0-1.62,0-3.25,0-4.88,0-2,0-3.89-.12-5.81a1.3,1.3,0,0,0-.09-.53,32.68,32.68,0,0,0-.22,9.42,39.2,39.2,0,0,1-.21-4.1c0-.75,0-3.44-.28-3.74Z"></path><path fill="#fbddad" opacity="0.24" d="M266.61,124.31c-.11-2.39-.13-4.83-.05-7.23a52,52,0,0,0,.63,5.77,44.82,44.82,0,0,1,.81-9.34,125.65,125.65,0,0,0,.82,25c-.42-1.72-.81-3.55-1.15-5.48,0,1.91.05,3.83.15,5.72-.27-2.64-1-4.62-1.11-7.38a50.44,50.44,0,0,0,.18,8.88c-.2-2.61-.62-4.94-.89-7.46a99.39,99.39,0,0,1-.45-10.46c0-1.65-.06-3.67,0-5.28.05-.72.14-1.15.31-.47a17.57,17.57,0,0,1,.12,2.25A45.18,45.18,0,0,0,266.61,124.31Z"></path><path fill="#fbddad" opacity="0.24" d="M272,136.86a20.67,20.67,0,0,1-.65-3.36,18.82,18.82,0,0,0,.16,3.65c-.5-3.26-1.26-7.31-.74-11.24a14.64,14.64,0,0,1,.49-2.82,39.33,39.33,0,0,0-.14,6.93,29.42,29.42,0,0,1,.48-6.52c.05-.29.14-1,.27-1-.05.94-.21,1.91-.28,2.86s-.12,1.93-.14,2.88a51.86,51.86,0,0,0,.18,5.63C271.67,134.92,271.79,135.91,272,136.86Z"></path><path fill="#fbddad" opacity="0.24" d="M269.86,137.52a15.83,15.83,0,0,0-.26-1.9,10.73,10.73,0,0,0,.57,1.66,30.31,30.31,0,0,1-.47-3.31c-.09-1-.14-2-.18-2.95a31.11,31.11,0,0,1,0-3.74,27.32,27.32,0,0,0,.12,7,5.47,5.47,0,0,0-.17-1A20.28,20.28,0,0,1,269,128c0,.27-.13.62-.16.9s-.05.67-.06,1a16.59,16.59,0,0,0,0,1.73,26.26,26.26,0,0,0,.49,3.91Q269.58,136.6,269.86,137.52Z"></path><path fill="#fbddad" opacity="0.24" d="M269.05,120.67a34.71,34.71,0,0,0,.48,5.87,11.35,11.35,0,0,0,.65,2.56,10.23,10.23,0,0,0-.2-1.29,23.64,23.64,0,0,1-.36-4.46c0-1.23.11-2.46.17-3.69.08-1.47.12-2.94.1-4.41a1.1,1.1,0,0,0-.05-.43,24.45,24.45,0,0,0-.47,7.09c-.08-1,0-2.11,0-3.15a11.56,11.56,0,0,0-.09-2.88c-.09.65-.07,1.61-.11,2.32S269.06,119.84,269.05,120.67Z"></path></g><g opacity="0.88" class="cls-screen show"><path fill="#fbddad" opacity="0.24" d="M137.3,128.91c.26-2.61.45-5.25.57-7.83-.24,2.22-.55,4.38-.92,6.37a64.82,64.82,0,0,0,.05-9.93,196.82,196.82,0,0,1-2.48,27.19c.46-2,.89-4,1.3-6.18-.14,2.07-.32,4.16-.54,6.22.41-2.91,1.12-5.2,1.42-8.22a78,78,0,0,1-.8,9.64c.35-2.86.85-5.47,1.25-8.25.53-3.69.86-7.59,1.12-11.41.13-1.79.32-4,.36-5.7,0-.77,0-1.21-.2-.44-.14.58-.2,1.76-.27,2.45C137.94,124.94,137.65,127,137.3,128.91Z"></path><path fill="#fbddad" opacity="0.24" d="M136,148.8a42.49,42.49,0,0,0,1.17-4.41,47,47,0,0,1-.87,5.11,94,94,0,0,0,2.86-15.6c.09-1.33.26-3.12.22-4.3-.3,3.45-.75,6.89-1.32,10a81,81,0,0,0,1-9.59,6.91,6.91,0,0,0,0-1.54c-.15,1.37-.23,2.85-.37,4.25s-.31,2.81-.49,4.19c-.37,2.77-.8,5.45-1.29,7.93C136.64,146.2,136.35,147.54,136,148.8Z"></path><path fill="#fbddad" opacity="0.24" d="M133.08,146.9c.17-1.46.37-2.88.6-4.24-.28,1.39-.58,2.69-.91,3.86.41-2.37.77-4.86,1.07-7.4.25-2.14.47-4.31.68-6.48.27-2.71.53-5.47.62-8.12a116.76,116.76,0,0,1-1.27,15.27c.09-.77.23-1.47.36-2.17a90.73,90.73,0,0,0,1.32-11.7c0,.56,0,1.28,0,1.88s-.06,1.43-.1,2.17c-.07,1.27-.19,2.52-.32,3.78-.31,3-.71,5.95-1.19,8.69C133.7,144,133.4,145.5,133.08,146.9Z"></path><path fill="#fbddad" opacity="0.24" d="M134.32,126.52c-.28,4-.78,8.09-1.37,11.9a47.94,47.94,0,0,1-1.06,5.36c.1-.93.26-1.78.4-2.65.47-2.85.83-6,1-9,.17-2.45.25-4.85.36-7.27.14-2.9.32-5.83.55-8.77a4,4,0,0,1,.12-.86,91,91,0,0,1-.56,13.93c.23-2.05.36-4.22.49-6.28a46.58,46.58,0,0,1,.52-5.79c0,1.28-.16,3.19-.23,4.59C134.5,123.26,134.43,124.88,134.32,126.52Z"></path><path fill="#fbddad" opacity="0.24" d="M131.65,130.58c.21-2.62.34-5.24.4-7.75-.19,2.23-.46,4.46-.79,6.55a56,56,0,0,0-.2-9.48,196.18,196.18,0,0,1-1.89,27.18c.43-2.1.83-4.3,1.2-6.57-.1,2.05-.23,4.13-.41,6.2.35-3,1-5.53,1.27-8.56a77.46,77.46,0,0,1-.59,9.59c.29-2.9.74-5.65,1.09-8.51.45-3.79.7-7.67.88-11.45.08-1.76.23-4,.22-5.61,0-.74-.05-1.15-.22-.32-.12.63-.15,1.78-.21,2.48C132.22,126.46,132,128.6,131.65,130.58Z"></path><path fill="#fbddad" opacity="0.24" d="M127.2,141.81c.35-1.68.46-3.84.71-5.78,0,1.74-.11,3.65-.31,5.5.58-5.44,1.43-12.41,1.18-17.33a22.79,22.79,0,0,0-.28-3.37,97.33,97.33,0,0,1-.22,9.82,60.85,60.85,0,0,0-.09-8.73c0-.35-.08-1.16-.19-1,0,1.28.09,2.46.1,3.74s0,2.6,0,4c-.06,2.72-.2,5.55-.42,8.39C127.53,138.61,127.38,140.22,127.2,141.81Z"></path><path fill="#fbddad" opacity="0.24" d="M129.19,139.51c.1-1,.22-2,.36-3-.18,1-.38,2-.59,2.88.25-1.71.46-3.49.64-5.28.15-1.51.26-3,.38-4.54.14-1.89.29-3.82.3-5.6a82.06,82.06,0,0,1-.64,10.57c0-.55.13-1.06.21-1.57a63.88,63.88,0,0,0,.75-8.23c0,.39.06.84.06,1.23s0,1,0,1.48c0,.86-.09,1.73-.16,2.61-.18,2.1-.42,4.2-.72,6.19C129.58,137.37,129.4,138.47,129.19,139.51Z"></path><path fill="#fbddad" opacity="0.24" d="M130.12,122.74c-.14,3-.45,6.14-.84,9.12a41.16,41.16,0,0,1-.73,4.28c.06-.71.17-1.39.26-2.07.31-2.24.54-4.63.65-6.93.08-1.83.1-3.59.14-5.38q.08-3.21.26-6.53a5.87,5.87,0,0,1,.08-.67,62.92,62.92,0,0,1-.17,10.26c.14-1.58.2-3.19.26-4.72a36.19,36.19,0,0,1,.3-4.38c0,.92-.07,2.36-.09,3.4S130.18,121.51,130.12,122.74Z"></path><path fill="#fbddad" opacity="0.24" d="M125.63,130.07c.23-4.62.53-9.31.91-14q-.67,6.67-1.29,13.38l0-3.5c-.46,4.25-.93,8.57-1.13,12.8-.09,1.73-.12,3.42-.16,5.1l-.07,3.51c.23-1.88.42-3.8.55-5.71,0,1.33,0,2.84-.13,4.33.15-1.87.35-3.75.57-5.59a43.58,43.58,0,0,0,.49-5.45,79.28,79.28,0,0,1-.25,12c.31-2.29.63-4.61.88-7a112.3,112.3,0,0,0,.6-14.27c-.26,3.19-.62,6.39-1.06,9.43a54.11,54.11,0,0,0,.32-5.73c-.12.64-.22,1.31-.31,2A11.57,11.57,0,0,0,125.63,130.07Z"></path><path fill="#fbddad" opacity="0.24" d="M114.52,137.27c0-2.34.15-4.75.33-7.15,0,2,.06,3.86.2,5.54a62.91,62.91,0,0,1,1.11-9.48,156,156,0,0,0-.61,24.49c-.25-1.58-.45-3.29-.62-5.11-.1,1.9-.16,3.78-.17,5.62-.08-2.53-.55-4.29-.51-7a63.69,63.69,0,0,0-.3,8.74c0-2.52-.24-4.71-.32-7.13-.12-3.21,0-6.74.17-10.23.08-1.63.13-3.62.3-5.24.07-.73.16-1.17.25-.55a17.87,17.87,0,0,1,0,2.19C114.32,133.86,114.38,135.68,114.52,137.27Z"></path><path fill="#fbddad" opacity="0.24" d="M113.44,147.32a10.51,10.51,0,0,1-.68-2.47A14.17,14.17,0,0,0,113,148a30.64,30.64,0,0,1-1.1-9.37,20.82,20.82,0,0,1,.29-2.87,39,39,0,0,0,.18,6.23,31.34,31.34,0,0,1,.13-6.14,3.64,3.64,0,0,1,.18-1.07c0,.88-.09,1.86-.11,2.76s0,1.79,0,2.65A43.35,43.35,0,0,0,113,145C113.12,145.83,113.27,146.61,113.44,147.32Z"></path><path fill="#fbddad" opacity="0.24" d="M116.71,144.55c0-.93,0-1.81-.12-2.63a16.23,16.23,0,0,0,.49,2.21c-.14-1.44-.21-3-.22-4.59,0-1.35,0-2.74.06-4.14a53.09,53.09,0,0,1,.33-5.3,49.19,49.19,0,0,0-.51,9.93,10.51,10.51,0,0,0-.11-1.33,35.58,35.58,0,0,1,0-7.44c0,.38-.19.92-.25,1.32s-.12,1-.16,1.46c-.07.83-.11,1.64-.12,2.45a44.67,44.67,0,0,0,.2,5.42C116.42,142.85,116.55,143.74,116.71,144.55Z"></path><path fill="#fbddad" opacity="0.24" d="M117.86,131.07a54.3,54.3,0,0,0,0,7.55,14.46,14.46,0,0,0,.46,3.18c0-.59-.06-1.1-.1-1.63a37.81,37.81,0,0,1,0-5.74c.12-1.61.32-3.23.5-4.85.2-1.93.36-3.87.47-5.78a1.83,1.83,0,0,0,0-.54,43.74,43.74,0,0,0-1.08,9.35c0-1.3.14-2.74.24-4.1a18.37,18.37,0,0,0,.15-3.74"></path><path fill="#fbddad" opacity="0.24" d="M120.33,126.53c.15-2.39.38-4.82.67-7.2-.11,2-.14,4-.09,5.79a59.89,59.89,0,0,1,1.52-9.22,164.9,164.9,0,0,0-1.79,24.91c-.16-1.75-.27-3.61-.34-5.56-.19,1.91-.33,3.82-.44,5.71,0-2.65-.3-4.68-.13-7.44a66.94,66.94,0,0,0-.72,8.85c.1-2.61,0-5,0-7.5,0-3.35.33-6.93.67-10.44.16-1.64.31-3.66.54-5.25.11-.71.22-1.12.28-.43,0,.52-.09,1.6-.13,2.24C120.31,122.93,120.27,124.83,120.33,126.53Z"></path><path fill="#fbddad" opacity="0.24" d="M123.16,139.47a24.94,24.94,0,0,1-.16-3.39,23.24,23.24,0,0,0-.24,3.64,52.12,52.12,0,0,1,.53-11.25,19.7,19.7,0,0,1,.64-2.76,53.29,53.29,0,0,0-.78,6.88,38.63,38.63,0,0,1,1-6.44c.06-.28.2-.93.3-.94-.13.93-.35,1.88-.49,2.82s-.28,1.9-.39,2.85c-.21,1.91-.35,3.81-.41,5.62C123.13,137.52,123.13,138.52,123.16,139.47Z"></path><path fill="#fbddad" opacity="0.24" d="M121.52,139.94c0-.66,0-1.3,0-1.91.07.62.16,1.19.27,1.7,0-1.06-.06-2.18,0-3.33,0-1,.08-2,.15-3a35.47,35.47,0,0,1,.35-3.72,34.83,34.83,0,0,0-.59,7c0-.35,0-.66,0-1a26.94,26.94,0,0,1,.2-5.32c0,.26-.15.6-.2.88s-.1.66-.14,1c-.07.58-.12,1.16-.15,1.73a36.77,36.77,0,0,0,0,3.93C121.36,138.66,121.43,139.33,121.52,139.94Z"></path><path fill="#fbddad" opacity="0.24" d="M122.54,123.12a43.66,43.66,0,0,0-.21,5.88,13.79,13.79,0,0,0,.24,2.6c0-.46,0-.88,0-1.3a31.05,31.05,0,0,1,.15-4.47c.13-1.22.32-2.43.49-3.65.2-1.45.37-2.92.51-4.38a2,2,0,0,0,0-.43,31.42,31.42,0,0,0-1,7c0-1,.17-2.11.28-3.14a13.74,13.74,0,0,0,.21-2.87c-.13.65-.2,1.59-.3,2.3S122.62,122.3,122.54,123.12Z"></path></g><path opacity="0.33" d="M294.22,137.62c-2.94,28-8.74,69.13-8.74,69.13l-170.27,1s-4.45-25-6.3-49.19c35.05,3.85,128.42,10.94,177-15.72l0,0c1.23-.68,2.44-1.38,3.61-2.1h0c.39-.24.78-.48,1.16-.73s.53-.34.8-.51C292.43,138.88,293.33,138.26,294.22,137.62Z" class="cls-overlay"></path><path fill="#f9b2a3" d="M391.54,400H8.46c1.85-4.31,3.16-7.51,3.72-9.15,3.7-10.67,95.11-30,127.55-37.57,5.18-1.21,8.86-2.11,10.43-2.64s2.87-2.23,4.07-4.83c.1-.22.2-.44.3-.68,2.72-6.37,4.62-17.32,5.92-28.69h0c.24-2.07.46-4.16.66-6.23.17-1.69.32-3.37.46-5,0-.28.05-.55.07-.83.14-1.67.26-3.31.38-4.91,1-13.42,1.23-24.2,1.23-24.2h73.5s0,.15,0,.43,0,.69,0,1.23c0,.11,0,.22,0,.34,0,.53,0,1.17.06,1.9a0,0,0,0,0,0,.05c0,.22,0,.46,0,.7,0,.65.05,1.36.08,2.12l0,.75,0,.45c0,.3,0,.62,0,.94s0,.64,0,1c0,.09,0,.19,0,.28,0,.58.05,1.17.09,1.79l.06,1.1c0,.74.07,1.5.12,2.29l0,.59c0,.19,0,.39,0,.59,0,.8.09,1.63.15,2.47s.11,1.69.17,2.56.1,1.53.16,2.31l.12,1.69.06.68c0,.23,0,.45.05.68h0c.08,1,.16,2,.24,3,.06.64.11,1.29.17,1.95.08.89.16,1.79.25,2.69.51,5.33,1.14,10.75,1.91,15.82.48,3.17,1,6.2,1.62,9A55.46,55.46,0,0,0,245.84,346v0c1.18,2.5,2.5,4.15,4,4.64s4.44,1.23,8.72,2.25h0c6.21,1.46,15,3.44,25.18,5.75,40.13,9.15,101.06,23.54,104.07,32.21C388.38,392.49,389.69,395.69,391.54,400Z" class="canChange" style="fill:null"></path><path fill="#420e2d" d="M238.19,302.16c-38.12,23.53-64.94,10.71-76.55,2.18.14-1.67.26-3.31.38-4.91,1-13.42,1.23-24.2,1.23-24.2h73.5S237,287.5,238.19,302.16Z" class="cls-softlight"></path><polygon fill="#f9b2a3" points="103.03 147.92 101.83 170.67 118.58 222 282.61 220.95 298.17 165.88 294.58 151.51 256.27 76.09 210.1 25.82 191.11 25.82 103.03 147.92" class="canChange" style="fill:null"></polygon><path fill="#f9b2a3" d="M202.4,25.81s62.26-3.6,85,40.7,10.78,98.17,10.78,98.17Z" class="canChange" style="fill:null"></path><path fill="#f9b2a3" d="M292.29,173s3.58-14.33,15.46-7.56c8,4.55,6.08,18.57,4.88,25.91-1.55,9.52-3.93,20.06-10.78,27.28-4,4.21-19,13.51-20.43,2.32Z" class="canChange" style="fill:null"></path><path fill="none" stroke="#1f0905" stroke-miterlimit="10" d="M306.19,171.71s-18,7.87-15.11,21,7.05,11.28,5.71,16.65"></path><path fill="none" stroke="#1f0905" stroke-miterlimit="10" d="M305,196.16s7.13-19.34-5.46-20.49"></path><path fill="#f9b2a3" d="M107.71,173s-3.58-14.33-15.46-7.56c-8,4.55-6.08,18.57-4.88,25.91,1.55,9.52,3.93,20.06,10.78,27.28,4,4.21,19,13.51,20.43,2.32Z" class="canChange" style="fill:null"></path><path fill="none" stroke="#1f0905" stroke-miterlimit="10" d="M93.81,171.71s18,7.87,15.11,21-7,11.28-5.71,16.65"></path><path fill="none" stroke="#1f0905" stroke-miterlimit="10" d="M95,196.16s-7.13-19.34,5.46-20.49"></path><path fill="#f9b2a3" d="M198.2,25.81h-.26s-62.25-3.6-85,40.7-10.77,98.17-10.77,98.17Z" class="canChange" style="fill:null"></path><path fill="#fff" opacity="0.26" d="M294.69,211.32a3.66,3.66,0,0,0-2.32-2.67,5,5,0,0,0-3.6.11,3.15,3.15,0,0,0-2,2c-.27,1,.29,2.1.45,3.17s0,2.29.68,3.11,2.33.73,3.33,0C292.75,215.93,295.06,213.34,294.69,211.32Z" class="cls-softlight"></path><path fill="#fff" opacity="0.26" d="M104.76,211.32a3.68,3.68,0,0,1,2.32-2.67,5,5,0,0,1,3.61.11,3.14,3.14,0,0,1,2,2c.27,1-.28,2.1-.45,3.17s0,2.29-.67,3.11-2.34.73-3.34,0C106.7,215.93,104.39,213.34,104.76,211.32Z" class="cls-softlight"></path><path fill="#fff" opacity="0.26" d="M99.43,178.45s-4.78,8.38-1.19,21.55c0,0-5.73-8.17-5.26-12.47s.77-11.24,4.21-10.76S99.43,178.45,99.43,178.45Z" class="cls-softlight"></path><path fill="#fff" opacity="0.26" d="M300.27,178.45s4.79,8.38,1.2,21.55c0,0,5.73-8.17,5.26-12.47s-.78-11.24-4.22-10.76S300.27,178.45,300.27,178.45Z" class="cls-softlight"></path><path fill="#f9b2a3" d="M285.33,171.88s6.44,47.86,3.22,49.07-5.94-.24-6.43,2.67-9.88,73.54-28.14,78.61-54,5.59-54,5.59-35.71-.51-54-5.59-27.65-75.7-28.14-78.61-3.21-1.45-6.43-2.67,3.22-49.07,3.22-49.07Z" class="canChange" style="fill:null"></path><path fill="#36342e" d="M276.63,66.36c-13.69-4.93-25.12-12.65-38.66-17.8a66.94,66.94,0,0,1-29.26-21.07c-2.11,0-4.22-.1-6.33-.11-49.25.2-104.83,2-118.42,16-28.3,29.14,5.7,82.41,5.7,82.41l16.77,41.57c4.41-11.63,5.54-24,5.66-32.79.09-7,11.73-14.44,9.81-26.91C116.09,70,178.37,85.57,187.82,87.72c9.45-2.15,93.33-16.45,91.32,26.12-.59,12.54,13.43,13.72,13.53,20.73.11,8.78,1.24,21.16,5.65,32.79l16.77-41.57s15.78-20.5,10.46-49.79C308.9,74.77,292.63,72.1,276.63,66.36Z" class="canChange" style="fill:null"></path><path fill="#2a2822" d="M278.41,106a126,126,0,0,0,12.26,3.32c11.21,2.25,22,1.71,32.6-.26A67.31,67.31,0,0,0,325.55,76c-16.65-1.23-32.92-3.9-48.92-9.64-13.69-4.93-25.12-12.65-38.66-17.8a66.94,66.94,0,0,1-29.26-21.07c-2.11,0-4.22-.1-6.33-.11-32.62.13-67.94,1-92.07,5.6-3.51,9.66-2.6,19.41,5.73,31.45,5.21,7.53,12,14.06,18.68,20.75,17.48-6.15,46.85,1.12,53.1,2.54C196.63,85.72,270.21,73.15,278.41,106Z" class="canChange" style="fill:null"></path><path fill="#26241e" d="M187.82,87.72a206.43,206.43,0,0,1,27.57-3.59c-7.6-17.66-12.56-37.31-13.31-56.75-34.49.15-71.94,1.11-96,6.48C91.64,60.77,100.86,79,130.66,87,147.19,77.8,181.05,86.18,187.82,87.72Z" class="cls-multipy"></path><path fill="#2a2822" d="M184.75,89.28S141.41,87.64,123,71.88c-11.15-9.55-16.16-26.59,10-46.4C162.77,3,210,3,243.78,16.45,289.22,34.57,315,64.35,326,66.5c2.82,0-3.24-3.12-5.5-3.25,0,0,15.14-3.18,19.16,11C343.4,87.3,328.06,100,293.06,93,254.21,85.12,251.05,65.66,184.75,89.28Z" class="canChange" style="fill:null"></path><path opacity="0.2" d="M189.14,36.52c25.1-3.06,49.26,13.08,72.67,28.72,19.19,12.82,37,24.05,54.44,24.51,18.88.49,18.88-10,18.88-10C314.55,91.07,291.29,78,266.27,61.24c-23.45-15.66-50-33.42-78.2-29.94C153.63,35.54,152.35,52,152.78,57c.66,7.67,6,14.65,11.92,20.14-8.23-3.18-17.23-7.91-22.35-14.61-6.46-8.45-6.95-22,12.9-32.36,49.73-26,96.48,5.89,119,21.2l2.59,1.76C293.3,64.26,312,76.91,324.36,78.72c3.6.53,7.52.11,9.59-2.68,3.45-4.63-3.41-9.41-3.41-9.41,1.71,2.73-.36,5.8-.81,6.26s-2.45.88-4.1.64C315.11,72,295.56,58.77,281.28,49.12l-2.57-1.74c-21.9-14.92-73.18-49.85-127.27-21.61C129.17,37.4,127.88,54,136.47,65.2c10.09,13.2,39.36,22,48.28,24.08,0,0-7.81-17.3-6.95-26.34a10.83,10.83,0,0,1,5.77-8.68c4.25-2.35,10.46-2.8,18-1.28,16.86,3.41,32.59,12.85,47.8,22,19.57,11.75,35.74,21.53,59.15,23.12,12.15.82,15.63-5.68,15.63-5.68-26.16,5.1-47.73-7.88-70.6-21.62-15.75-9.46-32-19.24-50.26-22.92-12-2.44-19.49-.2-23.65,2.09A16,16,0,0,0,171,62.56c-.47,5,1.22,10.33,3.16,14.72-6.63-5.21-13.86-12.62-14.55-20.65C158.7,46.27,169.47,38.94,189.14,36.52Z"></path><path cfill="#380904" d="M214.49,133.79s-3.7,11.57-2.65,15.78,43.47-10.62,48.94-6.82a29,29,0,0,1,7.76,7.51s1.7-18.74-6.22-20.76S214.49,133.79,214.49,133.79Z" class="canChange" style="fill:null"></path><path cfill="#380904" d="M185.51,133.79s3.7,11.57,2.65,15.78-43.47-10.62-48.94-6.82a29,29,0,0,0-7.76,7.51s-1.7-18.74,6.22-20.76S185.51,133.79,185.51,133.79Z" class="canChange" style="fill:null"></path><path d="M262.7,164.62s-8.91,7.28-14,7.63-30.36-10.33-30.36-10.33,4.68-9.4,9.25-9.86,20.08-.45,23.51,2.06S262.7,164.62,262.7,164.62Z"></path><path fill="#fff" d="M259.67,163.85l-.09.09c-.77.93-7,8.14-12.13,8.59a140.29,140.29,0,0,1-24.52.11c-.74-.07-1.47-.16-2.2-.26h0l-.93-.13a42.93,42.93,0,0,1-7.21-1.65s.78-1.21,2-3c.6-.9,1.3-1.93,2.06-3,3.38-4.88,7.92-11,9.56-11.2,2.75-.32,22.51-1.44,28,4.51Z"></path><path fill="#40094f" opacity="0.4" d="M259.67,163.85l-.09.09c-17.77-5.74-36-.05-45,3.68,3.26-4.87,9.61-14,11.62-14.23,2.75-.32,22.51-1.44,28,4.51Z"></path><path fill="#ffc09e" d="M219.79,172.25a42.93,42.93,0,0,1-7.21-1.65s.78-1.21,2-3c.6-.9,1.3-1.93,2.06-3C216,167.69,216.15,171.46,219.79,172.25Z"></path><path fill="#fff" d="M222.93,172.64c-.74-.07-1.47-.16-2.2-.26C221.59,172.45,222.32,172.54,222.93,172.64Z"></path><g class="cls-path-cs2-male-10R show"><ellipse fill="#9fc2d6" cx="235.94" cy="161.52" rx="12.26" ry="10.4" transform="translate(-5.4 8.19) rotate(-1.97)" class="canChange" style="fill:null"></ellipse><ellipse cx="235.88" cy="160.47" rx="8.57" ry="7.27" transform="translate(-5.37 8.19) rotate(-1.97)"></ellipse><ellipse fill="#fff" cx="228.88" cy="160.25" rx="2.92" ry="2.48" transform="translate(-5.36 7.95) rotate(-1.97)"></ellipse></g><path d="M137.3,164.84s8.91,7.28,14,7.64,30.36-10.33,30.36-10.33-4.68-9.4-9.25-9.86-20.08-.46-23.51,2.05S137.3,164.84,137.3,164.84Z"></path><path fill="#fff" d="M140.33,164.07l.09.1c.77.93,7,8.14,12.13,8.59a140.29,140.29,0,0,0,24.52.11c.74-.07,1.47-.16,2.2-.26h0l.93-.13a42.93,42.93,0,0,0,7.21-1.65s-.78-1.21-2-3c-.6-.89-1.3-1.92-2.06-3-3.38-4.88-7.92-11-9.56-11.2-2.75-.32-22.51-1.45-28,4.5Z"></path><path fill="#40094f" opacity="0.4" d="M140.33,164.07l.09.1c17.77-5.74,36-.06,45,3.67-3.26-4.86-9.61-14-11.62-14.22-2.75-.32-22.51-1.45-28,4.5Z"></path><path fill="#ffc09e" d="M180.21,172.48a42.93,42.93,0,0,0,7.21-1.65s-.78-1.21-2-3c-.6-.89-1.3-1.92-2.06-3C184,167.92,183.85,171.68,180.21,172.48Z"></path><path fill="#fff" d="M177.07,172.87c.74-.07,1.47-.16,2.2-.26C178.41,172.68,177.68,172.76,177.07,172.87Z"></path><g class="cls-path-cs2-male-10L show"><ellipse fill="#9fc2d6" cx="164.06" cy="161.75" rx="12.26" ry="10.4" transform="translate(-5.45 5.72) rotate(-1.97)" class="canChange" style="fill:null"></ellipse><ellipse cx="164" cy="160.7" rx="8.57" ry="7.27" transform="translate(-5.42 5.72) rotate(-1.97)"></ellipse><ellipse fill="#fff" cx="157" cy="160.48" rx="2.92" ry="2.48" transform="translate(-5.41 5.48) rotate(-1.97)"></ellipse></g><path fill="none" stroke="#3b050a" stroke-miterlimite="10" d="M173.57,255.17s29.74,7.32,52.86-.15"></path><path fill="#3b050a" opacity="0.32" d="M176.48,255s12.79-7,23.57-4.3c0,0,15.6-3.32,23.72,5.13C223.77,255.81,199.54,281.89,176.48,255Z" class="canChange" style="fill:null"></path><path fill="#210905" d="M200,235.68s-39.87.69-38.15,18.09a33,33,0,0,0,11.35-4.08c5.17-3.21,14.81-2.61,26.8-2.61s21.63-.6,26.8,2.61a33,33,0,0,0,11.35,4.08C239.87,236.37,200,235.68,200,235.68Z" class="canChange" style="fill:null"></path><path fill="#210905" d="M210.08,297.78c-4.61,1.38-1-6,1.19-9.84.44-.77-.11-1.8-.9-1.67a73.27,73.27,0,0,1-11.27.59,73.43,73.43,0,0,1-11.28-.59c-.78-.13-1.33.9-.9,1.67,2.17,3.87,5.8,11.22,1.19,9.84s-9.39.77-12.53,4.94c-1,1.31-2.05,2.57-3.16,3.76,0,0,4.12,5.28,6.62,7.18,4.93,3.74,10.05,4.74,20.06,4.76s15.13-1,20.05-4.76c2.5-1.9,6.63-7.18,6.63-7.18a47.71,47.71,0,0,1-3.17-3.76C219.47,298.55,214.68,296.4,210.08,297.78Z" class="canChange" style="fill:null"></path><path fill="#e8f1ca" d="M391.15,400H8.83l0-.05.12-.27.36-.82,1.55-3.55c.73-1.69,1.36-3.17,1.87-4.41l.13-.33.14-.33q.2-.47.36-.9l.1-.24.2-.54a1.8,1.8,0,0,0,.08-.21c0-.08.07-.17.1-.24l.06-.18.08-.23.1-.25.06-.11,0-.07.08-.13v0l.09-.14.1-.13a2.69,2.69,0,0,1,.22-.28l0,0,.14-.15.15-.15.16-.15.16-.15.37-.31a14.62,14.62,0,0,1,1.57-1.1l.46-.28.49-.29,1.06-.57c.31-.16.63-.33,1-.49l.37-.18c.38-.19.79-.38,1.21-.57l.56-.25.57-.25,1.21-.51.56-.23.41-.17,1-.37c.89-.35,1.81-.7,2.77-1.05,1.9-.69,3.95-1.4,6.11-2.11l2.32-.75,1.16-.36c2-.62,4-1.25,6.19-1.88l1.25-.36,2.7-.78,1.89-.53,1.76-.49,1.8-.49.73-.2.47-.13c1.2-.33,2.42-.66,3.65-1l1.48-.39,1-.27,1-.24,1-.25.6-.15.86-.23,1.66-.42c2.53-.65,5.1-1.3,7.69-1.94l1.81-.45,1.49-.36c4.34-1.06,8.71-2.11,13-3.12l4.42-1,3.2-.74,1.13-.26,5.92-1.36c.45-.09.9-.2,1.34-.3l1-.23,1.52-.34,2.41-.55,1.35-.3.85-.19a12,12,0,0,0,.24,2.07c1.58,7.87,11,14.94,25.4,20.16,15.61,5.67,37.09,9.17,60.79,9.17q3.87,0,7.65-.12c20.67-.67,39.25-4,53.16-9.06,14.39-5.22,23.8-12.29,25.38-20.16a11.94,11.94,0,0,0,.24-2.06l.53.12,4.1.92,1.27.29.25.05,1,.23c.44.1.89.21,1.34.3l2.94.68,3,.68.16,0,1,.22,2.62.61,3.62.85,1.38.32,3.95.94c1.69.39,3.38.8,5.07,1.21l4,1,3.91,1,4.67,1.17c.83.2,1.66.41,2.48.63l4.9,1.27,1.05.27,1.48.39c.29.08.59.15.88.24.57.14,1.13.29,1.69.45l1.66.46s0,0,0,0l.6.16,1.8.49,1.68.47,4,1.13c2.07.6,4.09,1.2,6,1.79,1.45.45,2.87.89,4.24,1.33l.78.25.57.18,1,.32,2.2.74,2.12.75.84.3.63.24,1.49.56h0l1.82.72.18.07.56.23,1.21.51.57.25.56.25.22.1.74.35.25.12,1.14.57.2.1c.56.3,1.08.58,1.55.86l.06,0,.4.24a1,1,0,0,1,.13.09c1.71,1.09,2.79,2.12,3.13,3.08,0,.13.09.28.15.43s.22.59.36.94C387.4,391.4,389,395.2,391.15,400Z"></path><path fill="#00494f" d="M141,400H8.83l0-.05.12-.27.36-.82,1.55-3.55c.73-1.69,1.36-3.17,1.87-4.41l.13-.33.14-.33q.2-.47.36-.9l.1-.24.2-.54a1.8,1.8,0,0,0,.08-.21c0-.08.07-.17.1-.24l.06-.18.08-.23.1-.25.06-.11,0-.07.08-.13v0l.09-.14.1-.13a1.83,1.83,0,0,1,.13-.16l.09-.12,0,0,.14-.15.15-.15.16-.15.16-.15.37-.31a14.62,14.62,0,0,1,1.57-1.1l.46-.28.24-.15.25-.14,1.06-.57c.15-.09.31-.17.47-.25l.5-.24.37-.18c.38-.19.79-.38,1.21-.57l.56-.25.57-.25,1.21-.51.56-.23.41-.17,1-.37c.89-.35,1.81-.7,2.77-1.05,1.9-.69,3.95-1.4,6.11-2.11l.57-.18,1.75-.57,1.16-.36c2-.62,4-1.25,6.19-1.88l1.25-.36,2.7-.78,1.89-.53.87-.25.89-.24,1.8-.49.73-.2.47-.13c1.2-.33,2.42-.66,3.65-1l.05,0,1.43-.37,1-.27,1-.24,1-.25.6-.15.86-.23,1.66-.42c2.53-.65,5.1-1.3,7.69-1.94l1.81-.45,1.49-.36c4.34-1.06,8.71-2.11,13-3.12l4.42-1,3.2-.74,1.13-.26,5.92-1.36c.45-.09.9-.2,1.34-.3l1-.23,1.52-.34,2.41-.55,1.35-.3.85-.19,1.35-.31,1.9-.42,2.4-.54,2.22-.49.72-.17.72-.16,1-.22,4.22-.94,1-.22,4.56-1,7.26-.39s-.05.27-.13.79a146.39,146.39,0,0,0-1.57,26.32A162.55,162.55,0,0,0,141,400Z" class="canChange" style="fill:null"></path><path fill="#00494f" d="M391.17,400H259a162.7,162.7,0,0,0,1.78-20.65A146.15,146.15,0,0,0,259.23,353c-.08-.52-.13-.79-.13-.79l7.26.39,4.56,1,1,.22,4.22.94,1,.22.72.16.72.17,2.22.49,2.4.54,1.9.42,2.2.5,1.35.3,2.41.55,1.27.29.25.05,1,.23c.44.1.89.21,1.34.3l2.94.68,3,.68.16,0,1,.22,2.62.61.58.13,3,.72,1.38.32,3.95.94c1.69.39,3.38.8,5.07,1.21l4,1,1.49.36,2.42.61,4.67,1.17c.83.2,1.66.41,2.48.63l1.59.4,1.46.38.95.25,1,.24,1,.27,1.43.37.05,0c.29.08.59.15.88.24.57.14,1.13.29,1.69.45l1.08.29.58.17s0,0,0,0l.6.16,1.8.49.89.24.79.23c1.34.37,2.67.75,4,1.13l.71.2,1.25.36c1.39.41,2.76.82,4.08,1.23l2.11.65,1.16.36,1,.32.78.25.57.18,1,.32,2.2.74,2.12.75.84.3.63.24,1.49.56h0l1.82.72.18.07.56.23,1.21.51.57.25.56.25.22.1.74.35.25.12.87.42.27.15.2.1c.37.19.73.38,1.06.57l.25.14.24.15.06,0,.4.24a1,1,0,0,1,.13.09,12.81,12.81,0,0,1,1.44,1l.37.31.16.15.16.15.15.15.14.15.12.15a1.83,1.83,0,0,1,.13.16l.1.13.09.14v0l.08.13,0,.07.06.11.1.25.08.23c0,.06,0,.11.06.18s.06.16.1.24a1.8,1.8,0,0,0,.08.21l.2.54c.14.35.29.73.46,1.14l.14.33c.85,2.09,2.07,4.92,3.55,8.29l.36.82.12.27Z" class="canChange" style="fill:null"></path><g opacity="0.32" class="show"><path d="M213.71,197a58.37,58.37,0,0,1,3.81,6.83,43.83,43.83,0,0,1,2.78,7.34,17.86,17.86,0,0,1,.59,3.93,5.71,5.71,0,0,1-1.1,3.88c-.89,1-1.8,1.91-2.77,2.79a18.43,18.43,0,0,1-1.56,1.2,5.11,5.11,0,0,1-1.75.86,9.92,9.92,0,0,0,3-2.33,37,37,0,0,0,2.58-2.89,5.43,5.43,0,0,0,.87-3.49,17.91,17.91,0,0,0-.63-3.76A50.67,50.67,0,0,0,217,204C216,201.64,214.87,199.29,213.71,197Z"></path></g><g opacity="0.32" class="show"><path d="M185.87,197.94c-1.16,2.33-2.27,4.67-3.28,7.06a48.64,48.64,0,0,0-2.58,7.29,17.41,17.41,0,0,0-.64,3.76,5.41,5.41,0,0,0,.87,3.49,37.21,37.21,0,0,0,2.58,2.89,9.91,9.91,0,0,0,3.05,2.34,5.11,5.11,0,0,1-1.75-.86c-.54-.37-1.05-.79-1.55-1.21a36.33,36.33,0,0,1-2.77-2.78,5.68,5.68,0,0,1-1.11-3.89,18.47,18.47,0,0,1,.59-3.93,45.07,45.07,0,0,1,2.78-7.34A59.06,59.06,0,0,1,185.87,197.94Z"></path></g><g opacity="0.32" class="show"><path d="M211.22,224.1a18.33,18.33,0,0,0,1.92-1.81,2.61,2.61,0,0,0,.65-1.06c.07-.33-.47-.35-.86-.32a9.35,9.35,0,0,0-4.62,2.19l-4.18,3.25c-.7.55-1.39,1.07-2.08,1.62a7.35,7.35,0,0,1-1.16.78,2.27,2.27,0,0,1-1.53.26,4.14,4.14,0,0,1-1.3-.63c-.37-.23-.73-.47-1.1-.75-.72-.52-1.47-1-2.16-1.58-1.39-1.08-2.8-2.14-4.18-3.24s-2.89-2.09-4.61-2.2c-.4,0-.93,0-.86.32a2.66,2.66,0,0,0,.64,1,19.3,19.3,0,0,0,1.92,1.81,14.9,14.9,0,0,1-2.06-1.67,2.8,2.8,0,0,1-.78-1.15.53.53,0,0,1,.09-.43.67.67,0,0,1,.35-.22,2.25,2.25,0,0,1,.71-.08,6.29,6.29,0,0,1,2.63.71,18.12,18.12,0,0,1,2.29,1.39c1.44,1,2.85,2.11,4.28,3.16.71.55,1.42,1,2.13,1.53.34.25.72.5,1.1.73a3.88,3.88,0,0,0,1.07.52c.66.16,1.41-.35,2.09-.87s1.41-1.08,2.11-1.61c1.42-1.06,2.8-2.16,4.26-3.17s3.06-2,4.93-2.08a2.17,2.17,0,0,1,.71.07.79.79,0,0,1,.36.23.52.52,0,0,1,.09.43,2.76,2.76,0,0,1-.78,1.14A14.48,14.48,0,0,1,211.22,224.1Z"></path></g><path fill="#503d78" opacity="0.24" d="M183.73,202.57s3,14.3,4.4,15.81,20.8,3.73,24.09,1,3.43-18.81,3.43-18.83c0,.33,1,1.42,1.18,1.68a30.38,30.38,0,0,1,2.38,4.44c1.67,3.86,2.57,8.57.79,12.64-2,4.56-6.4,6.88-9.76,9.48-3.05,2.36-6,5-9.41,6.51s-6.5-.74-9.6-2.79c-4.61-3.06-11.09-7.47-12-14.61a21,21,0,0,1,.64-7.46,19.86,19.86,0,0,1,2.19-6.17A21.68,21.68,0,0,1,183.73,202.57Z" class="cls-multipy canChange" style="fill:null"></path><path opacity="0.4" d="M190.31,222.17s-6.88-3.39-5-.65S190.31,222.17,190.31,222.17Z" class="cls-overlay"></path><path opacity="0.4" d="M208.6,222.47s6.89-3.39,5-.65S208.6,222.47,208.6,222.47Z" class="cls-overlay"></path><path fill="#503d78" opacity="0.24" d="M209.8,171.69s-4.35,3.62-1.09,8.15l2.18,2.71S206.54,177.12,209.8,171.69Z" class="cls-multipy canChange" style="fill:null"></path><path fill="#503d78" opacity="0.24" d="M188.05,169s6.53,3.62,6.53,10-6.53,17.2-6.53,17.2,4.35-11.77,3.26-18.1S188.05,169,188.05,169Z" class="cls-multipy canChange" style="fill:null"></path><path fill="#fff" d="M191.57,212.15a5.49,5.49,0,0,0-2.54,2.17,1.61,1.61,0,0,0-.06,1.26,4.78,4.78,0,0,0,2.45,2,4.54,4.54,0,0,0,2.17.57,1.5,1.5,0,0,0,1.22-.8A3,3,0,0,0,195,216a14.42,14.42,0,0,0-.4-2.95,1.9,1.9,0,0,0-1.39-1.59C192.58,211.37,192,211.92,191.57,212.15Z" class="cls-softlight"></path></svg>