<svg xmlns='http://www.w3.org/2000/svg' width='400' height='400'>
      <defs><style>.cls-path-cs2-male-5R{clip-path:url(#clip-path-cs2-male-5R)}.cls-path-cs2-male-5L{clip-path:url(#clip-path-cs2-male-5L)}.cls-multipy{mix-blend-mode: multiply;}.cls-softlight{mix-blend-mode: soft-light;}.cls-overlay{mix-blend-mode: overlay;}.cls-colorburn{mix-blend-mode: color-burn;}.cls-screen{mix-blend-mode: screen;}.cls-lighten{ mix-blend-mode: darken;}</style>
      <clipPath id="clip-path-cs2-male-5R"><path fill="#none" d="M264.64,156.94s-1.79,2.43-4.27,5.36c-3.6,4.25-8.63,9.56-11.72,10.09a69.78,69.78,0,0,1-17.47.59c-4.48-.36-9.41-.54-14-1.28-1.35-.22-2.67-.48-4-.81a17.49,17.49,0,0,1,1.64-3.47c.19-.34.37-.68.54-1,.34-.63.61-1.09.7-1.21l.13-.18c2.73-3.71,6.59-7,10.63-8.12C229.07,156.34,258.82,153.64,264.64,156.94Z"></path></clipPath><clipPath id="clip-path-cs2-male-5L"><path fill="#none" d="M135.36,157.4s1.79,2.42,4.27,5.35c3.6,4.25,8.63,9.57,11.72,10.1a70.74,70.74,0,0,0,17.47.59c4.48-.36,9.41-.54,14-1.29,1.35-.21,2.67-.48,4-.81a17.54,17.54,0,0,0-1.64-3.46l-.54-1c-.34-.62-.61-1.09-.7-1.21l-.13-.17c-2.73-3.72-6.59-7-10.63-8.12C170.93,156.8,141.18,154.1,135.36,157.4Z"></path></clipPath></defs><polyline fill="#251e33" points="121 126 123.09 191.86 272.58 198.31 263 109" class="canChange cls-overlay" style="fill:null"></polyline><path fill="#fac6ba" d="M391.54,400H8.46c.2-.46.39-.92.58-1.35,1.3-3,2.28-5.45,2.85-7l.29-.8a2.76,2.76,0,0,1,.31-.62c1.39-2.2,6.18-4.73,13.2-7.43,1.16-.44,2.37-.89,3.64-1.34,7.08-2.52,15.86-5.16,25.45-7.79,12.81-3.51,27.06-7,40.58-10.2,8.7-2.05,17.09-4,24.61-5.68,12-2.72,21.77-4.92,27-6.25,1.44-.37,2.53-.67,3.22-.9,1.32-.44,2.51-1.8,3.59-3.85,3-5.71,5.08-16.83,6.5-28.64.44-3.58.81-7.23,1.13-10.82.09-1,.18-2,.26-3,.14-1.67.26-3.31.38-4.91,1-13.42,1.23-24.2,1.23-24.2h73.5s0,.15,0,.43,0,.69,0,1.23c0,.11,0,.22,0,.34,0,.53,0,1.17.06,1.9a0,0,0,0,0,0,.05c0,.22,0,.46,0,.7,0,.65.05,1.36.08,2.12l0,.75,0,.45c0,.3,0,.62,0,.94s0,.64,0,1c0,.09,0,.19,0,.28,0,.58.05,1.17.09,1.79l.06,1.1c0,.74.07,1.5.12,2.29l0,.59c0,.19,0,.39,0,.59,0,.8.09,1.63.15,2.47s.11,1.69.17,2.56.1,1.53.16,2.31l.12,1.69.06.68c0,.23,0,.45.05.68h0c.06.73.11,1.46.17,2.2,0,0,0,0,0,0,.37,4.46.82,9.09,1.37,13.61h0c.71,5.91,1.58,11.65,2.65,16.63,1.22,5.69,2.69,10.39,4.47,13.23a6.16,6.16,0,0,0,3,2.79c.7.23,1.8.54,3.27.91,4.24,1.09,11.49,2.74,20.5,4.78,7.22,1.64,15.57,3.54,24.41,5.59,12.92,3,26.87,6.36,39.84,9.78,9.19,2.42,17.88,4.87,25.36,7.26,8.72,2.78,15.8,5.47,20.11,7.92a11.94,11.94,0,0,1,4.19,3.36v0a2.92,2.92,0,0,1,.29.59c.07.2.15.43.25.69,0,0,0,0,0,0C388.73,393.35,389.93,396.26,391.54,400Z" class="canChange" style="fill:null"></path><path fill="#420e2d" d="M238.19,302.16c-38.12,23.53-64.94,10.71-76.55,2.18.14-1.67.26-3.31.38-4.91,1-13.42,1.23-24.2,1.23-24.2h73.5S237,287.5,238.19,302.16Z" class="cls-softlight"></path><polygon fill="#fac6ba" points="102.06 151.08 100.86 173.82 117.61 225.16 281.64 224.11 297.2 169.03 293.61 154.67 255.3 79.25 209.13 28.98 190.15 28.98 102.06 151.08" class="canChange" style="fill:null"></polygon><path fill="#fac6ba" d="M201.43,29s62.26-3.59,85,40.71,10.78,98.17,10.78,98.17Z" class="canChange" style="fill:null"></path><path fill="#fac6ba" d="M291.32,176.15s3.58-14.33,15.46-7.55c8,4.54,6.08,18.56,4.88,25.9-1.55,9.53-3.93,20.06-10.78,27.29-4,4.2-19,13.51-20.43,2.32Z" class="canChange" style="fill:null"></path><g class="cls-multipy show"><path fill="#1f0905" d="M305.22,174.87a41,41,0,0,0-4.86,3,35.3,35.3,0,0,0-4.38,3.61c-2.66,2.63-5,5.82-5.51,9.5a12.92,12.92,0,0,0,.26,5.49,49.18,49.18,0,0,0,1.58,5.45,24.81,24.81,0,0,0,2.5,5.06,8.47,8.47,0,0,1,1.26,2.62,5.8,5.8,0,0,1-.25,2.87,6.3,6.3,0,0,0,0-2.8,8.22,8.22,0,0,0-1.42-2.41,25.52,25.52,0,0,1-2.81-5.06,36.06,36.06,0,0,1-1.74-5.52,13.82,13.82,0,0,1-.37-5.87,15,15,0,0,1,2.19-5.46,21.15,21.15,0,0,1,3.79-4.42A33.69,33.69,0,0,1,305.22,174.87Z"></path></g><g class="cls-multipy show"><path fill="#1f0905" d="M304.05,199.31q.74-3,1.17-6a29.29,29.29,0,0,0,.28-6.05,10.17,10.17,0,0,0-1.8-5.53,6.92,6.92,0,0,0-2.23-1.89,10.75,10.75,0,0,0-2.88-1,9.35,9.35,0,0,1,3.08.52,6.9,6.9,0,0,1,2.63,1.84,10,10,0,0,1,2.2,6,22.57,22.57,0,0,1-.52,6.25A28.19,28.19,0,0,1,304.05,199.31Z"></path></g><path fill="#fac6ba" d="M106.74,176.15s-3.58-14.33-15.46-7.55c-8,4.54-6.07,18.56-4.88,25.9C88,204,90.33,214.56,97.18,221.79c4,4.2,19,13.51,20.43,2.32Z" class="canChange" style="fill:null"></path><g class="cls-multipy show"><path fill="#1f0905" d="M92.85,174.87a33.78,33.78,0,0,1,9.75,6.07,20.86,20.86,0,0,1,3.79,4.42,15,15,0,0,1,2.19,5.46,13.66,13.66,0,0,1-.37,5.87,36.06,36.06,0,0,1-1.74,5.52,25,25,0,0,1-2.81,5.06,8,8,0,0,0-1.41,2.41,6.15,6.15,0,0,0,0,2.8,5.92,5.92,0,0,1-.25-2.87,8.7,8.7,0,0,1,1.26-2.62,24.85,24.85,0,0,0,2.51-5.06,49.14,49.14,0,0,0,1.57-5.45,12.76,12.76,0,0,0,.26-5.49c-.56-3.68-2.85-6.87-5.51-9.5a34.58,34.58,0,0,0-4.38-3.61A41.7,41.7,0,0,0,92.85,174.87Z"></path></g><g class="cls-multipy show"><path fill="#1f0905" d="M94,199.31a28.22,28.22,0,0,1-1.94-5.91,22.56,22.56,0,0,1-.51-6.25,9.9,9.9,0,0,1,2.19-6,7,7,0,0,1,2.63-1.84,9.41,9.41,0,0,1,3.09-.52,10.81,10.81,0,0,0-2.89,1,6.92,6.92,0,0,0-2.23,1.89,10.26,10.26,0,0,0-1.8,5.53,28.62,28.62,0,0,0,.29,6.05A60.68,60.68,0,0,0,94,199.31Z"></path></g><path fill="#fac6ba" d="M197.24,29H197s-62.26-3.59-85,40.71-10.77,98.17-10.77,98.17Z" class="canChange" style="fill:null"></path><path fill="#fff" opacity="0.26" d="M293.72,214.47a3.7,3.7,0,0,0-2.32-2.67,5,5,0,0,0-3.6.11,3.2,3.2,0,0,0-2,2c-.27,1,.29,2.11.45,3.18s0,2.29.68,3.1,2.34.73,3.33,0C291.78,219.09,294.09,216.49,293.72,214.47Z" class="cls-softlight"></path><path fill="#fff" opacity="0.26" d="M103.8,214.47a3.69,3.69,0,0,1,2.31-2.67,5,5,0,0,1,3.61.11,3.19,3.19,0,0,1,2,2c.27,1-.28,2.11-.44,3.18s0,2.29-.68,3.1-2.34.73-3.34,0C105.73,219.09,103.43,216.49,103.8,214.47Z" class="cls-softlight"></path><path fill="#fff" opacity="0.26" d="M98.47,181.61s-4.79,8.38-1.2,21.55c0,0-5.73-8.18-5.26-12.47s.77-11.24,4.21-10.76S98.47,181.61,98.47,181.61Z" class="cls-softlight"></path><path fill="#fff" opacity="0.26" d="M299.3,181.61s4.79,8.38,1.2,21.55c0,0,5.73-8.18,5.26-12.47s-.78-11.24-4.22-10.76S299.3,181.61,299.3,181.61Z" class="cls-softlight"></path><path fill="#fac6ba" d="M291.05,172.54l-9.84,50.71a269.89,269.89,0,0,1-9.57,26.26c-1.68,4-3.36,8-5.17,11.94a110,110,0,0,1-5.75,10.91c-3.93,6.44-10,10.09-14.39,15.9-2.82,3.71-3,8.72-5.4,12.64a25.83,25.83,0,0,1-1.92,2.7,28.74,28.74,0,0,1-3.82,3.9c-4.5.36-9.49.72-14.26,1.05-9.74.65-18.64,1.19-21.06,1.32h0l-.53,0c-1.13,0-10.85-.62-21.56-1.34-5.66-.39-11.56-.81-16.68-1.24l-.09-.1h0a28.91,28.91,0,0,1-4-4.28c-.5-.65-1-1.33-1.4-2-2.45-3.92-2.57-8.93-5.4-12.64-4.43-5.81-10.44-9.46-14.37-15.9a120.86,120.86,0,0,1-7.27-14.25c-5.32-13.92-10.37-28.52-14.31-40.4-1.09-3.25-2.09-6.28-3-9.06-.69-6.22-1.54-12.29-2.34-18.39-.64-4.85-1.23-9.71-1.67-14.69q-.12-1.32-.24-3Z" class="canChange" style="fill:null"></path><path fill="#6e365b" d="M306.36,46.74c-.07-.21-.16-.4-.25-.61-.16-.38-.34-.76-.5-1.12s-.26-.61-.39-.89-.19-.4-.28-.61l0,0a.16.16,0,0,0-.05-.11l-.06-.1c-2.18-4.4-4.39-7.49-6.41-8.65-8.39-4.8-32.92-2.94-32.92-2.94s26.27-11.75,45.61-7.48c0,0-11.61-7.81-23.32-6.6-9.76,1-20.51,11.1-32.31,13a21.87,21.87,0,0,1-7,0l0,0a16.71,16.71,0,0,1-4.64-1.71c-10.65-5.29-28.22-20.53-39.56-20.36-13.21.21-30.77,9.07-61.41,17.74A62,62,0,0,0,119.27,38.5v0a0,0,0,0,0,0,0,.13.13,0,0,0-.07,0l0,0a.87.87,0,0,0-.16.13c-15.09,12.81-23.42,32.86-26.82,57-1.76,12.41.43,26.09,4,38.54a201.46,201.46,0,0,0,15.55,37.95c.87,1.65,1.44,2.62,1.54,2.79,0-.23-.32-1.75-.71-4.1-1.28-7.8-3.75-24.93-2.45-35.16a27,27,0,0,1,3.32-9.64.06.06,0,0,1,0,0,.21.21,0,0,0,0-.11c5.31-9.45,15.53-18.16,24.63-28.37,3.87-4.33,9-10.08,15.23-16,19-2.77,74.36-12.49,101.75-35.12A53,53,0,0,1,277,64.86c8.66,13,11,42.86,14.72,62.6s4.69,33.21,4.69,33.21,15-25.09,18.77-54.2C317.79,86.07,312.6,61.37,306.36,46.74ZM204.17,54l0,0c-1,.61-17.22,10.25-35,18.37C165.6,74.06,162,75.62,158.42,77,171,66,186.86,55.58,204.17,54Z" class="canChange" style="fill:null"></path><path fill="#d177b8" opacity="0.6" d="M119.25,38.54l-.09.08,0,0A.13.13,0,0,1,119.25,38.54Z" class="cls-multipy"></path><path fill="#d177b8" opacity="0.6" d="M117.74,71.88c-8.89,25-4.34,54.29-4.34,54.29a27,27,0,0,0-3.32,9.64c-1.3,10.23,1.17,27.36,2.45,35.16l-.83,1.31a201.46,201.46,0,0,1-15.55-37.95c-.7-8.12-1.21-17.1-1.39-26.81C94,63.42,116.25,41.31,119,38.75a.87.87,0,0,1,.16-.13C118,39.94,108.64,51,105.39,69.89c-3.47,20.13,0,43.26,0,43.26.89-27.82,13.29-50,22-62.16A111.52,111.52,0,0,0,117.74,71.88Z" class="cls-multipy"></path><path fill="#d177b8" opacity="0.6" d="M304.92,43.49a1.79,1.79,0,0,0-.11-.21l.06.1A.16.16,0,0,1,304.92,43.49Z" class="cls-multipy"></path><path fill="#d177b8" opacity="0.6" d="M305.22,44.12l.4.89C305.48,44.72,305.35,44.4,305.22,44.12Z" class="cls-multipy"></path><path fill="#d177b8" opacity="0.6" d="M315.14,106.47c-3.75,29.11-18.77,54.2-18.77,54.2s-1-13.48-4.69-33.21S285.62,77.88,277,64.86a53,53,0,0,0-21.89-18.29C227.68,69.2,172.28,78.92,153.32,81.69c-6.2,5.88-11.36,11.63-15.23,16-9.1,10.21-19.32,18.92-24.63,28.37,1.22-3,21.45-51.65,50.84-67.16C194.64,42.83,226,27.21,226,27.21s-19.71-2-34,.61S157.37,41.65,142.76,54C130,64.84,121,91.58,118.84,98.2c2.38-8.1,14.29-46.11,28.79-54.16,16.25-9,57.92-38.12,71-28.5,8.83,6.45,19.21,11,25.06,13.34,2.61,1,4.35,1.6,4.64,1.71l0,0,7,0s-1,5.24-5.58,6.85S204.17,54,204.17,54C186.86,55.58,171,66,158.42,77c3.57-1.42,7.18-3,10.72-4.61-3.08,2-5,3.26-5,3.26s32.06-2.2,50.9-9.41,39-25,39-25,18,5,25.54,17.61,22.32,68.5,22.32,68.5,7.37-54.88-11.25-74.7c-10.08-10.72-27.74-15.92-30.1-16.38,2.77.31,27.6,3.63,34.42,16,7.22,13.09,16.16,64.36,16.16,64.36,8.1-34.3-1.39-61.8-5-70.49C312.47,60.67,317.84,85.77,315.14,106.47Z" class="cls-multipy"></path><path fill="#d177b8" opacity="0.6" d="M118,116s10.35-28.52,21.83-46.34,26-24.67,26-24.67S136.25,75.62,118,116Z" class="cls-multipy"></path><path fill="#ffd9bb" d="M275.58,51.32a98.64,98.64,0,0,1,9.1,15.89s2.39-6.39,7.51-7.95A54.69,54.69,0,0,0,285.34,48S279.91,50.12,275.58,51.32Z" class="cls-softlight"></path><path fill="#ffd9bb" d="M287.42,43.28a25.23,25.23,0,0,1,9.68,11.31s5.15-6.77,5.92-10-4.7-9.27-4.7-9.27S291.75,32.56,287.42,43.28Z" class="cls-softlight"></path><path fill="#ffd9bb" d="M165.82,57.6s5.2-6.53,6.79-9.61-6.79-8.29-6.79-8.29L175.21,35s6.25,4.53,6.09,8.3,5.32,3,5.32,3Z" class="cls-softlight"></path><path fill="#ffd9bb" d="M164,34.29s-5.81-4.07-9.71-5.27-2-5.58-2-5.58l5.63-1.77A14.37,14.37,0,0,0,162.65,28c3.46,2.51,12.1,0,12.1,0Z" class="cls-softlight"></path><path fill="#ffd9bb" d="M186.62,65.54A52.74,52.74,0,0,0,208,67.21c11.41-1.6,16.32-6.55,16.32-6.55s-16.22-.21-20.69-3.06Z" class="cls-softlight"></path><path cfill="#380904" d="M215.41,144.21s5.31,8.18,11.74,7.64,40.94-5.68,44.69-3.74c0,0-3.64-9.82-27.26-8.22S215.41,144.21,215.41,144.21Z" class="canChange" style="fill:null"></path><path cfill="#380904" d="M184.59,144.21s-5.31,8.18-11.74,7.64-40.94-5.68-44.69-3.74c0,0,3.64-9.82,27.26-8.22S184.59,144.21,184.59,144.21Z" class="canChange" style="fill:null"></path><path d="M242.19,172.76s9.56,1,12.49-1.13,9.45-14,11.57-14.74c0,0-7.17-3.3-18.25-2.78s-21.4-.83-27,5.83"></path><path fill="#fff" d="M264.64,156.94s-1.79,2.43-4.27,5.36c-3.6,4.25-8.63,9.56-11.72,10.09a69.78,69.78,0,0,1-17.47.59c-4.48-.36-9.41-.54-14-1.28-1.35-.22-2.67-.48-4-.81a17.49,17.49,0,0,1,1.64-3.47c.19-.34.37-.68.54-1,.34-.63.61-1.09.7-1.21l.13-.18c2.73-3.71,6.59-7,10.63-8.12C229.07,156.34,258.82,153.64,264.64,156.94Z"></path><path fill="#40094f" opacity="0.4" d="M264.64,156.94s-1.79,2.43-4.27,5.36c-18.12-3.29-36.13,1.71-45.53,5.12.58-1.06,1.11-2,1.24-2.18l.13-.18c2.73-3.71,6.59-7,10.63-8.12C229.07,156.34,258.82,153.64,264.64,156.94Z"></path><path fill="#ffc09e" d="M217.15,171.7c-1.35-.22-2.67-.48-4-.81a17.49,17.49,0,0,1,1.64-3.47c.19-.34.37-.68.54-1A10.52,10.52,0,0,0,217.15,171.7Z"></path><g class="cls-path-cs2-male-5R show"><ellipse fill="#9fc2d6" cx="238.79" cy="162.04" rx="11.07" ry="9.7" transform="translate(-6.71 10.36) rotate(-2.45)" class="canChange" style="fill:null"></ellipse><ellipse cx="238.73" cy="161.06" rx="7.74" ry="6.78" transform="translate(-6.67 10.36) rotate(-2.45)"></ellipse><ellipse fill="#fff" cx="232.41" cy="160.86" rx="2.64" ry="2.31" transform="translate(-6.67 10.09) rotate(-2.45)"></ellipse></g><path d="M157.81,173.21s-9.56,1-12.49-1.12-9.45-14.05-11.57-14.75c0,0,7.17-3.29,18.25-2.77s21.4-.83,27,5.83"></path><path fill="#fff" d="M135.36,157.4s1.79,2.42,4.27,5.35c3.6,4.25,8.63,9.57,11.72,10.1a70.74,70.74,0,0,0,17.47.59c4.48-.36,9.41-.54,14-1.29,1.35-.21,2.67-.48,4-.81a17.54,17.54,0,0,0-1.64-3.46l-.54-1c-.34-.62-.61-1.09-.7-1.21l-.13-.17c-2.73-3.72-6.59-7-10.63-8.12C170.93,156.8,141.18,154.1,135.36,157.4Z"></path><path fill="#40094f" opacity="0.4" d="M135.36,157.4s1.79,2.42,4.27,5.35c18.12-3.29,36.13,1.72,45.53,5.13-.58-1.07-1.11-2-1.24-2.19l-.13-.17c-2.73-3.72-6.59-7-10.63-8.12C170.93,156.8,141.18,154.1,135.36,157.4Z"></path><path fill="#ffc09e" d="M182.85,172.15c1.35-.21,2.67-.48,4-.81a17.54,17.54,0,0,0-1.64-3.46l-.54-1A10.49,10.49,0,0,1,182.85,172.15Z"></path><g class="cls-path-cs2-male-5L show"><ellipse fill="#9fc2d6" cx="161.21" cy="162.5" rx="11.07" ry="9.7" transform="translate(-6.8 7.05) rotate(-2.45)" class="canChange" style="fill:null"></ellipse><ellipse cx="161.15" cy="161.52" rx="7.74" ry="6.78" transform="translate(-6.76 7.04) rotate(-2.45)"></ellipse><ellipse fill="#fff" cx="154.83" cy="161.31" rx="2.64" ry="2.31" transform="matrix(1, -0.04, 0.04, 1, -6.76, 6.77)"></ellipse></g><path fill="#3b050a" opacity="0.32" d="M175.46,253.68c-.94-2.44,7.31-6.61,8.77-7.47,8.66-5.1,19.71-8.38,28.74-2,1,.69,12.3,8.44,12,9.05,0,0-8.22,18.48-25.56,18S175.47,253.71,175.46,253.68Z" class="canChange" style="fill:null"></path><path fill="#210905" d="M170.67,252a49.42,49.42,0,0,0,7.22,1.7c2.42.45,4.87.7,7.3,1l3.66.25c1.22.08,2.45.09,3.67.13s2.45,0,3.67,0,2.45,0,3.67-.08l3.68-.12,3.67-.28c2.46-.08,4.89-.51,7.35-.68l7.36-.91c2.45-.36,4.91-.75,7.41-1-2.33.9-4.71,1.68-7.1,2.44s-4.84,1.3-7.31,1.78A90.39,90.39,0,0,1,200,258c-1.26.06-2.52,0-3.79,0s-2.52,0-3.78-.13-2.51-.19-3.77-.34-2.5-.34-3.75-.56-2.48-.47-3.7-.8-2.44-.63-3.64-1A30.58,30.58,0,0,1,170.67,252Z"></path><path fill="#6e365b" d="M242.43,262.18c0-.18,0-.37,0-.55l-.06.06c-.11-4.65-1.5-12.51-9.25-16.08,0,0-14.33-9.1-30.3-9.1,0,0-4.58,6.26-1.38,11.79,0,0,18.16-4.29,28.47,2.19,0,0,8.59,6.89,9.08,13.59A18.67,18.67,0,0,1,242.43,262.18Z" class="canChange" style="fill:null"></path><path fill="#6e365b" d="M195.49,236.45c-16,0-30.29,9.11-30.29,9.11-7.71,3.55-9.13,11.33-9.24,16,0,.14.06.29.1.44a21.16,21.16,0,0,0,3.25,2.15c.4-6.74,9.1-13.71,9.1-13.71,10.31-6.48,28.46-2.18,28.46-2.18C200.08,242.72,195.49,236.45,195.49,236.45Z" class="canChange" style="fill:null"></path><path fill="#e8f1ca" d="M391.15,400H8.83l0-.05.12-.27.36-.82,1.55-3.55c.73-1.69,1.36-3.17,1.87-4.41l.13-.33.14-.33q.2-.47.36-.9l.1-.24.2-.54a1.8,1.8,0,0,0,.08-.21c0-.08.07-.17.1-.24l.06-.18.08-.23.1-.25.06-.11,0-.07.08-.13v0l.09-.14.1-.13a2.69,2.69,0,0,1,.22-.28l0,0,.14-.15.15-.15.16-.15.16-.15.37-.31a14.62,14.62,0,0,1,1.57-1.1l.46-.28.49-.29,1.06-.57c.31-.16.63-.33,1-.49l.37-.18c.38-.19.79-.38,1.21-.57l.56-.25.57-.25,1.21-.51.56-.23.41-.17,1-.37c.89-.35,1.81-.7,2.77-1.05,1.9-.69,3.95-1.4,6.11-2.11l2.32-.75,1.16-.36c2-.62,4-1.25,6.19-1.88l1.25-.36,2.7-.78,1.89-.53,1.76-.49,1.8-.49.73-.2.47-.13c1.2-.33,2.42-.66,3.65-1l1.48-.39,1-.27,1-.24,1-.25.6-.15.86-.23,1.66-.42c2.53-.65,5.1-1.3,7.69-1.94l1.81-.45,1.49-.36c4.34-1.06,8.71-2.11,13-3.12l4.42-1,3.2-.74,1.13-.26,5.92-1.36c.45-.09.9-.2,1.34-.3l1-.23,1.52-.34,2.41-.55,1.35-.3.85-.19a12,12,0,0,0,.24,2.07c1.58,7.87,11,14.94,25.4,20.16,15.61,5.67,37.09,9.17,60.79,9.17q3.87,0,7.65-.12c20.67-.67,39.25-4,53.16-9.06,14.39-5.22,23.8-12.29,25.38-20.16a11.94,11.94,0,0,0,.24-2.06l.53.12,4.1.92,1.27.29.25.05,1,.23c.44.1.89.21,1.34.3l2.94.68,3,.68.16,0,1,.22,2.62.61,3.62.85,1.38.32,3.95.94c1.69.39,3.38.8,5.07,1.21l4,1,3.91,1,4.67,1.17c.83.2,1.66.41,2.48.63l4.9,1.27,1.05.27,1.48.39c.29.08.59.15.88.24.57.14,1.13.29,1.69.45l1.66.46s0,0,0,0l.6.16,1.8.49,1.68.47,4,1.13c2.07.6,4.09,1.2,6,1.79,1.45.45,2.87.89,4.24,1.33l.78.25.57.18,1,.32,2.2.74,2.12.75.84.3.63.24,1.49.56h0l1.82.72.18.07.56.23,1.21.51.57.25.56.25.22.1.74.35.25.12,1.14.57.2.1c.56.3,1.08.58,1.55.86l.06,0,.4.24a1,1,0,0,1,.13.09c1.71,1.09,2.79,2.12,3.13,3.08,0,.13.09.28.15.43s.22.59.36.94C387.4,391.4,389,395.2,391.15,400Z"></path><path fill="#00494f" d="M141,400H8.83l0-.05.12-.27.36-.82,1.55-3.55c.73-1.69,1.36-3.17,1.87-4.41l.13-.33.14-.33q.2-.47.36-.9l.1-.24.2-.54a1.8,1.8,0,0,0,.08-.21c0-.08.07-.17.1-.24l.06-.18.08-.23.1-.25.06-.11,0-.07.08-.13v0l.09-.14.1-.13a1.83,1.83,0,0,1,.13-.16l.09-.12,0,0,.14-.15.15-.15.16-.15.16-.15.37-.31a14.62,14.62,0,0,1,1.57-1.1l.46-.28.24-.15.25-.14,1.06-.57c.15-.09.31-.17.47-.25l.5-.24.37-.18c.38-.19.79-.38,1.21-.57l.56-.25.57-.25,1.21-.51.56-.23.41-.17,1-.37c.89-.35,1.81-.7,2.77-1.05,1.9-.69,3.95-1.4,6.11-2.11l.57-.18,1.75-.57,1.16-.36c2-.62,4-1.25,6.19-1.88l1.25-.36,2.7-.78,1.89-.53.87-.25.89-.24,1.8-.49.73-.2.47-.13c1.2-.33,2.42-.66,3.65-1l.05,0,1.43-.37,1-.27,1-.24,1-.25.6-.15.86-.23,1.66-.42c2.53-.65,5.1-1.3,7.69-1.94l1.81-.45,1.49-.36c4.34-1.06,8.71-2.11,13-3.12l4.42-1,3.2-.74,1.13-.26,5.92-1.36c.45-.09.9-.2,1.34-.3l1-.23,1.52-.34,2.41-.55,1.35-.3.85-.19,1.35-.31,1.9-.42,2.4-.54,2.22-.49.72-.17.72-.16,1-.22,4.22-.94,1-.22,4.56-1,7.26-.39s-.05.27-.13.79a146.39,146.39,0,0,0-1.57,26.32A162.55,162.55,0,0,0,141,400Z" class="canChange" style="fill:null"></path><path fill="#00494f" d="M391.17,400H259a162.7,162.7,0,0,0,1.78-20.65A146.15,146.15,0,0,0,259.23,353c-.08-.52-.13-.79-.13-.79l7.26.39,4.56,1,1,.22,4.22.94,1,.22.72.16.72.17,2.22.49,2.4.54,1.9.42,2.2.5,1.35.3,2.41.55,1.27.29.25.05,1,.23c.44.1.89.21,1.34.3l2.94.68,3,.68.16,0,1,.22,2.62.61.58.13,3,.72,1.38.32,3.95.94c1.69.39,3.38.8,5.07,1.21l4,1,1.49.36,2.42.61,4.67,1.17c.83.2,1.66.41,2.48.63l1.59.4,1.46.38.95.25,1,.24,1,.27,1.43.37.05,0c.29.08.59.15.88.24.57.14,1.13.29,1.69.45l1.08.29.58.17s0,0,0,0l.6.16,1.8.49.89.24.79.23c1.34.37,2.67.75,4,1.13l.71.2,1.25.36c1.39.41,2.76.82,4.08,1.23l2.11.65,1.16.36,1,.32.78.25.57.18,1,.32,2.2.74,2.12.75.84.3.63.24,1.49.56h0l1.82.72.18.07.56.23,1.21.51.57.25.56.25.22.1.74.35.25.12.87.42.27.15.2.1c.37.19.73.38,1.06.57l.25.14.24.15.06,0,.4.24a1,1,0,0,1,.13.09,12.81,12.81,0,0,1,1.44,1l.37.31.16.15.16.15.15.15.14.15.12.15a1.83,1.83,0,0,1,.13.16l.1.13.09.14v0l.08.13,0,.07.06.11.1.25.08.23c0,.06,0,.11.06.18s.06.16.1.24a1.8,1.8,0,0,0,.08.21l.2.54c.14.35.29.73.46,1.14l.14.33c.85,2.09,2.07,4.92,3.55,8.29l.36.82.12.27Z" class="canChange" style="fill:null"></path><g opacity="0.32" class="show"><path d="M187.45,201.67a41.31,41.31,0,0,0-3,5.28,29.07,29.07,0,0,0-2.08,5.65,17.5,17.5,0,0,0-.49,5.94,13.36,13.36,0,0,0,2,5.64,11.67,11.67,0,0,1-1.66-2.59,13.4,13.4,0,0,1-.9-3,15.6,15.6,0,0,1,.33-6.2,23.54,23.54,0,0,1,2.3-5.73A25.93,25.93,0,0,1,187.45,201.67Z"></path></g><g opacity="0.32" class="show"><path d="M212.55,201.67a25.93,25.93,0,0,1,3.53,5,23.54,23.54,0,0,1,2.3,5.73,15.6,15.6,0,0,1,.33,6.2,13.4,13.4,0,0,1-.9,3,11.67,11.67,0,0,1-1.66,2.59,13.36,13.36,0,0,0,2-5.64,17.5,17.5,0,0,0-.49-5.94,29.07,29.07,0,0,0-2.08-5.65A41.31,41.31,0,0,0,212.55,201.67Z"></path></g><g opacity="0.32" class="show"><path d="M214.36,224.93a13.14,13.14,0,0,0-1.62-1.71,4.44,4.44,0,0,0-2-1.09,1.76,1.76,0,0,0-1.82.83c-.44.62-.86,1.33-1.33,2a19.47,19.47,0,0,1-3.21,3.59,6.31,6.31,0,0,1-9,0,18.81,18.81,0,0,1-3.21-3.59c-.47-.64-.89-1.35-1.33-2a1.77,1.77,0,0,0-1.83-.83,4.36,4.36,0,0,0-2,1.09,12.5,12.5,0,0,0-1.62,1.71,10.22,10.22,0,0,1,1.49-1.86,4.63,4.63,0,0,1,2-1.3,1.72,1.72,0,0,1,.64-.05,1.62,1.62,0,0,1,.64.15,2.39,2.39,0,0,1,1,.81c.51.64.93,1.28,1.42,1.9a21,21,0,0,0,3.18,3.41,5.81,5.81,0,0,0,8.17,0,20.63,20.63,0,0,0,3.18-3.41c.49-.61.91-1.26,1.41-1.9a2.48,2.48,0,0,1,1-.81,1.54,1.54,0,0,1,.64-.15,1.72,1.72,0,0,1,.64.05,4.69,4.69,0,0,1,2.05,1.3A10.67,10.67,0,0,1,214.36,224.93Z"></path></g><path fill="#503d78" opacity="0.24" d="M182.28,211.43s1.9,8.08,6.18,8.43,7,6.37,11.4,4.32,8.47-5.63,11-5.19,7-7,7-7,4.6,24.87-17.3,26.09C179.62,239.25,180.53,212.89,182.28,211.43Z" class="cls-multipy canChange" style="fill:null"></path><path fill="#503d78" opacity="0.24" d="M207.59,175.21s-3.49,5.27.08,9.72l2.33,2.62A13.38,13.38,0,0,1,207.59,175.21Z" class="cls-multipy canChange" style="fill:null"></path><path fill="#503d78" opacity="0.24" d="M191.42,171.16s5.37,6,4.41,13.35-8.53,18-8.53,18,5.73-12.35,5.71-20S191.42,171.16,191.42,171.16Z" class="cls-multipy canChange" style="fill:null"></path><path fill="#fff" d="M194.73,216.3a4.78,4.78,0,0,0-1.88,2.17,2.15,2.15,0,0,0,0,1.26,4.06,4.06,0,0,0,1.82,2,2.59,2.59,0,0,0,1.59.57,1.15,1.15,0,0,0,.9-.8,3.61,3.61,0,0,0,.16-1.37,18.77,18.77,0,0,0-.29-2.95c-.1-.54-.36-1.44-1-1.58C195.48,215.52,195,216.07,194.73,216.3Z" class="cls-softlight"></path></svg>