<svg xmlns='http://www.w3.org/2000/svg' width='400' height='400'>
      <defs><style>.cls-multipy{mix-blend-mode: multiply;}.cls-softlight{mix-blend-mode: soft-light;}.cls-overlay{mix-blend-mode: overlay;}.cls-colorburn{mix-blend-mode: color-burn;}.cls-screen{mix-blend-mode: screen;}.cls-lighten{ mix-blend-mode: darken;}</style>
      </defs><path fill="#c9703d" stroke="#000" stroke-miterlimit="10" stroke-width="5" d="M303.13,380v19.39H96.87V380c0-38.61,19.76-71.1,45.91-78.94a42.23,42.23,0,0,1,8.94-1.67h0c1.08-.09,2.16-.14,3.26-.14h90c1.1,0,2.18,0,3.26.14h0a42.32,42.32,0,0,1,12.16,2.78C285,311.65,303.13,343,303.13,380Z" class="canChange" style="fill:null"></path><path fill="#c9703d" stroke="#000" stroke-miterlimit="10" stroke-width="5" d="M311.59,187.33s53.56-48.67,44.87,6.95S312.69,238,312.69,238" class="canChange" style="fill:null"></path><path fill="none" stroke="#000" stroke-miterlimit="10" stroke-width="2" d="M345.49,178.08c-7.33,1.35-19.24,13.09-21.6,22a7.31,7.31,0,0,1,10.47-.63c3.17,2.78,4.94,8.41,4.24,13.5s-3.83,9.3-7.49,10.1"></path><path fill="#fff" d="M315.07,196.36c5.16-10.16,12.78-17.79,21.34-21.37,3-1.27,6.42-2,9.34-.19,4.05,2.51,6,9.35,5.7,15.49s-2.37,11.76-4.4,17.19c4.25-5.19,7.1-12.56,7.89-20.42.4-3.93.23-8.26-1.49-11.48A9.14,9.14,0,0,0,348,171a12.92,12.92,0,0,0-6.39,0c-10.12,2.14-19.41,10.61-24.85,22.65" class="cls-overlay"></path><path fill="#c9703d" stroke="#000" stroke-miterlimit="10" stroke-width="5" d="M88.41,187.33s-53.56-48.67-44.87,6.95S87.31,238,87.31,238" class="canChange" style="fill:null"></path><path fill="none" stroke="#000" stroke-miterlimit="10" stroke-width="2" d="M54.51,178.08c7.33,1.35,19.24,13.09,21.6,22a7.31,7.31,0,0,0-10.47-.63c-3.17,2.78-4.94,8.41-4.24,13.5s3.83,9.3,7.49,10.1"></path><path fill="#fff" d="M84.93,196.36C79.77,186.2,72.15,178.57,63.59,175c-3-1.27-6.42-2-9.34-.19-4,2.51-6,9.35-5.7,15.49s2.37,11.76,4.4,17.19c-4.25-5.19-7.1-12.56-7.89-20.42-.4-3.93-.23-8.26,1.49-11.48A9.14,9.14,0,0,1,52,171a12.92,12.92,0,0,1,6.39,0c10.12,2.14,19.41,10.61,24.85,22.65" class="cls-overlay"></path><circle fill="#c9703d" stroke="#000" stroke-miterlimit="10" stroke-width="5" cx="199.03" cy="179.39" r="129.04" class="canChange" style="fill:null"></circle><path fill="#fff" d="M79.76,187a128.71,128.71,0,0,0,45.12,98A129,129,0,1,1,283,81.38,129.06,129.06,0,0,0,79.76,187Z" class="cls-overlay"></path><path opacity="0.29" d="M328.31,179.39a129.06,129.06,0,0,1-252,39.18A129.08,129.08,0,0,0,312.47,117.39,128.45,128.45,0,0,1,328.31,179.39Z"></path><path fill="#6e91c2" stroke="#000" stroke-miterlimit="10" stroke-width="5" d="M306.21,134.22a30.69,30.69,0,0,0,1.35,6.13c7.57,9.27,14.26,19.28,22.4,28,1.63-12.57,3.87-28.56,6-39.8,1.54-8.14,2.41-15.77,1.8-21.35-1.45-13.24-26-27.72-42.73-36.11l-.12,0L294.8,71c-6.95-3.48-12.51-5.88-14.4-6.68l-.58-.25,0,0h0c1.75.28,29.93,5.08,43.89,15.78-.39-.42-12.94-13.9-26.23-18.56-13.5-4.75-36.1-3.32-46-7.48-21.67-9.08-33.63-29.5-45.76-31.63-11.95-2.12-47.18,17-48.22,17.54.91-.28,35.23-11,51.8-7.28,0,0-6.78-.55-18.88,2.08-2.39.5-5,1.15-7.83,2-3.23.9-6.75,2-10.5,3.41a.17.17,0,0,1-.09,0l-.09,0c-1.68.62-3.49,1.3-5.29,2-2.24.9-4.54,1.9-6.92,3-4.47,2-9,3.81-13.64,5.44C118.77,60,89.61,64.6,65.85,83.51c-2.73,2.17-9.29,7-9.29,17.81,0,24.39,7.08,47.79,12.7,71.29,8.7-10.43,16-21.85,23.51-33.16A50.17,50.17,0,0,0,100,119.71c.62-3.76.29-9.24,2.62-12.47,2.52-3.48,11.33-8.27,16.32-10.81-3.56,7.47-8.31,18.94-6.3,26.29,0,0,10.67-21.63,21.4-35.62,0,0,2.48,37.91,30.85,56.88-.43-.52-7.37-9-10.08-24.25a35.84,35.84,0,0,0,5.68,10.76s20.34-28.68,40-45.09a2,2,0,0,1,.35-.28c-.11.15-.38.43-.7.83l-.14.2a75.89,75.89,0,0,0-12.5,21.08c.89-.43,58-28.48,64.85-29.43,10.16-1.41,41.37,13.23,44.71,16.13C302.58,98.73,305.48,123.46,306.21,134.22Z" class="canChange" style="fill:null"></path><g opacity="0.29" class="show"><path d="M154.78,119.65C157.57,135.49,164.9,144,164.9,144,136.51,125,134,87.1,134,87.1c4.22-28.7,23.1-40.81,32.56-45.17a41.51,41.51,0,0,1,5.29-2l.09,0c-1.6.7-24,10.79-26.73,28.28-2.77,18.14,6.42,50.09,6.42,50.09-7-46.17,30.9-81.8,30.9-81.8l7.83-2s-24.94,24.8-29.15,46.92a115,115,0,0,0,0,41.56c14.14-18.67,53.59-53.87,58.47-58.18C218,66.43,212,72.33,205,79.84a49.49,49.49,0,0,0-4.45,5.56c-19.69,16.41-40,45.09-40,45.09A35.79,35.79,0,0,1,154.78,119.65Z"></path></g><g opacity="0.29" class="show"><path d="M267.51,71.18c-6.95-.72-80,36.06-80,36.06A76.2,76.2,0,0,1,200,86.15a89,89,0,0,0-8.61,16.41c1.25-.92,41.69-30.5,54.17-32.35A54,54,0,0,1,267.51,71.18Z"></path></g><g opacity="0.29" class="show"><path d="M306.21,134.22a31.79,31.79,0,0,0,1.32,6.1c7.61,9.3,14.32,19.35,22.5,28.13,1.62-12.78,3.83-28.78,6-39.86a11.51,11.51,0,0,1-5.15-4c-4.63-6.58-19.32-23.7-19.32-23.7,7.45,4.73,21.76,22,21.76,22s4.14-6.7-16.75-21.41c-11.75-8.26-19.46-7.57-19.46-7.57C302.58,98.73,305.48,123.46,306.21,134.22Z"></path></g><path fill="#d177b8" opacity="0.9" d="M279.75,64a216.94,216.94,0,0,0-24.86-5.61l40.17,12.71Z" class="cls-MULTIPY"></path><path fill="#6e91c2" stroke="#000" stroke-miterlimit="10" stroke-width="5" d="M126.37,86.59c-12.9,16.26-10.2,57.41-10.2,57.41S91.91,130.75,98.9,110.51L106.5,77" class="canChange" style="fill:null"></path><path fill="#fff" d="M70.21,172.43c-3-18.59-8.77-59-4.21-73.43,6-19,80.05-48.65,80.05-48.65h0C118.77,60,89.61,64.6,65.85,83.51c-2.73,2.17-9.29,7-9.29,17.81,0,19.31,7.67,51.85,13,72Z" class="cls-OVERLAY"></path><path d="M159.51,148c-6.12-7.11-14.7-12.65-23.32-16.15-18.46-7.5-37.8-2.94-53.34,8.85-5.07,3.84-.09,12.53,5,8.64,13.73-10.42,30.1-14.82,46.32-7.53a52.85,52.85,0,0,1,18.23,13.26c4.21,4.89,11.25-2.21,7.07-7.07Z" class="canChange" style="fill:null"></path><path d="M249.68,158.34a53,53,0,0,1,18.23-13.26c16.21-7.31,32.6-2.88,46.32,7.53,5.13,3.88,10.12-4.8,5-8.64-15.55-11.79-34.89-16.35-53.35-8.85-8.62,3.5-17.2,9-23.32,16.15-4.18,4.86,2.86,12,7.07,7.07Z" class="canChange" style="fill:null"></path><g opacity="0.14" class="show"><ellipse cx="277.22" cy="192.44" rx="42.09" ry="43.67"></ellipse><path d="M277.22,150.77c22.1,0,40.09,18.69,40.09,41.67s-18,41.67-40.09,41.67-40.09-18.7-40.09-41.67,18-41.67,40.09-41.67m0-2c-23.25,0-42.09,19.55-42.09,43.67s18.84,43.67,42.09,43.67,42.09-19.56,42.09-43.67-18.85-43.67-42.09-43.67Z"></path></g><path fill="#fff" d="M318.51,190.24c0,24.12-18.85,43.67-42.09,43.67s-42.09-19.55-42.09-43.67c0-.71,0-1.42,0-2.13l.06-1.06q0-.53.09-1.05h83.78q.06.52.09,1.05l.06,1.06C318.49,188.82,318.51,189.53,318.51,190.24Z"></path><path d="M318.46,188.11l-.06-1.06q0-.53-.09-1.05c-2.05-22.13-20-39.43-41.89-39.43s-39.84,17.3-41.89,39.43q-.06.52-.09,1.05l-.06,1.06c0,.71,0,1.42,0,2.13,0,24.12,18.84,43.67,42.09,43.67s42.09-19.55,42.09-43.67C318.51,189.53,318.49,188.82,318.46,188.11Zm-42,42.8c-21.55,0-39.09-18.25-39.09-40.67a42.39,42.39,0,0,1,.21-4.24c2.05-20.44,18.71-36.43,38.88-36.43s36.83,16,38.88,36.43a42.39,42.39,0,0,1,.21,4.24C315.51,212.66,298,230.91,276.42,230.91Z"></path><g opacity="0.14" class="show"><path d="M318.51,190.24c0,24.12-18.85,43.66-42.09,43.66A41.47,41.47,0,0,1,243.13,217a52.93,52.93,0,0,0,16.33,2.57c26.18,0,47.4-18.92,47.4-42.25a39,39,0,0,0-8.75-24.47A44,44,0,0,1,318.51,190.24Z"></path><path d="M305.84,162a42.82,42.82,0,0,1,10.67,28.27c0,23-18,41.66-40.09,41.66a39,39,0,0,1-27.57-11.39,56,56,0,0,0,10.61,1c27.24,0,49.4-19.85,49.4-44.25a40.18,40.18,0,0,0-3-15.31m-7.73-9.16a39,39,0,0,1,8.75,24.47c0,23.33-21.22,42.25-47.4,42.25A52.93,52.93,0,0,1,243.13,217a41.47,41.47,0,0,0,33.29,16.94c23.24,0,42.09-19.54,42.09-43.66a44,44,0,0,0-20.4-37.43Z"></path></g><path d="M302,197.32c-.67,13.63-12.51,24.11-26.44,23.42s-24.69-12.34-24-26a23.78,23.78,0,0,1,2.11-8.77h46.15A23.88,23.88,0,0,1,302,197.32Z" class="canChange" style="fill:null"></path><g opacity="0.14" class="show"><ellipse cx="121.88" cy="194.61" rx="42.09" ry="43.67"></ellipse><path d="M121.88,152.94c22.1,0,40.09,18.7,40.09,41.67s-18,41.67-40.09,41.67-40.09-18.69-40.09-41.67,18-41.67,40.09-41.67m0-2c-23.25,0-42.09,19.55-42.09,43.67s18.84,43.67,42.09,43.67S164,218.73,164,194.61s-18.85-43.67-42.09-43.67Z"></path></g><path fill="#fff" d="M164,191.35c0,24.12-18.85,43.67-42.09,43.67s-42.09-19.55-42.09-43.67c0-.45,0-.9,0-1.35s0-.9.06-1.35.06-.85.1-1.27a.49.49,0,0,1,0-.12c0-.42.08-.84.13-1.26h83.54c0,.42.09.84.13,1.26a.49.49,0,0,1,0,.12c0,.42.07.85.1,1.27s.05.9.06,1.35S164,190.9,164,191.35Z"></path><path d="M164,190q0-.67-.06-1.35c0-.42-.06-.85-.1-1.27a.49.49,0,0,0,0-.12c0-.42-.08-.84-.13-1.26-2.54-21.59-20.28-38.32-41.77-38.32S82.65,164.41,80.11,186c0,.42-.09.84-.13,1.26a.49.49,0,0,0,0,.12c0,.42-.07.85-.1,1.27s-.05.9-.06,1.35,0,.9,0,1.35c0,24.12,18.84,43.67,42.09,43.67S164,215.47,164,191.35C164,190.9,164,190.45,164,190Zm-42.07,42c-21.56,0-39.09-18.24-39.09-40.67a42.93,42.93,0,0,1,.33-5.35c2.53-19.9,18.94-35.32,38.76-35.32S158.11,166.1,160.63,186a41.09,41.09,0,0,1,.34,5.35C161,213.78,143.43,232,121.88,232Z"></path><g opacity="0.14" class="show"><path d="M164,191.35c0,24.12-18.84,43.67-42.09,43.67a41.48,41.48,0,0,1-33.28-17,52.64,52.64,0,0,0,16.33,2.57c26.18,0,47.4-18.91,47.4-42.25a38.93,38.93,0,0,0-8.75-24.46A44,44,0,0,1,164,191.35Z"></path><path d="M151.3,163.08A42.83,42.83,0,0,1,162,191.35c0,23-18,41.67-40.09,41.67a39,39,0,0,1-27.56-11.4,55.14,55.14,0,0,0,10.61,1c27.24,0,49.4-19.85,49.4-44.25a40.18,40.18,0,0,0-3-15.31m-7.73-9.15a38.93,38.93,0,0,1,8.75,24.46c0,23.34-21.22,42.25-47.4,42.25a52.64,52.64,0,0,1-16.33-2.57,41.48,41.48,0,0,0,33.28,17c23.25,0,42.09-19.55,42.09-43.67a44,44,0,0,0-20.39-37.42Z"></path></g><path d="M146,197.32c-.67,13.63-12.51,24.11-26.44,23.42s-24.69-12.34-24-26A23.78,23.78,0,0,1,97.62,186h46.15A23.88,23.88,0,0,1,146,197.32Z" class="canChange" style="fill:null"></path><line fill="none" stroke="#000" stroke-miterlimit="10" stroke-width="5" x1="79.5" y1="185.5" x2="163.65" y2="186" class="canChange" style="fill:null"></line><line fill="none" stroke="#000" stroke-miterlimit="10" stroke-width="5" x1="234.5" y1="185.5" x2="318.65" y2="186" class="canChange" style="fill:null"></line><path fill="#2e0f0e" d="M237.81,245S236,260.41,222,268.26a35.86,35.86,0,0,1-13.49,4.17c-13.85,1.61-24.87.09-32.68-4-8.39-4.42-13.09-11.84-13.61-21.59a43,43,0,0,0,5.57,2.56c10,3.91,32.71,9.88,61.62-.84Q233.51,247,237.81,245Z"></path><path fill="#fff" d="M169.26,269.22s-2.76-8.42,1.38-8.42,23.49,4.21,38.69,2.53,15.2-4.21,18-2.53a6.34,6.34,0,0,1,2.76,5.06v5.05l-19.34,7.57"></path><path fill="none" stroke="#000" stroke-miterlimit="10" stroke-width="3" d="M237.81,245S236,260.41,222,268.26a35.86,35.86,0,0,1-13.49,4.17c-13.85,1.61-24.87.09-32.68-4-8.39-4.42-13.09-11.84-13.61-21.59a43,43,0,0,0,5.57,2.56c10,3.91,32.71,9.88,61.62-.84Q233.51,247,237.81,245Z"></path><path fill="#fff" d="M229.34,249.09a23,23,0,0,1-3.44,6.73c-5.22,7.09-51.75,4.23-55,2.48a2.53,2.53,0,0,1-.82-.73,10.87,10.87,0,0,1-1.57-3.67h0a35.56,35.56,0,0,1-.78-4C177.73,253.85,200.43,259.81,229.34,249.09Z"></path><path opacity="0.18" d="M229.34,249.09a23,23,0,0,1-3.44,6.73c-5.22,7.09-51.75,4.23-55,2.48a2.53,2.53,0,0,1-.82-.73c10,2.58,37.67,1.4,37.67,1.4,10.82.27,16.72-6.8,12.47-4.13s-34.62,1.33-46.07.48a14.58,14.58,0,0,1-5.64-1.42h0a35.56,35.56,0,0,1-.78-4C177.73,253.85,200.43,259.81,229.34,249.09Z"></path><path fill="#6e3d82" stroke="#000" stroke-miterlimit="10" stroke-width="5" d="M261.61,254.9c-2.52,13.2-6.63-14.82-62.27-14.82-30.6,0-45.61,8.47-53.35,13.91-2.73,1.91-4.55,3.44-5.83,4.09a.86.86,0,0,1-.24.11c-1.53.7-2.24-.07-2.86-3.29q-.18-1-.27-1.89c0-.19,0-.37,0-.56h0a24.87,24.87,0,0,1,1.77-10.88v0a35.24,35.24,0,0,1,4.15-7.61,2.88,2.88,0,0,1,.27-.34,8.69,8.69,0,0,1,5.41-3.17l.85-.16h0c6.67-1.3,16.48-5.12,24.39-8.21l.08,0c6.26-2.44,11.33-4.41,12.69-4.29a19.62,19.62,0,0,1,3.15.66h0l2.07.61c1.22.39,2.47.81,3.59,1.2a12,12,0,0,0,2.48.6,12.42,12.42,0,0,0,5.79-.6,49,49,0,0,1,8.83-2.47c1.67-.15,8.91,2.85,17.1,6,7.32,2.82,15.39,5.76,20.92,6.69a8.71,8.71,0,0,1,5.68,3.51C259,238.13,263.32,246,261.61,254.9Z" class="canChange" style="fill:null"></path><path fill="#6e3d82" stroke="#000" stroke-miterlimit="10" stroke-width="5" d="M221.56,285.37c-3.36-.59-21.45,0-21.45,0s-18.1-.59-21.46,0-2.14,13.09,21.46,13.09S224.91,286,221.56,285.37Z" class="canChange" style="fill:null"></path><path fill="#fff" d="M197.71,220.79S161.5,230.5,150.5,239.5s-10.33,19.1-10.33,19.1l-3.49-5.77,2.82-17.33,9-5,28.84-9.71,12.2-2.4Z" class="cls-overlay"></path><path opacity="0.29" d="M261.61,254.9c-2.52,13.2-6.63-14.82-62.27-14.82-30.6,0-45.61,8.47-53.35,13.91,7.69-8.27,21.39-17,45.51-19.49,21-2.14,32.1-6.5,37.9-10.77,7.32,2.82,15.39,5.76,20.92,6.69a8.71,8.71,0,0,1,5.68,3.51C259,238.13,263.32,246,261.61,254.9Z"></path><path fill="#3a9eb5" stroke="#000" stroke-miterlimit="10" stroke-width="5" d="M199.71,400l63.42-.11h9.16l-.08-36.23c-7.72-19.36-15.57-39.6-8.61-59.66a44.72,44.72,0,0,0-15.51-4.08c-1.1-.09-2.2-.13-3.31-.13l-6.8,0a22.11,22.11,0,0,1,4.44,13c0,.23,0,.45,0,.68-.49,15.89-19.38,28.7-42.71,28.81" class="canChange" style="fill:null"></path><path fill="#3a9eb5" stroke="#000" stroke-miterlimit="10" stroke-width="5" d="M200.29,342.29c-23.33-.11-42.22-12.92-42.71-28.81,0-.23,0-.45,0-.68a22.11,22.11,0,0,1,4.44-13l-6.8,0c-1.11,0-2.21,0-3.31.13A44.72,44.72,0,0,0,136.4,304c7,20.06-.89,40.3-8.61,59.66l-.08,36.23h9.16l63.42.11" class="canChange" style="fill:null"></path><path opacity="0.29" d="M260.44,302.21c-12.93,8.17-34.09,13.49-58,13.49-24.95,0-46.92-5.81-59.66-14.6a42.23,42.23,0,0,1,8.94-1.67h0c1.08-.09,2.16-.14,3.26-.14h90c1.1,0,2.18,0,3.26.14h0A42.32,42.32,0,0,1,260.44,302.21Z"></path></svg>