<svg xmlns='http://www.w3.org/2000/svg' width='400' height='400'>
      <defs><style>.cls-path-cs3-male-8R{clip-path:url(#clip-path-cs3-male-8R)}.cls-path-cs3-male-8L{clip-path:url(#clip-path-cs3-male-8L)}.cls-multipy{mix-blend-mode: multiply;}.cls-softlight{mix-blend-mode: soft-light;}.cls-overlay{mix-blend-mode: overlay;}.cls-colorburn{mix-blend-mode: color-burn;}.cls-screen{mix-blend-mode: screen;}.cls-lighten{ mix-blend-mode: darken;}</style>
      <clipPath id="clip-path-cs3-male-8R"><path fill="#none" d="M220.76,163.86s19.87-24.33,46.84-7.18c0,0-4.77,13.26-11.84,15.11s-24,4-26.46,2.82-8.43-9.77-8.43-9.77"></path></clipPath><clipPath id="clip-path-cs3-male-8L"><path fill="#none" d="M179.24,164.4s-19.87-24.33-46.84-7.18c0,0,4.77,13.26,11.84,15.11s24,4,26.46,2.82,8.43-9.77,8.43-9.77"></path></clipPath></defs><path fill="#7d3a17" d="M393.17,400H6.83s4.5-20,5.25-24.64S136.62,325.91,139,324c1.47-1.21,3.35-27.08,4.52-45.79.67-10.75,1.12-19.13,1.12-19.13H255.42s1.41,27,3.05,46.2c.85,10.12,1.78,18.06,2.58,18.72,2.33,1.91,126.12,46.68,126.87,51.36S393.17,400,393.17,400Z" class="canChange" style="fill:null"></path><path fill="#d177b8" opacity="0.44" d="M258.47,305.28c-5.58.62-14.35,2.15-20.11,5.88-9.05,5.85-20.63,31.31-38.47,30.54s-40.48-48.61-44-55c-2.07-3.73-7.91-6.7-12.41-8.51.67-10.75,1.12-19.13,1.12-19.13H255.42S256.83,286.09,258.47,305.28Z" class="cls-multipy"></path><path fill="#7d3a17" d="M280.58,163.11s12.05-18.35,20.22-18.31c5,0,17,10.47,16.84,20.44-.18,13.35-12,28.5-14.94,36.28s-10.56,17.92-15.63,18.9-11.67-8.62-11.67-8.62S277.86,175.21,280.58,163.11Z" class="canChange" style="fill:null"></path><path fill="#d177b8" opacity="0.44" d="M281.47,182.64s19.78-24.43,27-24.43,7.19,13.9,4.29,21.83c-2,5.49-5.93,13.43-5.93,13.43s3.1-8.53,3.48-14.9c.57-9.81-1.61-16.94-4.09-16.93-4.55,0-8.14,6.26-8.71,8.47s3.6,11.89,2.49,18.64-5.15,9.32-6.5,8.58.74-8.34-.49-11-4.78-6.62-6.86-5.76S281.47,182.64,281.47,182.64Z" class="cls-multipy"></path><path fill="#d177b8" opacity="0.44" d="M281.47,182.64s4.88-2.91,6.36-2,5.25,4.32,5.4,6.45-1.19,8.19,0,9.24,5.5-5.78,5.69-11.81-3.19-13-3.19-13.82.79-4.69.79-4.69S285,176.91,281.47,182.64Z" class="cls-multipy"></path><path fill="#7d3a17" d="M119.42,163.11s-12-18.35-20.22-18.31c-5,0-17,10.47-16.84,20.44.18,13.35,12,28.5,14.94,36.28s10.56,17.92,15.63,18.9,11.67-8.62,11.67-8.62S122.14,175.21,119.42,163.11Z" class="canChange" style="fill:null"></path><path fill="#d177b8" opacity="0.44" d="M118.53,182.64s-19.78-24.43-27-24.43-7.19,13.9-4.29,21.83c2,5.49,5.93,13.43,5.93,13.43s-3.1-8.53-3.48-14.9c-.57-9.81,1.61-16.94,4.09-16.93,4.55,0,8.14,6.26,8.71,8.47S98.91,182,100,188.75s5.15,9.32,6.5,8.58-.74-8.34.49-11,4.78-6.62,6.86-5.76S118.53,182.64,118.53,182.64Z" class="cls-multipy"></path><path fill="#d177b8" opacity="0.44" d="M118.53,182.64s-4.88-2.91-6.36-2-5.25,4.32-5.4,6.45,1.19,8.19,0,9.24-5.5-5.78-5.69-11.81,3.19-13,3.19-13.82-.79-4.69-.79-4.69S115,176.91,118.53,182.64Z" class="cls-multipy"></path><path fill="#7d4426" d="M284.06,171.91c-.54,5.92-1.33,11.67-2.11,17.44l-.16.27s-.39,1.82-1.11,4.92c-.12.49-.24,1-.37,1.57-5.62,12.72-13.68,31.61-20.32,49.53a0,0,0,0,1,0,0c-.29.8-1.22,10.12-1.51,10.91a300.62,300.62,0,0,1-24.34,28.66,42.86,42.86,0,0,1-8.33,6.84,44.9,44.9,0,0,1-7.69,2.22h0c-1,.19-2,.37-3,.52h0a76.71,76.71,0,0,1-8.5.71l-1.35,0c-1,0-2,0-3.11,0l-1.51,0h-1.13l-1.66,0H195a79.91,79.91,0,0,1-10.74-.79h0c-1.67-.26-3.24-.56-4.7-.91a42.58,42.58,0,0,1-4.44-1.31l-.07,0c-.33-.18-.65-.37-1-.57a45,45,0,0,1-9-7.57,334.25,334.25,0,0,1-23.34-27.81c-1.1-3-3.07-14.62-4.26-17.69-6-15.66-12.72-31.37-17.62-42.48-.38-.84-.73-1.65-1.08-2.43l-.12-.55c-1-7.15-2-14.21-2.67-21.52-1.31-14.4-2.94-70.74,1.31-82.19,1.2-3.23,6.06-8,13-13.16,17.82-13.17,49.49-29,69.69-29,19.74,0,50.45,15.15,68.46,28.14,7.65,5.52,13,10.64,14.28,14C287,101.17,285.36,157.51,284.06,171.91Z" class="canChange" style="fill:null"></path><path fill="#d177b8" opacity="0.4" d="M283.53,171.94c-.71,7.68-1.85,15.08-2.85,22.6-.12.49-.24,1-.37,1.57-5.62,12.72-13.68,31.61-20.32,49.53,2.64-13.51,5.29-30.09,7.34-37.63,3.39-12.47,7.54-29.21,7.54-29.21-1-7.12-7.17-7.12-7.17-7.12-19.29,10.37-47.43,1.78-47.43,1.78-3.37-15.75-2.19-43-2.19-43l.76-5.34,52.24-2.53s-4.65-11-4.23-17.66,2.9-24.46.85-29.19c7.76,5.52,13.2,10.64,14.49,14C286.51,101.21,284.86,157.54,283.53,171.94Z" class="cls-multipy"></path><path fill="#d177b8" opacity="0.4" d="M177.85,173.46s-27.73,8.59-46.75-1.78c0,0-6.11,0-7.07,7.12,0,0,4.1,16.74,7.44,29.21,1.69,6.32,3.8,19,6,30.88-6-15.66-12.72-31.37-17.62-42.48-.27-1.11-.5-2.11-.7-3-1-7.15-2-14.21-2.67-21.52-1.31-14.4-2.94-70.74,1.31-82.19,1.2-3.23,6.06-8,13-13.16-1.48,5.72.73,22,1.13,28.33.42,6.71-4.16,17.66-4.16,17.66l51.48,2.53.75,5.34S181.16,157.71,177.85,173.46Z" class="cls-multipy"></path><path fill="#d177b8" opacity="0.4" d="M234.13,285.24a42.86,42.86,0,0,1-8.33,6.84,44.9,44.9,0,0,1-7.69,2.22h0c-1,.19-2,.37-3,.52h0a76.71,76.71,0,0,1-8.5.71l-1.35,0c-1,0-2,0-3.11,0l-1.54,0h-.41c-.8,0-1.58.05-2.35.05H195a69.57,69.57,0,0,1-15-1.7,42.78,42.78,0,0,1-4.45-1.31s0,0-.06,0c-.52-.18-1-.38-1.51-.57a45,45,0,0,1-9-7.57C184,292.31,207.55,295.51,234.13,285.24Z" class="cls-multipy"></path><path fill="#6e2148" d="M289.77,95l7.37,4.52C292.41,81.29,267.47,73,263.31,71.72l-.6-.18c-3.64-12.43-13.23-25.88-23.24-33.71l-.54-.44a3,3,0,0,1-.26-.22,35.93,35.93,0,0,0-8.81-5,31.7,31.7,0,0,0-15.29-2,40.57,40.57,0,0,0-25.52-2.59,101.84,101.84,0,0,0-30,12.17l0,0-3.06,1.83s-.06,0-.08,0a.06.06,0,0,1,0,0c-4,2.48-7.29,4.68-9.89,6.14l-.08,0h0a12.94,12.94,0,0,1-4.13,1.7c-6.28,1-11.14-13.63-11.14-13.63-5.67,9.09,1.32,22.54,1.32,22.54s-14.56,2.46-22.34,14-6.61,33.35-6.61,33.35c2.49-7.37,8.69-21.28,9.07-22.14l-.54,2.08-.12.54c-4.64,21.62.68,75.56.68,75.56,2-24.78,17.67-48.7,17.67-48.7,6.59,10,28.59,13.09,30,13.25a22.52,22.52,0,0,1-7.91-4.7s-.06-.06-.08-.06c-8.86-8-12.89-22.6-6.92-30.81,7.58-10.44,25.56-9.68,52.46-8.72s43.73-4,48.26-1.9,28.6,23.48,32,30.3,5.13,47.52,5.13,47.52l5.74-35.79c5.75,8.89,4.66,15.41,4.66,15.41a57,57,0,0,0,1.73-23.22C293,102.48,290,95.46,289.77,95ZM217.29,31.53c12.17,1.4,14.16,11.19,14.16,11.19A47.87,47.87,0,0,0,217.29,31.53Z" class="canChange" style="fill:null"></path><path fill="#d177f4" d="M238.93,37.39l-.32-.24.06,0A3,3,0,0,0,238.93,37.39Z" class="cls-multipy"></path><path fill="#d177b8" opacity="0.6" d="M288.33,122.28l-5.74,35.79s-1.72-40.71-5.13-47.52-27.44-28.22-32-30.3-21.38,2.84-48.26,1.9-44.88-1.72-52.46,8.72c-6,8.21-1.94,22.78,6.92,30.81-22.92-17-12.77-45.4-12.77-45.4-13-2.48-22.72,4-25.82,6.49,26.4-23.4,61.65-4.16,61.65-4.16l3.92.12S172,61.61,159.81,57.43s-27.94,1.06-27.94,1.06,17-11.45,29.74-8.43,23.76,28.22,23.76,28.22c2.54,1,8.61.27,8.61.27s-8.49-25.79-21.3-30.67c-11.25-4.26-23.44-1-26.26-.2a64.64,64.64,0,0,1,27-3c15.33,1.6,25.18,35,25.18,35h8.13s.3-26.69-12.59-36.93C181.79,33,157.81,41,155.93,41.64L159,39.81l0,0c.9-.32,24.26-8.56,38.93,2,14.93,10.8,14.45,35.4,14.45,35.4,6.11.2,22.1-1.94,22.1-1.94,3.24-12.67-2.42-30.7-3-32.42,5.52,11.81,5.26,31.52,7.06,32.28S253,73.24,253,73.24c1-21.64-10.23-32.65-13.55-35.41,10,7.83,19.6,21.28,23.24,33.71l.6.18s-1.84,8.63,5.91,11.85C276.76,86.69,289,94.5,289.71,95c-13.45-6.13-29.48-9-29.48-9l12,13.35A56.07,56.07,0,0,1,288.33,122.28Z" class="cls-multipy"></path><path fill="#d177b8" opacity="0.6" d="M129.68,113.19S114,137.11,112,161.89c0,0-5.32-53.94-.68-75.56l.12-.54.54-2.08c0,16.71,12.69,26.84,12.69,26.84-6.08-15.89,4.46-23.66,5-24C123.46,97.16,129.68,113.19,129.68,113.19Z" class="cls-multipy"></path><path fill="#ffd9bb" d="M192.48,38.84a93,93,0,0,0,17.59,3.88c9.84,1.18,19.63-1.94,19.63-1.94l1.81,2.08a100.49,100.49,0,0,1,2.72,11,14,14,0,0,0-8.07-4.47c-5.3-.94-17.89,3.32-17.89,3.32S202.53,42.49,192.48,38.84Z" class="cls-softlight"></path><path fill="#ffd9bb" d="M178.43,46.35A30,30,0,0,1,187.19,55l12-3.17s-3.14-7.5-10.39-10.61Z" class="cls-softlight"></path><path fill="#ffd9bb" d="M167,50.34s6.18,3.66,9,7.19l5.17-1s-2.57-6.41-7.06-8A6.22,6.22,0,0,0,167,50.34Z" class="cls-softlight"></path><path fill="#ffd9bb" d="M269.8,81s6.75,3.88,13.65,7.95a14.61,14.61,0,0,0,0-5.68c-.69-2.22-10.81-6.06-10.81-6.06Z" class="cls-softlight"></path><path fill="#ffd9bb" d="M113.07,77.3s13.63-7.77,28.62-7.52c0,0-8.75-3.28-8.3-4.92s4.1-7.33,4.1-7.33S116,59.77,113.07,77.3Z" class="cls-softlight"></path><path d="M217.88,126.48s-2.41,9.59-1,12.63,39.87-16.19,45.37-14.27a23.08,23.08,0,0,1,8,4.35s-.15-14.74-7.78-14.83S217.88,126.48,217.88,126.48Z" class="canChange" style="fill:null"></path><path d="M179.2,126.48s2.4,9.59,1,12.63-39.87-16.19-45.36-14.27a23.08,23.08,0,0,0-8,4.35s.15-14.74,7.78-14.83S179.2,126.48,179.2,126.48Z" class="canChange" style="fill:null"></path><path fill="#0a010a" d="M216.21,165.33s11.13-16.8,28-17.71,30,7.81,35.74,7.31c0,0-8.33,1.32-8.91,2.15s-10.13,12.94-12.66,13.5-4.8,3.21-13.55,4.36a47.78,47.78,0,0,1-14.75-.13l-7.94-8.61,1.24-2.07Z"></path><path fill="#e4e5f9" d="M267.6,156.68a46.41,46.41,0,0,1-2.78,6c-2.09,3.78-5.24,8.11-9.06,9.11-7.06,1.85-24,4-26.46,2.82-1.39-.68-4-3.83-5.92-6.37-1.43-1.87-2.51-3.4-2.51-3.4l-.11-1S240.63,139.53,267.6,156.68Z"></path><g class="cls-path-cs3-male-8R show"><ellipse fill="#6a518a" cx="243.18" cy="160.22" rx="13.23" ry="12.45" transform="translate(-20.06 35.68) rotate(-8.06)"></ellipse><ellipse fill="#76719d" cx="243.18" cy="160.22" rx="12.45" ry="11.73" transform="matrix(0.99, -0.14, 0.14, 0.99, -20.06, 35.68)"></ellipse><ellipse fill="#724a60" cx="243.18" cy="160.22" rx="8.08" ry="7.61" transform="translate(-20.06 35.68) rotate(-8.06)" class="cls-multipy canChange" style="fill:null"></ellipse></g><path fill="#d177b8" opacity="0.6" d="M264.82,162.68c.52-4.66-19.66-5.83-32.35-3.82-7.22,1.14-8.94,5.68-9.09,9.38-1.43-1.87-2.51-3.4-2.51-3.4l-.11-1s19.87-24.33,46.84-7.18A46.41,46.41,0,0,1,264.82,162.68Z" class="cls-multipy"></path><path fill="#fff" d="M253.46,161.66c-.79.69,3.19.41,6-.82,2.55-1.1,3.69-2.57,3.41-2.78S256.58,159,253.46,161.66Z"></path><path fill="#fff" d="M251.27,162.49c-1.16-.18-2.42.42-2.42.89s1.45.91,2.08.65S251.91,162.59,251.27,162.49Z"></path><path fill="#0a010a" d="M183.79,165.87s-11.13-16.8-28-17.71-30,7.81-35.74,7.31c0,0,8.33,1.32,8.91,2.16s10.13,12.94,12.66,13.49,4.8,3.21,13.55,4.36a47.78,47.78,0,0,0,14.75-.13l7.94-8.61-1.24-2.07Z"></path><path fill="#e4e5f9" d="M132.4,157.22a46.85,46.85,0,0,0,2.78,6c2.09,3.77,5.24,8.1,9.06,9.1,7.06,1.85,24,4,26.46,2.82,1.39-.68,4-3.83,5.92-6.37,1.43-1.86,2.51-3.4,2.51-3.4l.11-1S159.37,140.07,132.4,157.22Z"></path><g class="cls-path-cs3-male-8L show"><ellipse fill="#6a518a" cx="156.82" cy="160.76" rx="12.45" ry="13.23" transform="matrix(0.14, -0.99, 0.99, 0.14, -24.34, 293.49)"></ellipse><ellipse fill="#76719d" cx="156.82" cy="160.76" rx="11.73" ry="12.45" transform="translate(-24.34 293.49) rotate(-81.94)"></ellipse><ellipse fill="#724a60" cx="156.82" cy="160.76" rx="7.61" ry="8.08" transform="translate(-24.34 293.49) rotate(-81.94)" class="cls-multipy canChange" style="fill:null"></ellipse></g><path fill="#d177b8" opacity="0.6" d="M135.18,163.23c-.52-4.67,19.66-5.84,32.35-3.83,7.22,1.14,8.94,5.68,9.09,9.38,1.43-1.86,2.51-3.4,2.51-3.4l.11-1s-19.87-24.33-46.84-7.18A46.85,46.85,0,0,0,135.18,163.23Z" class="cls-multipy"></path><path fill="#fff" d="M146.54,162.2c.79.69-3.19.41-6-.82-2.55-1.1-3.69-2.57-3.41-2.78S143.42,159.49,146.54,162.2Z"></path><path fill="#fff" d="M148.73,163c1.16-.18,2.42.42,2.42.89s-1.45.92-2.08.65S148.09,163.14,148.73,163Z"></path><path fill="#8c2f72" opacity="0.6" d="M172.84,244.28S181,256,199.52,256,228,244.1,228,244.1s-10.9,5.28-28.13,5.28S172.84,244.28,172.84,244.28Z" class="cls-multipy"></path><path fill="#ba7070" d="M161.77,230.21s6.75,13,14.74,18.55c10.13,7.09,30.79,7.09,44.18,2.18,7.7-2.82,16.59-19.88,16.59-19.88l-37.4,10.58Z" class="canChange" style="fill:null"></path><path d="M237.28,228.27s-11.41,4.66-37.4,4.66v0c-26,0-37.41-4.66-37.41-4.66-2.56.31,0,2.79,0,2.79,14,18.78,55.42,22.07,74.81,0C237.28,231.06,239.84,228.58,237.28,228.27Z"></path><path fill="#fff" d="M167.24,229.69v2.36s11.6,7,32.64,7,31.38-6.73,31.38-6.73l.68-2.53a158.88,158.88,0,0,1-32.06,3.1A161.84,161.84,0,0,1,167.24,229.69Z"></path><path fill="#742637" d="M163.93,228.78s10.08-.25,36.5-.25,36.24,0,36.24,0-12.6,4.43-36.79,4.43S163.93,228.78,163.93,228.78Z"></path><path fill="#8c2f72" opacity="0.6" d="M234.28,226s5,3.29,6.4,5.72a6,6,0,0,0-3.2-6.29Z" class="cls-multipy"></path><path fill="#8c2f72" opacity="0.6" d="M165.72,226s-5,3.29-6.4,5.72a6,6,0,0,1,3.2-6.29Z" class="cls-multipy"></path><path fill="#ffd9d9" d="M215.76,246.65a11.28,11.28,0,0,0,6.07.29c2.82-.85,7.45-6,7.45-6S218.82,245.3,215.76,246.65Z" class="cls-softlight"></path><path fill="#24212b" d="M243.14,294.88a64.22,64.22,0,0,1-11,10.77H169.51c-.82-.58-1.66-1.15-2.53-1.67-3.31-3.18-6.82-6.14-10.31-9.12l-.61-.55c-.14-.13-.28-.27-.41-.41s-.49-.51-.72-.77A112.79,112.79,0,0,1,152.6,266a114.92,114.92,0,0,1,1.07-12.54c-.09.65,1.69,2.67,2.07,3.24.72,1.09,1.47,2.16,2.24,3.21a78.54,78.54,0,0,0,10.37,11,73.86,73.86,0,0,0,12.28,9.35c.75.45,2.72,2,3.59,1.94,0,0,9.59-.91.81-10.43,0,0,2.52-.11,5.66-.22s6.94-.23,9.5-.23h.32c5.1,0,15.16.45,15.16.45-8.78,9.53.81,10.43.81,10.43,1.1.1,2.45-1.14,3.32-1.68,1.24-.77,2.48-1.56,3.7-2.38a68,68,0,0,0,6.69-5,139.47,139.47,0,0,0,10.94-10.81,37,37,0,0,0,3.22-4.68c.24-.35,1.7-2,1.6-2.41a45.47,45.47,0,0,1,1.45,9.76C247.83,274.36,246,284.87,243.14,294.88Z" class="canChange" style="fill:null"></path><path fill="#151319" d="M179.79,291.7a45.47,45.47,0,0,0,6.33,13.95H162.45a39.88,39.88,0,0,1-6.39-11.34c-.14-.42-.27-.84-.38-1.26,0,.28,0,.57,0,.85,0,.75,0,1.49,0,2.24-.25-1-.49-2-.7-3A112.79,112.79,0,0,1,152.6,266c.88,4,4.88,21,11.84,29.57,0,0-1.8-11.3,2-14.48,0,0,3.33,17.29,11.52,24.46C177.9,305.18,175,295.48,179.79,291.7Z" class="canChange" style="fill:null"></path><path fill="#151319" d="M193.1,299.13s2.41,3.21,5.27,6.52h-5.44C192.42,303,192.23,300.32,193.1,299.13Z" class="canChange" style="fill:null"></path><path fill="#151319" d="M217.92,294s4.11,7,3.82,11.64H214A20.28,20.28,0,0,0,217.92,294Z" class="canChange" style="fill:null"></path><path fill="#151319" d="M243.14,294.88c-.54,1.9-1.1,3.79-1.69,5.63-.78,1.36-1.93,3.18-3.33,5.14H222.74c3.09-4.51,9.2-14.41,9-21.88,0,0,5.53,4.62,5.11,13.57,0,0,12-24.83,8.7-34.3a21.32,21.32,0,0,1,1.84,1.87C247.83,274.36,246,284.87,243.14,294.88Z" class="canChange" style="fill:null"></path><path fill="#565949" opacity="0.6" d="M260,309h0l-1.2.32-1.93.5-23.82,6.26-40.73,10.69h0l-.46.12-1.31.35h0l-2.74.72-5.69,1.49L153,337.13l-1.59-7.41-1.29-6-2.34-11-4.89-22.85s1.19,1.11,3.4,2.84h0c.58.46,1.23.95,1.95,1.48a103.31,103.31,0,0,0,17.18,10.29c20.47,9.68,52.57,16.39,86.47-9.33l.46-.35.19-.15h0c.48-.36,1-.74,1.43-1.12,1.14-.9,2.27-1.84,3.41-2.82h0l.35-.29Z" class="cls-multipy"></path><path fill="#1a1426" d="M393.17,400H6.83s4.51-20,5.25-24.64c.12-.74,3.3-2.47,8.58-4.88,17.47-8,58-23.29,86.69-34.17l2.34-.88,1.17-.42a14.35,14.35,0,0,0,1.58-.63,1,1,0,0,0,.45-.41,3.59,3.59,0,0,1,.6-1.16c.55-.68,2,.41,2.81.11,13-4.94,22-8.41,22.65-8.92a7.25,7.25,0,0,0,.83-2.86c.46-2.67,1-7,1.43-12.15a.78.78,0,0,0,0-.21l-3.14-2.91a1.85,1.85,0,0,1,0-.23s2.27-20.43,2.28-20.43c.47,0,1.39.14,2.56.31-.68,0,.68,4,.8,4.27,3.54,9.75,15.7,16.32,24.74,20a74,74,0,0,0,12.71,3.88c.86.18,1.74.36,2.64.52A97.48,97.48,0,0,0,200,315.7c16.82-.18,28.91-4.12,37.2-8.53h0c8.82-4.7,13.36-9.94,14.79-11.8l5.33-6.29c.13-.12.84-.08,1-.09a3,3,0,0,1,.84,0c-.08,0,.09,2.43.1,2.65.11,1.62.21,3.26.21,4.88l.36,8.57c.05,1.32.16,2.64.15,4l-1.16.71c.48,5.25,1,9.57,1.47,12a5.24,5.24,0,0,0,.71,2.23c.66.54,10.88,4.44,25.26,9.91h0c36.87,14,101,38.07,101.58,41.44.38,2.34,1.69,8.48,2.91,14.07S393.17,400,393.17,400Z" class="canChange" style="fill:null"></path><path fill="#2b2217" opacity="0.36" d="M200.4,327s-2.55.17-6.82.25l-3,0c-3,0-6.51,0-10.41-.18a190.45,190.45,0,0,1-30.09-3.39c-3.48-.7-6.94-1.55-10.29-2.55.46-2.67.95-7,1.43-12.15,2,1.22,4.18,2.48,6.52,3.74a125.25,125.25,0,0,0,30.51,11.86,93.74,93.74,0,0,0,12.14,2l2,.17C195,327,197.69,327.05,200.4,327Z" class="cls-multipy"></path><path fill="#2b2217" opacity="0.36" d="M260.34,321.77c-3.78,1.12-7.7,2-11.63,2.79a191.17,191.17,0,0,1-25,2.91,224.06,224.06,0,0,1-23.69,0A89.69,89.69,0,0,0,226.59,324a131.69,131.69,0,0,0,30-12.94l2.23-1.32C259.35,315,259.86,319.3,260.34,321.77Z" class="cls-multipy"></path><path fill="#2a2116" opacity="0.32" d="M393.17,400H368.41c11.63-3.28,18.81-6.83,22.42-10.57C392.05,395,393.17,400,393.17,400Z" class="cls-multipy"></path><path fill="#2b2217" opacity="0.36" d="M112.9,334s17.63,17.56,32.39,21.95c-8.77-2.12-30-8.45-34.43-20.92a14.35,14.35,0,0,0,1.58-.63,1,1,0,0,0,.45-.41Z" class="cls-multipy"></path><path fill="#59512d" d="M149.1,356.77a24,24,0,0,1-3.81-.84C147.64,356.5,149.1,356.77,149.1,356.77Z"></path><path fill="#2b2217" opacity="0.36" d="M193.58,327.23S45.88,363.83,42,387.75A68,68,0,0,0,41.12,400H6.83s4.51-20,5.25-24.64c.12-.74,3.3-2.47,8.58-4.88,17.47-8,58-23.29,86.69-34.17l2.34-.88,1.17-.42a14.35,14.35,0,0,0,1.58-.63,1,1,0,0,0,.45-.41,3.59,3.59,0,0,1,.6-1.16c.55-.68,2,.41,2.81.11,13-4.94,22-8.41,22.65-8.92a7.25,7.25,0,0,0,.83-2.86c.46-2.67,1-7,1.43-12.15a.78.78,0,0,0,0-.21l-3.14-2.91a1.85,1.85,0,0,1,0-.23s2.27-20.43,2.28-20.43c.47,0,1.39.14,2.56.31-.68,0,.68,4,.8,4.27,3.54,9.75,15.7,16.32,24.74,20a74,74,0,0,0,12.71,3.88C178.84,317.36,179.26,322.58,193.58,327.23Z" class="cls-multipy"></path><path fill="#2b2217" opacity="0.36" d="M393.17,400h-43.3c-1-4.2-2.11-9.06-3.11-14.47-3.6-19.55-103-63-103-63,6.37-10.94-1-14.29-6.54-15.31,8.82-4.7,13.36-9.94,14.79-11.8l5.33-6.29c.13-.12.84-.08,1-.09a3,3,0,0,1,.84,0c-.08,0,.09,2.43.1,2.65.11,1.62.21,3.26.21,4.88l.36,8.57c.05,1.32.16,2.64.15,4l-1.16.71c.48,5.25,1,9.57,1.47,12a5.24,5.24,0,0,0,.71,2.23c.66.54,10.88,4.44,25.26,9.91h0c36.87,14,101,38.07,101.58,41.44.38,2.34,1.69,8.48,2.91,14.07S393.17,400,393.17,400Z" class="cls-multipy"></path><path fill="#2b1e33" d="M257.58,293.85s1.84,28.62,3.42,30.1,22,8.68,22,8.68l.72-25.3-21.39-13.48-4.76-.59"></path><path fill="#432f4f" d="M396.41,400l-24-.1-7.35.1H284.16l.78-83.92s87.48,25.43,87.48,30c0,3.08-.9,3.49-1.48,3.43a2.09,2.09,0,0,0,.3.11,24.09,24.09,0,0,1,3.2,1.39,18.17,18.17,0,0,1,7.57,6.88c1.42,2.51,4,9.59,6.54,17.23,1.52,4.54,3.06,9.28,4.35,13.37C394.93,394.85,396.41,400,396.41,400Z"></path><path fill="#84a27d" opacity="0.32" d="M374.82,367.86s-45.54,5.45-45.54,10,16.87,10.61,16.22,14.39-4.84,7.42-4.84,7.42l-30.8-.46-3.35-26.8,10.78-14.54" class="cls-multipy"></path><polyline fill="#2b1e33" points="320.14 376.5 342.46 390.57 335.23 399.2 285.54 399.2 284.16 386.2"></polyline><path fill="#84a27d" opacity="0.32" d="M352.45,399.48c0,.18,0,.35,0,.52,0,0,0-.18-.09-.52-.7-4.33-4.68-34.45,18.87-49.88a24.09,24.09,0,0,1,3.2,1.39C367,359.1,352.26,378,352.45,399.48Z" class="cls-multipy"></path><path fill="#432f4f" d="M374.47,367.47s-4.82.55-17.33,1.23c-3,.17-6.51.34-10.48.53-20.38.9-62.32,24.52-62.32,24.52,0-2.28-.43-15.84-.9-30.82-.16-4.85-.32-9.85-.48-14.68-.36-11.2-.72-21.38-.89-26.35,0,0,0-.13,0-.37-.08-1.62-.2-1.37-.2-1.37-8.37-4.08-21.2-7.4-22.66-13.46-.22-.92-.76-6.88-1-10.44a24.47,24.47,0,0,1-.14-2.67c9.68-.33,30,5.86,43,13.75,6.68,4,13.51,8.74,20.18,13.72,5.08,3.78,10.07,7.72,14.83,11.64C357.57,350.35,374.47,367.47,374.47,367.47Z"></path><path fill="#84a27d" opacity="0.32" d="M301.07,307.33c20.81,17.34,52.21,45.6,56.07,61.37,12.51-.68,17.33-1.22,17.33-1.22S335.8,328.3,301.07,307.33Z" class="cls-multipy"></path><path fill="#d077b7" opacity="0.32" d="M282.06,321.53c-.08-1.62-.2-1.37-.2-1.37-8.37-4.08-21.2-7.4-22.66-13.46-.22-.92-.76-6.88-1-10.44,4.94.32,20.49,1.89,22,9A98.46,98.46,0,0,1,282.06,321.53Z" class="cls-multipy"></path><path fill="#e3ceff" opacity="0.14" d="M336.08,332.7c-4.06-.86-8.38-.34-7.46,6.2,1.67,11.84-15-.49-15.31,4.76s2.2,21.06-6.81,16.28-14.15-12.33-14-3.28,2.93,19.73-1.81,14-4-16.45-6.52-9.38a12.59,12.59,0,0,1-.72,1.67c-.16-4.85-.32-9.85-.48-14.68,1.82,5.36,5.54,13.93,7,7.09,1.81-8.38.13-21.32,5.29-17.32s14.09,20.77,11.22,8,5.52-17.16,11.38-13.6c4.54,2.76,2-7.38,3.37-11.31C326.33,324.84,331.32,328.78,336.08,332.7Z"></path><path fill="#e3ceff" opacity="0.14" d="M392.9,388.47c-.41-.18-.84-.39-1.29-.61-4.43-2.27-3.36-7.63-5.57-10.06S389,389.93,380.3,386s-4,4.09-7.89,13.61l-7.3,0c-3.18-3.51-6-8.31-6.26-3.17a6.63,6.63,0,0,1-.64,3.15c-.32.48-.74.4-1.2,0-1.55-1.36-3.55-6.52-4-8.09-.64-2.5,2.56-.09,3.89-8.75s2.64,1.39,8.38,10.22,5-8,6.46-15.42,7.5,13.69,8.23,0c.52-9.82,5.67-5.55,8.54-2.36C390.07,379.64,391.61,384.38,392.9,388.47Z"></path><path fill="#2b1e33" d="M142.89,293.85s-1.84,28.62-3.43,30.1-22,8.68-22,8.68l-.72-25.3,21.38-13.48,4.76-.59"></path><path fill="#432f4f" d="M4.06,400l24-.1,7.35.1h80.92l-.78-83.92s-87.48,25.43-87.48,30c0,3.08.9,3.49,1.48,3.43a2.09,2.09,0,0,1-.3.11A23.54,23.54,0,0,0,26,351a18.12,18.12,0,0,0-7.57,6.88c-1.42,2.51-4,9.59-6.54,17.23-1.52,4.54-3.06,9.28-4.35,13.37C5.54,394.85,4.06,400,4.06,400Z"></path><path fill="#84a27d" opacity="0.32" d="M25.65,367.86s45.54,5.45,45.54,10S54.32,388.46,55,392.24s4.83,7.42,4.83,7.42l30.8-.46L94,372.4,83.17,357.86" class="cls-multipy"></path><polyline fill="#2b1e33" points="80.33 376.5 58.01 390.57 65.24 399.2 114.93 399.2 116.31 386.2"></polyline><path fill="#84a27d" opacity="0.32" d="M48,399.48c0,.18,0,.35,0,.52,0,0,0-.18.09-.52.7-4.33,4.67-34.45-18.87-49.88A23.54,23.54,0,0,0,26,351C33.44,359.1,48.21,378,48,399.48Z" class="cls-multipy"></path><path fill="#432f4f" d="M26,367.47s4.82.55,17.33,1.23c3,.17,6.51.34,10.48.53,20.38.9,62.32,24.52,62.32,24.52,0-2.28.42-15.84.9-30.82.16-4.85.32-9.85.48-14.68.36-11.2.71-21.38.89-26.35,0,0,0-.13,0-.37.08-1.62.2-1.37.2-1.37,8.37-4.08,21.2-7.4,22.66-13.46.22-.92.76-6.88,1-10.44a24.47,24.47,0,0,0,.14-2.67c-9.67-.33-30,5.86-43,13.75-6.68,4-13.51,8.74-20.18,13.72-5.08,3.78-10.07,7.72-14.83,11.64C42.9,350.35,26,367.47,26,367.47Z"></path><path fill="#84a27d" opacity="0.32" d="M99.4,307.33c-20.82,17.34-52.21,45.6-56.07,61.37C30.82,368,26,367.48,26,367.48S64.67,328.3,99.4,307.33Z" class="cls-multipy"></path><path fill="#d077b7" opacity="0.32" d="M118.41,321.53c.08-1.62.2-1.37.2-1.37,8.37-4.08,21.2-7.4,22.66-13.46.22-.92.76-6.88,1-10.44-4.93.32-20.48,1.89-22,9A98.46,98.46,0,0,0,118.41,321.53Z" class="cls-multipy"></path><path fill="#e3ceff" opacity="0.14" d="M64.39,332.7c4.06-.86,8.38-.34,7.46,6.2-1.67,11.84,15-.49,15.3,4.76S85,364.72,94,359.94s14.16-12.33,14-3.28-2.92,19.73,1.82,14,4-16.45,6.51-9.38a12.5,12.5,0,0,0,.73,1.67c.16-4.85.32-9.85.48-14.68-1.82,5.36-5.54,13.93-7,7.09-1.81-8.38-.13-21.32-5.29-17.32S91.1,358.79,94,346s-5.51-17.16-11.37-13.6c-4.54,2.76-2-7.38-3.37-11.31C74.14,324.84,69.15,328.78,64.39,332.7Z"></path><path fill="#e3ceff" opacity="0.14" d="M7.57,388.47l1.29-.61c4.43-2.27,3.36-7.63,5.57-10.06s-2.94,12.13,5.74,8.15,4,4.09,7.89,13.61l7.29,0c3.19-3.51,6-8.31,6.27-3.17a6.79,6.79,0,0,0,.63,3.15c.33.48.75.4,1.21,0C45,398.14,47,393,47.41,391.41c.65-2.5-2.55-.09-3.88-8.75s-2.64,1.39-8.38,10.22-5-8-6.47-15.42-7.49,13.69-8.22,0c-.53-9.82-5.68-5.55-8.54-2.36C10.4,379.64,8.86,384.38,7.57,388.47Z"></path><path fill="#4a162d" d="M208.65,210.57s2.72-4.86,6.09-2.77Z"></path><path fill="#4a162d" d="M185.65,207.85s3.43-2.15,6.87,3.57Z"></path><path fill="#d177b8" opacity="0.6" d="M216.68,206s-.31,1.93-3.85,2.2S206,214.92,200,214.92s-9-6.44-12.54-6.73-4.14-2.2-4.14-2.2a50.86,50.86,0,0,1,.46-13.54c-.13,1.18-.88,8.8.54,10.65,1.53,2,10.22.63,15.68.63s14.75.24,15.79-2.79-.25-11.71-.37-12.52A53.51,53.51,0,0,1,216.68,206Z" class="canChange cls-multipy" style="fill:null"></path><path fill="#d177b8" opacity="0.41" d="M214.42,184.64a127.6,127.6,0,0,0-1.11,17s-1.28-7.55.15-20c.26.72.6,1.71,1,2.95Z" class="canChange cls-multipy" style="fill:null"></path><path fill="#d177b8" opacity="0.41" d="M186.81,202.57a128.28,128.28,0,0,0-1.24-17.94v0c.37-1.25.72-2.26,1-3C188.15,194.66,186.81,202.57,186.81,202.57Z" class="canChange cls-multipy" style="fill:null"></path><path fill="#d177b8" opacity="0.6" d="M184.32,203.1a18.41,18.41,0,0,0-1,2.89c-.17,1,7.76,16.61,16.68,16.61s16.52-14.7,16.68-16.61a9,9,0,0,0-1.29-4.32A60.54,60.54,0,0,1,200,203.73C191.59,203.73,184.32,203.1,184.32,203.1Z" class="canChange cls-multipy" style="fill:null"></path></svg>