<svg xmlns='http://www.w3.org/2000/svg' width='400' height='400'>
      <defs><style>.cls-multipy{mix-blend-mode: multiply;}.cls-softlight{mix-blend-mode: soft-light;}.cls-overlay{mix-blend-mode: overlay;}.cls-colorburn{mix-blend-mode: color-burn;}.cls-screen{mix-blend-mode: screen;}.cls-lighten{ mix-blend-mode: darken;}</style>
      </defs><path fill="#ffc1b5" stroke="#000" stroke-miterlimit="10" stroke-width="5" d="M303.13,380v19.39H96.87V380c0-38.61,19.76-71.1,45.91-78.94a42.23,42.23,0,0,1,8.94-1.67h0c1.08-.09,2.16-.14,3.26-.14h90c1.1,0,2.18,0,3.26.14h0a42.32,42.32,0,0,1,12.16,2.78C285,311.65,303.13,343,303.13,380Z" class="canChange" style="fill:null"></path><path fill="#ffc1b5" stroke="#000" stroke-miterlimit="10" stroke-width="5" d="M311.59,187.33s53.56-48.67,44.87,6.95S312.69,238,312.69,238" class="canChange" style="fill:null"></path><path fill="none" stroke="#000" stroke-miterlimit="10" stroke-width="2" d="M345.49,178.08c-7.33,1.35-19.24,13.09-21.6,22a7.31,7.31,0,0,1,10.47-.63c3.17,2.78,4.94,8.41,4.24,13.5s-3.83,9.3-7.49,10.1"></path><path fill="#fff" d="M315.07,196.36c5.16-10.16,12.78-17.79,21.34-21.37,3-1.27,6.42-2,9.34-.19,4.05,2.51,6,9.35,5.7,15.49s-2.37,11.76-4.4,17.19c4.25-5.19,7.1-12.56,7.89-20.42.4-3.93.23-8.26-1.49-11.48A9.14,9.14,0,0,0,348,171a12.92,12.92,0,0,0-6.39,0c-10.12,2.14-19.41,10.61-24.85,22.65" class="cls-overlay"></path><path fill="#ffc1b5" stroke="#000" stroke-miterlimit="10" stroke-width="5" d="M88.41,187.33s-53.56-48.67-44.87,6.95S87.31,238,87.31,238" class="canChange" style="fill:null"></path><path fill="none" stroke="#000" stroke-miterlimit="10" stroke-width="2" d="M54.51,178.08c7.33,1.35,19.24,13.09,21.6,22a7.31,7.31,0,0,0-10.47-.63c-3.17,2.78-4.94,8.41-4.24,13.5s3.83,9.3,7.49,10.1"></path><path fill="#fff" d="M84.93,196.36C79.77,186.2,72.15,178.57,63.59,175c-3-1.27-6.42-2-9.34-.19-4,2.51-6,9.35-5.7,15.49s2.37,11.76,4.4,17.19c-4.25-5.19-7.1-12.56-7.89-20.42-.4-3.93-.23-8.26,1.49-11.48A9.14,9.14,0,0,1,52,171a12.92,12.92,0,0,1,6.39,0c10.12,2.14,19.41,10.61,24.85,22.65" class="cls-overlay"></path><circle fill="#ffc1b5" stroke="#000" stroke-miterlimit="10" stroke-width="5" cx="199.03" cy="179.39" r="129.04" class="canChange" style="fill:null"></circle><path fill="#fff" d="M79.76,187a128.71,128.71,0,0,0,45.12,98A129,129,0,1,1,283,81.38,129.06,129.06,0,0,0,79.76,187Z" class="cls-overlay"></path><path opacity="0.29" d="M328.31,179.39a129.06,129.06,0,0,1-252,39.18A129.08,129.08,0,0,0,312.47,117.39,128.45,128.45,0,0,1,328.31,179.39Z"></path><path fill="#3f364d" stroke="#000" stroke-miterlimit="10" stroke-width="5" d="M337.25,98.21a103.85,103.85,0,0,0-9.35-25.47,4.47,4.47,0,0,0-.32-.61c-.2-.38-.43-.76-.64-1.12,0-.06-.06-.13-.1-.2a0,0,0,0,0,0,0l-.12-.22h0s0,0,0,0l-.24-.41c-.09-.21-.24-.4-.35-.61l0,0-.06-.1h0l-.09-.1c-2.76-4.4-5.59-7.49-8.15-8.65-10.69-4.8-41.95-2.94-41.95-2.94s31-6.46,55.68-2.19c0,0-12.36-13.1-27.28-11.89-12.44,1-26.13,11.1-41.16,13a36.75,36.75,0,0,1-4.33.29,33.18,33.18,0,0,1-4.64-.27l-.06,0a25.12,25.12,0,0,1-5.91-1.71c-13.58-5.29-36-20.53-50.4-20.36-21.36.25-43,9.32-63.54,14.29-6,1.45-11.82,2.54-17.57,4a77.05,77.05,0,0,0-17,6.19l-.07,0C62.3,78.38,37.59,133.15,63,171c.67,1,1.93,2.53,2.85,3.64L67,176c-.25-4.07,3.71-10.7,5.43-14.47a48,48,0,0,1,9.84-13.75c12.63-12.69,28.85-21.47,42.06-33.58,2.31-2.11,5.23-6.12,8.6-6.5,2.45-.28,5.38-.64,8.7-1.07,27-3.5,80.05-12.15,112.79-29.32h0c2.88-1.51,5.6-3.08,8.13-4.72a71.29,71.29,0,0,1,18.55,9.72,54,54,0,0,1,9.33,8.57c11,13,14.07,42.86,18.76,62.6S330,174,330,174s4.31-12.42,9.09-41.53C340.9,121.55,339.85,109.39,337.25,98.21ZM197.66,80.06c-1.28.61-21.94,10.25-44.57,18.37q-2.33.84-4.67,1.64c-3,1-6,2-9,3a170.71,170.71,0,0,1,16.06-9.87c12.69-6.79,27-12.07,42.23-13.13A.07.07,0,0,0,197.66,80.06Z" class="canChange" style="fill:null"></path><path fill="#3f364d" opacity="0.6" stroke="#000" stroke-miterlimit="10" stroke-width="5" d="M89.53,64.54l-.12.08,0,0A.18.18,0,0,1,89.53,64.54Z" class="cls-multipy"></path><path fill="#3f364d" opacity="0.6" stroke="#000" stroke-miterlimit="10" stroke-width="5" d="M326.07,69.49a1.19,1.19,0,0,0-.15-.21l.09.1S326.07,69.44,326.07,69.49Z" class="cls-multipy"></path><path fill="#3f364d" opacity="0.6" stroke="#000" stroke-miterlimit="10" stroke-width="5" d="M326.45,70.12,327,71C326.79,70.72,326.62,70.4,326.45,70.12Z" class="cls-multipy"></path><g opacity="0.41" class="show"><path d="M339.09,132.47C334.31,161.58,330,174,330,174s-16.11-.81-20.8-20.54-7.72-49.58-18.76-62.6a54,54,0,0,0-9.33-8.57,91.65,91.65,0,0,0-4.95-10.46c10.57,9.33,22.1,17.47,33.61,25.6a70.17,70.17,0,0,0-26.85-32.12,121.3,121.3,0,0,1,53.18,35.93c.41-1,.79-2,1.15-3C339.85,109.39,340.9,121.55,339.09,132.47Z"></path></g><path opacity="0.41" d="M257.35,72.54a24.53,24.53,0,0,1-2.92,4.75h0c-32.74,17.17-85.76,25.82-112.79,29.32q3.41-3.23,6.79-6.55c2.36-2.27,4.72-4.58,7.07-6.9Q166.89,82,178.05,70.53c-29.52,14.59-62.22,26.16-83.47,51.32,8.84-15.66,19.19-30.65,32.35-42.91,11.1-10.34,24.32-18.7,38.8-23.08a358.92,358.92,0,0,0-66.9,24.59c1.3-9.12,6.59-17.3,13.25-23.68q2.17-2.09,4.53-4c5.75-1.46,11.6-2.55,17.57-4,20.53-5,42.18-14,63.54-14.29,14.45-.17,36.82,15.07,50.4,20.36A25.12,25.12,0,0,0,254,56.59l.06,0a33.18,33.18,0,0,0,4.64.27A24,24,0,0,1,257.35,72.54Z"></path><path fill="#fff" d="M65.85,174.64C64.93,173.53,63.67,172,63,171c-25.41-37.85-.7-92.62,36.54-112l.07,0C87.27,72.81,65.27,99.94,61,122,57.16,141.86,61.93,162.43,65.85,174.64Z" class="cls-overlay"></path><path d="M91,128.5h66c6.43,0,6.45-10,0-10H91c-6.43,0-6.45,10,0,10Z" class="canChange" style="fill:null"></path><path d="M240,128.5h66c6.43,0,6.45-10,0-10H240c-6.43,0-6.45,10,0,10Z" class="canChange" style="fill:null"></path><ellipse opacity="0.29" cx="277.91" cy="193.44" rx="42.09" ry="43.67"></ellipse><ellipse fill="#fff" cx="277.11" cy="191.24" rx="40.59" ry="42.17"></ellipse><path d="M277.11,150.57c21.55,0,39.09,18.25,39.09,40.67s-17.54,40.67-39.09,40.67S238,213.66,238,191.24s17.53-40.67,39.09-40.67m0-3c-23.25,0-42.09,19.55-42.09,43.67s18.84,43.67,42.09,43.67,42.09-19.55,42.09-43.67-18.85-43.67-42.09-43.67Z"></path><path opacity="0.29" d="M319.19,191.24c0,24.12-18.84,43.66-42.09,43.66A41.47,41.47,0,0,1,243.82,218a52.93,52.93,0,0,0,16.33,2.57c26.18,0,47.4-18.92,47.4-42.25a39,39,0,0,0-8.75-24.47A44,44,0,0,1,319.19,191.24Z"></path><ellipse cx="277.7" cy="195.1" rx="13.98" ry="13.42" transform="translate(-5.32 7.8) rotate(-1.59)" class="canChange" style="fill:null"></ellipse><ellipse opacity="0.29" cx="122.09" cy="195.44" rx="42.09" ry="43.67"></ellipse><ellipse fill="#fff" cx="122.89" cy="193.24" rx="40.59" ry="42.17"></ellipse><path d="M122.89,152.57c21.56,0,39.09,18.25,39.09,40.67s-17.53,40.67-39.09,40.67S83.8,215.66,83.8,193.24s17.54-40.67,39.09-40.67m0-3c-23.24,0-42.09,19.55-42.09,43.67s18.85,43.67,42.09,43.67S165,217.36,165,193.24s-18.84-43.67-42.09-43.67Z"></path><path opacity="0.29" d="M80.81,193.24c0,24.12,18.84,43.66,42.09,43.66A41.47,41.47,0,0,0,156.18,220a52.93,52.93,0,0,1-16.33,2.57c-26.18,0-47.4-18.92-47.4-42.25a39,39,0,0,1,8.75-24.47A44,44,0,0,0,80.81,193.24Z"></path><ellipse cx="120.7" cy="193.1" rx="13.98" ry="13.42" transform="translate(-5.33 3.43) rotate(-1.59)" class="canChange" style="fill:null"></ellipse><path fill="#2e0f0e" d="M226.61,249s-1.29,15.41-11.47,23.26a21.24,21.24,0,0,1-9.75,4.17c-10,1.61-18,.09-23.66-4-6.07-4.42-9.47-11.84-9.85-21.59a28.52,28.52,0,0,0,4,2.56c7.24,3.91,23.68,9.88,44.59-.84A70.2,70.2,0,0,0,226.61,249Z"></path><path fill="#fff" d="M177,273.22s-2-8.42,1-8.42,17,4.21,28,2.53,11-4.21,13-2.53,2,5.06,2,5.06v5.05l-14,7.57"></path><path fill="none" stroke="#000" stroke-miterlimit="10" stroke-width="3" d="M226.61,249s-1.29,15.41-11.47,23.26a21.24,21.24,0,0,1-9.75,4.17c-10,1.61-18,.09-23.66-4-6.07-4.42-9.47-11.84-9.85-21.59a28.52,28.52,0,0,0,4,2.56c7.24,3.91,23.68,9.88,44.59-.84A70.2,70.2,0,0,0,226.61,249Z"></path><path fill="#fff" d="M220.48,253.09a27.42,27.42,0,0,1-2.49,6.73c-3.78,7.09-37.45,4.23-39.81,2.48a2.14,2.14,0,0,1-.59-.73,12.75,12.75,0,0,1-1.14-3.67h0c-.24-1.25-.43-2.63-.57-4C183.12,257.85,199.56,263.81,220.48,253.09Z"></path><path opacity="0.18" d="M220.48,253.09a27.42,27.42,0,0,1-2.49,6.73c-3.78,7.09-37.45,4.23-39.81,2.48a2.14,2.14,0,0,1-.59-.73c7.22,2.58,27.26,1.4,27.26,1.4,7.82.27,12.09-6.8,9-4.13s-25.05,1.33-33.34.48a8.35,8.35,0,0,1-4.08-1.42h0c-.24-1.25-.43-2.63-.57-4C183.12,257.85,199.56,263.81,220.48,253.09Z"></path><path fill="#3f364d" stroke="#000" stroke-miterlimit="10" stroke-width="5" d="M235.38,249.94s.73,4.79,0,6.05c0,0-16.41-6.8-21.15-13.86a25.36,25.36,0,0,1-3.28,5,36.38,36.38,0,0,1-10.8-9.2l-.15-.19c-.14.19-.28.38-.44.57a36.92,36.92,0,0,1-10.51,8.82,25.36,25.36,0,0,1-3.28-5C181,249.19,164.62,256,164.62,256c-.73-1.26,0-6.05,0-6.05a36.35,36.35,0,0,1-12.14,5.61,47,47,0,0,1-7.55,1.45c3.41-32.33,42.8-41.06,55.07-34.89,7.6-3.82,25.59-1.93,39,7.74,8.25,6,14.76,14.84,16.06,27.15C255.07,257,243.4,256,235.38,249.94Z" class="canChange" style="fill:null"></path><path opacity="0.29" d="M198.4,238.77a3.93,3.93,0,0,0,1.16-.42,36.92,36.92,0,0,1-10.51,8.82,25.36,25.36,0,0,1-3.28-5C181,249.19,164.62,256,164.62,256c-.73-1.26,0-6.05,0-6.05a36.35,36.35,0,0,1-12.14,5.61,38.39,38.39,0,0,1,4.13-3.83c4.08-3.21,9.28-5.59,11.43-10.32l3.92,2.1c.67-1.65,1.35-3.31,2-5l4.28,4.24a18,18,0,0,0,2.11-6.9,30.87,30.87,0,0,0,8.69,7.1,30.69,30.69,0,0,0,3.57-7.07A5.86,5.86,0,0,0,198.4,238.77Z"></path><path opacity="0.29" d="M235.38,249.94s.73,4.79,0,6.05c0,0-16.41-6.8-21.15-13.86a25.36,25.36,0,0,1-3.28,5,36.38,36.38,0,0,1-10.8-9.2,4,4,0,0,0,1.51-4.28l4.45,3-.33-6.07a19.41,19.41,0,0,0,7.27,4.65,6.11,6.11,0,0,0,.38-2.84,27.63,27.63,0,0,0,8.26,6.08l-1.92-7.76a23.15,23.15,0,0,0,8.12,5.27,19.32,19.32,0,0,0-5.14-10.64l16.73,9.92a39.67,39.67,0,0,0-.47-5.44c8.25,6,14.76,14.84,16.06,27.15C255.07,257,243.4,256,235.38,249.94Z"></path><path fill="#fff" d="M200,227s-30-4-45,17-10,13-10,13l8-22,21.22-11.91,22.87-2" class="cls-overlay"></path><path fill="#c4d1ff" stroke="#000" stroke-miterlimit="10" stroke-width="5" d="M248.28,300h0c-1.08-.09-2.16-.13-3.26-.13h-6.7a21.53,21.53,0,0,1,4.36,12.75c0,.22,0,.44,0,.67-.52,15.61-19.24,28.16-42.28,28.16-23.35,0-42.28-12.91-42.28-28.83a21.53,21.53,0,0,1,4.36-12.75H155c-1.1,0-2.18,0-3.26.13h0c-26.08,2-47.72,27.68-53.39,61.41h30.39l0,15.71v.73l.05,20.16H271.88V361.4h29.79C296,327.67,274.36,302,248.28,300Z" class="canChange" style="fill:null"></path><path fill="#5f5d75" stroke="#000" stroke-miterlimit="10" stroke-width="5" d="M305.64,336.84c-2.5-8.21-7.59-11.76-9-12.63.47.07,1.2-.58,1.2-5.22,0-3-13.27-11.78-28.36-20.87a87.77,87.77,0,0,0-16.71-2.06c-8.83-.09-17.23,2.95-26,3.79l1.37,99.46,89.22.69S308.58,346.45,305.64,336.84Z"></path><path opacity="0.35" d="M307.45,352s-42.28,8.23-42.28,15.1,15.66,16,15.07,21.74-4.5,11.21-4.5,11.21l-28.59-.69L244,358.81l10-22"></path><polyline fill="#5f5d75" stroke="#000" stroke-miterlimit="10" stroke-width="5" points="255.16 365.01 273.37 386.27 267.47 399.31 226.91 399.31 225.79 379.67"></polyline><path fill="none" stroke="#000" stroke-miterlimit="10" stroke-width="5" d="M275.33,394.51s4.89-64.53,20.53-70"></path><path fill="#5f5d75" stroke="#000" stroke-miterlimit="10" stroke-width="5" d="M267.45,297.72a82.32,82.32,0,0,0-14.7-1.66c-9.63-.1-18.75,3.53-28.34,4,.57,31.35,1.53,85.24,1.53,91.05,0,0,34.23-35.7,50.85-37.08,3.25-.27,6.09-.53,8.56-.78,10.21-1,14.14-1.85,14.14-1.85S285.33,324.79,267.45,297.72Z"></path><path opacity="0.29" d="M267.45,297.72c-1.92-.36-3.85-.69-5.79-1,11.54,20.5,21.77,42,23.69,56.46,10.21-1,14.14-1.85,14.14-1.85S285.33,324.79,267.45,297.72Z"></path><polyline fill="#fff" points="280.15 307 292.75 326.46 304.07 352.64 310.61 399 316.91 400 305.46 334 296.95 324 297.02 317.36" class="cls-overlay"></polyline><path fill="#5f5d75" stroke="#000" stroke-miterlimit="10" stroke-width="5" d="M94.36,336.84c2.5-8.21,7.59-11.77,9-12.63-.47.07-1.2-.58-1.2-5.22,0-3,13.27-11.78,28.36-20.87a87.77,87.77,0,0,1,16.71-2.06c8.83-.09,17.23,2.95,26,3.79l-1.37,99.46L82.62,400S91.42,346.45,94.36,336.84Z"></path><path opacity="0.35" d="M92.55,351.94s42.28,8.24,42.28,15.11-15.66,16-15.07,21.74,4.5,11.21,4.5,11.21l28.59-.69,3.12-40.5-10-22"></path><polyline fill="#5f5d75" stroke="#000" stroke-miterlimit="10" stroke-width="5" points="144.84 365.01 126.63 386.27 132.53 399.31 173.09 399.31 174.21 379.67"></polyline><path fill="none" stroke="#000" stroke-miterlimit="10" stroke-width="5" d="M124.67,394.51s-4.89-64.53-20.53-70"></path><path fill="#5f5d75" stroke="#000" stroke-miterlimit="10" stroke-width="5" d="M132.55,297.72a82.32,82.32,0,0,1,14.7-1.66c9.63-.1,18.75,3.53,28.34,4-.57,31.35-1.53,85.24-1.53,91,0,0-34.23-35.69-50.85-37.07-3.25-.27-6.09-.53-8.56-.78-10.21-1-14.14-1.85-14.14-1.85S114.67,324.79,132.55,297.72Z"></path><path opacity="0.29" d="M132.55,297.72c1.92-.36,3.85-.69,5.79-1-11.54,20.5-21.77,42-23.69,56.46-10.21-1-14.14-1.85-14.14-1.85S114.67,324.79,132.55,297.72Z"></path><polyline fill="#fff" points="119.85 307 107.25 326.46 95.93 352.64 89.39 399 83.09 400 94.54 334 103.05 324 102.98 317.36" class="cls-overlay"></polyline><g opacity="0.29"><path d="M260.44,302.21c-12.93,8.17-34.09,13.49-58,13.49-24.95,0-46.92-5.81-59.66-14.6a42.23,42.23,0,0,1,8.94-1.67h0c1.08-.09,2.16-.14,3.26-.14h90c1.1,0,2.18,0,3.26.14h0A42.32,42.32,0,0,1,260.44,302.21Z"></path><path d="M260.44,302.21c-12.93,8.17-34.09,13.49-58,13.49-24.95,0-46.92-5.81-59.66-14.6a42.23,42.23,0,0,1,8.94-1.67h0c1.08-.09,2.16-.14,3.26-.14h90c1.1,0,2.18,0,3.26.14h0A42.32,42.32,0,0,1,260.44,302.21Z"></path></g></svg>