<svg xmlns='http://www.w3.org/2000/svg' width='400' height='400'>
      <defs><style>.cls-path-cs2-male-8R{clip-path:url(#clip-path-cs2-male-8R)}.cls-path-cs2-male-8L{clip-path:url(#clip-path-cs2-male-8L)}.cls-multipy{mix-blend-mode: multiply;}.cls-softlight{mix-blend-mode: soft-light;}.cls-overlay{mix-blend-mode: overlay;}.cls-colorburn{mix-blend-mode: color-burn;}.cls-screen{mix-blend-mode: screen;}.cls-lighten{ mix-blend-mode: darken;}</style>
      <clipPath id="clip-path-cs2-male-8R"><path fill="#none" d="M217.85,168.8s25.5-17.19,42.31-6.39c0,0-2.62,8.3-8.22,10.05S228.88,175.2,217.85,168.8Z"></path></clipPath><clipPath id="clip-path-cs2-male-8L"><path fill="#none" d="M182.15,168.73s-25.5-18.71-42.31-7c0,0,2.62,9,8.22,10.94S171.12,175.7,182.15,168.73Z"></path></clipPath></defs><polyline fill="#251e33" points="121 126 123.09 191.86 272.58 198.31 263 109" class="canChange cls-overlay" style="fill:null"></polyline><path fill="#fac6ba" d="M391.54,400H8.46c.2-.46.39-.92.58-1.35,1.3-3,2.28-5.45,2.85-7l.29-.8a2.76,2.76,0,0,1,.31-.62c1.39-2.2,6.18-4.73,13.2-7.43,1.16-.44,2.37-.89,3.64-1.34,7.08-2.52,15.86-5.16,25.45-7.79,12.81-3.51,27.06-7,40.58-10.2,8.7-2.05,17.09-4,24.61-5.68,12-2.72,21.77-4.92,27-6.25,1.44-.37,2.53-.67,3.22-.9,1.32-.44,2.51-1.8,3.59-3.85,3-5.71,5.08-16.83,6.5-28.64.44-3.58.81-7.23,1.13-10.82.09-1,.18-2,.26-3,.14-1.67.26-3.31.38-4.91,1-13.42,1.23-24.2,1.23-24.2h73.5s0,.15,0,.43,0,.69,0,1.23c0,.11,0,.22,0,.34,0,.53,0,1.17.06,1.9a0,0,0,0,0,0,.05c0,.22,0,.46,0,.7,0,.65.05,1.36.08,2.12l0,.75,0,.45c0,.3,0,.62,0,.94s0,.64,0,1c0,.09,0,.19,0,.28,0,.58.05,1.17.09,1.79l.06,1.1c0,.74.07,1.5.12,2.29l0,.59c0,.19,0,.39,0,.59,0,.8.09,1.63.15,2.47s.11,1.69.17,2.56.1,1.53.16,2.31l.12,1.69.06.68c0,.23,0,.45.05.68h0c.06.73.11,1.46.17,2.2,0,0,0,0,0,0,.37,4.46.82,9.09,1.37,13.61h0c.71,5.91,1.58,11.65,2.65,16.63,1.22,5.69,2.69,10.39,4.47,13.23a6.16,6.16,0,0,0,3,2.79c.7.23,1.8.54,3.27.91,4.24,1.09,11.49,2.74,20.5,4.78,7.22,1.64,15.57,3.54,24.41,5.59,12.92,3,26.87,6.36,39.84,9.78,9.19,2.42,17.88,4.87,25.36,7.26,8.72,2.78,15.8,5.47,20.11,7.92a11.94,11.94,0,0,1,4.19,3.36v0a2.92,2.92,0,0,1,.29.59c.07.2.15.43.25.69,0,0,0,0,0,0C388.73,393.35,389.93,396.26,391.54,400Z" class="canChange" style="fill:null"></path><path fill="#420e2d" d="M238.19,302.16c-38.12,23.53-64.94,10.71-76.55,2.18.14-1.67.26-3.31.38-4.91,1-13.42,1.23-24.2,1.23-24.2h73.5S237,287.5,238.19,302.16Z" class="cls-softlight"></path><polygon fill="#fac6ba" points="102.06 151.08 100.86 173.82 117.61 225.16 281.64 224.11 297.2 169.03 293.61 154.67 255.3 79.25 209.13 28.98 190.15 28.98 102.06 151.08" class="canChange" style="fill:null"></polygon><path fill="#fac6ba" d="M201.43,29s62.26-3.59,85,40.71,10.78,98.17,10.78,98.17Z" class="canChange" style="fill:null"></path><path fill="#fac6ba" d="M291.32,176.15s3.58-14.33,15.46-7.55c8,4.54,6.08,18.56,4.88,25.9-1.55,9.53-3.93,20.06-10.78,27.29-4,4.2-19,13.51-20.43,2.32Z" class="canChange" style="fill:null"></path><g class="cls-multipy show"><path fill="#1f0905" d="M305.22,174.87a41,41,0,0,0-4.86,3,35.3,35.3,0,0,0-4.38,3.61c-2.66,2.63-5,5.82-5.51,9.5a12.92,12.92,0,0,0,.26,5.49,49.18,49.18,0,0,0,1.58,5.45,24.81,24.81,0,0,0,2.5,5.06,8.47,8.47,0,0,1,1.26,2.62,5.8,5.8,0,0,1-.25,2.87,6.3,6.3,0,0,0,0-2.8,8.22,8.22,0,0,0-1.42-2.41,25.52,25.52,0,0,1-2.81-5.06,36.06,36.06,0,0,1-1.74-5.52,13.82,13.82,0,0,1-.37-5.87,15,15,0,0,1,2.19-5.46,21.15,21.15,0,0,1,3.79-4.42A33.69,33.69,0,0,1,305.22,174.87Z"></path></g><g class="cls-multipy show"><path fill="#1f0905" d="M304.05,199.31q.74-3,1.17-6a29.29,29.29,0,0,0,.28-6.05,10.17,10.17,0,0,0-1.8-5.53,6.92,6.92,0,0,0-2.23-1.89,10.75,10.75,0,0,0-2.88-1,9.35,9.35,0,0,1,3.08.52,6.9,6.9,0,0,1,2.63,1.84,10,10,0,0,1,2.2,6,22.57,22.57,0,0,1-.52,6.25A28.19,28.19,0,0,1,304.05,199.31Z"></path></g><path fill="#fac6ba" d="M106.74,176.15s-3.58-14.33-15.46-7.55c-8,4.54-6.07,18.56-4.88,25.9C88,204,90.33,214.56,97.18,221.79c4,4.2,19,13.51,20.43,2.32Z" class="canChange" style="fill:null"></path><g class="cls-multipy show"><path fill="#1f0905" d="M92.85,174.87a33.78,33.78,0,0,1,9.75,6.07,20.86,20.86,0,0,1,3.79,4.42,15,15,0,0,1,2.19,5.46,13.66,13.66,0,0,1-.37,5.87,36.06,36.06,0,0,1-1.74,5.52,25,25,0,0,1-2.81,5.06,8,8,0,0,0-1.41,2.41,6.15,6.15,0,0,0,0,2.8,5.92,5.92,0,0,1-.25-2.87,8.7,8.7,0,0,1,1.26-2.62,24.85,24.85,0,0,0,2.51-5.06,49.14,49.14,0,0,0,1.57-5.45,12.76,12.76,0,0,0,.26-5.49c-.56-3.68-2.85-6.87-5.51-9.5a34.58,34.58,0,0,0-4.38-3.61A41.7,41.7,0,0,0,92.85,174.87Z"></path></g><g class="cls-multipy show"><path fill="#1f0905" d="M94,199.31a28.22,28.22,0,0,1-1.94-5.91,22.56,22.56,0,0,1-.51-6.25,9.9,9.9,0,0,1,2.19-6,7,7,0,0,1,2.63-1.84,9.41,9.41,0,0,1,3.09-.52,10.81,10.81,0,0,0-2.89,1,6.92,6.92,0,0,0-2.23,1.89,10.26,10.26,0,0,0-1.8,5.53,28.62,28.62,0,0,0,.29,6.05A60.68,60.68,0,0,0,94,199.31Z"></path></g><path fill="#fac6ba" d="M197.24,29H197s-62.26-3.59-85,40.71-10.77,98.17-10.77,98.17Z" class="canChange" style="fill:null"></path><path fill="#fff" opacity="0.26" d="M293.72,214.47a3.7,3.7,0,0,0-2.32-2.67,5,5,0,0,0-3.6.11,3.2,3.2,0,0,0-2,2c-.27,1,.29,2.11.45,3.18s0,2.29.68,3.1,2.34.73,3.33,0C291.78,219.09,294.09,216.49,293.72,214.47Z" class="cls-softlight"></path><path fill="#fff" opacity="0.26" d="M103.8,214.47a3.69,3.69,0,0,1,2.31-2.67,5,5,0,0,1,3.61.11,3.19,3.19,0,0,1,2,2c.27,1-.28,2.11-.44,3.18s0,2.29-.68,3.1-2.34.73-3.34,0C105.73,219.09,103.43,216.49,103.8,214.47Z" class="cls-softlight"></path><path fill="#fff" opacity="0.26" d="M98.47,181.61s-4.79,8.38-1.2,21.55c0,0-5.73-8.18-5.26-12.47s.77-11.24,4.21-10.76S98.47,181.61,98.47,181.61Z" class="cls-softlight"></path><path fill="#fff" opacity="0.26" d="M299.3,181.61s4.79,8.38,1.2,21.55c0,0,5.73-8.18,5.26-12.47s-.78-11.24-4.22-10.76S299.3,181.61,299.3,181.61Z" class="cls-softlight"></path><path fill="#fac6ba" d="M291.05,172.54l-9.84,50.71a269.89,269.89,0,0,1-9.57,26.26c-1.68,4-3.36,8-5.17,11.94a110,110,0,0,1-5.75,10.91c-3.93,6.44-10,10.09-14.39,15.9-2.82,3.71-3,8.72-5.4,12.64a25.83,25.83,0,0,1-1.92,2.7,28.74,28.74,0,0,1-3.82,3.9c-4.5.36-9.49.72-14.26,1.05-9.74.65-18.64,1.19-21.06,1.32h0l-.53,0c-1.13,0-10.85-.62-21.56-1.34-5.66-.39-11.56-.81-16.68-1.24l-.09-.1h0a28.91,28.91,0,0,1-4-4.28c-.5-.65-1-1.33-1.4-2-2.45-3.92-2.57-8.93-5.4-12.64-4.43-5.81-10.44-9.46-14.37-15.9a120.86,120.86,0,0,1-7.27-14.25c-5.32-13.92-10.37-28.52-14.31-40.4-1.09-3.25-2.09-6.28-3-9.06-.69-6.22-1.54-12.29-2.34-18.39-.64-4.85-1.23-9.71-1.67-14.69q-.12-1.32-.24-3Z" class="canChange" style="fill:null"></path><path fill="#6e365b" d="M306.36,46.74c-.07-.21-.16-.4-.25-.61-.16-.38-.34-.76-.5-1.12s-.26-.61-.39-.89-.19-.4-.28-.61l0,0a.16.16,0,0,0-.05-.11l-.06-.1c-2.18-4.4-4.39-7.49-6.41-8.65-8.39-4.8-32.92-2.94-32.92-2.94s26.27-11.75,45.61-7.48c0,0-11.61-7.81-23.32-6.6-9.76,1-20.51,11.1-32.31,13a21.87,21.87,0,0,1-7,0l0,0a16.71,16.71,0,0,1-4.64-1.71c-10.65-5.29-28.22-20.53-39.56-20.36-13.21.21-30.77,9.07-61.41,17.74A62,62,0,0,0,119.27,38.5v0a0,0,0,0,0,0,0,.13.13,0,0,0-.07,0l0,0a.87.87,0,0,0-.16.13c-15.09,12.81-23.42,32.86-26.82,57-1.76,12.41.43,26.09,4,38.54a201.46,201.46,0,0,0,15.55,37.95c.87,1.65,1.44,2.62,1.54,2.79,0-.23-.32-1.75-.71-4.1-1.28-7.8-3.75-24.93-2.45-35.16a27,27,0,0,1,3.32-9.64.06.06,0,0,1,0,0,.21.21,0,0,0,0-.11c5.31-9.45,15.53-18.16,24.63-28.37,3.87-4.33,9-10.08,15.23-16,19-2.77,74.36-12.49,101.75-35.12A53,53,0,0,1,277,64.86c8.66,13,11,42.86,14.72,62.6s4.69,33.21,4.69,33.21,15-25.09,18.77-54.2C317.79,86.07,312.6,61.37,306.36,46.74ZM204.17,54l0,0c-1,.61-17.22,10.25-35,18.37C165.6,74.06,162,75.62,158.42,77,171,66,186.86,55.58,204.17,54Z" class="canChange" style="fill:null"></path><path fill="#d177b8" opacity="0.6" d="M119.25,38.54l-.09.08,0,0A.13.13,0,0,1,119.25,38.54Z" class="cls-multipy"></path><path fill="#d177b8" opacity="0.6" d="M117.74,71.88c-8.89,25-4.34,54.29-4.34,54.29a27,27,0,0,0-3.32,9.64c-1.3,10.23,1.17,27.36,2.45,35.16l-.83,1.31a201.46,201.46,0,0,1-15.55-37.95c-.7-8.12-1.21-17.1-1.39-26.81C94,63.42,116.25,41.31,119,38.75a.87.87,0,0,1,.16-.13C118,39.94,108.64,51,105.39,69.89c-3.47,20.13,0,43.26,0,43.26.89-27.82,13.29-50,22-62.16A111.52,111.52,0,0,0,117.74,71.88Z" class="cls-multipy"></path><path fill="#d177b8" opacity="0.6" d="M304.92,43.49a1.79,1.79,0,0,0-.11-.21l.06.1A.16.16,0,0,1,304.92,43.49Z" class="cls-multipy"></path><path fill="#d177b8" opacity="0.6" d="M305.22,44.12l.4.89C305.48,44.72,305.35,44.4,305.22,44.12Z" class="cls-multipy"></path><path fill="#d177b8" opacity="0.6" d="M315.14,106.47c-3.75,29.11-18.77,54.2-18.77,54.2s-1-13.48-4.69-33.21S285.62,77.88,277,64.86a53,53,0,0,0-21.89-18.29C227.68,69.2,172.28,78.92,153.32,81.69c-6.2,5.88-11.36,11.63-15.23,16-9.1,10.21-19.32,18.92-24.63,28.37,1.22-3,21.45-51.65,50.84-67.16C194.64,42.83,226,27.21,226,27.21s-19.71-2-34,.61S157.37,41.65,142.76,54C130,64.84,121,91.58,118.84,98.2c2.38-8.1,14.29-46.11,28.79-54.16,16.25-9,57.92-38.12,71-28.5,8.83,6.45,19.21,11,25.06,13.34,2.61,1,4.35,1.6,4.64,1.71l0,0,7,0s-1,5.24-5.58,6.85S204.17,54,204.17,54C186.86,55.58,171,66,158.42,77c3.57-1.42,7.18-3,10.72-4.61-3.08,2-5,3.26-5,3.26s32.06-2.2,50.9-9.41,39-25,39-25,18,5,25.54,17.61,22.32,68.5,22.32,68.5,7.37-54.88-11.25-74.7c-10.08-10.72-27.74-15.92-30.1-16.38,2.77.31,27.6,3.63,34.42,16,7.22,13.09,16.16,64.36,16.16,64.36,8.1-34.3-1.39-61.8-5-70.49C312.47,60.67,317.84,85.77,315.14,106.47Z" class="cls-multipy"></path><path fill="#d177b8" opacity="0.6" d="M118,116s10.35-28.52,21.83-46.34,26-24.67,26-24.67S136.25,75.62,118,116Z" class="cls-multipy"></path><path fill="#ffd9bb" d="M275.58,51.32a98.64,98.64,0,0,1,9.1,15.89s2.39-6.39,7.51-7.95A54.69,54.69,0,0,0,285.34,48S279.91,50.12,275.58,51.32Z" class="cls-softlight"></path><path fill="#ffd9bb" d="M287.42,43.28a25.23,25.23,0,0,1,9.68,11.31s5.15-6.77,5.92-10-4.7-9.27-4.7-9.27S291.75,32.56,287.42,43.28Z" class="cls-softlight"></path><path fill="#ffd9bb" d="M165.82,57.6s5.2-6.53,6.79-9.61-6.79-8.29-6.79-8.29L175.21,35s6.25,4.53,6.09,8.3,5.32,3,5.32,3Z" class="cls-softlight"></path><path fill="#ffd9bb" d="M164,34.29s-5.81-4.07-9.71-5.27-2-5.58-2-5.58l5.63-1.77A14.37,14.37,0,0,0,162.65,28c3.46,2.51,12.1,0,12.1,0Z" class="cls-softlight"></path><path fill="#ffd9bb" d="M186.62,65.54A52.74,52.74,0,0,0,208,67.21c11.41-1.6,16.32-6.55,16.32-6.55s-16.22-.21-20.69-3.06Z" class="cls-softlight"></path><path cfill="#380904" d="M214.12,135.27s-3.28,13.5-.67,17.56,50.95-4.69,57.4-1.76,3.13-12.14-4-13S214.12,135.27,214.12,135.27Z" class="canChange" style="fill:null"></path><path cfill="#380904" d="M185.88,136.87s3.28,13.49.67,17.55-51-4.69-57.4-1.75-3.13-12.14,4-13S185.88,136.87,185.88,136.87Z" class="canChange" style="fill:null"></path><path fill="#020202" d="M263.15,161.66s0,.13-.07.37c-.48,2.43-4.19,15.86-26.65,12-1-.17-2-.38-3.11-.62v-4.67l-16.37.58s14.56-13.62,30.75-11.79,15.46,4.32,15.46,4.32"></path><path fill="#fff" d="M260.16,162.41a20.75,20.75,0,0,1-.93,2.33c-1.22,2.59-3.61,6.57-7.29,7.72-4.48,1.39-16.52,2.3-26.81-.65l-.49-.14a33.19,33.19,0,0,1-5.95-2.4c-.29-.15-.57-.31-.85-.47,0,0,1.4-.94,3.76-2.24C229.31,162.29,247.28,154.14,260.16,162.41Z"></path><g class="cls-path-cs2-male-8R show"><ellipse fill="#9fc2d6" cx="241.34" cy="165.97" rx="9.61" ry="8.07" transform="translate(-7.04 10.74) rotate(-2.51)" class="canChange" style="fill:null"></ellipse><ellipse cx="241.4" cy="165.15" rx="6.72" ry="5.64" transform="translate(-7.01 10.74) rotate(-2.51)"></ellipse><ellipse fill="#fff" cx="235.98" cy="164.48" rx="2.29" ry="1.92" transform="translate(-6.98 10.5) rotate(-2.51)"></ellipse></g><path fill="#40094f" opacity="0.4" d="M260.16,162.41a20.75,20.75,0,0,1-.93,2.33c-8.2-1.72-21.05-1.63-40.54,4.53-.29-.15-.57-.31-.85-.47C217.84,168.8,243.34,151.61,260.16,162.41Z"></path><path fill="#ffc09e" d="M224.64,171.67a33.19,33.19,0,0,1-5.95-2.4c-.29-.15-.57-.31-.85-.47,0,0,1.4-.94,3.76-2.24C220.86,168.22,220.8,170.44,224.64,171.67Z"></path><path fill="#020202" d="M136.85,161s0,.14.07.4c.48,2.64,4.19,17.27,26.65,13,1-.18,2-.41,3.11-.67v-5.09l16.37.64s-14.56-14.83-30.75-12.84-15.46,4.7-15.46,4.7"></path><path fill="#fff" d="M139.84,161.77a23.65,23.65,0,0,0,.93,2.54c1.22,2.82,3.61,7.15,7.29,8.4,4.48,1.52,16.52,2.52,26.81-.7l.49-.15a31.78,31.78,0,0,0,5.95-2.62c.29-.16.57-.33.85-.51,0,0-1.4-1-3.76-2.44C170.69,161.64,152.72,152.77,139.84,161.77Z"></path><g class="cls-path-cs2-male-8L show"><ellipse fill="#9fc2d6" cx="158.66" cy="165.65" rx="8.79" ry="9.61" transform="translate(-19.98 309.53) rotate(-85.08)" class="canChange" style="fill:null"></ellipse><ellipse cx="158.6" cy="164.76" rx="6.14" ry="6.72" transform="translate(-19.15 308.65) rotate(-85.08)"></ellipse><ellipse fill="#fff" cx="164.02" cy="164.03" rx="2.09" ry="2.29" transform="translate(-13.47 313.39) rotate(-85.08)"></ellipse></g><path fill="#40094f" opacity="0.4" d="M139.84,161.77a23.65,23.65,0,0,0,.93,2.54c8.2-1.87,21-1.77,40.54,4.93.29-.16.57-.33.85-.51C182.16,168.73,156.66,150,139.84,161.77Z"></path><path fill="#ffc09e" d="M175.36,171.86a31.78,31.78,0,0,0,5.95-2.62c.29-.16.57-.33.85-.51,0,0-1.4-1-3.76-2.44C179.14,168.1,179.2,170.52,175.36,171.86Z"></path><path fill="#3b050a" opacity="0.32" d="M175.46,253.68c-.94-2.44,7.31-6.61,8.77-7.47,8.66-5.1,19.71-8.38,28.74-2,1,.69,12.3,8.44,12,9.05,0,0-8.22,18.48-25.56,18S175.47,253.71,175.46,253.68Z" class="canChange" style="fill:null"></path><path fill="#210905" d="M170.67,252a49.42,49.42,0,0,0,7.22,1.7c2.42.45,4.87.7,7.3,1l3.66.25c1.22.08,2.45.09,3.67.13s2.45,0,3.67,0,2.45,0,3.67-.08l3.68-.12,3.67-.28c2.46-.08,4.89-.51,7.35-.68l7.36-.91c2.45-.36,4.91-.75,7.41-1-2.33.9-4.71,1.68-7.1,2.44s-4.84,1.3-7.31,1.78A90.39,90.39,0,0,1,200,258c-1.26.06-2.52,0-3.79,0s-2.52,0-3.78-.13-2.51-.19-3.77-.34-2.5-.34-3.75-.56-2.48-.47-3.7-.8-2.44-.63-3.64-1A30.58,30.58,0,0,1,170.67,252Z"></path><path fill="#210905" d="M230.24,237.35c-7-1.16-20.73-7.72-22.62-7.55a28.85,28.85,0,0,0-5.25,1.47,7.41,7.41,0,0,1-4.92,0,28.42,28.42,0,0,0-5.25-1.47c-1.88-.17-15.63,6.39-22.61,7.55a5.16,5.16,0,0,0-3.38,2.08c-1.79,2.5-4.35,7.19-3.34,12.48,1.5,7.85,3.95-8.81,37-8.81s35.54,16.66,37.05,8.81c1-5.29-1.56-10-3.34-12.48A5.21,5.21,0,0,0,230.24,237.35Z" class="canChange" style="fill:null"></path><path fill="#210905" d="M213.13,287.87c-2-.34-12.76,0-12.76,0s-10.76-.34-12.76,0-1.28,7.79,12.76,7.79S215.12,288.22,213.13,287.87Z" class="canChange" style="fill:null"></path><path fill="#394978" d="M392.12,400H7.87c2.55-5.76,4.37-10,5.07-12,.47-1.32,2.34-2.77,5.32-4.32,1.25-.65,2.69-1.31,4.3-2s3.4-1.37,5.34-2.08c6.87-2.49,15.64-5.12,25.32-7.75,12.82-3.48,27.26-7,41-10.16,8.63-2,17-3.86,24.52-5.54l13.08-2.9,2.39-.53,4.57-1c4.73-1.07,8.34-1.92,10.41-2.5l1.16-.34a4.47,4.47,0,0,0,1.85-1.26l.76.5,19.67,12.81.83.55.25.16h0l1,.68,1.8,1.17,1.68-1,.9-.53,1.29-.75,0,0,18.91,5.38h0l2.47.7,2.14-.87.12-.05,5.23-2.13,14.24-5.7,2.05-.82,3.5-1.41.08,0,2.81-1.13,1.23-.49,14.31-5.73,1.17-.47a3.9,3.9,0,0,0,.85.41c1,.34,3,.83,5.61,1.46,4.07,1,9.86,2.26,16.77,3.8l2.78.61c7.26,1.61,15.57,3.46,24.32,5.45,13.14,3,27.26,6.33,40.27,9.72,9.22,2.4,17.89,4.83,25.24,7.19,12.61,4,21.35,7.85,22.44,10.92,0,.13.1.28.15.43C388,390.58,389.75,394.64,392.12,400Z" class="canChange" style="fill:null"></path><path fill="#ecdbff" d="M199.92,366.69l-27.55-5.32-40.56-7.83a29.16,29.16,0,0,1,3-9.32c4-7.75,13.17-16.85,33.94-12.44Z"></path><path fill="#ecdbff" d="M235.54,332.32l-31.76,34.4,68.31-12S269.64,325.65,235.54,332.32Z"></path><path opacity="0.82" d="M172.37,361.37c3-4.6,2.87-9.75-4-15-10.68-8-23.4-6.15-33.53-2.19,4-7.75,13.17-16.85,33.94-12.44l31.18,34.91Z" class="cls-overlay"></path><path opacity="0.82" d="M231,362.42c-2.94-4.64-2.72-9.8,4.28-14.89,10.8-7.88,23.49-5.78,33.56-1.66-3.87-7.81-12.9-17.06-33.73-13l-31.75,34.42Z" class="cls-overlay"></path><path fill="#19051f" d="M222.36,354.12a9.45,9.45,0,0,1,2.94-.94,13.47,13.47,0,0,1,3.11-.16,12.35,12.35,0,0,1,3.06.58,7.7,7.7,0,0,1,2.73,1.47l0,.09-.23-.17.28.07,0,.1a17.94,17.94,0,0,0-2.89-.78,25.89,25.89,0,0,0-2.92-.37A35.27,35.27,0,0,0,222.36,354.12Z"></path><path fill="#550045" opacity="0.4" d="M230.05,400h-5.94l-.41-36.3v-.49l-.05-4.66,0-4.51a3.74,3.74,0,0,1,2.5-.32,9.12,9.12,0,0,1,3.16,1.36v.62h0v.58l0,2.12.07,3.8v.49Z"></path><path fill="#ecdbff" d="M232.1,354.51l0,.65-.15,6.6L231,400h-6.23l.79-36.63v-.49l.11-5.15.08-3.88.32-.13a4.24,4.24,0,0,1,1.08-.24h0a7.37,7.37,0,0,1,1.82.1h.07c.26,0,.5.09.74.15A13.5,13.5,0,0,1,232.1,354.51Z"></path><path fill="#550045" opacity="0.4" d="M179.87,400h-5.94l-.45-38.41v-.12l0-2.11-.06-4.81v-.37a2.44,2.44,0,0,1,.63-.25,2.27,2.27,0,0,1,.63-.12h0a7.86,7.86,0,0,1,4.36,1.42l.12,6.75,0,.71Z"></path><path fill="#ecdbff" d="M181.17,400h-5.94l-.44-37.68v-.48l-.1-8v-.35a3.53,3.53,0,0,1,2.34-.33h0a9.08,9.08,0,0,1,3.28,1.37l.12,6.73,0,1.71Z"></path><path fill="#19051f" d="M171.08,356.87a7.62,7.62,0,0,1,5.39-4.16,7.23,7.23,0,0,1,3.55.21,7,7,0,0,1,2.95,1.84l-.07.1-.29-.25.35.14-.07.11a9.37,9.37,0,0,0-6.23-1.18A10.68,10.68,0,0,0,171.08,356.87Z"></path><g opacity="0.32" class="show"><path d="M184.61,223.57a6.2,6.2,0,0,1-.94-1.16,2.8,2.8,0,0,1-.48-1.47,1.34,1.34,0,0,1,.3-.79,1.9,1.9,0,0,1,.66-.5,4.79,4.79,0,0,1,1.51-.38,15.11,15.11,0,0,1,3,.09c1,.12,2,.32,2.93.51h0a2.93,2.93,0,0,1,1.47.88,7.56,7.56,0,0,1,1,1.23,14.12,14.12,0,0,1,1.31,2.75c.17.48.32,1,.46,1.44l.2.72.09.34a.92.92,0,0,0,.17.25,4.17,4.17,0,0,0,2.67.92,5.82,5.82,0,0,1-1.5-.05,2.84,2.84,0,0,1-1.43-.61,1.06,1.06,0,0,1-.27-.35l-.14-.37-.24-.7c-.18-.47-.36-.92-.55-1.37a16.71,16.71,0,0,0-1.37-2.58,6.82,6.82,0,0,0-.89-1.09,2.69,2.69,0,0,0-1-.67h0a27,27,0,0,0-5.75-.76,4.62,4.62,0,0,0-1.36.24,1.09,1.09,0,0,0-.78.9A4.22,4.22,0,0,0,184.61,223.57Z"></path></g><g opacity="0.32" class="show"><path d="M213.21,223.57a4.17,4.17,0,0,0,1.06-2.59,1.11,1.11,0,0,0-.78-.9,4.67,4.67,0,0,0-1.36-.24,26.92,26.92,0,0,0-5.75.76h0a2.59,2.59,0,0,0-1,.67,6.37,6.37,0,0,0-.9,1.09,15.84,15.84,0,0,0-1.36,2.58c-.2.45-.38.9-.55,1.37l-.25.7-.13.37a1.21,1.21,0,0,1-.27.35,2.88,2.88,0,0,1-1.43.61,5.88,5.88,0,0,1-1.51.05,4.18,4.18,0,0,0,2.68-.92.7.7,0,0,0,.16-.25l.1-.34.2-.72c.14-.48.29-1,.46-1.44a14.12,14.12,0,0,1,1.31-2.75,7.49,7.49,0,0,1,1-1.23,3,3,0,0,1,1.48-.88h-.05c1-.19,1.95-.39,2.94-.51a15.09,15.09,0,0,1,3-.09,4.86,4.86,0,0,1,1.51.38,2,2,0,0,1,.66.5,1.39,1.39,0,0,1,.29.79,2.63,2.63,0,0,1-.48,1.47A5.83,5.83,0,0,1,213.21,223.57Z"></path></g><g opacity="0.32" class="show"><path d="M186.34,204.21a40.93,40.93,0,0,0-5.24,5.54,14.61,14.61,0,0,0-3.23,6.65,6.26,6.26,0,0,0,.45,3.57,9.84,9.84,0,0,0,8.51,6.41,9.55,9.55,0,0,1-3.79-.67,10,10,0,0,1-3.24-2.18,9.6,9.6,0,0,1-2.11-3.3,6.89,6.89,0,0,1-.56-3.93,14.71,14.71,0,0,1,3.52-6.91A30.06,30.06,0,0,1,186.34,204.21Z"></path></g><g opacity="0.32" class="show"><path d="M213.66,204.21a30.06,30.06,0,0,1,5.69,5.18,14.71,14.71,0,0,1,3.52,6.91,6.89,6.89,0,0,1-.56,3.93,9.6,9.6,0,0,1-2.11,3.3,10,10,0,0,1-3.24,2.18,9.55,9.55,0,0,1-3.79.67,9.84,9.84,0,0,0,8.51-6.41,6.26,6.26,0,0,0,.45-3.57,14.61,14.61,0,0,0-3.23-6.65A40.93,40.93,0,0,0,213.66,204.21Z"></path></g><path fill="#503d78" opacity="0.24" d="M178,220.23s6-10,10.29-8,9.07,8.29,22.62-.22c0,0,10.41,1,10.36,9.53s-17.66,15.95-22.4,15.55S180,230.28,178,220.23Z" class="cls-multipy canChange" style="fill:null"></path><path opacity="0.4" d="M184,220.11s.52,4.86,10.71,3.86C194.68,224,192.93,218.46,184,220.11Z" class="cls-overlay"></path><path opacity="0.4" d="M213.92,219.84s-.52,4.86-10.71,3.86C203.21,223.7,205,218.19,213.92,219.84Z" class="cls-overlay"></path><path fill="#503d78" opacity="0.24" d="M209.55,172.92a8,8,0,0,0-1.39,9.53l2,3.31S206.2,179.15,209.55,172.92Z" class="cls-multipy canChange" style="fill:null"></path><path fill="#503d78" opacity="0.24" d="M188.89,168.63s6.08,4.59,5.8,12.05-7,19.9-7,19.9,4.67-13.62,3.91-21.13S188.89,168.63,188.89,168.63Z" class="cls-multipy canChange" style="fill:null"></path><path fill="#fff" d="M193.72,208.28a5.34,5.34,0,0,0-2.43,2.17,1.63,1.63,0,0,0,0,1.25,4.57,4.57,0,0,0,2.35,2,4,4,0,0,0,2.06.56,1.41,1.41,0,0,0,1.17-.8,3.06,3.06,0,0,0,.2-1.36,14.37,14.37,0,0,0-.38-2.95,1.87,1.87,0,0,0-1.33-1.59C194.69,207.5,194.12,208,193.72,208.28Z" class="cls-softlight"></path></svg>