<svg xmlns='http://www.w3.org/2000/svg' width='400' height='400'>
      <defs><style>.cls-path-cs2-male-0R{clip-path:url(#clip-path-cs2-male-0R)}.cls-path-cs2-male-0L{clip-path:url(#clip-path-cs2-male-0L)}.cls-multipy{mix-blend-mode: multiply;}.cls-softlight{mix-blend-mode: soft-light;}.cls-overlay{mix-blend-mode: overlay;}.cls-colorburn{mix-blend-mode: color-burn;}.cls-screen{mix-blend-mode: screen;}.cls-lighten{ mix-blend-mode: darken;}</style>
      </defs><path fill="#03060a" d="M129,213s-16.15-106.16-8.24-112.23,18.07-6.93,22,3.47c0,0,20.89-80.58,53.65-41.59,0,0,35.58-19.07,42.36,13.86,0,0,26.54-17.33,29.36,7.8s.57,3.46.57,3.46,16.94-9.53,15.81,19.93S273,213,273,213" class="canChange cls-overlay" style="fill:null"></path><path fill="#fac6ba" d="M391.54,400H8.46c.2-.46.39-.92.58-1.35,1.3-3,2.28-5.45,2.85-7l.29-.8a2.76,2.76,0,0,1,.31-.62c1.39-2.2,6.18-4.73,13.2-7.43,1.16-.44,2.37-.89,3.64-1.34,7.08-2.52,15.86-5.16,25.45-7.79,12.81-3.51,27.06-7,40.58-10.2,8.7-2.05,17.09-4,24.61-5.68,12-2.72,21.77-4.92,27-6.25,1.44-.37,2.53-.67,3.22-.9,1.32-.44,2.51-1.8,3.59-3.85,3-5.71,5.08-16.83,6.5-28.64.44-3.58.81-7.23,1.13-10.82.09-1,.18-2,.26-3,.14-1.67.26-3.31.38-4.91,1-13.42,1.23-24.2,1.23-24.2h73.5s0,.15,0,.43,0,.69,0,1.23c0,.11,0,.22,0,.34,0,.53,0,1.17.06,1.9a0,0,0,0,0,0,.05c0,.22,0,.46,0,.7,0,.65.05,1.36.08,2.12l0,.75,0,.45c0,.3,0,.62,0,.94s0,.64,0,1c0,.09,0,.19,0,.28,0,.58.05,1.17.09,1.79l.06,1.1c0,.74.07,1.5.12,2.29l0,.59c0,.19,0,.39,0,.59,0,.8.09,1.63.15,2.47s.11,1.69.17,2.56.1,1.53.16,2.31l.12,1.69.06.68c0,.23,0,.45.05.68h0c.06.73.11,1.46.17,2.2,0,0,0,0,0,0,.37,4.46.82,9.09,1.37,13.61h0c.71,5.91,1.58,11.65,2.65,16.63,1.22,5.69,2.69,10.39,4.47,13.23a6.16,6.16,0,0,0,3,2.79c.7.23,1.8.54,3.27.91,4.24,1.09,11.49,2.74,20.5,4.78,7.22,1.64,15.57,3.54,24.41,5.59,12.92,3,26.87,6.36,39.84,9.78,9.19,2.42,17.88,4.87,25.36,7.26,8.72,2.78,15.8,5.47,20.11,7.92a11.94,11.94,0,0,1,4.19,3.36v0a2.92,2.92,0,0,1,.29.59c.07.2.15.43.25.69,0,0,0,0,0,0C388.73,393.35,389.93,396.26,391.54,400Z" class="canChange" style="fill:null"></path><path fill="#420e2d" d="M238.19,302.16c-38.12,23.53-64.94,10.71-76.55,2.18.14-1.67.26-3.31.38-4.91,1-13.42,1.23-24.2,1.23-24.2h73.5S237,287.5,238.19,302.16Z" class="cls-softlight"></path><polygon fill="#fac6ba" points="102.06 151.08 100.86 173.82 117.61 225.16 281.64 224.11 297.2 169.03 293.61 154.67 255.3 79.25 209.13 28.98 190.15 28.98 102.06 151.08" class="canChange" style="fill:null"></polygon><path fill="#fac6ba" d="M201.43,29s62.26-3.59,85,40.71,10.78,98.17,10.78,98.17Z" class="canChange" style="fill:null"></path><path fill="#fac6ba" d="M291.32,176.15s3.58-14.33,15.46-7.55c8,4.54,6.08,18.56,4.88,25.9-1.55,9.53-3.93,20.06-10.78,27.29-4,4.2-19,13.51-20.43,2.32Z" class="canChange" style="fill:null"></path><g class="cls-multipy show"><path fill="#1f0905" d="M305.22,174.87a41,41,0,0,0-4.86,3,35.3,35.3,0,0,0-4.38,3.61c-2.66,2.63-5,5.82-5.51,9.5a12.92,12.92,0,0,0,.26,5.49,49.18,49.18,0,0,0,1.58,5.45,24.81,24.81,0,0,0,2.5,5.06,8.47,8.47,0,0,1,1.26,2.62,5.8,5.8,0,0,1-.25,2.87,6.3,6.3,0,0,0,0-2.8,8.22,8.22,0,0,0-1.42-2.41,25.52,25.52,0,0,1-2.81-5.06,36.06,36.06,0,0,1-1.74-5.52,13.82,13.82,0,0,1-.37-5.87,15,15,0,0,1,2.19-5.46,21.15,21.15,0,0,1,3.79-4.42A33.69,33.69,0,0,1,305.22,174.87Z"></path></g><g class="cls-multipy show"><path fill="#1f0905" d="M304.05,199.31q.74-3,1.17-6a29.29,29.29,0,0,0,.28-6.05,10.17,10.17,0,0,0-1.8-5.53,6.92,6.92,0,0,0-2.23-1.89,10.75,10.75,0,0,0-2.88-1,9.35,9.35,0,0,1,3.08.52,6.9,6.9,0,0,1,2.63,1.84,10,10,0,0,1,2.2,6,22.57,22.57,0,0,1-.52,6.25A28.19,28.19,0,0,1,304.05,199.31Z"></path></g><path fill="#fac6ba" d="M106.74,176.15s-3.58-14.33-15.46-7.55c-8,4.54-6.07,18.56-4.88,25.9C88,204,90.33,214.56,97.18,221.79c4,4.2,19,13.51,20.43,2.32Z" class="canChange" style="fill:null"></path><g class="cls-multipy show"><path fill="#1f0905" d="M92.85,174.87a33.78,33.78,0,0,1,9.75,6.07,20.86,20.86,0,0,1,3.79,4.42,15,15,0,0,1,2.19,5.46,13.66,13.66,0,0,1-.37,5.87,36.06,36.06,0,0,1-1.74,5.52,25,25,0,0,1-2.81,5.06,8,8,0,0,0-1.41,2.41,6.15,6.15,0,0,0,0,2.8,5.92,5.92,0,0,1-.25-2.87,8.7,8.7,0,0,1,1.26-2.62,24.85,24.85,0,0,0,2.51-5.06,49.14,49.14,0,0,0,1.57-5.45,12.76,12.76,0,0,0,.26-5.49c-.56-3.68-2.85-6.87-5.51-9.5a34.58,34.58,0,0,0-4.38-3.61A41.7,41.7,0,0,0,92.85,174.87Z"></path></g><g class="cls-multipy show"><path fill="#1f0905" d="M94,199.31a28.22,28.22,0,0,1-1.94-5.91,22.56,22.56,0,0,1-.51-6.25,9.9,9.9,0,0,1,2.19-6,7,7,0,0,1,2.63-1.84,9.41,9.41,0,0,1,3.09-.52,10.81,10.81,0,0,0-2.89,1,6.92,6.92,0,0,0-2.23,1.89,10.26,10.26,0,0,0-1.8,5.53,28.62,28.62,0,0,0,.29,6.05A60.68,60.68,0,0,0,94,199.31Z"></path></g><path fill="#fac6ba" d="M197.24,29H197s-62.26-3.59-85,40.71-10.77,98.17-10.77,98.17Z" class="canChange" style="fill:null"></path><path fill="#fff" opacity="0.26" d="M293.72,214.47a3.7,3.7,0,0,0-2.32-2.67,5,5,0,0,0-3.6.11,3.2,3.2,0,0,0-2,2c-.27,1,.29,2.11.45,3.18s0,2.29.68,3.1,2.34.73,3.33,0C291.78,219.09,294.09,216.49,293.72,214.47Z" class="cls-softlight"></path><path fill="#fff" opacity="0.26" d="M103.8,214.47a3.69,3.69,0,0,1,2.31-2.67,5,5,0,0,1,3.61.11,3.19,3.19,0,0,1,2,2c.27,1-.28,2.11-.44,3.18s0,2.29-.68,3.1-2.34.73-3.34,0C105.73,219.09,103.43,216.49,103.8,214.47Z" class="cls-softlight"></path><path fill="#fff" opacity="0.26" d="M98.47,181.61s-4.79,8.38-1.2,21.55c0,0-5.73-8.18-5.26-12.47s.77-11.24,4.21-10.76S98.47,181.61,98.47,181.61Z" class="cls-softlight"></path><path fill="#fff" opacity="0.26" d="M299.3,181.61s4.79,8.38,1.2,21.55c0,0,5.73-8.18,5.26-12.47s-.78-11.24-4.22-10.76S299.3,181.61,299.3,181.61Z" class="cls-softlight"></path><path fill="#fac6ba" d="M291.05,172.54l-9.84,50.71a269.89,269.89,0,0,1-9.57,26.26c-1.68,4-3.36,8-5.17,11.94a110,110,0,0,1-5.75,10.91c-3.93,6.44-10,10.09-14.39,15.9-2.82,3.71-3,8.72-5.4,12.64a25.83,25.83,0,0,1-1.92,2.7,28.74,28.74,0,0,1-3.82,3.9c-4.5.36-9.49.72-14.26,1.05-9.74.65-18.64,1.19-21.06,1.32h0l-.53,0c-1.13,0-10.85-.62-21.56-1.34-5.66-.39-11.56-.81-16.68-1.24l-.09-.1h0a28.91,28.91,0,0,1-4-4.28c-.5-.65-1-1.33-1.4-2-2.45-3.92-2.57-8.93-5.4-12.64-4.43-5.81-10.44-9.46-14.37-15.9a120.86,120.86,0,0,1-7.27-14.25c-5.32-13.92-10.37-28.52-14.31-40.4-1.09-3.25-2.09-6.28-3-9.06-.69-6.22-1.54-12.29-2.34-18.39-.64-4.85-1.23-9.71-1.67-14.69q-.12-1.32-.24-3Z" class="canChange" style="fill:null"></path><path fill="#9e4e3a" d="M103.18,58.65c-4.81-1.16-9.3-.9-17.07.24,0,0,10.75-8.74,23.52-7.73,2.48.2,20.49,3.89,22.31,5.1,2.4,1.6-18,11.09-17.71,13.39C111.87,66.4,108.19,59.85,103.18,58.65Z" class="canChange" style="fill:null"></path><path fill="#9e4e3a" d="M107.38,40.05S106.94,52,118.43,53.52l6.94-6.62S110.39,46,107.38,40.05Z" class="canChange" style="fill:null"></path><path fill="#8a4433" d="M104.82,170l.1-.23a42.49,42.49,0,0,0,4.21-16.95c.34-10.09.49-19.84.53-22.44.09-6.29,4.5-42.16,24-42.94,4.52-.18,16.52,9.78,32.43,14.35,2.85.82,27.13-10.08,39.74-13.17C243.37,79.39,278,104.44,278,104.44c10.94,8.48,11.76,21.92,11.82,25.9,0,2.65.19,12.34.54,22.49a41.74,41.74,0,0,0,4.37,17l0,.09c1.87-6.16,7.21-23,11.75-34.73C314,115.71,316.76,99,315.37,94.59l-20-25.51c-27.18-34.63-91.2-45.43-138.06-23.28l-17.56,8.29c-24.56-6-30.36,2.45-37.21,8.81C89.78,74.71,85,93.09,84.5,109.73c-.18,6.19,2.44,11.67,9.17,29.49C97.93,150.5,103.06,164.31,104.82,170Z" class="canChange" style="fill:null"></path><path fill="#8a4433" d="M357.42,67.81c-16.17,21.66-44.83,4-55.41-12-26.08-39.34-57.52-33.2-57.52-33.2-64.37-34.78-81.26.4-81.26.4C112.89,19.57,111,39.19,118.61,56.64s25,31.78,47.35,41.07c1,.42,2,.82,3,1.22,16.6-19,47.45-20.61,61.06-19.4,18.3,1.64,25.46,8.42,37.26,15.25,18.2,10.54,26.32,15.31,60.82,13.09C383.38,104.31,357.42,67.81,357.42,67.81Z" class="canChange" style="fill:null"></path><path opacity="0.14" d="M357.42,67.81c-16.17,21.66-44.83,4-55.41-12-26.08-39.34-57.52-33.2-57.52-33.2-64.37-34.78-81.26.4-81.26.4C112.89,19.57,111,39.19,118.61,56.64s25,31.78,47.35,41.07c1,.42,2,.82,3,1.22C181.26,76.12,213.58,74,227.26,73.3c8.21-.44,23,.55,34.47,6.78,31,16.87,31.83,30,66.33,27.79C383.38,104.31,357.42,67.81,357.42,67.81Z"></path><path fill="#9e4e3a" d="M357.42,67.81c-16.17,21.66-44.83,4-55.41-12-26.08-39.34-57.52-33.2-57.52-33.2-64.37-34.78-81.26.4-81.26.4C112.89,19.57,111,39.19,118.61,56.64s25,31.78,47.35,41.07c1,.42,2,.82,3,1.22,12.34-22.81,42.49-40.56,56.17-41.3,8.21-.44,23,.56,34.47,6.78,31,16.88,34,45.68,68.5,43.46C383.38,104.31,357.42,67.81,357.42,67.81Z" class="canChange" style="fill:null"></path><path opacity="0.14" d="M166.05,97.75S129,4,199.57,7.27c0,0,24.33,1.62,44.92,15.35,0,0-46.06-11.39-61.67,5C163.2,48.31,161.77,74.87,166.05,97.75Z"></path><path opacity="0.14" d="M283.6,45.41S269.34,33.09,239.39,32.2c-28.87-.86-68.54,8.26-73.34,65.55,0,0,20.75-52,75.94-59.34C250.39,37.3,262.11,37.69,283.6,45.41Z"></path><path cfill="#380904" d="M220.2,151.13s33.1-20.57,54.32,1.4c0,0-15.06-29.3-38.34-18.83s-18.12,5.86-18.12,5.86l-.14,6.09-2.74-3.58S215.18,151.13,220.2,151.13Z" class="canChange" style="fill:null"></path><path cfill="#380904" d="M179.8,150.86s-33.1-20.58-54.32,1.4c0,0,15.06-29.3,38.34-18.84s18.12,5.87,18.12,5.87l.14,6.09,2.74-3.59S184.82,150.86,179.8,150.86Z" class="canChange" style="fill:null"></path><path d="M262.7,164.62s-8.91,7.28-14,7.63-30.36-10.33-30.36-10.33,4.68-9.4,9.25-9.86,20.08-.45,23.51,2.06S262.7,164.62,262.7,164.62Z"></path><path fill="#fff" d="M259.67,163.85l-.09.09c-.77.93-7,8.14-12.13,8.59a140.29,140.29,0,0,1-24.52.11c-.74-.07-1.47-.16-2.2-.26h0l-.93-.13a42.93,42.93,0,0,1-7.21-1.65s.78-1.21,2-3c.6-.9,1.3-1.93,2.06-3,3.38-4.88,7.92-11,9.56-11.2,2.75-.32,22.51-1.44,28,4.51Z"></path><path fill="#40094f" opacity="0.4" d="M259.67,163.85l-.09.09c-17.77-5.74-36-.05-45,3.68,3.26-4.87,9.61-14,11.62-14.23,2.75-.32,22.51-1.44,28,4.51Z"></path><path fill="#ffc09e" d="M219.79,172.25a42.93,42.93,0,0,1-7.21-1.65s.78-1.21,2-3c.6-.9,1.3-1.93,2.06-3C216,167.69,216.15,171.46,219.79,172.25Z"></path><path fill="#fff" d="M222.93,172.64c-.74-.07-1.47-.16-2.2-.26C221.59,172.45,222.32,172.54,222.93,172.64Z"></path><g class="cls-path-cs2-male-10R show"><ellipse fill="#9fc2d6" cx="235.94" cy="161.52" rx="12.26" ry="10.4" transform="translate(-5.4 8.19) rotate(-1.97)" class="canChange" style="fill:null"></ellipse><ellipse cx="235.88" cy="160.47" rx="8.57" ry="7.27" transform="translate(-5.37 8.19) rotate(-1.97)"></ellipse><ellipse fill="#fff" cx="228.88" cy="160.25" rx="2.92" ry="2.48" transform="translate(-5.36 7.95) rotate(-1.97)"></ellipse></g><path d="M137.3,164.84s8.91,7.28,14,7.64,30.36-10.33,30.36-10.33-4.68-9.4-9.25-9.86-20.08-.46-23.51,2.05S137.3,164.84,137.3,164.84Z"></path><path fill="#fff" d="M140.33,164.07l.09.1c.77.93,7,8.14,12.13,8.59a140.29,140.29,0,0,0,24.52.11c.74-.07,1.47-.16,2.2-.26h0l.93-.13a42.93,42.93,0,0,0,7.21-1.65s-.78-1.21-2-3c-.6-.89-1.3-1.92-2.06-3-3.38-4.88-7.92-11-9.56-11.2-2.75-.32-22.51-1.45-28,4.5Z"></path><path fill="#40094f" opacity="0.4" d="M140.33,164.07l.09.1c17.77-5.74,36-.06,45,3.67-3.26-4.86-9.61-14-11.62-14.22-2.75-.32-22.51-1.45-28,4.5Z"></path><path fill="#ffc09e" d="M180.21,172.48a42.93,42.93,0,0,0,7.21-1.65s-.78-1.21-2-3c-.6-.89-1.3-1.92-2.06-3C184,167.92,183.85,171.68,180.21,172.48Z"></path><path fill="#fff" d="M177.07,172.87c.74-.07,1.47-.16,2.2-.26C178.41,172.68,177.68,172.76,177.07,172.87Z"></path><g class="cls-path-cs2-male-10L show"><ellipse fill="#9fc2d6" cx="164.06" cy="161.75" rx="12.26" ry="10.4" transform="translate(-5.45 5.72) rotate(-1.97)" class="canChange" style="fill:null"></ellipse><ellipse cx="164" cy="160.7" rx="8.57" ry="7.27" transform="translate(-5.42 5.72) rotate(-1.97)"></ellipse><ellipse fill="#fff" cx="157" cy="160.48" rx="2.92" ry="2.48" transform="translate(-5.41 5.48) rotate(-1.97)"></ellipse></g><path fill="#3b050a" opacity="0.32" d="M175.46,253.68c-.94-2.44,7.31-6.61,8.77-7.47,8.66-5.1,19.71-8.38,28.74-2,1,.69,12.3,8.44,12,9.05,0,0-8.22,18.48-25.56,18S175.47,253.71,175.46,253.68Z" class="canChange" style="fill:null"></path><path fill="#210905" d="M170.67,252a49.42,49.42,0,0,0,7.22,1.7c2.42.45,4.87.7,7.3,1l3.66.25c1.22.08,2.45.09,3.67.13s2.45,0,3.67,0,2.45,0,3.67-.08l3.68-.12,3.67-.28c2.46-.08,4.89-.51,7.35-.68l7.36-.91c2.45-.36,4.91-.75,7.41-1-2.33.9-4.71,1.68-7.1,2.44s-4.84,1.3-7.31,1.78A90.39,90.39,0,0,1,200,258c-1.26.06-2.52,0-3.79,0s-2.52,0-3.78-.13-2.51-.19-3.77-.34-2.5-.34-3.75-.56-2.48-.47-3.7-.8-2.44-.63-3.64-1A30.58,30.58,0,0,1,170.67,252Z"></path><path fill="#9e4e3a" d="M199.08,274.17s.6,30-3.84,30-38.32-19.11-38.32-19.11,15.78,29.71,43.51,27.41h.28c27.73,2.3,43.31-29,43.31-29s-33.68,20.66-38.12,20.66-3.84-30-3.84-30Z" class="canChange" style="fill:null"></path><path fill="#9e4e3a" d="M200.66,237.85s-37.89.2-42,6.72l-4.11,6.51s43.83-3.25,44.74-6.51,1.37-5.3,1.37-5.3Z" class="canChange" style="fill:null"></path><path fill="#9e4e3a" d="M200.89,237.85s37.89.2,42,6.72l4.11,6.51s-43.82-3.25-44.73-6.51-1.37-5.3-1.37-5.3Z" class="canChange" style="fill:null"></path><path fill="#00498b" d="M392,400H8c.28-.64.56-1.25.82-1.85,2.6-5.88,4.45-10.24,5.15-12.24.47-1.32,2.33-2.77,5.29-4.32a82,82,0,0,1,9.59-4.07c6.83-2.49,15.54-5.12,25.17-7.75,12.75-3.49,27.1-7,40.79-10.16,8.57-2,16.88-3.87,24.37-5.55,9.09-2,17-3.78,22.69-5.1,4.3-1,7.35-1.74,8.74-2.2a4.44,4.44,0,0,0,1.84-1.26l2-.37,11.09-2,9.87-1.79,7.13-.17L197,340.8l9.75-.24,3.67.55L223,343l2.87.38,16.19,2.12,3.79.49,2.66.35a3.26,3.26,0,0,0,.84.41c1.59.52,5.35,1.43,10.64,2.65h0c4,.91,8.87,2,14.36,3.22l12.6,2.82,11.58,2.63c13.07,3,27.11,6.33,40,9.72,9.18,2.4,17.79,4.83,25.1,7.18,12.53,4,21.23,7.85,22.31,10.93,0,.13.1.27.15.42C387,388.73,389.11,393.59,392,400Z" class="canChange" style="fill:null"></path><path opacity="0.12" d="M287,355.45c-.74.8-1.81,1.89-3.21,3.19-11.41,10.55-44.84,34.66-102.84,23-73.28-14.71-138.3.76-147.33,16.24-.38.65-.75,1.35-1.12,2.1H8c.28-.64.56-1.25.82-1.85,2.6-5.88,4.45-10.24,5.15-12.24.47-1.32,2.33-2.77,5.29-4.32a82,82,0,0,1,9.59-4.07c6.83-2.49,15.54-5.12,25.17-7.75,12.75-3.49,27.1-7,40.79-10.16,8.57-2,16.88-3.87,24.37-5.55,9.09-2,17-3.78,22.69-5.1,4.3-1,7.35-1.74,8.74-2.2a4.44,4.44,0,0,0,1.84-1.26l1.74.31,8.14,1.46L176,349.7h12.65L196,346l10.69-5.41,3.67.51,15.42,2.13L242,345.45h0l3.81.53,2.67.37a3.26,3.26,0,0,0,.84.41c1.59.52,5.35,1.43,10.64,2.65h0c4,.91,8.87,2,14.36,3.22Z" class="cls-overlay"></path><path fill="#00498b" d="M262.39,351c-.47.3-16.81,10.22-55.72,9-1.57-.05-3.19-.12-4.84-.21-21.65-1.17-43.48-3-64.5-6.93a4.09,4.09,0,0,0,2-1.34c5.62-5.83,12.72-11.56,17.17-17.85,1.51-2.15,2.34-4.66,1.29-6.94-1.52-3.29-6.36-4.64-8.8-7.47a6.77,6.77,0,0,1-1.82-4.81c.16-3.31,1.42-5.09,4-5.59a15.56,15.56,0,0,1,6.31.51c12.25,2.9,25.39,5.5,38.62,6q4.2.15,8.39,0a86.93,86.93,0,0,0,23.31-3.95c3.22-1,17.17-8.19,20.33-4.87,3.85,4,1.75,8.8.06,13.07-2.48,6.26-.35,12.94,3.21,18.79C252.21,339.68,260.92,351.87,262.39,351Z" class="canChange" style="fill:null"></path><path fill="#283d3d" d="M246.18,322.91a58.77,58.77,0,0,1-9.5,4.46,79.75,79.75,0,0,1-10.1,2.88,113.33,113.33,0,0,1-20.85,2.42,186,186,0,0,1-21-.9c-3.49-.32-7-.71-10.44-1.15l-10.39-1.43,10.42,1.19c3.48.4,6.95.76,10.44,1.06a187.71,187.71,0,0,0,20.94.73,112.47,112.47,0,0,0,20.79-2.24,81.43,81.43,0,0,0,10.09-2.79A58.85,58.85,0,0,0,246.18,322.91Z"></path><path fill="#283d3d" d="M236.55,330.65a34.94,34.94,0,0,0,3.86,11.65,46.35,46.35,0,0,0,7.3,9.91,35.12,35.12,0,0,1-7.74-9.68A28.27,28.27,0,0,1,236.55,330.65Z"></path><path fill="#283d3d" d="M222.07,335.37A56.75,56.75,0,0,1,227,345.58a53.05,53.05,0,0,1,2.75,11,93.46,93.46,0,0,0-3.22-10.82A105.29,105.29,0,0,0,222.07,335.37Z"></path><path fill="#283d3d" d="M210,336.07c.47,3.22.74,6.47,1,9.71s.48,6.48.53,9.74c-.47-3.22-.74-6.46-1-9.7S210,339.33,210,336.07Z"></path><path fill="#283d3d" d="M197.37,335.48a39.27,39.27,0,0,1-.8,9.17,41.08,41.08,0,0,1-2.85,8.75,86.2,86.2,0,0,0,2.36-8.85A76.74,76.74,0,0,0,197.37,335.48Z"></path><path fill="#283d3d" d="M183.39,335.33a24.42,24.42,0,0,1-1.2,8.3,26.72,26.72,0,0,1-3.8,7.49,44.48,44.48,0,0,0,3.32-7.64A38.07,38.07,0,0,0,183.39,335.33Z"></path><path fill="#283d3d" d="M168.09,334.42a14.37,14.37,0,0,1-.65,5.2,18.12,18.12,0,0,1-2.33,4.73,22.58,22.58,0,0,1-7.84,6.9,28.68,28.68,0,0,0,7.43-7.18A18.35,18.35,0,0,0,168.09,334.42Z"></path><path fill="#283d3d" d="M237,309.29a11.56,11.56,0,0,1,4.19,1.45,8.53,8.53,0,0,1,3.17,3.17,5.57,5.57,0,0,1,.31,4.45,6.93,6.93,0,0,1-2.77,3.44,7.69,7.69,0,0,0,2.41-3.56,5.32,5.32,0,0,0-.4-4.1,8.39,8.39,0,0,0-2.93-3.08A14.4,14.4,0,0,0,237,309.29Z"></path><path fill="#283d3d" d="M228,313.34a11.33,11.33,0,0,1,3.14,1.89,9,9,0,0,1,2.29,2.91,7,7,0,0,1,.67,3.65,6.83,6.83,0,0,1-1.28,3.42,8.1,8.1,0,0,0,.89-3.44,7.47,7.47,0,0,0-.73-3.42A12.5,12.5,0,0,0,228,313.34Z"></path><path fill="#283d3d" d="M217,317.58a10.19,10.19,0,0,1,2.92,4.69,8.59,8.59,0,0,1-.25,5.51,12.5,12.5,0,0,0,.19-2.72,11.28,11.28,0,0,0-.43-2.65A15,15,0,0,0,217,317.58Z"></path><path fill="#283d3d" d="M209.49,318.17a13.83,13.83,0,0,0-.23,11.29,10.2,10.2,0,0,1,.23-11.29Z"></path><path fill="#283d3d" d="M199,318.15a15,15,0,0,0-3.55,4.83,10.6,10.6,0,0,0-.82,2.87,10.48,10.48,0,0,0,0,3,8.22,8.22,0,0,1,.33-6.08A10.68,10.68,0,0,1,199,318.15Z"></path><path fill="#283d3d" d="M188.58,317.25a15,15,0,0,0-3,1.47,9,9,0,0,0-2.36,2.21,5.57,5.57,0,0,0-1.08,3,6,6,0,0,0,.77,3.16,5.19,5.19,0,0,1-1.16-3.16,5.48,5.48,0,0,1,1.06-3.27A9.12,9.12,0,0,1,188.58,317.25Z"></path><path fill="#283d3d" d="M178.52,316a12.9,12.9,0,0,0-3.48,1.46,9.35,9.35,0,0,0-2.77,2.46,7.61,7.61,0,0,0-1.44,3.38,10.59,10.59,0,0,0,.13,3.76,8.48,8.48,0,0,1-.51-3.81,7.48,7.48,0,0,1,1.42-3.63A9.7,9.7,0,0,1,178.52,316Z"></path><path fill="#283d3d" d="M169.59,315a14.55,14.55,0,0,0-4.27,0,12.23,12.23,0,0,0-4,1.25,6.74,6.74,0,0,0-3,2.84,4.83,4.83,0,0,0-.2,4.09,4.56,4.56,0,0,1-.6-2.09,5.06,5.06,0,0,1,.46-2.16,6.84,6.84,0,0,1,3.08-3.12,11.82,11.82,0,0,1,8.52-.78Z"></path><path fill="#283d3d" d="M157.61,312.33a10.8,10.8,0,0,0-2.21.53,7,7,0,0,0-1.94,1.06,3.69,3.69,0,0,0-1.27,1.72,3.16,3.16,0,0,0,.08,2.18,2.83,2.83,0,0,1-.45-2.29,3.64,3.64,0,0,1,1.32-2A6.26,6.26,0,0,1,157.61,312.33Z"></path><g opacity="0.32" class="show"><path d="M184.61,223.57a6.2,6.2,0,0,1-.94-1.16,2.8,2.8,0,0,1-.48-1.47,1.34,1.34,0,0,1,.3-.79,1.9,1.9,0,0,1,.66-.5,4.79,4.79,0,0,1,1.51-.38,15.11,15.11,0,0,1,3,.09c1,.12,2,.32,2.93.51h0a2.93,2.93,0,0,1,1.47.88,7.56,7.56,0,0,1,1,1.23,14.12,14.12,0,0,1,1.31,2.75c.17.48.32,1,.46,1.44l.2.72.09.34a.92.92,0,0,0,.17.25,4.17,4.17,0,0,0,2.67.92,5.82,5.82,0,0,1-1.5-.05,2.84,2.84,0,0,1-1.43-.61,1.06,1.06,0,0,1-.27-.35l-.14-.37-.24-.7c-.18-.47-.36-.92-.55-1.37a16.71,16.71,0,0,0-1.37-2.58,6.82,6.82,0,0,0-.89-1.09,2.69,2.69,0,0,0-1-.67h0a27,27,0,0,0-5.75-.76,4.62,4.62,0,0,0-1.36.24,1.09,1.09,0,0,0-.78.9A4.22,4.22,0,0,0,184.61,223.57Z"></path></g><g opacity="0.32" class="show"><path d="M213.21,223.57a4.17,4.17,0,0,0,1.06-2.59,1.11,1.11,0,0,0-.78-.9,4.67,4.67,0,0,0-1.36-.24,26.92,26.92,0,0,0-5.75.76h0a2.59,2.59,0,0,0-1,.67,6.37,6.37,0,0,0-.9,1.09,15.84,15.84,0,0,0-1.36,2.58c-.2.45-.38.9-.55,1.37l-.25.7-.13.37a1.21,1.21,0,0,1-.27.35,2.88,2.88,0,0,1-1.43.61,5.88,5.88,0,0,1-1.51.05,4.18,4.18,0,0,0,2.68-.92.7.7,0,0,0,.16-.25l.1-.34.2-.72c.14-.48.29-1,.46-1.44a14.12,14.12,0,0,1,1.31-2.75,7.49,7.49,0,0,1,1-1.23,3,3,0,0,1,1.48-.88h-.05c1-.19,1.95-.39,2.94-.51a15.09,15.09,0,0,1,3-.09,4.86,4.86,0,0,1,1.51.38,2,2,0,0,1,.66.5,1.39,1.39,0,0,1,.29.79,2.63,2.63,0,0,1-.48,1.47A5.83,5.83,0,0,1,213.21,223.57Z"></path></g><g opacity="0.32" class="show"><path d="M186.34,204.21a40.93,40.93,0,0,0-5.24,5.54,14.61,14.61,0,0,0-3.23,6.65,6.26,6.26,0,0,0,.45,3.57,9.84,9.84,0,0,0,8.51,6.41,9.55,9.55,0,0,1-3.79-.67,10,10,0,0,1-3.24-2.18,9.6,9.6,0,0,1-2.11-3.3,6.89,6.89,0,0,1-.56-3.93,14.71,14.71,0,0,1,3.52-6.91A30.06,30.06,0,0,1,186.34,204.21Z"></path></g><g opacity="0.32" class="show"><path d="M213.66,204.21a30.06,30.06,0,0,1,5.69,5.18,14.71,14.71,0,0,1,3.52,6.91,6.89,6.89,0,0,1-.56,3.93,9.6,9.6,0,0,1-2.11,3.3,10,10,0,0,1-3.24,2.18,9.55,9.55,0,0,1-3.79.67,9.84,9.84,0,0,0,8.51-6.41,6.26,6.26,0,0,0,.45-3.57,14.61,14.61,0,0,0-3.23-6.65A40.93,40.93,0,0,0,213.66,204.21Z"></path></g><path fill="#503d78" opacity="0.24" d="M178,220.23s6-10,10.29-8,9.07,8.29,22.62-.22c0,0,10.41,1,10.36,9.53s-17.66,15.95-22.4,15.55S180,230.28,178,220.23Z" class="cls-multipy canChange" style="fill:null"></path><path opacity="0.4" d="M184,220.11s.52,4.86,10.71,3.86C194.68,224,192.93,218.46,184,220.11Z" class="cls-overlay"></path><path opacity="0.4" d="M213.92,219.84s-.52,4.86-10.71,3.86C203.21,223.7,205,218.19,213.92,219.84Z" class="cls-overlay"></path><path fill="#503d78" opacity="0.24" d="M209.55,172.92a8,8,0,0,0-1.39,9.53l2,3.31S206.2,179.15,209.55,172.92Z" class="cls-multipy canChange" style="fill:null"></path><path fill="#503d78" opacity="0.24" d="M188.89,168.63s6.08,4.59,5.8,12.05-7,19.9-7,19.9,4.67-13.62,3.91-21.13S188.89,168.63,188.89,168.63Z" class="cls-multipy canChange" style="fill:null"></path><path fill="#fff" d="M193.72,208.28a5.34,5.34,0,0,0-2.43,2.17,1.63,1.63,0,0,0,0,1.25,4.57,4.57,0,0,0,2.35,2,4,4,0,0,0,2.06.56,1.41,1.41,0,0,0,1.17-.8,3.06,3.06,0,0,0,.2-1.36,14.37,14.37,0,0,0-.38-2.95,1.87,1.87,0,0,0-1.33-1.59C194.69,207.5,194.12,208,193.72,208.28Z" class="cls-softlight"></path></svg>