<svg xmlns='http://www.w3.org/2000/svg' width='400' height='400'>
      <defs><style>.cls-path-cs4-male-9R{clip-path:url(#clip-path-cs4-male-9R)}.cls-path-cs4-male-9L{clip-path:url(#clip-path-cs4-male-9L)}.cls-multipy{mix-blend-mode: multiply;}.cls-softlight{mix-blend-mode: soft-light;}.cls-overlay{mix-blend-mode: overlay;}.cls-colorburn{mix-blend-mode: color-burn;}.cls-screen{mix-blend-mode: screen;}.cls-lighten{ mix-blend-mode: darken;}</style>
      <clipPath id="clip-path-cs4-male-9R"><path fill="#none" d="M258.76,171.11s-1.52,2.06-3.63,4.55c-3.06,3.61-7.33,8.12-9.95,8.57a59.85,59.85,0,0,1-14.85.51c-3.8-.31-8-.47-11.91-1.1a32.75,32.75,0,0,1-3.36-.69,14.51,14.51,0,0,1,1.4-2.94l.45-.83c.3-.53.53-.92.6-1l.11-.15c2.32-3.15,5.6-6,9-6.89C228.55,170.6,253.81,168.31,258.76,171.11Z"></path></clipPath><clipPath id="clip-path-cs4-male-9L"><path fill="#none" d="M141.24,172s1.52,2.06,3.63,4.55c3.06,3.6,7.33,8.12,9.95,8.57a59.37,59.37,0,0,0,14.85.5c3.8-.3,8-.46,11.91-1.09q1.72-.27,3.36-.69a14.51,14.51,0,0,0-1.4-2.94l-.45-.83c-.3-.53-.53-.93-.6-1l-.11-.15c-2.32-3.15-5.6-6-9-6.89C171.45,171.48,146.19,169.18,141.24,172Z"></path></clipPath></defs><path fill="#803e1b" stroke="#000" stroke-miterlimit="10" d="M143.85,323.53C135,341.05,73.75,364,45.75,371s-46,29-46,29h400.5s-18-22-46-29-89.21-29.95-98.1-47.47" class="canChange" style="fill:null"></path><path fill="#803e1b" stroke="#000" stroke-miterlimit="10" d="M256.75,334.5c-1.71-10.27-.32-21.32.67-31.59,1.12-11.72,2.89-23.37,4.08-35.09A345.78,345.78,0,0,0,262.75,233h-129c1,8.5,1.81,17.05,3,25.52,2,13.87,4.1,27.72,5.53,41.66,1.14,11.13,2.8,23.19.94,34.32" class="canChange" style="fill:null"></path><path fill="#59003c" opacity="0.5" d="M262.75,233a345.78,345.78,0,0,1-1.25,34.82c-1.19,11.72-3,23.37-4.08,35.09-.54,5.64-1.21,11.51-1.41,17.36,0,0,0,.07,0,.11-.11,1.07-.23,2.12-.35,3.15-.45,3.93-1,7.58-1.55,11-6.77,39.79-21,42.79-24.6,13a129.83,129.83,0,0,0-2.18-13,61.56,61.56,0,0,0-3.48-11c-5.6-12.73-14.62-16-28.34-16-11.26,0-19.34,8.55-24.27,16a60.65,60.65,0,0,0-5.73,11s-.2-4.71-.52-11c-.38-7.59-.93-17.46-1.48-24-.74-8.86-14.56-6.27-21.74-4.32-1.39-12.26-3.24-24.45-5-36.66-1.21-8.38-2-16.84-3-25.25l2.41-.27Z" class="cls-overlay"></path><polyline fill="#803e1b" points="113.68 157.76 112.61 178.01 127.53 223.71 273.53 222.77 287.39 173.75 284.19 160.96 250.09 93.82 208.99 49.08 192.09 49.08" class="canChange" style="fill:null"></polyline><path fill="#803e1b" stroke="#000" stroke-miterlimit="10" d="M202.14,49.06s55.41-3.19,75.66,36.24,9.59,87.38,9.59,87.38" class="canChange" style="fill:null"></path><path fill="#803e1b" stroke="#000" stroke-miterlimit="10" d="M282.15,180.08s3.19-12.75,13.77-6.72c7.09,4,5.4,16.52,4.34,23.06-1.38,8.48-3.5,17.86-9.6,24.29-3.55,3.74-16.92,12-18.19,2.06" class="canChange" style="fill:null"></path><path fill="#803e1b" stroke="#000" stroke-miterlimit="10" d="M294.52,178.94s-16,7-13.45,18.66,6.28,10,5.09,14.82" class="canChange" style="fill:null"></path><path fill="#803e1b" stroke="#000" stroke-miterlimit="10" d="M293.48,200.7s6.34-17.21-4.86-18.24" class="canChange" style="fill:null"></path><path fill="#803e1b" stroke="#000" stroke-miterlimit="10" d="M117.85,180.08s-3.19-12.75-13.77-6.72c-7.09,4-5.4,16.52-4.34,23.06,1.38,8.48,3.5,17.86,9.6,24.29,3.55,3.74,16.92,12,18.19,2.06" class="canChange" style="fill:null"></path><path fill="#803e1b" stroke="#000" stroke-miterlimit="10" d="M105.48,178.94s16,7,13.45,18.66-6.28,10-5.09,14.82" class="canChange" style="fill:null"></path><path fill="#803e1b" stroke="#000" stroke-miterlimit="10" d="M106.52,200.7s-6.34-17.21,4.86-18.24" class="canChange" style="fill:null"></path><path fill="#803e1b" stroke="#000" stroke-miterlimit="10" d="M198.4,49.06h-.23s-55.42-3.19-75.66,36.24-9.59,87.38-9.59,87.38" class="canChange" style="fill:null"></path><path fill="#59003c" opacity="0.5" d="M300.26,196.42c-1.39,8.48-3.51,17.86-9.6,24.29-3.55,3.73-16.91,12-18.18,2.07l-11.11.07c.38-15.56,16.22-32.42,14.29-48.57-1.09-9.17-18.6-22.07-21.31-24.51a125.6,125.6,0,0,0,5.86-16.51,100.71,100.71,0,0,0,2.9-13.81c2.13-16.15-.7-33.3-21-36.28l-1.5.31c-2.23.46-6.84,1.35-13.15,2.26-13.27,1.91-34,3.93-55.94,2.22-2.31-.18-4.64-.39-7-.67-4.33-.49-8.68-1.15-13-2,0,0-14.37,15-12.14,36.84a48,48,0,0,0,2,9.44,58.07,58.07,0,0,0,7,14.46s-31.43,14.39-24,42.1c2.72,10.13,20.32,30,16.54,35.48l-13.36.09-.09-.3c-1.75,9-14.61,1-18.09-2.7-6.09-6.43-8.21-15.81-9.6-24.29-1.07-6.54-2.75-19,4.35-23.07,3.85-2.18,6.71-1.89,8.8-.63v-.09c-.38-1.76-10.26-48.65,9.6-87.33,20.25-39.43,75.67-36.24,75.67-36.24h4s2.58-.15,6.83,0h0c15.46.6,52.94,5.31,68.82,36.23,19.59,38.16,10.24,84.31,9.62,87.23,2.06-1.09,4.83-1.25,8.48.82C303,177.4,301.33,189.88,300.26,196.42Z" class="cls-overlay"></path><path fill="#fff" opacity="0.26" d="M284.29,214.19a3.28,3.28,0,0,0-2.07-2.37,4.42,4.42,0,0,0-3.2.1,2.81,2.81,0,0,0-1.78,1.73c-.24.93.25,1.88.4,2.83s0,2,.6,2.76a2.3,2.3,0,0,0,3,0C282.56,218.31,284.62,216,284.29,214.19Z" class="cls-softlight"></path><path fill="#fff" opacity="0.26" d="M115.23,214.19a3.27,3.27,0,0,1,2.06-2.37,4.45,4.45,0,0,1,3.21.1,2.8,2.8,0,0,1,1.77,1.73c.24.93-.25,1.88-.39,2.83s0,2-.61,2.76a2.28,2.28,0,0,1-3,0C117,218.31,114.9,216,115.23,214.19Z" class="cls-softlight"></path><path fill="#fff" opacity="0.26" d="M110.48,184.94s-4.26,7.46-1.06,19.18c0,0-5.11-7.27-4.69-11.1s.69-10,3.76-9.58S110.48,184.94,110.48,184.94Z" class="cls-softlight"></path><path fill="#fff" opacity="0.26" d="M289.25,184.94s4.27,7.46,1.07,19.18c0,0,5.1-7.27,4.68-11.1s-.69-10-3.75-9.58S289.25,184.94,289.25,184.94Z" class="cls-softlight"></path><path fill="#803e1b" stroke="#000" stroke-miterlimit="10" d="M118.8,172.82c-2.2,13.41,3.08,27.15,3.55,40.71l.8,23.06a50.38,50.38,0,0,0,1,9.72c1.1,4.71,3.54,9.05,5.95,13.32,2.3,4.06,4.62,8.17,7.82,11.66a50.27,50.27,0,0,0,8.8,7.35,113.48,113.48,0,0,0,18.92,10.48c1.81.79,3.26,2.49,4.84,3.64a33.39,33.39,0,0,0,8.43,4.91A34.7,34.7,0,0,0,188.8,299l11.18.46h0L211.2,299a34.7,34.7,0,0,0,9.92-1.37,33.39,33.39,0,0,0,8.43-4.91c1.58-1.15,3-2.85,4.84-3.64a113.48,113.48,0,0,0,18.92-10.48,50.27,50.27,0,0,0,8.8-7.35c3.2-3.49,5.52-7.6,7.82-11.66,2.41-4.27,4.85-8.61,5.95-13.32a50.38,50.38,0,0,0,1-9.72l.8-23.06c.47-13.56,5.75-27.3,3.55-40.71" class="canChange" style="fill:null"></path><path fill="#fff" opacity="0" d="M197.33,228c-27.88,0-53.7-4-74.85-10.82.23,6.3.44,12.6.67,18.91a50.38,50.38,0,0,0,1,9.72c1.11,4.71,3.54,9.05,5.95,13.32,2.3,4.06,4.63,8.17,7.82,11.66a50.27,50.27,0,0,0,8.8,7.35,113.18,113.18,0,0,0,18.93,10.48c1.8.79,3.25,2.49,4.83,3.64a33.22,33.22,0,0,0,8.43,4.91,34.7,34.7,0,0,0,9.92,1.37L200,299h0l11.18-.46a34.7,34.7,0,0,0,9.92-1.37,33.22,33.22,0,0,0,8.43-4.91c1.58-1.15,3-2.85,4.83-3.64a113.18,113.18,0,0,0,18.93-10.48,50.27,50.27,0,0,0,8.8-7.35c3.19-3.49,5.52-7.6,7.82-11.66,2.41-4.27,4.84-8.61,5.95-13.32a50.38,50.38,0,0,0,1-9.72l.72-20.75C255.5,223.27,227.63,228,197.33,228Zm16.51,52c-6.4,1-4.27-17-4.27-17l-17,1s2.14,18-4.27,17-30.93-26-29.87-39c0,0-1.06-5,41.61-2l2.1-1c42.67-3,41.61,2,41.61,2C244.77,254,220.24,279,213.84,280Z" class="cls-multipy"></path><path fill="#59003c" opacity="0.5" d="M166.92,289.87a6.9,6.9,0,0,0-1.31-.75,114.2,114.2,0,0,1-18.92-10.48,50.27,50.27,0,0,1-8.8-7.35c-3.19-3.49-5.52-7.6-7.82-11.67-2.41-4.26-4.84-8.6-5.95-13.31a50.33,50.33,0,0,1-1-9.73q-.39-11.52-.79-23.05a.71.71,0,0,0,0-.14c.87,8.27,2.33,20,3.76,22.7,2.27,4.26,21.6,17,29.56,32C160.52,277.16,164.53,285.08,166.92,289.87Z" class="cls-overlay"></path><path fill="#59003c" opacity="0.5" d="M277.73,212.06c0,.49-.07,1-.08,1.47q-.39,11.52-.79,23.05a50.33,50.33,0,0,1-1,9.73c-1.11,4.71-3.54,9.05-5.95,13.31-2.3,4.07-4.63,8.18-7.82,11.67a50.27,50.27,0,0,1-8.8,7.35,113.24,113.24,0,0,1-18.8,10.43c2.29-4.55,5.28-10.35,8.69-16.75,8-14.91,27.29-27.7,29.56-32s4.58-31.17,4.58-31.17Z" class="cls-overlay"></path><path fill="#3B0D08" stroke="#000" stroke-miterlimit="10" stroke-width="2" d="M303.7,131.1c-0.1,1-0.5,2-1.1,2.9c-0.1,4.9-1.3,9.8-3.7,14.1c-0.2,0.3-0.3,0.6-0.4,0.9    c0,0.7,0.1,1.3,0.3,1.9c0.4,2.2-0.9,4.3-2,6.3c-0.9,1.6-1.5,3.3-2.1,5.1c-0.4,1.5-0.2,3.1,0.4,4.5c0.2,0.4,0.4,0.8,0.5,1.2    c0.1,0.8,0,1.6-0.3,2.3c-0.4,0.7-0.6,1.4-0.8,2.2c0,0.3-0.2,0.6-0.4,0.9c0,0.2,0,0.3,0,0.5c-2.7-0.5-5.3,1.3-7.2,3.4    c-1.8,2-3.3,4.2-4.3,6.7c-0.9-2.6-1.4-5.3-1.7-8c-0.4-4.3-1.1-8.5-2.3-12.7c-1.1-4.2-2.8-8.2-5.1-11.8c-1.8-2.9-4.1-5.4-5.9-8.3    s-1.3-6.7-2.3-10c-0.3-1.4-1-2.7-2-3.8c-0.6-0.5-1.4-1-2.1-1.3c-3.3-1.8-6.1-4.3-8.4-7.4c0.9,0.6,1.9,1.2,2.9,1.7    c-1.4-4.6-5.8-8.8-10.2-9.5c-0.9,1.2-2.1,2.1-3.5,2.6l-8.7,4l0,0c0.3-0.5,0.7-1,1.2-1.5c-1.5,0.7-3.2,0.9-4.8,0.9    c-0.3,2-2.3,3-4.1,3.6s-3.5,1.2-5.3,1.7c-0.2-2,0-3.9,0.6-5.8c-2.3,3.1-4.9,5.8-7.8,8.3c-0.1-1.4,0-2.8,0.4-4.2    c-1.6,2.5-3.4,4.8-5.4,6.9c-0.3-1.5-0.6-3-0.9-4.5c-0.5,2.4-1.7,4.7-3.5,6.4c-1.1-3.9-3.7-7.2-7.1-9.2c1.2,2.6,2.6,5.1,4.3,7.4    c-2.1-1.4-4.4-2.3-6.9-2.7c0.6,1.2,1.7,2,2.9,2.4c-1.6-0.4-3.3-1.2-4.9-1c0.3,0,0.3,0.5,0,0.6s-0.5,0-0.8-0.2    c-4.2-2.5-9.1-3.2-13.4-5.5c-1.7-1-3.4-2-5.1-2.8c-4.4-1.7-9.5,0.2-11.7,4.4c-0.7,1.4-1,3-1.6,4.5c-0.7,1.5-1.4,2.9-2.3,4.4    c-1.5,2.8-3.2,5.7-3.1,8.9c0.2,3-1.7,5.5-3.1,8.1c-1.2,2.3-2.1,4.8-2.6,7.3c-0.4,1.9-0.6,3.8-0.9,5.6c-0.7,3.2-1.9,6.2-3.8,8.9    c-0.4-0.5-1.3-1.4-1.4-2.1c-0.3-1.5-0.3-3.1-0.1-4.6c0.8-8.2,2.7-16.2,4.6-24.1c2.4-10.1,4.9-20.3,7.3-30.4    c-2.7,1.8-2.8,6.3-4.9,8.8c-1.5,1.8-3.8,2.6-5.7,3.9c-4.5,3.1-6.5,9-10.3,13.1c-2.9,3.1-6.9,5.5-7.8,9.8c-0.6,2.5-2,6.1-2.1,8.7    c0,1.8,0,3.7-0.3,5.5c-0.4,2.2-1.6,4-2.4,6.1c-1.8,5.1-0.8,10.8,0.3,16.2c-1.3-3.2-3.4-6-6.1-8.2c-2.5-2-6.2-3.1-8.5-0.8    c0.6-2.6,0.3-5.4-1-7.7c-0.4-0.6-0.7-1.3-0.8-2c0-0.6,0.1-1.2,0.4-1.8c0.7-2.2,1-4.6,0.9-6.9c0-1.3-0.1-2.6-0.2-3.9    c0-2-0.6-3.9-1.7-5.6c-2.3-3.1-2.4-7.8-1.8-11.6c0.2-0.9,0.3-1.9,0.2-2.9c-0.3-1.1-0.8-2.1-1.6-3c-4.6-6.9-5.3-15.7-2-23.3    c0.8-1.9,0.6-3.5,1.3-5.4c0.9-2.6,2.1-5.2,3.6-7.5c1-1.3,2-2.6,3.1-3.7c1-1.3,2.3-2.4,3.9-3c-0.5-5.5,0.6-10.9,3.2-15.8    c0.6-1.1,1.3-2.2,2.2-3.1c1-1,3.1-1.5,3.9-2.7c0.4-0.6,0.2-1.7,0.4-2.5c0.2-1.1,0.6-2.1,1.1-3c1.1-1.7,2.3-3.3,3.8-4.8    c1-1.1,2.1-2.1,3.3-3c1.3-0.8,2.7-1.4,4.1-1.8c1.3-0.4,1.6-1.7,2.4-2.9c3.7-5.4,8.3-10.1,13.5-14c1.8-1.4,3.8-2.6,5.9-3.5    c4.1-1.7,8.6-1.9,13-1.7c2.1-0.1,4.1,0.1,6.1,0.6h0.1L174,28c1.3,0.5,2.5,1.1,3.6,1.7c0.9,0.5,1.7,0.9,2.6,1.3l0.4,0.2    c1.5-0.5,3-1.2,4.3-2.1c3.2-1.9,6.8-2.8,10.5-2.6c8.7,0.4,16.9-3.1,25.1,0c5.2,2,10.7,2.3,16,4.1c1.4,0.5,2.8,1,4.2,1.7    c3.1,1.4,6.6,1.7,9.8,3c2.2,0.9,4.3,2.1,6.3,3.4l5.7,3.6c2.7,1.7,3.9,5.1,4.6,8.3c0.6,3.3,0.6,6.6,0,9.9c2.4-1.4,5.2-1.9,7.9-1.4    c2.8,0.5,5.3,2,7.1,4.2c5,5.7,9.5,11.9,13.4,18.4c2.2,3.9,2.9,8.4,3,12.9c0,2.2-0.1,4.4-0.4,6.6c-0.2,2.3-0.5,4.6-0.7,6.8    c0,0.5-0.2,1-0.7,1c2.6,4.5,4.7,9.4,6.1,14.4C303.6,125.9,303.9,128.5,303.7,131.1z" class="canChange" style="fill:null"></path><path opacity="0.4" d="M274,59c-3.3,2.6-6.2,5.7-8.6,9.2c2.1,1.4,3.6,3.5,4.2,6l-5.3-0.1c2,1.4,4.1,2.6,6.2,3.7    c-1.5,0.5-3,0.5-4.5,0.2l3.1,4.3c-1.6,0.1-3.2-0.1-4.6-0.7l3,4.8l-1.4-0.5c0.9,2.8,1.5,5.7,1.8,8.7c-2.1-0.4-4.2-0.9-6.2-1.6    c1.1,1.1,1.8,2.5,2.3,3.9l-2.4,0.1l2.4,6.7c1.1,2.7,1.9,5.6,2.2,8.5c-3-1.6-5.7-3.7-8.1-6.2l0.9,5.5c-2.6-0.4-5-1.8-6.7-3.8    l1.3,3.7c-1.3-0.4-2.6-1-3.6-2c5.6,10.5,13.9,19.3,22.3,27.8c-2.3-4.9-4-10.1-4.9-15.4c2,0.8,4.1,1.7,6,2.8c-0.7-2.5-1.7-5-3-7.3    l3.1,1.5c-1.2-3.3-2.7-6.5-4.2-9.7l6.2,0.3c-2.2-1.8-4.2-3.7-6.2-5.7c3.7-0.7,7.4-0.9,11.1-0.6c0.9,0,1.7,0.2,2.5,0.6    s1.4,1.1,1.4,2c-4.2-2.7-7.9-6-11.1-9.9c1.6-0.5,3.3-0.9,5-1.2c-1.1-0.4-2.2-1-3.1-1.7c-0.2-0.1-0.3-0.3-0.4-0.5    c0-0.3,0.3-0.5,0.6-0.6l3.1-1.2l-1.3-1.1c3.3-0.9,6.9-0.7,10.4-0.5c-4.5-0.4-8.8-2-12.4-4.6c1.6-0.4,3.3-0.5,4.9-0.1    c-1.5-2.4-2.7-5.1-3.5-7.8c1.9,0.4,3.7,1,5.5,1.9l-3.8-7.9c4.8,2,9.1,4.9,12.7,8.7c-1.4-3.4-3-6.7-5-9.8c-0.8-1.4-1.8-2.6-2.9-3.8    C280.4,63,277.4,60.8,274,59z"></path><path opacity="0.4" d="M163.4,41.9c2.8,0.6,5.7,1.3,8,3.1c-5.4,0.8-10.8,0.1-16.2,0s-11.1,0.8-15.5,4.1c3.6-1.1,7.5-1.1,11.1,0    c-3.2,0-6.6,0.1-9.6,1.4c1.3,0.1,2.5,0.6,3.4,1.5l-7.8,1.2c-1.5,0.2-3.3,0.9-3.4,2.5l4,1.1l-5.2,3.6l25.5-1.6    c-8.5,0.5-16.9,2.7-25.1,4.9c-1.5,0.4-3.2,1-3.6,2.6l6.6,0.1c-2.5,1.2-4.9,2.4-7.4,3.7c1.4,0.6,2.9,0.8,4.4,0.7    c-2.6,0.8-5,2.1-7.1,3.8c0.7,0.1,2.2,0.2,2.9,0.4c-4.5,3.3-8.8,7-12.8,10.9c4.9-2.5,10.2-4.3,15.6-5.4l-4.9,4.3    c-4.1,3.6-8.3,7.2-11.7,11.7c1.7-1.6,3.9-2.4,6.2-2.3c-2.1,3.3-4.2,6.6-6.3,10c-0.2,2.8-1.1,5.4-2.6,7.7c8.2-8.5,19.2-13.9,31-15    c-8.8,5.5-16.7,12.3-23.6,20.1c-3.2,3.6-6.2,7.7-6.9,12.7l7.3-4.7c0.3,0.9,0.1,1.9-0.4,2.7l-3.8,7.9c2.3-1,4.4-2.3,6.4-3.8    c-0.1,2.5-0.9,5-2.4,7c3.1-3.3,6.7-6.2,10.5-8.7c-0.5,4.5-4.8,7.3-6.9,11.2c-1.9,3.7-1.9,8.6-4.7,11.6s-7,3-10.8,2.9h-1.7    c0-1.3-0.1-2.6-0.2-3.9c0-2-0.6-3.9-1.7-5.6c-2.3-3.1-2.4-7.8-1.8-11.6c0.2-0.9,0.3-1.9,0.2-2.9c-0.3-1.1-0.8-2.1-1.6-3    c-4.6-6.9-5.3-15.7-2-23.3c0.8-1.9,0.6-3.5,1.3-5.4c0.9-2.6,2.1-5.2,3.6-7.5c1-1.3,2-2.6,3.1-3.7c1-1.3,2.3-2.4,3.9-3    c-0.4-5.5,0.7-11,3.3-15.8c0.6-1.1,1.3-2.2,2.2-3.1c1-1,3.1-1.5,3.9-2.7c0.4-0.6,0.2-1.7,0.4-2.5c0.2-1.1,0.6-2.1,1.1-3    c1.1-1.7,2.3-3.3,3.8-4.8c1-1.1,2.1-2.1,3.3-3c1.3-0.8,2.7-1.4,4.1-1.8c1.3-0.4,1.6-1.7,2.4-2.9c3.7-5.4,8.3-10.1,13.5-14    c1.8-1.4,3.8-2.6,5.9-3.5c4.1-1.7,8.6-1.9,13-1.7c2.1-0.1,4.1,0.1,6.1,0.6l0,0h0.1c2.5,0.1,4.8,1.2,6.4,3.1    c0.3,0.4,0.6,0.8,0.9,1.2c-6.9-1.6-14-1.8-21-0.6c2.9,0.2,5.8,0.9,8.5,1.9c-5.4,0.3-10.8,1.6-15.8,3.7c2.7-0.3,5.5-0.1,8.1,0.8    c-2.9,0.3-5.8,0.9-8.6,1.9C156.1,40.6,159.7,41.2,163.4,41.9z"></path><path opacity="0.4" fill="#fff" d="M248.1,49.7c1.3,3.3,1.9,6.8,1.8,10.4c-4.7-1.7-9-4.4-12.6-7.8L240,59l-2.8-3l0.1,7.1c-2-1.4-3.9-3.1-5.5-4.9    c0.6,2.7,1.6,5.3,3,7.8l-7.3-6.9c2.4,11.3,4.7,23.2,1.4,34.2c-0.1,0.5-0.4,1-0.8,1.2c-0.6,0.2-1.2-0.4-1.6-1    c-4-5.8-9-10.9-14.7-15c0.8,2.4,1.8,4.7,3.1,6.9c-3-1.4-5.9-3.2-8.4-5.4c0,1.7,0.4,3.4,1.1,5c-3.3,0-6.7-0.7-9.7-2.2    c1.6,1.5,2.8,3.4,3.4,5.6c-2.7-0.6-5.3-1.3-8-2.2l0.2,9.1l-17-0.6c2.6,2.4,5.6,4.3,8.9,5.6l-14.9,0.2c1,1.5,2.4,2.7,3.9,3.6    l-15,2.2c-0.9-2.2-2.2-4.1-4-5.6L170,98l-2.4-2.2l8.9-3.6c-0.4-1.1-1.2-2-2.2-2.5l4.5-0.9c-0.3-1.3-0.8-2.5-1.4-3.6    c5.1-1,10.2-1.3,15.4-0.8L188.5,74c3.5,0,7,0.6,10.2,1.8l-0.5-2.5l8.5,2.6c0.1-1.9,0.1-3.9-0.1-5.8c5,0.8,9.5,3.6,12.4,7.8    l-6.3-16.7c3.2,2.7,6.1,5.8,8.7,9.1l0.9-8.7l1.1,2l0.5-4.7L226,61c-0.2-4.4,0.2-8.9,1.2-13.2l4.7,3.9c-0.1-1.9,0-3.8,0.2-5.7    l4.4,1.5c-1.4-0.5,0.5-3,0.9-3.3c1.1-0.6,2.4-0.9,3.7-0.7C244.1,43.8,246.8,47,248.1,49.7z"></path><path fill="none" stroke="#000" stroke-miterlimit="10" d="M251.8,103.9c1.3-8,1-16.3-1.7-23.9c-2.7-7.6-7.9-14.5-15-18.3s-15.4-4.5-23.5-4.6     c-16.8-0.3-33.6,1.5-50.4,3.3c-7,0.8-14.1,1.5-21,3c-2.5,0.5-5,1.2-7.3,2.4c-2.1,1.2-3.9,2.9-5.3,4.8c-10.3,13-7.3,32.5-15.4,47"></path><path fill="none" stroke="#000" stroke-miterlimit="10" d="M244.1,106.4c-0.4-6.7,1-13.8-1.9-19.9c-1.4-3.1-3.8-5.6-6.5-7.8c-12.2-9.9-29.6-11.7-44.9-8     s-28.9,12.4-41.6,21.7c-3.5,2.6-7,5.3-9.4,8.9c-2.6,3.8-3.7,8.4-4.8,12.9"></path><path fill="none" stroke="#000" stroke-miterlimit="10" d="M234.5,111.9c0.5-6.1,0.9-12.6-2.3-17.8c-2.2-3.5-5.9-6-9.8-7.4c-3.9-1.4-8.1-1.9-12.3-2.3     c-9.2-0.9-18.6-1.3-27.3,1.5c-12.5,4-22,14.1-31,23.8"></path><path fill="none" stroke="#000" stroke-miterlimit="10" d="M224.4,118.2c1.3-3.2,0.8-7-0.8-10.1s-4.1-5.6-6.9-7.7c-7-5-15.9-7.3-24.4-6.2c-8.5,1.1-16.6,5.5-22,12.2"></path><path fill="none" stroke="#000" stroke-miterlimit="10" d="M196.6,121.6c-7.6-4.4-15.6-8.2-23.7-11.4c-3-1.2-6-2.3-9.2-2.5s-6.6,0.7-8.8,3"></path><path fill="none" stroke="#000" stroke-miterlimit="10" d="M260,87c0.2-10.7,0-22.5-7.3-30.4c-2.7-2.9-6.2-5-9.6-7.1c-4.4-2.6-8.8-5.3-13.6-7.1     c-14-5.5-30-4.1-44.1-9.4c-0.3,0.7-0.7,1.4-1,2.1"></path><path fill="none" stroke="#000" stroke-miterlimit="10" d="M219.7,30.9c12.5,2.2,23,10.4,32.8,18.5c3.6,3,7.3,6.2,9.3,10.4c2,4.1,2.2,8.9,1.9,13.4"></path><path fill="none" stroke="#000" stroke-miterlimit="10" d="M254,109.7c4.6-0.2,9,2,13.1,4.1c3.5,1.8,7.2,3.7,10,6.5c2.5,2.5,4.3,5.7,5.9,9c2.1,4.3,3.9,8.7,4.7,13.3     c0.7,3.9,0.6,7.9,0.6,11.8c0,3.1-0.4,6.8-3.2,8.2"></path><path fill="none" stroke="#000" stroke-miterlimit="10" d="M262.5,102.2c5.1-0.3,10.3-0.6,15.3,0.6c6.1,1.6,11.4,5.6,15.2,10.6c2.8,3.7,4.8,8.3,4.5,12.9"></path><path fill="none" stroke="#000" stroke-miterlimit="10" d="M295.8,106.9c-1.7-4.9-5.3-8.7-8.9-12.4c-1.3-1.3-2.6-2.7-4.3-3.4c-2.1-1-4.5-1-6.8-1.1     c-3.6,0-7.4,0-10.2,2.2"></path><path fill="none" stroke="#000" stroke-miterlimit="10" d="M296.4,91.7c-0.5-1.1-1.1-2.1-1.7-3.1c-2.2-3.9-4.5-7.8-7.8-10.7c-3.4-2.9-8.1-4.7-12.3-3.4     c-3,0.9-5.5,3.3-8.5,4.3"></path><path fill="#472121" stroke="#000" stroke-miterlimit="10" d="M259.29,165.71s-7.66-7.15-11.35-9.48-27.78,12.61-33.08,13c-4.65.37-3.77-4.41-3.48-5.61,0-.17.07-.27.07-.27,2.33-3.69,20.88-8.4,30.31-10.47a8.65,8.65,0,0,1,1.88-.2C252.24,152.77,259.29,165.71,259.29,165.71Z" class="canChange" style="fill:null"></path><path fill="#472121" stroke="#000" stroke-miterlimit="10" d="M185.15,170.13c-5.3-.42-29.39-15.36-33.08-13s-11.35,9.48-11.35,9.48,8.1-14.87,17.53-12.8l2.31.52c9.86,2.26,25.85,6.54,28,9.95a8.71,8.71,0,0,1,.29,1.6C189,167.69,188.7,170.41,185.15,170.13Z" class="canChange" style="fill:null"></path><path opacity="0.32" d="M188.85,165.85c.18,1.84-.15,4.56-3.7,4.28-5.3-.42-29.39-15.36-33.08-13s-11.35,9.48-11.35,9.48,8.1-14.87,17.53-12.8l2.31.52c5.59,4.62,15.67,12.13,22.16,12.13A31.52,31.52,0,0,0,188.85,165.85Z" class="cls-overlay"></path><path opacity="0.32" d="M259.29,165.71s-7.66-7.15-11.35-9.48-27.78,12.61-33.08,13c-4.65.37-3.77-4.41-3.48-5.61,7.15.57,18.75.22,26.93-6.42,2.13-1.73,3.88-3.22,5.33-4.52C252.24,152.77,259.29,165.71,259.29,165.71Z" class="cls-overlay"></path><path fill="#72004d" opacity="0.32" d="M222.16,160.91a36.3,36.3,0,0,0-7.23,7.85c-1.86,2.66-4.33,5.88-3.52,9.21.65,2.61,2.94,4.69,5.3,6.13,0,0,1.34-4,2.8-4.92s14.06-6.52,16.9-5.18c0,0-8-6.91-2.92-8.71,0,0-9.32-.62,3.47-5.47-.37.14-2.53-.85-3-1a16.85,16.85,0,0,0-6.89-.28A11.32,11.32,0,0,0,222.16,160.91Z" class="cls-overlay"></path><g opacity="0.32" class="cls-overlay show"><path fill="#72004d" d="M218.53,176.34a23.05,23.05,0,0,1,7.67-8,34.72,34.72,0,0,1,10.21-4.56,32,32,0,0,1,11.15-.93A23.16,23.16,0,0,1,258,166.5a25.42,25.42,0,0,0-10.54-3.08,32.59,32.59,0,0,0-10.9,1.07,36.06,36.06,0,0,0-10.09,4.32c-.39.25-.79.47-1.17.73l-1.11.83a19.77,19.77,0,0,0-2.11,1.77,20,20,0,0,0-1.93,2,8.17,8.17,0,0,0-.85,1.09Z"></path></g><path fill="#72004d" opacity="0.32" d="M249,187.24s-4.26,2.75-11.72,1.83" class="cls-overlay"></path><path d="M239.69,184.54s8.12.82,10.61-.95,8-11.94,9.83-12.53c0,0-6.09-2.8-15.51-2.36s-18.17-.7-22.93,5"></path><path fill="#f0e1ef" d="M258.76,171.11s-1.52,2.06-3.63,4.55c-3.06,3.61-7.33,8.12-9.95,8.57a59.85,59.85,0,0,1-14.85.51c-3.8-.31-8-.47-11.91-1.1a32.75,32.75,0,0,1-3.36-.69,14.51,14.51,0,0,1,1.4-2.94l.45-.83c.3-.53.53-.92.6-1l.11-.15c2.32-3.15,5.6-6,9-6.89C228.55,170.6,253.81,168.31,258.76,171.11Z"></path><path fill="#ffc09e" d="M218.42,183.64a32.75,32.75,0,0,1-3.36-.69,14.51,14.51,0,0,1,1.4-2.94l.45-.83A9,9,0,0,0,218.42,183.64Z"></path><g class="cls-path-cs4-male-9R show"><ellipse fill="#7d4426" stroke="#000" stroke-miterlimit="10" cx="236.8" cy="175.44" rx="9.4" ry="8.24" transform="translate(-7.29 10.29) rotate(-2.45)" class="canChange" style="fill:null"></ellipse><ellipse cx="236.75" cy="174.61" rx="6.57" ry="5.76" transform="translate(-7.25 10.29) rotate(-2.45)"></ellipse></g><path opacity="0.4" d="M258.76,171.11s-1.52,2.06-3.63,4.55c-15.39-2.8-30.68,1.45-38.67,4.35.49-.91.94-1.71,1-1.86l.11-.15c2.32-3.15,5.6-6,9-6.89C228.55,170.6,253.81,168.31,258.76,171.11Z"></path><ellipse fill="#fff" cx="232.25" cy="174.38" rx="2.24" ry="1.96" transform="matrix(1, -0.04, 0.04, 1, -7.25, 10.1)"></ellipse><path fill="#72004d" opacity="0.32" d="M177.84,161.79a36,36,0,0,1,7.23,7.84c1.86,2.67,4.33,5.89,3.52,9.22-.65,2.61-2.94,4.69-5.3,6.13,0,0-1.34-4-2.8-4.92s-14.06-6.52-16.9-5.18c0,0,8-6.91,2.92-8.71,0,0,9.32-.62-3.47-5.47.37.14,2.53-.86,3-1a16.85,16.85,0,0,1,6.89-.28A11.21,11.21,0,0,1,177.84,161.79Z" class="cls-overlay"></path><g opacity="0.32" class="cls-overlay show"><path fill="#72004d" d="M181.47,177.22l-.81-1.13a8.27,8.27,0,0,0-.85-1.1,18.91,18.91,0,0,0-1.93-2,21.12,21.12,0,0,0-2.11-1.78l-1.11-.82c-.38-.26-.78-.49-1.17-.73a36.06,36.06,0,0,0-10.09-4.32,32.59,32.59,0,0,0-10.9-1.07A25.42,25.42,0,0,0,142,167.38a23.16,23.16,0,0,1,10.48-3.66,31.75,31.75,0,0,1,11.15.93,34.72,34.72,0,0,1,10.21,4.56A23,23,0,0,1,181.47,177.22Z"></path></g><path fill="#72004d" opacity="0.32" d="M151,188.12s4.26,2.75,11.72,1.83" class="cls-overlay"></path><path d="M160.31,185.42s-8.12.81-10.61-.95-8-11.94-9.83-12.53c0,0,6.09-2.8,15.51-2.36s18.17-.7,22.93,4.95"></path><path fill="#f0e1ef" d="M141.24,172s1.52,2.06,3.63,4.55c3.06,3.6,7.33,8.12,9.95,8.57a59.37,59.37,0,0,0,14.85.5c3.8-.3,8-.46,11.91-1.09q1.72-.27,3.36-.69a14.51,14.51,0,0,0-1.4-2.94l-.45-.83c-.3-.53-.53-.93-.6-1l-.11-.15c-2.32-3.15-5.6-6-9-6.89C171.45,171.48,146.19,169.18,141.24,172Z"></path><path fill="#ffc09e" d="M181.58,184.52q1.72-.27,3.36-.69a14.51,14.51,0,0,0-1.4-2.94l-.45-.83A9,9,0,0,1,181.58,184.52Z"></path><g class="cls-path-cs4-male-9L show"><ellipse fill="#7d4426" stroke="#000" stroke-miterlimit="10" cx="163.2" cy="176.32" rx="8.24" ry="9.4" transform="translate(-19.94 331.82) rotate(-87.55)" class="canChange" style="fill:null"></ellipse><ellipse cx="163.25" cy="175.48" rx="5.76" ry="6.57" transform="translate(-19.06 331.07) rotate(-87.55)"></ellipse></g><path opacity="0.4" d="M141.24,172s1.52,2.06,3.63,4.55c15.39-2.8,30.68,1.45,38.67,4.35-.49-.91-.94-1.71-1-1.86l-.11-.15c-2.32-3.15-5.6-6-9-6.89C171.45,171.48,146.19,169.18,141.24,172Z"></path><ellipse fill="#fff" cx="167.75" cy="175.25" rx="1.96" ry="2.24" transform="translate(-14.51 335.36) rotate(-87.55)"></ellipse><path fill="#852442" d="M176.87,250.8A93.83,93.83,0,0,0,187.24,249c16.17-3.51,25.34-5.59,31.13-7.92a30.54,30.54,0,0,0,10-7.1s-8.3,10.59-22,14.28C189.79,252.74,176.87,250.8,176.87,250.8Z"></path><path fill="#742637" d="M176.87,250.8A93.83,93.83,0,0,0,187.24,249c16.17-3.51,25.34-5.59,31.13-7.92a30.54,30.54,0,0,0,10-7.1s-8.3,10.59-22,14.28C189.79,252.74,176.87,250.8,176.87,250.8Z" class="canChange" style="fill:null"></path><path fill="#ba7070" d="M173.06,250.62s7,7.76,15.52,8.55,22.54-.79,30-7.36,9.47-16.42,9.47-16.42-7.58,8.7-22.84,13.19S173.06,250.62,173.06,250.62Z" class="canChange" style="fill:null"></path><path fill="#430128" d="M170.14,250.14s15.42,3.19,31.4,0,27-15.29,27-15.29l1.28.54-1.45-4.75V234a53.12,53.12,0,0,1-27.3,15.36C186.48,252.6,170.14,250.14,170.14,250.14Z"></path><path fill="#ffd9d9" d="M214.25,254.75l-4.32-6.54s9-3.79,13.41-7.68l2.82.57S222.61,250.71,214.25,254.75Z" class="cls-softlight"></path><path fill="#b86e51" opacity="0.5" d="M214.25,254.75s9.85-11,11.91-13.65C226.16,241.1,224.28,249.61,214.25,254.75Z" class="cls-multipy"></path><path fill="#573631" stroke="#000" stroke-miterlimit="10" d="M199.71,233.32c1.34-.34,2.48-.95,3.57-.86,7.88.64,15.78,1.34,23.34,3.74s13.91,6.78,20,11.67a12.82,12.82,0,0,1,1.38,1.55l-.17.39a9.12,9.12,0,0,1-2.28,0c-3.34-.86-6.72-1.61-9.95-2.78a83.19,83.19,0,0,0-24.4-4.87c-2.72-.14-5.45-.44-8.14-.83a14.44,14.44,0,0,1-3-1.13,17.7,17.7,0,0,1-3.6,1.2c-4.89.56-9.81,1-14.72,1.4-5.89.47-11.41,2.38-17,4.14-3.33,1.05-6.71,2-10.08,2.84a11.65,11.65,0,0,1-2.44.15l-.22-.49a21,21,0,0,1,1.91-2c9-7.12,18.68-12.5,30.35-13.58,3.86-.35,7.7-1,11.55-1.41C197.34,232.27,198.81,232.39,199.71,233.32Z" class="canChange" style="fill:null"></path><path fill="#CCC9BA" stroke="#000" stroke-miterlimit="10" stroke-width="2" d="M301.3,340.3c-7,8.2-18.1,14.4-30.2,19c-28.1,10.6-61.5,12.8-61.5,12.8s0-0.3,0-0.8c0.1-1.2,0.3-3.9,1.3-8.1    c0.8-3.9,19.6-22.1,32.9-34.8c4.2-4,7.9-7.4,10.3-9.7c1.8-1.7,2.9-2.7,2.9-2.7l1-10.6l0.3-3.7C279,302.5,301.3,340.3,301.3,340.3z    "></path><path d="M262,310.6c-1.1,3.4-8,8.1-8,8.1c1.8-1.7,2.9-2.7,2.9-2.7l1-10.6C260.3,306.9,262.6,308.9,262,310.6z"></path><path fill="none" stroke="#000" stroke-miterlimit="10" stroke-width="2" d="M213.3,360.2c0.9,0.7,1.7,1.5,2.4,2.3c1,1.1,2,2.2,2.8,3.4c0.8,1.3,1.3,2.7,1.3,4.2c0-0.1,0-0.1-0.1-0.2"></path><path fill="none" stroke="#000" stroke-miterlimit="10" stroke-width="2" d="M217.3,355c1.2,1.4,2.5,2.8,3.7,4.2c2.6,3,5.4,6.2,5.9,10.1"></path><path fill="none" stroke="#000" stroke-miterlimit="10" stroke-width="2" d="M221.8,350.5c2.7,2.5,5.3,5.1,7.5,8.1s3.9,6.4,4.6,10"></path><path fill="none" stroke="#000" stroke-miterlimit="10" stroke-width="2" d="M227.5,345.3c6.7,5.6,12,12.9,15,21.1"></path><path fill="none" stroke="#000" stroke-miterlimit="10" stroke-width="2" d="M231.8,340.7c3.7,2.8,6.7,6.5,9.7,10.1c2.5,3.1,5,6.2,6.6,9.8c0.7,1.5,1.2,3.2,2.1,4.6"></path><path fill="none" stroke="#000" stroke-miterlimit="10" stroke-width="2" d="M237.7,335.8c7.8,5.7,14.3,13.1,18.9,21.5c0.5,1,1,1.9,1.4,3c0.3,0.9,0.5,1.9,0.7,2.9"></path><path fill="none" stroke="#000" stroke-miterlimit="10" stroke-width="2" d="M242.4,330.2c4.4,4.1,8.4,8.6,11.9,13.5c2.4,3.3,4.6,6.8,6.9,10.1c1.6,2.3,3.4,4.6,3.8,7.4"></path><path fill="none" stroke="#000" stroke-miterlimit="10" stroke-width="2" d="M247.7,325.9c2.5,1.9,5,3.9,7.5,5.8c2.5,2,5,4.1,7.2,6.4c2.8,3,5.1,6.6,7.3,10c0.6,0.9,1.2,1.9,1.6,2.9    c0.3,0.8,0.5,1.6,0.7,2.3c0.5,1.8,0.9,3.6,1.4,5.4"></path><path fill="#A3D8D6" stroke="#000" stroke-miterlimit="10" stroke-width="2" d="M398.2,400l-199.3,0l-0.4-28c0,0,6.9-0.2,11-0.8c10.9-1.5,34-5.2,55.1-11.9c14.8-4.7,28.6-11,36.7-19    c0,0,63.3,17.2,69.4,22.9c0,0,9.8,6.1,15.2,14.8C391.2,386.8,398.2,400,398.2,400z" class="canChange" style="fill:null"></path><path fill="none" stroke="#000" stroke-miterlimit="10" stroke-width="2" d="M253.1,320.8c9.4,5.4,17.4,13.4,22.8,22.9c0.8,1.5,1.6,3,2,4.6c0.6,2.2,0.4,4.6,1.1,6.8"></path><path fill="none" stroke="#000" stroke-miterlimit="10" stroke-width="2" d="M258.1,315.4c2.7,2.4,5.4,5,8,7.6c5.9,6,11.3,12.3,16.6,18.7c0.9,1,1.7,2.1,2.3,3.3c0.9,1.9,1.1,4.2,1.2,6.3"></path><path fill="none" stroke="#000" stroke-miterlimit="10" stroke-width="2" d="M262.3,310.6c7.8,7.8,16.2,14.8,25.2,21.1c1.1,0.8,2.3,1.6,3.1,2.6c0.8,0.9,1.4,2.1,1.8,3.2    c1,2.7,1.5,5.7,1.2,8.6"></path><path opacity="0.29" d="M398.2,400h-46.8c-6.4-36.4-61.5-40.4-80.5-40.7c-3.8-0.1-6.1,0-6.4,0c0,0,0,0,0,0    c11.9-19.7-20.9-30.9-20.9-30.9c4.2-4,7.9-7.4,10.3-9.7c1.8-1.7,2.9-2.7,2.9-2.7l1-10.6l0.3-3.7c20.8,0.8,43.1,38.6,43.1,38.6    s63.3,17.2,69.4,22.9c0,0,9.8,6.1,15.2,14.8C391.2,386.8,398.2,400,398.2,400z"></path><path fill="#CCC9BA" stroke="#000" stroke-miterlimit="10" stroke-width="2" d="M98.6,340.3c7.2,8.2,18.7,14.4,31.1,19c28.9,10.6,63.4,12.8,63.4,12.8s0-0.3,0-0.8c-0.1-1.2-0.4-3.9-1.3-8.1    c-0.9-3.9-20.2-22.1-33.9-34.8c-4.4-4-8.1-7.4-10.6-9.7c-1.9-1.7-3-2.7-3-2.7l-1-10.6l-0.4-3.7C121.6,302.5,98.6,340.3,98.6,340.3    z"></path><path d="M139.1,310.6c1.2,3.4,8.2,8.1,8.2,8.1c-1.9-1.7-3-2.7-3-2.7l-1-10.6C140.8,306.9,138.5,308.9,139.1,310.6z"></path><path fill="none" stroke="#000" stroke-miterlimit="10" stroke-width="2" d="M189.2,360.2c-0.9,0.7-1.7,1.5-2.5,2.3c-1,1.1-2,2.2-2.8,3.4s-1.3,2.7-1.3,4.2c0-0.1,0-0.1,0.1-0.2"></path><path fill="none" stroke="#000" stroke-miterlimit="10" stroke-width="2" d="M185.1,355c-1.3,1.4-2.6,2.8-3.9,4.2c-2.7,3-5.6,6.2-6.1,10.1"></path><path fill="none" stroke="#000" stroke-miterlimit="10" stroke-width="2" d="M180.4,350.5c-2.8,2.5-5.5,5.1-7.7,8.1s-4,6.4-4.7,10"></path><path fill="none" stroke="#000" stroke-miterlimit="10" stroke-width="2" d="M174.6,345.3c-6.9,5.6-12.3,12.9-15.5,21.1"></path><path fill="none" stroke="#000" stroke-miterlimit="10" stroke-width="2" d="M170.1,340.7c-3.8,2.8-6.9,6.5-9.9,10.1c-2.6,3.1-5.1,6.2-6.8,9.8c-0.7,1.5-1.2,3.2-2.1,4.6"></path><path fill="none" stroke="#000" stroke-miterlimit="10" stroke-width="2" d="M164.1,335.8c-8,5.7-14.7,13.1-19.5,21.5c-0.5,1-1.1,1.9-1.4,3c-0.3,0.9-0.5,1.9-0.7,2.9"></path><path fill="none" stroke="#000" stroke-miterlimit="10" stroke-width="2" d="M159.2,330.2c-4.5,4.1-8.6,8.6-12.3,13.5c-2.5,3.3-4.7,6.8-7.1,10.1c-1.7,2.3-3.5,4.6-3.9,7.4"></path><path fill="none" stroke="#000" stroke-miterlimit="10" stroke-width="2" d="M153.8,325.9c-2.6,1.9-5.2,3.9-7.7,5.8c-2.6,2-5.1,4.1-7.4,6.4c-2.9,3-5.2,6.6-7.5,10    c-0.6,0.9-1.3,1.9-1.7,2.9c-0.3,0.8-0.5,1.6-0.8,2.3c-0.5,1.8-1,3.6-1.5,5.4"></path><path fill="#A3D8D6" stroke="#000" stroke-miterlimit="10" stroke-width="2" d="M-1.2,400l205.3,0l0.4-28c0,0-7.1-0.2-11.3-0.8c-11.2-1.5-35-5.2-56.7-11.9c-15.2-4.7-29.4-11-37.7-19    c0,0-65.2,17.2-71.4,22.9c0,0-10.1,6.1-15.6,14.8C6,386.8-1.2,400-1.2,400z" class="canChange" style="fill:null"></path><path fill="none" stroke="#000" stroke-miterlimit="10" stroke-width="2" d="M148.2,320.8c-9.7,5.4-17.9,13.4-23.4,22.9c-0.8,1.5-1.6,3-2.1,4.6c-0.6,2.2-0.4,4.6-1.2,6.8"></path><path fill="none" stroke="#000" stroke-miterlimit="10" stroke-width="2" d="M143.1,315.4c-2.8,2.4-5.5,5-8.2,7.6c-6,6-11.6,12.3-17.1,18.7c-0.9,1-1.8,2.1-2.4,3.3    c-1,1.9-1.1,4.2-1.2,6.3"></path><path fill="none" stroke="#000" stroke-miterlimit="10" stroke-width="2" d="M138.7,310.6c-8,7.8-16.7,14.8-26,21.1c-1.2,0.8-2.3,1.6-3.2,2.6c-0.8,0.9-1.4,2.1-1.8,3.2    c-1.1,2.7-1.5,5.7-1.3,8.6"></path><path opacity="0.29" d="M-1.2,400h48.2c6.6-36.4,63.3-40.4,82.9-40.7c3.9-0.1,6.3,0,6.6,0c0,0,0,0,0,0    c-12.2-19.7,21.5-30.9,21.5-30.9c-4.4-4-8.1-7.4-10.6-9.7c-1.9-1.7-3-2.7-3-2.7l-1-10.6l-0.4-3.7c-21.4,0.8-44.3,38.6-44.3,38.6    s-65.2,17.2-71.4,22.9c0,0-10.1,6.1-15.6,14.8C6,386.8-1.2,400-1.2,400z"></path><g opacity="0.38" class="show"><path d="M220,217a56.19,56.19,0,0,0-7.95,3.46,26.36,26.36,0,0,0-3.64,2.31,13.64,13.64,0,0,0-3,3v0a5.09,5.09,0,0,1-2.38,1.82,8.09,8.09,0,0,1-2.87.52,7.89,7.89,0,0,1-2.88-.52,5.09,5.09,0,0,1-2.38-1.82v0a13.64,13.64,0,0,0-3-3,26.36,26.36,0,0,0-3.64-2.31,56.19,56.19,0,0,0-7.95-3.46c1.41.36,2.79.82,4.16,1.31a37.28,37.28,0,0,1,4,1.73,25.72,25.72,0,0,1,3.79,2.22,14,14,0,0,1,3.2,3.08l0,0a4.49,4.49,0,0,0,2,1.49,7.44,7.44,0,0,0,2.62.44,7.2,7.2,0,0,0,2.61-.44,4.42,4.42,0,0,0,2-1.49l0,0a14.15,14.15,0,0,1,3.2-3.08,26.25,26.25,0,0,1,3.79-2.22,34.7,34.7,0,0,1,4-1.72A42.58,42.58,0,0,1,220,217Z"></path></g><g opacity="0.38" class="show"><path d="M177.86,209.56a41,41,0,0,0-2.47,4.49,17.24,17.24,0,0,0-.86,2.37,5,5,0,0,0-.11,2.35,3.46,3.46,0,0,0,1.38,1.81,10.93,10.93,0,0,0,2.16,1.24,21.32,21.32,0,0,0,2.39.89c.81.27,1.63.49,2.47.71a19,19,0,0,1-5.08-1.07,9.38,9.38,0,0,1-2.36-1.2A4.17,4.17,0,0,1,173.7,219c-.41-1.93.41-3.63,1.18-5.16A21.72,21.72,0,0,1,177.86,209.56Z"></path></g><g opacity="0.38" class="show"><path d="M222.31,208.49a22.84,22.84,0,0,1,3,4.24c.76,1.53,1.58,3.24,1.17,5.17a4.12,4.12,0,0,1-1.68,2.19,9.19,9.19,0,0,1-2.36,1.19,18.65,18.65,0,0,1-5.08,1.07c.84-.21,1.67-.43,2.48-.71a20,20,0,0,0,2.38-.89,10.89,10.89,0,0,0,2.16-1.23,3.48,3.48,0,0,0,1.38-1.82,4.73,4.73,0,0,0-.11-2.35,17.61,17.61,0,0,0-.86-2.36A42.06,42.06,0,0,0,222.31,208.49Z"></path></g><path fill="#72004d" opacity="0.17" d="M210.11,171.18s-5,4.27-1.24,9.6l2.48,3.19S206.39,177.58,210.11,171.18Z" class="canChange cls-overlay" style="fill:null"></path><path fill="#72004d" opacity="0.17" d="M185.3,168s7.44,4.27,7.44,11.73S185.3,200,185.3,200s5-13.86,3.72-21.33S185.3,168,185.3,168Z" class="canChange cls-overlay" style="fill:null"></path><path fill="#72004d" opacity="0.17" d="M174,217s7.55-2.13,12.51,1.07,9.92,6.4,14.89,5.33,19.22-10.13,24.8-6.93c1.17.67-3.11,6.45-3.51,6.92a31.43,31.43,0,0,1-8.19,6.55c-11.21,6.52-21.09,4.41-31.8-1.52a23.38,23.38,0,0,1-6.72-5.07C175.53,222.79,172.4,217.48,174,217Z" class="canChange cls-overlay" style="fill:null"></path></svg>