<svg xmlns='http://www.w3.org/2000/svg' width='400' height='400'>
      <defs><style>.cls-path-cs4-male-9R{clip-path:url(#clip-path-cs4-male-9R)}.cls-path-cs4-male-9L{clip-path:url(#clip-path-cs4-male-9L)}.cls-multipy{mix-blend-mode: multiply;}.cls-softlight{mix-blend-mode: soft-light;}.cls-overlay{mix-blend-mode: overlay;}.cls-colorburn{mix-blend-mode: color-burn;}.cls-screen{mix-blend-mode: screen;}.cls-lighten{ mix-blend-mode: darken;}</style>
      <clipPath id="clip-path-cs4-male-9R"><path fill="#none" d="M258.76,171.11s-1.52,2.06-3.63,4.55c-3.06,3.61-7.33,8.12-9.95,8.57a59.85,59.85,0,0,1-14.85.51c-3.8-.31-8-.47-11.91-1.1a32.75,32.75,0,0,1-3.36-.69,14.51,14.51,0,0,1,1.4-2.94l.45-.83c.3-.53.53-.92.6-1l.11-.15c2.32-3.15,5.6-6,9-6.89C228.55,170.6,253.81,168.31,258.76,171.11Z"></path></clipPath><clipPath id="clip-path-cs4-male-9L"><path fill="#none" d="M141.24,172s1.52,2.06,3.63,4.55c3.06,3.6,7.33,8.12,9.95,8.57a59.37,59.37,0,0,0,14.85.5c3.8-.3,8-.46,11.91-1.09q1.72-.27,3.36-.69a14.51,14.51,0,0,0-1.4-2.94l-.45-.83c-.3-.53-.53-.93-.6-1l-.11-.15c-2.32-3.15-5.6-6-9-6.89C171.45,171.48,146.19,169.18,141.24,172Z"></path></clipPath></defs><path fill="#ffd7cf" stroke="#000" stroke-miterlimit="10" d="M143.85,323.53C135,341.05,73.75,364,45.75,371s-46,29-46,29h400.5s-18-22-46-29-89.21-29.95-98.1-47.47" class="canChange" style="fill:null"></path><path fill="#ffd7cf" stroke="#000" stroke-miterlimit="10" d="M256.75,334.5c-1.71-10.27-.32-21.32.67-31.59,1.12-11.72,2.89-23.37,4.08-35.09A345.78,345.78,0,0,0,262.75,233h-129c1,8.5,1.81,17.05,3,25.52,2,13.87,4.1,27.72,5.53,41.66,1.14,11.13,2.8,23.19.94,34.32" class="canChange" style="fill:null"></path><path fill="#59003c" opacity="0.5" d="M262.75,233a345.78,345.78,0,0,1-1.25,34.82c-1.19,11.72-3,23.37-4.08,35.09-.54,5.65-1.21,11.52-1.41,17.38-.11,1.1-.24,2.18-.36,3.24-.45,3.93-1,7.58-1.55,11-6.77,39.79-21,42.79-24.6,13a129.83,129.83,0,0,0-2.18-13,61.56,61.56,0,0,0-3.48-11c-5.6-12.73-14.62-16-28.34-16-11.26,0-19.34,8.55-24.27,16a60.65,60.65,0,0,0-5.73,11s-.2-4.71-.52-11c-.38-7.59-.93-17.46-1.48-24-.74-8.86-14.56-6.27-21.74-4.32-1.39-12.26-3.24-24.45-5-36.66-1.21-8.38-2-16.84-3-25.25l2.41-.27Z" class="cls-overlay"></path><polyline fill="#ffd7cf" points="113.68 157.76 112.61 178.01 127.53 223.71 273.53 222.77 287.39 173.75 284.19 160.96 250.09 93.82 208.99 49.08 192.09 49.08" class="canChange" style="fill:null"></polyline><path fill="#ffd7cf" stroke="#000" stroke-miterlimit="10" d="M202.14,49.06s55.41-3.19,75.66,36.24,9.59,87.38,9.59,87.38" class="canChange" style="fill:null"></path><path fill="#ffd7cf" stroke="#000" stroke-miterlimit="10" d="M282.15,180.08s3.19-12.75,13.77-6.72c7.09,4,5.4,16.52,4.34,23.06-1.38,8.48-3.5,17.86-9.6,24.29-3.55,3.74-16.92,12-18.19,2.06" class="canChange" style="fill:null"></path><path fill="#ffd7cf" stroke="#000" stroke-miterlimit="10" d="M294.52,178.94s-16,7-13.45,18.66,6.28,10,5.09,14.82" class="canChange" style="fill:null"></path><path fill="#ffd7cf" stroke="#000" stroke-miterlimit="10" d="M293.48,200.7s6.34-17.21-4.86-18.24" class="canChange" style="fill:null"></path><path fill="#ffd7cf" stroke="#000" stroke-miterlimit="10" d="M117.85,180.08s-3.19-12.75-13.77-6.72c-7.09,4-5.4,16.52-4.34,23.06,1.38,8.48,3.5,17.86,9.6,24.29,3.55,3.74,16.92,12,18.19,2.06" class="canChange" style="fill:null"></path><path fill="#ffd7cf" stroke="#000" stroke-miterlimit="10" d="M105.48,178.94s16,7,13.45,18.66-6.28,10-5.09,14.82" class="canChange" style="fill:null"></path><path fill="#ffd7cf" stroke="#000" stroke-miterlimit="10" d="M106.52,200.7s-6.34-17.21,4.86-18.24" class="canChange" style="fill:null"></path><path fill="#ffd7cf" stroke="#000" stroke-miterlimit="10" d="M198.4,49.06h-.23s-55.42-3.19-75.66,36.24-9.59,87.38-9.59,87.38" class="canChange" style="fill:null"></path><path fill="#59003c" opacity="0.5" d="M300.26,196.42c-1.39,8.48-3.51,17.86-9.6,24.29-3.55,3.73-16.91,12-18.18,2.07l-11.11.07c.38-15.56,16.22-32.42,14.29-48.57-1.09-9.17-18.6-22.07-21.31-24.51a125.6,125.6,0,0,0,5.86-16.51,100.71,100.71,0,0,0,2.9-13.81c2.13-16.15-.7-33.3-21-36.28l-1.5.31c-2.23.46-6.84,1.35-13.15,2.26-13.27,1.91-34,3.93-55.94,2.22-2.31-.18-4.64-.39-7-.67-4.33-.49-8.68-1.15-13-2,0,0-14.37,15-12.14,36.84a48,48,0,0,0,2,9.44,58.07,58.07,0,0,0,7,14.46s-31.43,14.39-24,42.1c2.72,10.13,20.32,30,16.54,35.48l-13.36.09-.09-.3c-1.75,9-14.61,1-18.09-2.7-6.09-6.43-8.21-15.81-9.6-24.29-1.07-6.54-2.75-19,4.35-23.07,3.85-2.18,6.71-1.89,8.8-.63v-.09c-.38-1.76-10.26-48.65,9.6-87.33,20.25-39.43,75.67-36.24,75.67-36.24h4s2.58-.15,6.83,0h0c15.46.6,52.94,5.31,68.82,36.23,19.59,38.16,10.24,84.31,9.62,87.23,2.06-1.09,4.83-1.25,8.48.82C303,177.4,301.33,189.88,300.26,196.42Z" class="cls-overlay"></path><path fill="#fff" opacity="0.26" d="M284.29,214.19a3.28,3.28,0,0,0-2.07-2.37,4.42,4.42,0,0,0-3.2.1,2.81,2.81,0,0,0-1.78,1.73c-.24.93.25,1.88.4,2.83s0,2,.6,2.76a2.3,2.3,0,0,0,3,0C282.56,218.31,284.62,216,284.29,214.19Z" class="cls-softlight"></path><path fill="#fff" opacity="0.26" d="M115.23,214.19a3.27,3.27,0,0,1,2.06-2.37,4.45,4.45,0,0,1,3.21.1,2.8,2.8,0,0,1,1.77,1.73c.24.93-.25,1.88-.39,2.83s0,2-.61,2.76a2.28,2.28,0,0,1-3,0C117,218.31,114.9,216,115.23,214.19Z" class="cls-softlight"></path><path fill="#fff" opacity="0.26" d="M110.48,184.94s-4.26,7.46-1.06,19.18c0,0-5.11-7.27-4.69-11.1s.69-10,3.76-9.58S110.48,184.94,110.48,184.94Z" class="cls-softlight"></path><path fill="#fff" opacity="0.26" d="M289.25,184.94s4.27,7.46,1.07,19.18c0,0,5.1-7.27,4.68-11.1s-.69-10-3.75-9.58S289.25,184.94,289.25,184.94Z" class="cls-softlight"></path><path fill="#ffd7cf" stroke="#000" stroke-miterlimit="10" d="M277.42,177.46S265.63,279.34,258,287s-58.17,9.95-58.17,9.95-50.51-2.31-58.17-9.95-19.45-109.51-19.45-109.51" class="canChange" style="fill:null"></path><path fill="#59003c" opacity="0.5" d="M152,277.92A44.78,44.78,0,0,1,147,289.81a13.27,13.27,0,0,1-4.5-2.55c-6.58-6.56-16.2-82.63-18.79-104,3.23,2.33,6.88,6.38,10.68,13.21C146.92,218.93,155.63,262.59,152,277.92Z" class="cls-overlay"></path><path fill="#59003c" opacity="0.5" d="M277.82,182c-2.34,19.38-12.23,98.56-18.95,105.26a16,16,0,0,1-6,3.09,45.21,45.21,0,0,1-5.25-12.43c-3.67-15.33,5-59,17.54-81.42C269.74,188.21,274.12,184,277.82,182Z" class="cls-overlay"></path><path fill="#fff" opacity="0" d="M194.24,226.47c-24.46,0-47.38-3.19-67.12-8.75,4.1,29.41,9.86,64.87,14.26,69.26a13.27,13.27,0,0,0,4.5,2.55c14.64,5.61,53.67,7.39,53.67,7.39s16.32-.74,31.81-2.79a7.54,7.54,0,0,1,1.18-.71,5.09,5.09,0,0,1,4.1-.05,101.42,101.42,0,0,0,15-3.3,16,16,0,0,0,6-3.09c4.58-4.56,10.63-42.76,14.76-72.77C250.47,221.92,223.45,226.47,194.24,226.47ZM211.3,283.9c-6.61,1.1-4.41-18.77-4.41-18.77l-17.61,1.1s2.21,19.88-4.41,18.77-32-28.71-30.87-43.07c0,0-1.1-5.52,43-2.21l2.17-1.1c44.11-3.31,43,2.21,43,2.21C243.28,255.19,217.92,282.79,211.3,283.9Z" class="cls-multipy"></path><path fill="#371A15" stroke="#000" stroke-miterlimit="10" stroke-width="2" d="M300.1,100.6c-0.8-0.7-2-0.5-3-0.2c-0.8,0.2-1.8,0.6-1.9,1.5c0.6,0.7,1,1.5,1,2.4c-0.1,0.5-0.2,0.9-0.4,1.3    c-0.2,0.5-0.4,1.1-0.6,1.6c-1,3.2-1.2,6.7-1.3,10c-0.2,4.2-0.3,8.3-0.3,12.5c0,0.9,0,1.8-0.1,2.7c-0.2,1.1-0.6,2.1-0.8,3.1    c-0.3,1.1-0.4,2.3-0.4,3.4c0,0.9-0.4,1.6-0.4,2.5c0,0.7,0.1,1.4,0.2,2c0.3,1.5,0.8,3.2,0.3,4.7c-0.1,0.4-0.4,0.8-0.5,1.3    c-0.2,0.8-0.4,1.6-0.4,2.4c-0.2,2.7,0.9,5.3,0,7.8c-0.4,1.2-0.4,2.5,0.1,3.7c0.2,0.4,0.4,0.9,0.5,1.4c0.1,1.1-0.7,2-0.9,3    c-0.1,0.6-0.1,1.2-0.1,1.7c0,1.2-0.3,2.3-0.9,3.3c0,0.2-0.4,0.2-0.6,0.2c-1-0.1-1.9,0.7-2,1.7v0c-1.2,0-2.4,0.4-3.3,1.3    c-0.9,0.8-1.3,1.9-1.3,3.1c-0.9,0.8-1.5,1.8-1.7,3c-0.2,1.3-0.2,2.5-0.1,3.8c0,4.7-2.2,9.2-4.3,13.4c-0.1,0.1-0.2,0.3-0.3,0.3    c-0.1,0-0.1,0-0.2-0.1c-0.8-0.5-0.9-1.7-0.8-2.6l0.1-4.2c0.1-3.1,0.2-6.2,0.5-9.2s1.3-6.2,1.2-9.2c0-1.8-0.1-3.6-0.2-5.4    c0-0.6-0.1-1.1-0.3-1.7c-0.3-0.6-0.7-1.1-1.2-1.6c-1.2-1.2-2.5-2.5-4.2-2.6c-0.1-0.6-0.4-1.2-0.9-1.5c-0.5-0.4-1-0.7-1.5-1.1    c-1-1-1.7-2.3-1.9-3.7c-0.9-3.9-1.3-8-1.1-12c0-1.5-0.4-3.7,0.6-4.8c1.2-1.1,1.8-2.8,1.5-4.5c-0.3-1.3-0.8-2.5-1.4-3.7    c-1-2-1.3-4.6-2.3-6.6c-1.8-3.6-4.7-6.5-8.3-8.4c1.3,0.4,2.5,0.7,3.8,1c-0.3-0.7-0.9-1.3-1.6-1.7c-1.3-0.9-2.7-1.6-4-2.5    c-3.6-2.5-7.4-4.5-11.5-6.1c1.2,0.3,2.5,0.4,3.7,0.2c-0.2-0.3-0.5-0.5-0.8-0.6c-0.2-0.1-0.4-0.1-0.6-0.1c-2.4-0.4-4.9-0.6-7.3-0.5    c0-0.1,0.4-0.6,0.4-0.7c-2.9,0.1-5.4,2.7-8.3,2.2c-0.2-0.3,0.2-0.7,0.6-0.8l3.7-1.6c-0.4-0.2-0.8-0.2-1.2,0.1    c-1.8,0.8-3.5,1.8-5.3,2.5c-1.8,0.8-3.8,0.8-5.7,0.2c-0.2,0-0.3-0.1-0.4-0.2c-0.1-0.2-0.1-0.5,0-0.7c0.3-0.7,0.6-1.3,1-1.9    c-1.1,0.4-2.1,0.9-3,1.6c1.6-2.1,3.4-4.1,5.4-5.9c-3,1.1-6,2.3-8.4,4.4c0.7-1,1-2.2,0.9-3.5l-0.6-0.2c0.1,0.1-0.1,0.3-0.2,0.3    c-3,1.7-6.2,3-9.5,3.9c-1.3,0.2-2.5,0.7-3.5,1.5c0-0.7,0.2-1.4,0.6-2.1c-1,0.5-1.9,1.3-2.7,2.2c0.2-0.8,0.4-1.5,0.8-2.2    c-1.7,1-3.2,2.2-4.5,3.7c-2.9,0.7-5.6,2-8,3.9c-0.9,0.7-1.7,1.4-2.6,2.1c-1.2,1-2.5,1.8-3.9,2.5c-0.8,0.5-1.8,0.8-2.7,0.9    c-1,0-1.8-0.5-2.4-1.3c-2.4,2.7-6,4.1-9.6,3.8c-0.1,0-0.3,0-0.4-0.1c-0.3-0.2-0.2-0.7-0.3-1c-0.2-0.7-0.8-1.2-1.5-1.2    c-0.7,0.1-1.3,0.4-1.8,0.9c0-1.1,0-2.2,0.1-3.4c-0.1,0-0.1-0.1-0.1-0.1c-0.1-0.1-0.3-0.2-0.5-0.2c-1.4-0.1-2.8,0.2-3.9,1    c0.1-0.4,0.1-0.6,0.2-1.1c-3-1.5-6.6-1.4-9.6,0.2c0,0,0,0,0,0c0,0,0,0,0.1-0.1c0.5-0.7,1.2-1.3,1.8-1.9c-0.4-0.1-0.9-0.2-1.3-0.2    c-2.5-0.3-5.1,0.7-6.8,2.7c0.4-0.7,0.8-1.3,1.5-1.8c-0.8-0.1-1.7-0.1-2.5,0c-1.2,2.9-3.1,5.4-4.8,8.1c-1.6,2.7-3.4,5.8-3,8.9    c-0.8,1.1-1.1,2.5-0.8,3.9c0.2,1.4,0.6,2.7,0.8,4c0.1,1.2,0,2.5-0.2,3.7l-1.5,12.6c-0.1,1.3-0.4,2.6-1,3.8    c-0.6,0.9-1.3,1.7-2.1,2.4c-1.8,1.7-4.3,3.9-4.9,6.3c-0.8,3.2-0.7,6.6,0.3,9.8c0.5,1.5,1.1,2.9,1.5,4.4c1.2,5.5-1.5,10.8-1.5,16.4    c-1.4-4.8-3.2-9.5-5.4-14c-2.2-4.5-5.4-8.5-9.4-11.6c-0.8-0.6-1.4-0.8-2.2-1.3c1-2.2,0.4-4.8,0-7.3c-0.4-3.1-0.6-6.2-0.6-9.3    l-0.8-40.9l0-2L107,113c-1.7,0.5-3.4,0.6-5.1,0.4c-1.6-0.3-3-1.1-4.2-2.1c-1.2-1-2.2-2.3-2.7-3.8c-0.3-1-0.3-2.1-0.7-3.1    c-0.3-1-1-2.3-2.1-2.3c-0.9,0-1.5-1-1.9-1.8c-0.7-1.3-1.2-2.7-1.5-4.1c-0.2-1.1-0.2-2.2-0.2-3.3c0.1-3.4,0.7-7,2.8-9.8    c0.7-0.7,1.3-1.6,1.6-2.6c0.2,1,0.9,1.5,1.7,2.2l0.6,0.6c-0.8-2-0.7-4.2,0.1-6.2c0.8-1.9,2-3.7,3.5-5.3c1.4-1.6,2.9-3.1,4.2-4.7    c0.7-0.8,1.2-1.7,1.5-2.7c0.4-1,0.3-2-0.1-3c0.2,0.5,0.7,0.8,1.2,0.8c0.9,0,1.8-0.3,2.5-0.9c2.5-1.5,5.2-3.1,8.2-3.5    c1.7-0.2,3.4-0.1,5.1,0.2l0.2-0.5c-0.2-1.2-0.3-2.5-0.3-3.8c0-1,0.1-2,0.4-2.9c0.3-1,1-1.8,1.8-2.3c0.2-0.1,0.4-0.2,0.6-0.4    c0.1-0.1,0.2-0.3,0.2-0.4c0.5-1.6,1.1-3.2,1.9-4.7c0.8-1.2,1.8-2.2,3-3.1c2.5-2,5.9-2.9,8.6-4.4c0.5-0.3,1.1-0.5,1.8-0.5    c-0.3-1.2-0.1-2.5,0.5-3.7c0.6-1.1,1.3-2.2,2.1-3.1c0.9-1.2,2-2.3,3.1-3.3c1.3-1.1,2.8-2,4.3-2.8c3.2-1.8,6.6-3.5,9.9-5.1    c-0.2-1.2-0.1-2.5,0.2-3.8c0.3-0.8,0.7-1.5,1.1-2.1c1.4-2.3,3.2-4.4,5.3-6.1c2.1-1.7,4.8-2.6,7.5-2.6c-0.4,0.4-0.7,0.9-0.8,1.5    c-0.6,1.8-1.2,3.5-0.7,5.4l0.1,0.2c0.3-1.5,0.7-2.9,1.4-4.2c0.7-1.3,2-2.2,3.5-2.5c-0.2,1.7,0,3.3,0.4,4.9l0.6,2.8    c0.1,0.6,0.2,1.2,0.4,1.8c0.4,1.1,1,2.2,1.7,3.1l2.4,0.9c0.4,0.1,0.7,0.3,1,0.5c0.3,0.3,0.5,0.6,0.8,0.9c0.6,0.5,1.5,0.6,1.9,1.2    c0.2,0.3,0.2,0.7,0.5,0.9c0.2,0.2,0.5,0.2,0.7,0.3c2,0.3,3.9,0.3,5.9,0.1c0.3,0.1,0.7,0.2,1,0.2c3.5,0.2,6.9-0.2,10.2-1.2    c1.7-0.5,3.8-1.3,5.6-1c-0.8-0.6-1.8-0.8-2.8-0.6c0.8-1.8,2-3.3,3.5-4.5c1.7-1,3.6-1.4,5.5-1.3c1.9,0,3.8,0,5.7-0.2    c0.8,0.3,1.7,0.4,2.6,0.2c2.3,0,4.3,1.4,6.5,2c0.8,0.2,1.7,0.4,2.5,0.6c1.4,0.5,2.6,1.3,4.1,1.5c0.6,0.1,1.2,0,1.8,0.2    c0.8,0.1,1.5,0.5,2.2,0.9c0.8,0.4,1.7,0.7,2.6,0.8c1.1,0.4,2.1,0.9,2.9,1.6l4.2,3c1.7,1.2,3.8,2.4,4.8,4.3    c-0.3-0.9-0.4-1.8-0.2-2.7c0.5-4.7,2.5-9.1,5.7-12.5v1.7c0.4,7.5,5.5,13.4,10.3,19.2c0.4,0.5,1,0.9,1.5,1.2    c0.2,0.1,0.4,0.2,0.7,0.3c0.7,0.5,0.8,1.5,1.3,2.1c0.5,0.4,1.1,0.8,1.8,1c1.1,0.6,1.5,1.8,2.5,2.6c1.8,1.5,2.4,4.1,3.5,6.2    c0.5,0.9,1.1,1.8,1.6,2.7c1.5,3,2.2,6.3,2,9.6c-0.1,2.6,1.9,4.7,2.2,7.2c0-1.8,0.7-3.6,1.9-5c0,1.7,0.7,3.4,1.8,4.7    c1.1,1.3,2.2,2.7,3.1,4.1c0.6,1.1,1,2.3,1.3,3.6c1.3,5.4,0.9,11.3-1.9,16c-0.8,1.3-1.5,2.5-1.2,3.9l2.4,1.5c0.5,0.3,1,0.6,1.5,1    C299.5,96.9,300.2,98.7,300.1,100.6z" class="canChange" style="fill:null"></path><path fill="none" stroke="#000" stroke-miterlimit="10" d="M241.6,104.6c4.6-1.8,9.1-3.8,13.6-6c2.3-1,4.5-2.3,6.4-3.8c7.2-5.9,8.2-16.5,2.3-23.7     c-2.3-2.8-5.4-4.7-8.9-5.6c-2.9-0.6-5.8-0.8-8.7-0.6c-3.9,0.1-7.8,0.1-11.7,0.2"></path><path fill="none" stroke="#000" stroke-miterlimit="10" d="M179.6,31.6c11.1,9,25.5,12.7,39.6,14.7s28.5,2.5,42.3,5.9c3.5,0.8,6.8,2,10,3.6c5.9,3.2,10.8,9.2,10.5,15.9     c-0.2,2.9-1.1,5.7-2.5,8.2c-2.7,5.8-6.9,10.7-12.2,14.2"></path><path fill="none" stroke="#000" stroke-miterlimit="10" d="M156.8,31.8c-2,14.1,6.8,29,20,34.1c4.2,1.6,8.9,2.4,12.1,5.4c1.9,1.8,3.3,4.2,4,6.7     c1.6,5.5,0.6,11.4-1.6,16.7s-5.6,9.9-8.9,14.5l-4.4,6.1"></path><path fill="none" stroke="#000" stroke-miterlimit="10" d="M138,38.1c-0.5,3.6-2,7.1-2.1,10.8c-0.3,6.3,3.5,12.3,8.6,16.1c5.1,3.8,11.2,5.8,17.3,7.6     c4.8,1.4,10,2.8,13.2,6.7c4.2,5.1,3.6,12.8,0.5,18.6s-8.3,10.2-13.1,14.7"></path><path fill="none" stroke="#000" stroke-miterlimit="10" d="M124.7,61.5c-0.3,4-0.5,8.2,1.1,11.8c1.3,2.6,3.2,4.8,5.5,6.6c4,3.3,8.5,6,13.3,7.8     c6.2,2.3,13.7,3.9,16.8,9.8c2.4,4.6,0.2,11.3-4.8,12.6"></path><path fill="none" stroke="#000" stroke-miterlimit="10" d="M94.2,96.6c5.4,2.1,11.1,4.3,16.9,3.6c3.3-0.4,6.3-1.7,9.4-2.8c4.4-1.8,9-2.8,13.7-3c4.7,0,9.6,1.4,13,4.6     s5,8.5,3.3,12.9"></path><path fill="none" stroke="#000" stroke-miterlimit="10" d="M146.6,112.7c-2.2-8.7-11.1-13.9-19.8-11.7c-1.1,0.3-2.2,0.7-3.2,1.2c-5.8,2.9-9.8,9.1-16.1,10.5"></path><path fill="none" stroke="#000" stroke-miterlimit="10" d="M297.6,76c0.6,3.9,1.1,8-0.3,11.7c-1.1,2.8-3.1,5.1-5.7,6.6c-2.6,1.5-5.5,2.3-8.4,2.5     c-1.3,0.2-2.7-0.1-3.9-0.8"></path><path fill="none" stroke="#000" stroke-miterlimit="10" d="M296.7,101.7l-7.2-0.5c-0.8-0.1-1.7-0.1-2.5,0c-1.5,0.2-2.8,1-4.3,0.9"></path><path fill="none" stroke="#000" stroke-miterlimit="10" d="M215.6,103.1c3-4.2,6.1-8.7,7.1-13.8c1.3-7-1.7-14.3-6.5-19.5s-11.4-8.5-18-11.1c-4.1-1.6-8.3-2.9-12.1-5.2     s-7.1-5.7-8.2-9.9"></path><path fill="none" stroke="#000" stroke-miterlimit="10" d="M255.8,24.9c0.2,4.4,2.8,8.4,5.9,11.5s7,5.4,10.5,8c2.7,2,5.5,4.8,5.2,8.2"></path><path fill="none" stroke="#000" stroke-miterlimit="10" d="M207.6,19.4c2.1-0.4,4.1-1.3,6.2-1.9c10.2-2.7,21,0.9,27.5,9.1"></path><path fill="none" stroke="#000" stroke-miterlimit="10" d="M171.8,9.4c-0.8,6.5,1.6,12.9,6.4,17.3"></path><path fill="none" stroke="#000" stroke-miterlimit="10" d="M159.8,13l-0.4,5c-0.4,3-0.3,6,0.2,9c1,4.1,3.6,7.5,6.5,10.5"></path><path opacity="0.4" fill="#fff" d="M274.5,80.7c-1.4-1.5-2.8-3-4-4.6l-2.4,7.2c-1.3-1.1-2.5-2.4-3.4-3.9l-1.2,3.9l-3.8-3.4     c0.4,1.3,0.6,2.7,0.6,4.2l-4-3.7c1,1.3-0.1,3.2-1.6,3.7c-1.6,0.3-3.2,0-4.6-0.8c-2.5-1.2-4.8-2.8-6.8-4.7l-0.1,7.9     c-3.7-1.2-7.1-3.2-9.9-5.9c0.2,1.5-0.1,3-0.9,4.3l-12.1-8.6c-0.1,2.2-0.4,4.5-1,6.6c-0.1,0.5-0.4,0.9-0.8,1.2     c-0.6,0.1-1.1,0-1.6-0.3l-7.2-3.9c0.1,2.2-0.2,4.5-0.9,6.6c-0.2,0.6-0.5,1.2-1,1.6c-0.9,0.4-1.9,0.4-2.8,0     c-4.2-1.3-8.3-2.6-12.4-4.1c0.1,2.2-0.2,4.4-0.8,6.5c-0.1,0.4-0.3,0.8-0.7,1c-0.4,0.1-0.7,0.1-1.1,0c-2.7-0.8-5.4-1.7-8-2.8     c0.7,2.5,0.3,5.1-0.9,7.3c-1.2,2.2-2.7,4.2-4.5,6c3.1-3.9,7.2-6.9,11.9-8.6l1.1,5.6l6-6.1l0.8,3.8c0.1,0.5,0.3,1,0.8,1     c0.2,0,0.5-0.2,0.6-0.3l5.4-4.6c0.4,1.3,1.1,2.4,2,3.4l3.7-4c0.6-0.6,1.5-1.3,2.1-0.7c0.3,0.2,0.4,0.7,0.6,1c0.7,1.2,2.6,1,3.6,0     c0.9-1.1,1.3-2.4,1.4-3.8c1.1,1.5,2.5,2.8,3.9,4l1.1-3.4c0.1-0.4,0.3-0.7,0.6-0.9c0.5-0.3,1.1,0.2,1.5,0.6L232,98     c0.7-3.2,1.8-6.2,3.5-9c0.9,1.4,2,2.7,3.4,3.7c0.3-1.7,0.9-3.3,1.8-4.7c0.3-0.5,0.7-1,1.3-1.1c1.4-0.1,1.7,2.5,3.1,2.6     c0.4-0.9,1.2-2,2.1-1.6c0.3,0.1,0.5,0.3,0.7,0.6l2.8,3c0.2-1.6,2.5-1.8,3.8-1s2.1,2.3,3.5,3.1c2.1,1.1,4.7,0.2,5.8-1.9     c0,0,0,0,0,0c0.3-0.6,0.5-1.4,1.2-1.6c1.2-0.2,1.6,2,2.9,2.1c1.2-3.5,3.4-6.6,6.2-9l1.5,3.9c0.3,0.7,0.7,1.4,1.4,1.3     c0.4-0.1,0.7-0.4,0.9-0.8l4.2-5.9c-0.2,0.3,1,2.8,1.1,3.1c2-1.4,5.4-5,4-7.6c-1.2-2.2-5.8-5-7.8-6.4     C277.4,73.8,276,77.5,274.5,80.7z"></path><path opacity="0.4" fill="#fff" d="M234.1,26.1c-5.1,0.6-10.2,0.4-15.3-0.5c2.6,0.5,5,1.8,6.8,3.9c-2.6-0.1-5.2-0.7-7.6-1.9     c1.6,0.6,3,1.5,4.2,2.8h-11.5c1.5,0.4,2.9,1.4,3.8,2.7l-11.7-0.5c1.2,1.2,2,2.7,2.4,4.3c-1.7-0.6-3.2-1.5-4.6-2.6l1.2,5.9     l-5.8-2.4l0.1,6.3l-5-2.9l0.5,5.5c-1.4-0.5-2.8-1.3-3.8-2.4c0.3,2.2,0.4,4.5,0.2,6.7c-1.9-2.3-4.2-4.2-6.7-5.8     c0.3,3.4,0.9,6.7,1.7,10l-9-8.1l3.5,8.7c-1.2-2.2-2.5-4.3-4-6.2c-0.1,3.3,0.1,6.7,0.6,10l-7.1-7c-0.7,4.4-1.8,8.8-3.4,13     c-0.4,1.2-1.1,2.5-2.3,2.8c-1.4,0.4-2.7-0.7-3.4-1.9s-1.2-2.6-2.3-3.5c-3,6.2-6.6,12.2-10.6,17.8c-0.2,0.4-0.6,0.7-1,0.8     c-0.9,0.1-1.3-1-1.5-1.8c-0.6-3.8-0.6-7.6,0-11.4c-0.4,1.2-1.2,2.3-2.3,2.9c-0.3,0.2-0.7,0.2-1,0.1c-0.2-0.2-0.3-0.5-0.3-0.8     c-0.6-4.7-0.5-9.6,0.2-14.3c1,0.9,1.7,2,2.3,3.3c0.5-3.5,1.6-6.9,3.1-10.1c0.6,2.8,1.5,5.4,2.8,7.9c0.3-3.4,1.1-6.8,2.4-9.9     c1.3,2.9,4,5,7.1,5.6v-5.8c2.3,1.2,4.8,2.3,7.3,3l0.3-5.8c3.1,1.4,6.5,2.3,9.9,2.6c0.2-2-0.5-3.9-1.9-5.4     c4.9,0.4,9.8,0.5,14.6,0.4c-2.2-1.1-4.2-2.4-6-4c6.8-3,13.9-5.4,21.1-7.1c-2-0.3-3.9-1.1-5.6-2.1c4.1-1.5,8.4-2.5,12.8-2.9     c-0.6,0.2-1.2-0.1-1.4-0.7c-0.1-0.2-0.1-0.4,0-0.5c0.4-1.2,5.2-1.9,6.2-2c2.2-0.2,4.2,0.4,6.3,0.4C225.6,23,229.8,23,234.1,26.1z     "></path><path opacity="0.4" d="M151.1,114.4c-2.5-0.3-5.1,0.7-6.8,2.7c0.4-0.7,0.8-1.3,1.5-1.8c-0.8-0.1-1.7-0.1-2.5,0    c-1.2,2.9-3.1,5.4-4.8,8.1c-1.6,2.7-3.4,5.8-3,8.9c-0.8,1.1-1.1,2.5-0.8,3.9c0.2,1.4,0.6,2.7,0.8,4c0.1,1.2,0,2.5-0.2,3.7    l-1.5,12.6c-0.1,1.3-0.4,2.6-1,3.8c-0.6,0.9-1.3,1.7-2.1,2.4c-1.8,1.7-4.3,3.9-4.9,6.3c-0.8,3.2-0.7,6.6,0.3,9.8    c0.5,1.5,1.1,2.9,1.5,4.4c1.2,5.5-1.5,10.8-1.5,16.4c-1.4-4.8-3.2-9.5-5.4-14c-2.2-4.5-5.4-8.5-9.4-11.6c-0.8-0.6-1.4-0.8-2.2-1.3    c1-2.2,0.4-4.8,0-7.3c-0.4-3.1-0.6-6.2-0.6-9.3l-0.8-40.9c4.8-3.3,9.6-6.4,14.6-9.4c4-2.4,8.2-4.8,12.9-5    c5.9-0.2,11.5,3.2,14.7,8.1c0.7,1.1,1.3,2.3,1.5,3.5C151.2,113.2,151.2,113.8,151.1,114.4z"></path><path opacity="0.4" d="M295.1,107.3c-1,3.2-1.2,6.7-1.3,10c-0.2,4.2-0.3,8.3-0.3,12.5c0,0.9,0,1.8-0.1,2.7c-0.2,1.1-0.6,2.1-0.8,3.1    c-0.3,1.1-0.4,2.3-0.4,3.4c0,0.9-0.4,1.6-0.4,2.5c0,0.7,0.1,1.4,0.2,2c0.3,1.5,0.8,3.2,0.3,4.7c-0.1,0.4-0.4,0.8-0.5,1.3    c-0.2,0.8-0.4,1.6-0.4,2.4c-0.2,2.7,0.9,5.3,0,7.8c-0.4,1.2-0.4,2.5,0.1,3.7c0.2,0.4,0.4,0.9,0.5,1.4c0.1,1.1-0.7,2-0.9,3    c-0.1,0.6-0.1,1.2-0.1,1.7c0,1.2-0.3,2.3-0.9,3.3c0,0.2-0.4,0.2-0.6,0.2c-1-0.1-1.9,0.7-2,1.7v0c-1.2,0-2.4,0.4-3.3,1.3    c-0.9,0.8-1.3,1.9-1.3,3.1c-0.9,0.8-1.5,1.8-1.7,3c-0.2,1.3-0.2,2.5-0.1,3.8c0,4.7-2.2,9.2-4.3,13.4c-0.1,0.1-0.2,0.3-0.3,0.3    c-0.1,0-0.1,0-0.2-0.1c-0.8-0.5-0.9-1.7-0.8-2.6l0.1-4.2c0.1-3.1,0.2-6.2,0.5-9.2s1.3-6.2,1.2-9.2c0-1.8-0.1-3.6-0.2-5.4    c0-0.6-0.1-1.1-0.3-1.7c-0.3-0.6-0.7-1.1-1.2-1.6c-1.2-1.2-2.5-2.5-4.2-2.6c-0.1-0.6-0.4-1.2-0.9-1.5c-0.5-0.4-1-0.7-1.5-1.1    c-1-1-1.7-2.3-1.9-3.7c-0.9-3.9-1.3-8-1.1-12c0-1.5-0.4-3.7,0.6-4.8c1.2-1.1,1.8-2.8,1.5-4.5c-0.3-1.3-0.8-2.5-1.4-3.7    c-1-2-1.3-4.6-2.3-6.6c-1.8-3.6-4.7-6.5-8.3-8.4c1.3,0.4,2.5,0.7,3.8,1c-0.3-0.7-0.9-1.3-1.6-1.7c-1.3-0.9-2.7-1.6-4-2.5    c-3.6-2.5-7.4-4.5-11.5-6.1c1.2,0.3,2.5,0.4,3.7,0.2c-0.2-0.3-0.5-0.5-0.8-0.6c8.4-1.1,16.7-3.6,24.3-7.4c1.1,1.6,2.4,3,4,4    c1.7,1,3.7,1.3,5.7,1.6C284.6,106.4,289.8,106.9,295.1,107.3z"></path><path fill="#472121" stroke="#000" stroke-miterlimit="10" d="M267.39,156.59c-9.35-4.94-43.21,6.9-50.85,7.79s-8.07-8.17-8.07-8.17a13,13,0,0,1,2.22-1.15c10-4.2,36.57-6,44.49-5.21a18.37,18.37,0,0,1,6.74,2A15,15,0,0,1,267.39,156.59Z" class="canChange" style="fill:null"></path><path fill="#472121" stroke="#000" stroke-miterlimit="10" d="M191.53,156.21s-.44,9.06-8.07,8.17-41.5-12.73-50.85-7.79a16,16,0,0,1,9-6.14,19.4,19.4,0,0,1,3.17-.6c8.51-.89,38.55,1.3,46.44,6.18Z" class="canChange" style="fill:null"></path><path opacity="0.32" d="M191.26,156l.27.18s-.44,9.06-8.07,8.17-41.5-12.73-50.85-7.79a16,16,0,0,1,9-6.14c8.33,3.47,32.66,13,42.11,9.14A55.94,55.94,0,0,0,191.26,156Z" class="cls-overlay"></path><path opacity="0.32" d="M267.39,156.59c-9.35-4.94-43.21,6.9-50.85,7.79s-8.07-8.17-8.07-8.17a13,13,0,0,1,2.22-1.15c4.25,3.25,11.35,6.8,20.28,4.21,14.85-4.32,22.25-8.11,31-7.41A15,15,0,0,1,267.39,156.59Z" class="cls-overlay"></path><path fill="#72004d" opacity="0.32" d="M222.16,160.91a36.3,36.3,0,0,0-7.23,7.85c-1.86,2.66-4.33,5.88-3.52,9.21.65,2.61,2.94,4.69,5.3,6.13,0,0,1.34-4,2.8-4.92s14.06-6.52,16.9-5.18c0,0-8-6.91-2.92-8.71,0,0-9.32-.62,3.47-5.47-.37.14-2.53-.85-3-1a16.85,16.85,0,0,0-6.89-.28A11.32,11.32,0,0,0,222.16,160.91Z" class="cls-overlay"></path><g opacity="0.32" class="cls-overlay show"><path fill="#72004d" d="M218.53,176.34a23.05,23.05,0,0,1,7.67-8,34.72,34.72,0,0,1,10.21-4.56,32,32,0,0,1,11.15-.93A23.16,23.16,0,0,1,258,166.5a25.42,25.42,0,0,0-10.54-3.08,32.59,32.59,0,0,0-10.9,1.07,36.06,36.06,0,0,0-10.09,4.32c-.39.25-.79.47-1.17.73l-1.11.83a19.77,19.77,0,0,0-2.11,1.77,20,20,0,0,0-1.93,2,8.17,8.17,0,0,0-.85,1.09Z"></path></g><path fill="#72004d" opacity="0.32" d="M249,187.24s-4.26,2.75-11.72,1.83" class="cls-overlay"></path><path d="M239.69,184.54s8.12.82,10.61-.95,8-11.94,9.83-12.53c0,0-6.09-2.8-15.51-2.36s-18.17-.7-22.93,5"></path><path fill="#f0e1ef" d="M258.76,171.11s-1.52,2.06-3.63,4.55c-3.06,3.61-7.33,8.12-9.95,8.57a59.85,59.85,0,0,1-14.85.51c-3.8-.31-8-.47-11.91-1.1a32.75,32.75,0,0,1-3.36-.69,14.51,14.51,0,0,1,1.4-2.94l.45-.83c.3-.53.53-.92.6-1l.11-.15c2.32-3.15,5.6-6,9-6.89C228.55,170.6,253.81,168.31,258.76,171.11Z"></path><path fill="#ffc09e" d="M218.42,183.64a32.75,32.75,0,0,1-3.36-.69,14.51,14.51,0,0,1,1.4-2.94l.45-.83A9,9,0,0,0,218.42,183.64Z"></path><g class="cls-path-cs4-male-9R show"><ellipse fill="#7d4426" stroke="#000" stroke-miterlimit="10" cx="236.8" cy="175.44" rx="9.4" ry="8.24" transform="translate(-7.29 10.29) rotate(-2.45)" class="canChange" style="fill:null"></ellipse><ellipse cx="236.75" cy="174.61" rx="6.57" ry="5.76" transform="translate(-7.25 10.29) rotate(-2.45)"></ellipse></g><path opacity="0.4" d="M258.76,171.11s-1.52,2.06-3.63,4.55c-15.39-2.8-30.68,1.45-38.67,4.35.49-.91.94-1.71,1-1.86l.11-.15c2.32-3.15,5.6-6,9-6.89C228.55,170.6,253.81,168.31,258.76,171.11Z"></path><ellipse fill="#fff" cx="232.25" cy="174.38" rx="2.24" ry="1.96" transform="matrix(1, -0.04, 0.04, 1, -7.25, 10.1)"></ellipse><path fill="#72004d" opacity="0.32" d="M177.84,161.79a36,36,0,0,1,7.23,7.84c1.86,2.67,4.33,5.89,3.52,9.22-.65,2.61-2.94,4.69-5.3,6.13,0,0-1.34-4-2.8-4.92s-14.06-6.52-16.9-5.18c0,0,8-6.91,2.92-8.71,0,0,9.32-.62-3.47-5.47.37.14,2.53-.86,3-1a16.85,16.85,0,0,1,6.89-.28A11.21,11.21,0,0,1,177.84,161.79Z" class="cls-overlay"></path><g opacity="0.32" class="cls-overlay show"><path fill="#72004d" d="M181.47,177.22l-.81-1.13a8.27,8.27,0,0,0-.85-1.1,18.91,18.91,0,0,0-1.93-2,21.12,21.12,0,0,0-2.11-1.78l-1.11-.82c-.38-.26-.78-.49-1.17-.73a36.06,36.06,0,0,0-10.09-4.32,32.59,32.59,0,0,0-10.9-1.07A25.42,25.42,0,0,0,142,167.38a23.16,23.16,0,0,1,10.48-3.66,31.75,31.75,0,0,1,11.15.93,34.72,34.72,0,0,1,10.21,4.56A23,23,0,0,1,181.47,177.22Z"></path></g><path fill="#72004d" opacity="0.32" d="M151,188.12s4.26,2.75,11.72,1.83" class="cls-overlay"></path><path d="M160.31,185.42s-8.12.81-10.61-.95-8-11.94-9.83-12.53c0,0,6.09-2.8,15.51-2.36s18.17-.7,22.93,4.95"></path><path fill="#f0e1ef" d="M141.24,172s1.52,2.06,3.63,4.55c3.06,3.6,7.33,8.12,9.95,8.57a59.37,59.37,0,0,0,14.85.5c3.8-.3,8-.46,11.91-1.09q1.72-.27,3.36-.69a14.51,14.51,0,0,0-1.4-2.94l-.45-.83c-.3-.53-.53-.93-.6-1l-.11-.15c-2.32-3.15-5.6-6-9-6.89C171.45,171.48,146.19,169.18,141.24,172Z"></path><path fill="#ffc09e" d="M181.58,184.52q1.72-.27,3.36-.69a14.51,14.51,0,0,0-1.4-2.94l-.45-.83A9,9,0,0,1,181.58,184.52Z"></path><g class="cls-path-cs4-male-9L show"><ellipse fill="#7d4426" stroke="#000" stroke-miterlimit="10" cx="163.2" cy="176.32" rx="8.24" ry="9.4" transform="translate(-19.94 331.82) rotate(-87.55)" class="canChange" style="fill:null"></ellipse><ellipse cx="163.25" cy="175.48" rx="5.76" ry="6.57" transform="translate(-19.06 331.07) rotate(-87.55)"></ellipse></g><path opacity="0.4" d="M141.24,172s1.52,2.06,3.63,4.55c15.39-2.8,30.68,1.45,38.67,4.35-.49-.91-.94-1.71-1-1.86l-.11-.15c-2.32-3.15-5.6-6-9-6.89C171.45,171.48,146.19,169.18,141.24,172Z"></path><ellipse fill="#fff" cx="167.75" cy="175.25" rx="1.96" ry="2.24" transform="translate(-14.51 335.36) rotate(-87.55)"></ellipse><path fill="#8c2f72" opacity="0.6" d="M175.31,260.61s7.25,14.8,23.84,14.8,25.45-15,25.45-15-9.74,6.67-25.14,6.67S175.31,260.61,175.31,260.61Z" class="cls-multipy"></path><path fill="#ba7070" d="M165.42,242.82s6,16.39,13.17,23.46c9,9,27.51,9,39.47,2.74,6.88-3.56,14.82-25.12,14.82-25.12l-33.42,13.37Z" class="canChange" style="fill:null"></path><path d="M232.88,240.38s-10.19,5.88-33.42,5.88v0c-23.22,0-33.41-5.88-33.41-5.88-2.29.39,0,3.52,0,3.52,12.54,23.74,49.5,27.9,66.83,0C232.88,243.9,235.17,240.77,232.88,240.38Z"></path><path fill="#fff" d="M170.3,242.17v3s10.37,8.9,29.16,8.9,28-8.51,28-8.51l.61-3.2a102.46,102.46,0,0,1-28.65,3.92A104.6,104.6,0,0,1,170.3,242.17Z"></path><path fill="#742637" d="M167.35,241s9-.3,32.6-.3,32.39-.05,32.39-.05-11.26,5.6-32.88,5.6S167.35,241,167.35,241Z" class="canChange" style="fill:null"></path><path fill="#8c2f72" opacity="0.6" d="M230.2,237.46s4.43,4.15,5.72,7.22c0,0,.72-5.38-2.86-7.94Z" class="cls-multipy"></path><path fill="#8c2f72" opacity="0.6" d="M169,237.46s-4.44,4.15-5.72,7.22c0,0-.72-5.38,2.86-7.94Z" class="cls-multipy"></path><path fill="#ffd9d9" d="M213.66,263.61s2.9,1.44,5.42.36,6.65-7.58,6.65-7.58S216.38,261.9,213.66,263.61Z" class="cls-softlight"></path><path fill="#1f0502" stroke="#000" stroke-miterlimit="10" d="M242.43,237.1a7.76,7.76,0,0,1-3.22,3.82c-3.46,2.39-7.85,3.49-12.51,4.15-9.07,1.29-17.49-.2-25.57-3a3.12,3.12,0,0,0-2.06-.08l-.27.08a55.86,55.86,0,0,1-19.55,3.42c-6.37-.14-12.44-1.1-17.56-4-2.25-1.25-3.87-3.1-4.12-4.59a18.81,18.81,0,0,0,4,1.57,20.19,20.19,0,0,0,2.55.48,25.15,25.15,0,0,0,12.82-2.1c2.51-1.07,4.93-2.26,7.43-3.35a21.16,21.16,0,0,1,9.16-2.18c.4,0,.83,0,1.23.08,1.49.14,3,.43,4.46.61l.13,0a3.48,3.48,0,0,0,1.24,0,21,21,0,0,1,14.65,1.27c3.16,1.37,6.21,2.86,9.45,4.12a22.11,22.11,0,0,0,13.21,1.13C239.43,238.27,240.88,237.62,242.43,237.1Z" class="canChange" style="fill:null"></path><path fill="#a847b4" opacity="0.32" d="M200,232l-.23,9.93-.27.08a55.78,55.78,0,0,1-19.55,3.42c-6.37-.14-12.44-1.09-17.56-4-2.25-1.25-3.87-3.1-4.11-4.59a18.6,18.6,0,0,0,4,1.57,50.66,50.66,0,0,0,12,3.58c15.25,2.88,19.83-6.13,21.15-10.65,1.49.15,3,.43,4.45.61Z" class="cls-multipy"></path><path fill="#a847b4" opacity="0.32" d="M200,232l.23,9.93.27.08A55.78,55.78,0,0,0,220,245.46c6.37-.14,12.44-1.09,17.56-4,2.25-1.25,3.87-3.1,4.11-4.59a18.6,18.6,0,0,1-3.95,1.57,50.66,50.66,0,0,1-12,3.58c-15.25,2.88-19.83-6.13-21.15-10.65-1.49.15-3,.43-4.45.61Z" class="cls-multipy"></path><path fill="#ffecbf" stroke="#000" stroke-miterlimit="10" d="M400.25,400H0s1.88-6.95,3.45-13.07c-.11-.89-.23-1.77-.35-2.66l1,.11c.62-2.49,1.14-4.62,1.35-5.74.12-.64,3.42-2.14,8.89-4.23,4-1.56,9.31-3.42,15.35-5.49l2.87-1c13.28-4.52,29.84-9.87,45.82-15a1.17,1.17,0,0,0,.2-.06l.66-.2,1.34-.44,2.74-.87,5.6-1.77,2.37-.76,1.16-.37L94,348l5.5-1.73,7.06-2.24,6.88-2.19,5.32-1.69,1.1-2.06h0c4.39-.76,8.3-1.45,11.63-2,2.21-.4,4.15-.75,5.79-1.08,2.34-.45,4.08-.8,5.08-1.06a5.55,5.55,0,0,0,2.16-1.15l2.87,1.47L158.58,340l7.61,3.9,4.48,2.3,4.61,2.37,1.19.62h0l1.33.67,21.58,11.07.73.38,1.81-.88,5.5-2.69,15.2-7.43,3.28-1.61,3.86-1.89,5.51-2.69h0l21.64-10.58a5.31,5.31,0,0,0,1,.37c.87.22,2.28.52,4.18.89l1,.19c1.64.31,3.57.67,5.75,1.06l6.52,1.16.45,1.11,10.69,3.42,3.06,1h0c4.1,1.3,8.51,2.69,13.14,4.17h0l3.56,1.12,2.43.78,3.07,1c.33.11.67.21,1,.33l1.51.47,5.74,1.82,2.52.81L327,354.6l2.53.81c10.27,3.29,20.54,6.62,29.78,9.7,6.48,2.16,12.47,4.19,17.6,6s9.29,3.35,12.37,4.6c3.45,1.41,5.46,2.42,5.55,2.93.37,1.94,1.64,6.89,2.85,11.55,0,.21.11.42.17.64h0C399.09,395.66,400.25,400,400.25,400Z" class="canChange" style="fill:null"></path><polygon fill="#d9bea3" stroke="#000" stroke-miterlimit="10" points="201.14 364.82 209.25 319.3 239.93 348.54 201.14 364.82" class="canChange" style="fill:null"></polygon><polygon fill="#d9bea3" stroke="#000" stroke-miterlimit="10" points="200.08 364.82 191.97 319.3 161.3 348.54 200.08 364.82" class="canChange" style="fill:null"></polygon><path fill="#d0b1c7" opacity="0.32" d="M154.88,357.37s48,26,83.18,0-20.4-34.4-20.4-34.4l-13.92,41.37-10.2-3L181,329" class="cls-multipy"></path><polygon fill="#ffdfbf" stroke="#000" stroke-miterlimit="10" points="276.04 338.91 265.04 346.66 265.04 346.67 235.86 367.23 231.36 352.13 229.76 346.8 228.25 341.72 224.48 337.3 209.23 319.41 209.22 319.4 209.23 319.39 209.24 319.39 209.3 319.36 209.31 319.36 223.87 312.8 223.88 312.79 258.69 297.08 258.94 297.67 258.94 297.68 275.34 337.2 275.8 338.31 276.04 338.91" class="canChange" style="fill:null"></polygon><polygon fill="#ffdfbf" stroke="#000" stroke-miterlimit="10" points="191.03 319.4 187.4 323.65 187.38 323.68 187.37 323.69 177.83 334.89 172.01 341.72 171.56 343.19 170.67 346.18 169.7 349.44 169 351.77 164.39 367.23 146.29 352.06 144.74 350.76 118.73 340.15 119.83 338.1 119.84 338.1 125.22 328.17 141.32 297.53 141.56 297.08 155.38 303.31 171.5 310.58 180.97 314.86 191.03 319.4" class="canChange" style="fill:null"></polygon><path fill="#563f3f" opacity="0.32" d="M181,314.86s-26.18,1.64-33.6,19.36c-2,4.72-2.61,10.58-1.08,17.84,0,0-16.17,1.9-36,5.67-9.59,1.82-20,4.09-29.93,6.79-6.53,1.78-12.83,3.76-18.48,5.93-12.62,4.84-22,10.63-23.38,17.36a6.83,6.83,0,0,0-.19,1.27c-.08,1.3-.16,2.54-.24,3.71-.18,2.75-.34,5.14-.46,7.21H0s1.88-6.95,3.45-13.07c-.11-.89-.23-1.77-.35-2.66l1,.11c.62-2.49,1.14-4.62,1.35-5.74.12-.64,3.42-2.14,8.89-4.23,4-1.56,9.31-3.42,15.35-5.49l2.87-1c13.28-4.52,29.84-9.87,45.82-15a1.17,1.17,0,0,0,.2-.06l.66-.2,1.34-.44,2.74-.87,5.6-1.77,2.37-.76,1.16-.37L94,348l5.5-1.73,7.06-2.24,6.88-2.19,5.32-1.69,1.1-2.06h0l5.38-9.92,16.1-30.64.24-.45,13.82,6.23,16.12,7.27Z" class="cls-multipy"></path><path fill="#563f3f" opacity="0.32" d="M400.25,400H346.57a18.25,18.25,0,0,0-1.58-6.94c-3.32-7.63-11.48-14.76-21.39-21-3.78-2.38-7.79-4.63-11.9-6.75a271.38,271.38,0,0,0-28.38-12.39c-10.62-4-18.28-6.23-18.28-6.23h0a18.27,18.27,0,0,0-3-11.87c-9.53-15.14-38.22-22-38.22-22h0l34.81-15.71.25.59h0l16.4,39.52.45,1.11,10.69,3.42,3.06,1h0c4.1,1.3,8.51,2.69,13.14,4.17h0l3.56,1.12,2.43.78,3.07,1c.33.11.67.21,1,.33l1.51.47,5.74,1.82,2.52.81L327,354.6l2.53.81c10.27,3.29,20.54,6.62,29.78,9.7,6.48,2.16,12.47,4.19,17.6,6s9.29,3.35,12.37,4.6c3.45,1.41,5.46,2.42,5.55,2.93.37,1.94,1.64,6.89,2.85,11.55,0,.21.11.42.17.64h0C399.09,395.66,400.25,400,400.25,400Z" class="cls-multipy"></path><g opacity="0.38" class="show"><path d="M213.71,197.7a58.37,58.37,0,0,1,3.81,6.83,44.16,44.16,0,0,1,2.78,7.34,17.86,17.86,0,0,1,.59,3.93,5.71,5.71,0,0,1-1.1,3.88c-.89,1-1.8,1.91-2.77,2.79a18.43,18.43,0,0,1-1.56,1.2,5.11,5.11,0,0,1-1.75.86,9.92,9.92,0,0,0,3-2.33,37,37,0,0,0,2.58-2.89,5.43,5.43,0,0,0,.87-3.49,17.91,17.91,0,0,0-.63-3.76,50.67,50.67,0,0,0-2.58-7.3C216,202.38,214.87,200,213.71,197.7Z"></path></g><g opacity="0.38" class="show"><path d="M185.87,198.68c-1.16,2.33-2.27,4.68-3.28,7.06A48.64,48.64,0,0,0,180,213a17.41,17.41,0,0,0-.64,3.76,5.41,5.41,0,0,0,.87,3.49,35.46,35.46,0,0,0,2.58,2.89,9.91,9.91,0,0,0,3.05,2.34,5.11,5.11,0,0,1-1.75-.86,17.94,17.94,0,0,1-1.55-1.21,36.33,36.33,0,0,1-2.77-2.78,5.68,5.68,0,0,1-1.11-3.89,18.29,18.29,0,0,1,.59-3.92,44.83,44.83,0,0,1,2.78-7.35A59.06,59.06,0,0,1,185.87,198.68Z"></path></g><g opacity="0.38" class="show"><path d="M211.22,224.84a18.33,18.33,0,0,0,1.92-1.81,2.55,2.55,0,0,0,.65-1.06c.07-.33-.47-.35-.86-.32a9.35,9.35,0,0,0-4.62,2.19l-4.18,3.25c-.7.55-1.39,1.07-2.08,1.63a9,9,0,0,1-1.16.78,2.32,2.32,0,0,1-1.53.25,4.14,4.14,0,0,1-1.3-.63c-.37-.23-.73-.47-1.1-.74-.72-.53-1.47-1-2.16-1.59-1.39-1.08-2.8-2.14-4.18-3.24s-2.89-2.09-4.61-2.2c-.4,0-.93,0-.86.32a2.66,2.66,0,0,0,.64,1.05,19.3,19.3,0,0,0,1.92,1.81,14.9,14.9,0,0,1-2.06-1.67,2.8,2.8,0,0,1-.78-1.15.53.53,0,0,1,.09-.43.67.67,0,0,1,.35-.22A2.25,2.25,0,0,1,186,221a6.29,6.29,0,0,1,2.63.71,18.12,18.12,0,0,1,2.29,1.39c1.44,1,2.85,2.11,4.28,3.16.71.55,1.42,1,2.13,1.53.34.25.72.51,1.1.74a3.83,3.83,0,0,0,1.07.51c.66.16,1.41-.35,2.09-.87s1.41-1.08,2.11-1.61c1.42-1.06,2.8-2.16,4.26-3.17s3.06-2,4.93-2.08a2.17,2.17,0,0,1,.71.07.79.79,0,0,1,.36.23.52.52,0,0,1,.09.43,2.76,2.76,0,0,1-.78,1.14A13.83,13.83,0,0,1,211.22,224.84Z"></path></g><path fill="#72004d" opacity="0.17" d="M183.73,203.31s3,14.3,4.4,15.81,20.8,3.73,24.09,1,3.43-18.81,3.43-18.83c0,.33,1,1.42,1.18,1.68a30.38,30.38,0,0,1,2.38,4.44c1.67,3.86,2.57,8.57.79,12.64-2,4.56-6.4,6.88-9.76,9.49-3.05,2.35-6,5-9.41,6.5s-6.5-.74-9.6-2.79c-4.61-3.06-11.09-7.47-12-14.61a21,21,0,0,1,.64-7.46,19.86,19.86,0,0,1,2.19-6.17A23.6,23.6,0,0,1,183.73,203.31Z" class="canChange cls-overlay" style="fill:null"></path><path opacity="0.42" d="M190.31,222.91s-6.88-3.39-5-.65S190.31,222.91,190.31,222.91Z" class="cls-overlay"></path><path opacity="0.42" d="M208.6,223.21s6.89-3.39,5-.65S208.6,223.21,208.6,223.21Z" class="cls-overlay"></path><path fill="#72004d" opacity="0.17" d="M209.8,172.43s-4.35,3.62-1.09,8.15l2.18,2.72S206.54,177.86,209.8,172.43Z" class="canChange cls-overlay" style="fill:null"></path><path fill="#72004d" opacity="0.17" d="M188.05,169.72s6.53,3.62,6.53,9.95-6.53,17.2-6.53,17.2,4.35-11.76,3.26-18.1S188.05,169.72,188.05,169.72Z" class="canChange cls-overlay" style="fill:null"></path></svg>